<?xml version="1.0" encoding="UTF-8" standalone="no"?>
<!-- Created with Inkscape (http://www.inkscape.org/) -->

<svg
   width="1920"
   height="1080"
   viewBox="0 0 507.99999 285.75"
   version="1.1"
   id="svg5"
   inkscape:version="1.2.1 (9c6d41e410, 2022-07-14)"
   sodipodi:docname="bluebg.svg"
   xmlns:inkscape="http://www.inkscape.org/namespaces/inkscape"
   xmlns:sodipodi="http://sodipodi.sourceforge.net/DTD/sodipodi-0.dtd"
   xmlns:xlink="http://www.w3.org/1999/xlink"
   xmlns="http://www.w3.org/2000/svg"
   xmlns:svg="http://www.w3.org/2000/svg">
  <sodipodi:namedview
     id="namedview7"
     pagecolor="#ffffff"
     bordercolor="#666666"
     borderopacity="1.0"
     inkscape:showpageshadow="2"
     inkscape:pageopacity="0.0"
     inkscape:pagecheckerboard="0"
     inkscape:deskcolor="#d1d1d1"
     inkscape:document-units="px"
     showgrid="false"
     inkscape:zoom="0.36435887"
     inkscape:cx="782.19587"
     inkscape:cy="292.29425"
     inkscape:window-width="1920"
     inkscape:window-height="1001"
     inkscape:window-x="-9"
     inkscape:window-y="-9"
     inkscape:window-maximized="1"
     inkscape:current-layer="layer1" />
  <defs
     id="defs2">
    <inkscape:path-effect
       effect="skeletal"
       id="path-effect5080"
       is_visible="true"
       lpeversion="1"
       pattern="M 0,4.9921383 C 0,2.2364779 2.2364779,0 4.9921383,0 c 2.7556603,0 4.9921382,2.2364779 4.9921382,4.9921383 0,2.7556603 -2.2364779,4.9921382 -4.9921382,4.9921382 C 2.2364779,9.9842765 0,7.7477986 0,4.9921383 Z"
       copytype="single_stretched"
       prop_scale="-0.37597915"
       scale_y_rel="false"
       spacing="0"
       normal_offset="0"
       tang_offset="0"
       prop_units="false"
       vertical_pattern="false"
       hide_knot="false"
       fuse_tolerance="0" />
    <inkscape:path-effect
       effect="simplify"
       id="path-effect5076"
       is_visible="true"
       lpeversion="1"
       steps="1"
       threshold="0.00108696"
       smooth_angles="360"
       helper_size="0"
       simplify_individual_paths="false"
       simplify_just_coalesce="false" />
    <inkscape:path-effect
       effect="skeletal"
       id="path-effect5070"
       is_visible="true"
       lpeversion="1"
       pattern="M 0,4.9921383 C 0,2.2364779 2.2364779,0 4.9921383,0 c 2.7556603,0 4.9921382,2.2364779 4.9921382,4.9921383 0,2.7556603 -2.2364779,4.9921382 -4.9921382,4.9921382 C 2.2364779,9.9842765 0,7.7477986 0,4.9921383 Z"
       copytype="single_stretched"
       prop_scale="-0.37597915"
       scale_y_rel="false"
       spacing="0"
       normal_offset="0"
       tang_offset="0"
       prop_units="false"
       vertical_pattern="false"
       hide_knot="false"
       fuse_tolerance="0" />
    <inkscape:path-effect
       effect="simplify"
       id="path-effect5066"
       is_visible="true"
       lpeversion="1"
       steps="1"
       threshold="0.00108696"
       smooth_angles="360"
       helper_size="0"
       simplify_individual_paths="false"
       simplify_just_coalesce="false" />
    <inkscape:path-effect
       effect="skeletal"
       id="path-effect4897"
       is_visible="true"
       lpeversion="1"
       pattern="M 0,4.9921383 C 0,2.2364779 2.2364779,0 4.9921383,0 c 2.7556603,0 4.9921382,2.2364779 4.9921382,4.9921383 0,2.7556603 -2.2364779,4.9921382 -4.9921382,4.9921382 C 2.2364779,9.9842765 0,7.7477986 0,4.9921383 Z"
       copytype="single_stretched"
       prop_scale="-0.37597915"
       scale_y_rel="false"
       spacing="0"
       normal_offset="0"
       tang_offset="0"
       prop_units="false"
       vertical_pattern="false"
       hide_knot="false"
       fuse_tolerance="0" />
    <inkscape:path-effect
       effect="simplify"
       id="path-effect4895"
       is_visible="true"
       lpeversion="1"
       steps="1"
       threshold="0.00108696"
       smooth_angles="360"
       helper_size="0"
       simplify_individual_paths="false"
       simplify_just_coalesce="false" />
    <inkscape:path-effect
       effect="simplify"
       id="path-effect4891"
       is_visible="true"
       lpeversion="1"
       steps="1"
       threshold="0.00108696"
       smooth_angles="360"
       helper_size="0"
       simplify_individual_paths="false"
       simplify_just_coalesce="false" />
    <linearGradient
       inkscape:collect="always"
       id="linearGradient4758">
      <stop
         style="stop-color:#82eff1;stop-opacity:1;"
         offset="0"
         id="stop4754" />
      <stop
         style="stop-color:#82eff1;stop-opacity:0;"
         offset="1"
         id="stop4756" />
    </linearGradient>
    <linearGradient
       inkscape:collect="always"
       id="linearGradient1145">
      <stop
         style="stop-color:#ecffff;stop-opacity:1;"
         offset="0"
         id="stop1141" />
      <stop
         style="stop-color:#ffffff;stop-opacity:0;"
         offset="1"
         id="stop1143" />
    </linearGradient>
    <linearGradient
       inkscape:collect="always"
       xlink:href="#linearGradient1145"
       id="linearGradient1149"
       x1="14.539144"
       y1="155.06378"
       x2="518.51471"
       y2="43.126534"
       gradientUnits="userSpaceOnUse" />
    <linearGradient
       inkscape:collect="always"
       xlink:href="#linearGradient4758"
       id="linearGradient4760"
       x1="258.27722"
       y1="268.54672"
       x2="218.73976"
       y2="26.187155"
       gradientUnits="userSpaceOnUse" />
  </defs>
  <g
     inkscape:label="圖層 1"
     inkscape:groupmode="layer"
     id="layer1">
    <rect
       style="fill:url(#linearGradient4760);fill-opacity:1;stroke:none;stroke-width:1.052;stroke-linecap:round;stroke-linejoin:round;stroke-dasharray:none;stroke-dashoffset:0;stroke-opacity:1"
       id="rect4446"
       width="508"
       height="285.75"
       x="-1.9792682e-07"
       y="1.0269469" />
    <path
       style="fill:url(#linearGradient1149);stroke:none;stroke-width:1.05199999;stroke-linecap:round;stroke-linejoin:round;stroke-dasharray:none;stroke-dashoffset:0;stroke-opacity:1;fill-opacity:1"
       id="path962"
       d="m 19.62438,246.02161 c 0.116524,2.16158 3.327769,8.24504 4.846159,8.4785 3.149395,1.01563 4.99264,1.76846 8.259518,0.77189 14.255279,-9.84134 25.888931,-27.94857 33.48475,-40.47443 7.732153,-11.52454 -2.97508,-17.32186 -2.021109,-14.27913 4.27578,4.63686 3.321194,-7.99792 10.718351,-8.2034 12.598324,4.34091 16.204241,20.57232 19.569998,33.28885 4.720764,3.89098 0.923959,3.59663 1.997258,4.53029 3.615265,2.30855 9.444935,-3.42443 10.888715,-4.2667 8.35562,-5.4522 21.6603,-11.65061 24.38804,-21.16547 0.24481,-1.01401 -1.46246,-1.95243 -1.09888,-2.93016 0.48032,-1.29169 2.17722,-1.69761 3.17372,-2.64952 4.37369,-4.17797 10.79956,-11.08411 14.83963,-15.3492 1.33909,-2.10368 3.78443,-3.82822 4.01728,-6.31105 0.37575,-4.00649 -4.32382,-7.79845 -7.8933,-7.88592 -6.19105,-0.15169 -1.31872,4.53807 -0.0554,5.133 1.49906,0.70594 3.29814,0.32331 4.94719,0.48496 2.93082,-1.47835 5.53242,-1.2477 2.58885,-4.86882 -0.58223,-0.71625 -1.53321,-1.62939 -2.41469,-1.3555 -4.92968,1.53173 0.37285,6.05626 1.43673,6.85378 44.19353,22.21354 -16.0587,71.33096 17.69779,82.14586 3.07544,-9.38245 10.23344,-0.19785 21.09816,-0.27408 31.34304,-0.80009 25.74704,-26.31056 40.41677,-29.84828 68.7926,-14.16678 119.48062,-49.93195 162.37658,-94.00607 26.35464,-25.85375 63.02006,-52.83599 78.13421,-58.861526 3.38228,-1.399526 7.70234,-0.851491 10.14682,-4.19858 30.06733,-40.757325 -6.84016,-2.333898 -12.52482,0.531617 -5.64382,2.989012 -13.16607,0.816455 -18.83762,3.793135 -29.82965,15.655909 -38.68893,31.248384 -62.328,55.084054 -48.52682,52.3516 -115.36553,78.11121 -158.58078,94.18092 -21.03522,12.59675 -27.33902,32.66945 -48.01703,28.49153 -42.30191,-4.14475 -8.24406,-67.99426 -30.87367,-80.67265 -0.37807,-0.15539 -1.20219,-0.1393 -1.10301,-0.53585 0.0168,-0.0668 2.57491,-0.63851 2.64937,-0.40285 0.14232,0.4504 -0.70958,0.62361 -1.06439,0.93542 -1.42869,0.21172 -2.85824,0.4177 -4.28608,0.63516 -0.89815,0.13679 -1.78386,0.46024 -2.69179,0.42758 -0.18607,-0.006 -0.36004,-0.51922 -0.17421,-0.5307 1.40096,-0.0865 6.65534,0.009 6.12747,3.35528 -0.34391,2.18038 -2.60103,3.56706 -3.90154,5.3506 -2.49077,2.83157 -4.94223,5.69821 -7.47229,8.49473 -2.35474,2.60274 -5.06196,4.90303 -7.18058,7.70134 -1.18975,1.57146 -1.76772,3.52348 -2.65159,5.28524 0.26387,0.0938 0.91965,0.0324 0.79161,0.28138 -5.23128,8.94475 -31.224339,25.10852 -32.060022,21.71806 -2.367494,-9.06224 -11.148951,-19.49267 -10.496019,-27.8778 -22.458506,-3.77607 -13.080954,-0.4901 -23.608785,15.93831 -7.085344,12.95143 -18.758242,33.10306 -31.168014,39.66148 -13.62612,3.16559 -10.643883,-18.50401 -16.650663,-26.2968 15.334289,3.3855 5.762138,14.27633 4.559313,19.69152 z"
       sodipodi:nodetypes="ccccccccccsscssscssccccccccscccccscsccscsscccccccc" />
    <path
       style="fill:#000000;stroke:none;stroke-width:0.264583px;stroke-linecap:butt;stroke-linejoin:miter;stroke-opacity:1;fill-opacity:0.14795919"
       d="m 22.511002,17.609413 c 0.371187,0.231758 1.368971,-0.963932 2.891551,-1.204233 0.564062,-0.125331 1.232843,-0.02181 2.009819,0.255225 0.999506,0.361363 1.874227,0.984621 3.140899,1.837632 0.745409,0.525326 1.742791,1.319464 2.949942,1.956017 0.387365,0.277242 1.151264,0.575316 2.311933,0.610862 0.601592,-0.09775 1.103184,-0.28004 1.495809,-0.519931 0.317831,-0.194192 0.561505,-0.424448 0.729221,-0.674402 0.721768,-0.915082 1.09001,-1.814546 1.294812,-2.532658 0.60637,-1.823157 0.837358,-2.995435 1.422782,-4.246959 0.50016,-1.085231 1.137129,-1.917609 1.849644,-2.49652 0,0 0,0 1e-6,0 1.693887,-1.4574918 3.630066,-1.7058566 3.62087,-2.2146574 -0.0092,-0.5088007 -1.90407,-1.4238478 -4.966576,-0.030705 0,3e-7 -1e-6,4e-7 -1e-6,4e-7 -1.257371,0.6024718 -2.503085,1.6515008 -3.414188,3.1544178 -0.925198,1.527904 -1.425798,3.021347 -2.008122,4.618937 -0.256994,0.609869 -0.424503,1.11321 -0.652782,1.311876 -0.04467,-0.0014 -0.04649,0.0018 -0.0022,-0.0059 0.05512,-0.0095 0.180078,-0.03543 0.379768,-0.106293 0.196842,0.100311 0.05375,-0.0586 -0.400919,-0.200342 -0.829992,-0.37704 -1.706719,-1.02425 -2.727986,-1.609409 -1.364765,-0.806456 -2.744544,-1.4509 -4.267213,-1.75012 -1.368521,-0.283525 -2.679151,-0.03271 -3.679953,0.511407 -2.368391,1.428983 -2.3483,3.103957 -1.977113,3.335715 z"
       id="path4893"
       inkscape:path-effect="#path-effect4895;#path-effect4897"
       inkscape:original-d="m 22.511002,17.609413 c 4.3626,-6.96909 11.215772,2.544221 13.497561,1.506676 2.778443,-1.263378 1.241803,-10.5615547 10.219715,-10.7363002"
       class="UnoptimicedTransforms"
       sodipodi:nodetypes="csc"
       transform="translate(16.302788,1.9255261)" />
    <path
       style="fill:#000000;fill-opacity:0.147959;stroke:none;stroke-width:0.264583px;stroke-linecap:butt;stroke-linejoin:miter;stroke-opacity:1"
       d="m 22.511002,17.609413 c 0.371187,0.231758 1.368971,-0.963932 2.891551,-1.204233 0.564062,-0.125331 1.232843,-0.02181 2.009819,0.255225 0.999506,0.361363 1.874227,0.984621 3.140899,1.837632 0.745407,0.525325 1.742789,1.319465 2.949944,1.956019 0.387365,0.277241 1.151263,0.575314 2.311931,0.61086 0.601592,-0.09775 1.103184,-0.28004 1.495809,-0.519931 0.317831,-0.194192 0.561505,-0.424448 0.729219,-0.674401 0.721771,-0.915083 1.090012,-1.814548 1.294814,-2.532659 0.60637,-1.823157 0.837358,-2.995435 1.422782,-4.246959 0.50016,-1.085231 1.137128,-1.917609 1.849644,-2.49652 0,0 1e-6,0 1e-6,0 1.693887,-1.4574917 3.630065,-1.7058566 3.62087,-2.2146573 -0.0092,-0.5088008 -1.904071,-1.4238477 -4.966576,-0.030705 0,3e-7 -1e-6,4e-7 -1e-6,4e-7 -1.257371,0.6024718 -2.503085,1.6515009 -3.414188,3.1544179 -0.925198,1.527904 -1.425798,3.021347 -2.008122,4.618937 -0.256994,0.60987 -0.424502,1.113211 -0.65278,1.311875 -0.04467,-0.0014 -0.04649,0.0018 -0.0022,-0.0059 0.05512,-0.0095 0.180078,-0.03543 0.379768,-0.106293 0.196841,0.100311 0.05375,-0.0586 -0.400921,-0.200342 -0.82999,-0.377038 -1.706716,-1.024249 -2.727984,-1.609409 -1.364765,-0.806456 -2.744544,-1.4509 -4.267213,-1.75012 -1.368521,-0.283525 -2.679151,-0.03271 -3.679953,0.511407 -2.368391,1.428983 -2.3483,3.103957 -1.977113,3.335715 z"
       id="path5062"
       inkscape:path-effect="#path-effect5066;#path-effect5070"
       inkscape:original-d="m 22.511002,17.609413 c 4.3626,-6.96909 11.215772,2.544221 13.497561,1.506676 2.778443,-1.263378 1.241803,-10.5615547 10.219715,-10.7363002"
       class="UnoptimicedTransforms"
       sodipodi:nodetypes="csc"
       transform="translate(78.389584,21.531883)" />
    <path
       style="fill:#000000;fill-opacity:0.147959;stroke:none;stroke-width:0.264583px;stroke-linecap:butt;stroke-linejoin:miter;stroke-opacity:1"
       d="m 22.511002,17.609413 c 0.371187,0.231758 1.368971,-0.963932 2.891551,-1.204233 0.564062,-0.125331 1.232843,-0.02181 2.009819,0.255225 0.999506,0.361363 1.874227,0.984621 3.140899,1.837632 0.745407,0.525325 1.742789,1.319465 2.949944,1.956019 0.387365,0.277241 1.151263,0.575314 2.311931,0.61086 0.601592,-0.09775 1.103184,-0.28004 1.495809,-0.519931 0.317831,-0.194192 0.561505,-0.424448 0.729219,-0.674401 0.721771,-0.915083 1.090012,-1.814548 1.294814,-2.532659 0.60637,-1.823157 0.837358,-2.995435 1.422782,-4.246959 0.50016,-1.085231 1.137128,-1.917609 1.849644,-2.49652 0,0 1e-6,0 1e-6,0 1.693887,-1.4574917 3.630065,-1.7058566 3.62087,-2.2146573 -0.0092,-0.5088008 -1.904071,-1.4238477 -4.966576,-0.030705 0,3e-7 -1e-6,4e-7 -1e-6,4e-7 -1.257371,0.6024718 -2.503085,1.6515009 -3.414188,3.1544179 -0.925198,1.527904 -1.425798,3.021347 -2.008122,4.618937 -0.256994,0.60987 -0.424502,1.113211 -0.65278,1.311875 -0.04467,-0.0014 -0.04649,0.0018 -0.0022,-0.0059 0.05512,-0.0095 0.180078,-0.03543 0.379768,-0.106293 0.196841,0.100311 0.05375,-0.0586 -0.400921,-0.200342 -0.82999,-0.377038 -1.706716,-1.024249 -2.727984,-1.609409 -1.364765,-0.806456 -2.744544,-1.4509 -4.267213,-1.75012 -1.368521,-0.283525 -2.679151,-0.03271 -3.679953,0.511407 -2.368391,1.428983 -2.3483,3.103957 -1.977113,3.335715 z"
       id="path5072"
       inkscape:path-effect="#path-effect5076;#path-effect5080"
       inkscape:original-d="m 22.511002,17.609413 c 4.3626,-6.96909 11.215772,2.544221 13.497561,1.506676 2.778443,-1.263378 1.241803,-10.5615547 10.219715,-10.7363002"
       class="UnoptimicedTransforms"
       sodipodi:nodetypes="csc"
       transform="translate(172.42748,1.5624455)" />
  </g>
</svg>
