<?xml version="1.0" encoding="UTF-8" standalone="no"?>
<!-- Created with Inkscape (http://www.inkscape.org/) -->

<svg
   width="1920"
   height="1080"
   viewBox="0 0 507.99999 285.75001"
   version="1.1"
   id="svg5"
   inkscape:version="1.1.2 (b8e25be833, 2022-02-05)"
   sodipodi:docname="catsinging.svg"
   inkscape:export-filename="C:\Users\eric\Desktop\myprogrammingwork\mypicturework\catsinging.png"
   inkscape:export-xdpi="96"
   inkscape:export-ydpi="96"
   xmlns:inkscape="http://www.inkscape.org/namespaces/inkscape"
   xmlns:sodipodi="http://sodipodi.sourceforge.net/DTD/sodipodi-0.dtd"
   xmlns:xlink="http://www.w3.org/1999/xlink"
   xmlns="http://www.w3.org/2000/svg"
   xmlns:svg="http://www.w3.org/2000/svg">
  <sodipodi:namedview
     id="namedview7"
     pagecolor="#ffffff"
     bordercolor="#666666"
     borderopacity="1.0"
     inkscape:pageshadow="2"
     inkscape:pageopacity="0.0"
     inkscape:pagecheckerboard="0"
     inkscape:document-units="px"
     showgrid="false"
     units="px"
     inkscape:zoom="0.35355339"
     inkscape:cx="1919.0878"
     inkscape:cy="9.8994949"
     inkscape:window-width="1920"
     inkscape:window-height="1001"
     inkscape:window-x="-9"
     inkscape:window-y="-9"
     inkscape:window-maximized="1"
     inkscape:current-layer="layer1" />
  <defs
     id="defs2" />
  <g
     inkscape:label="圖層 1"
     inkscape:groupmode="layer"
     id="layer1">
    <rect
       style="fill:#ffffff;fill-opacity:1;fill-rule:evenodd;stroke:none;stroke-width:0.79375;stroke-linecap:butt;stroke-linejoin:miter;stroke-miterlimit:4;stroke-dasharray:none"
       id="rect66505"
       width="330.77277"
       height="278.38797"
       x="71.842049"
       y="2.9934187"
       ry="3.0276802" />
    <g
       id="g72631"
       transform="translate(13.470383,-2.2450641)">
      <g
         id="g66401"
         transform="matrix(0.4435237,0,0,0.4435237,-780.87814,49.560433)">
        <path
           style="fill:none;stroke:none;stroke-width:0.39489px;stroke-linecap:butt;stroke-linejoin:miter;stroke-opacity:1"
           d="m 2236.5703,-27.128336 c 9.2954,-13.719114 14.3689,-25.078924 26.6977,-35.281131 1.7465,-1.179273 5.0781,-1.141031 5.8475,0.282616 10.8532,18.877409 9.4309,44.56976 10.6576,62.35129327 9.0553,17.66702173 9.3144,36.63347873 9.4395,53.16384973 -4.4064,35.103321 -30.1524,60.203038 -65.1231,59.879698 -18.6406,-2.90852 -38.1883,-8.40929 -52.7305,-22.323604 -14.5287,-17.553192 -22.589,-29.571133 -25.2725,-47.879802 -11.9231,-14.094522 -24.9246,-27.225969 -31.6491,-45.9281093 l -1.874,-9.1356817 c -1.1286,-2.524444 4.9718,-3.416284 6.7787,-3.244885 l 9.927,2.244339 c 19.2706,3.7769239 20.81,6.2693983 37.298,7.193797 21.2582,-8.104414 49.1109,-20.359261 70.0032,-21.32238 z"
           id="path11054"
           sodipodi:nodetypes="cccccccccccccc" />
        <path
           id="rect189"
           style="fill:#b3b3b3;fill-rule:evenodd;stroke-width:0.180089;stroke-linecap:round;stroke-linejoin:round"
           d="m 2516.2213,138.36398 7.252,0.13972 c 0.3956,0.008 0.4664,0.0808 0.1742,0.34759 l -370.4719,338.27717 c -0.2924,0.26678 -0.8404,0.54126 -1.229,0.61546 l -8.8878,1.69696 c -0.3887,0.0742 -0.4654,-0.0798 -0.1741,-0.34757 l 370.6691,-340.66659 c 0.2937,-0.26815 2.2719,-0.0703 2.6675,-0.0627 z"
           sodipodi:nodetypes="sssssssss" />
        <g
           id="g165"
           style="stroke:none"
           transform="matrix(1.7560567,0,0,1.7560567,1893.9987,60.366581)">
          <ellipse
             style="fill:#808080;fill-rule:evenodd;stroke:none;stroke-width:0.264583;stroke-linecap:round;stroke-linejoin:round"
             id="path43"
             cx="149.44318"
             cy="238.7688"
             rx="30.342356"
             ry="11.910083" />
          <ellipse
             style="fill:#b3b3b3;fill-rule:evenodd;stroke:none;stroke-width:0.264583;stroke-linecap:round;stroke-linejoin:round"
             id="ellipse143"
             cx="149.44316"
             cy="237.77629"
             rx="30.342356"
             ry="11.910083" />
        </g>
        <path
           id="path6970"
           style="fill:none;fill-opacity:1;stroke:#040404;stroke-width:1.39387;stroke-linecap:butt;stroke-linejoin:miter;stroke-miterlimit:4;stroke-dasharray:none;stroke-opacity:1"
           d="m 2582.9011,181.51877 c 60.8115,-1.77429 22.8529,64.711 -1.1162,88.37952 -17.9034,17.67882 -40.5519,41.77015 -58.1903,50.3061 -13.2654,6.41975 -68.5626,21.02747 -75.11,33.94796 -22.8989,32.9506 -95.28,66.57908 -106.0043,77.23202 -62.7549,62.33804 -149.8344,33.34745 -174.4616,27.89169"
           sodipodi:nodetypes="csscsc" />
        <g
           id="g6914"
           transform="matrix(0.48659335,-1.6872943,1.6872943,0.48659335,2532.1587,-2.4738436)">
          <g
             id="g5718">
            <path
               id="rect1363"
               style="fill:#cccccc;fill-rule:evenodd;stroke-width:0.522436;stroke-linecap:round;stroke-linejoin:round"
               d="m -115.83533,-65.512358 c -0.54729,-17.120317 4.40277,-33.974069 14.38241,-36.084062 6.415831,-1.3565 10.736638,-1.37276 17.351985,-0.38999 10.637717,1.58033 15.396161,18.838305 14.741101,36.70347 -1.322019,8.548133 -4.02793,15.846768 -10.266545,25.062903 -1.854779,-6.0155 -25.109801,-6.414387 -27.377301,-0.153074 -6.19237,-9.597546 -7.44095,-14.743598 -8.83165,-25.139247 z"
               sodipodi:nodetypes="csscccc" />
            <path
               id="rect347"
               style="fill:#999999;fill-rule:evenodd;stroke-width:0.264583;stroke-linecap:round;stroke-linejoin:round"
               d="m -83.561516,48.717322 -19.323884,-0.372831 -3.62457,-77.034923 c 1.10208,-9.236382 25.415343,-8.69384 26.45409,0.258201 z"
               sodipodi:nodetypes="ccccc" />
            <path
               id="rect2861"
               style="fill:#b3b3b3;fill-rule:evenodd;stroke-width:0.314577;stroke-linecap:round;stroke-linejoin:round"
               d="m -107.00368,-40.373111 c 0.62956,-6.500926 26.95109,-6.292885 27.420732,0.489124 0.216673,2.716169 0.147548,9.609062 -0.472932,11.451756 -3.119596,-9.971145 -25.55769,-8.275937 -26.45409,-0.258201 -0.60445,-2.750037 -0.85388,-8.734921 -0.49371,-11.682679 z"
               sodipodi:nodetypes="ccccc" />
          </g>
          <path
             id="rect5742"
             style="fill:#808080;fill-rule:evenodd;stroke-width:0.264583;stroke-linecap:round;stroke-linejoin:round"
             d="m -102.8854,48.344491 19.323884,0.372831 -2.390964,8.288266 -14.90352,-0.100258 z"
             sodipodi:nodetypes="ccccc" />
        </g>
        <path
           style="fill:#000000;stroke:#ffaaaa;stroke-width:1.77397px;stroke-linecap:butt;stroke-linejoin:miter;stroke-opacity:1"
           d="m 2408.2686,236.98518 c 4.8524,10.00302 2.8282,3.25483 4.8524,10.00302 1.3986,17.72522 -5.0017,24.18648 -21.3185,8.44059 21.8676,19.02058 1.3889,51.8412 -17.6229,14.97926 18.4755,26.45803 1.3796,46.28397 -11.1117,19.98224 14.465,29.74213 -9.1652,23.99554 -17.1088,15.8872 -5.1076,-5.80113 -2.8787,-2.57034 -8.0526,-9.86559 -10.0975,-24.68271 64.3928,-66.38192 70.3621,-59.42672 z"
           id="path33450"
           sodipodi:nodetypes="cccccccc" />
        <g
           id="g62557"
           style="fill:#000000;stroke:none">
          <path
             style="fill:#000000;fill-opacity:1;stroke:none;stroke-width:0.264583px;stroke-linecap:butt;stroke-linejoin:miter;stroke-opacity:1"
             d="m 2294.3344,125.69362 c 52.2785,30.17463 81.5749,50.60537 111.2825,79.6715 25.9061,25.34668 31.5052,-71.42377 67.1617,-79.57055 13.5511,-2.69764 79.9418,19.32212 73.836,34.60908 -16.0426,48.94939 -68.8915,80.86452 -126.3652,110.29987 -41.0908,-20.46149 -70.8882,-45.93398 -104.2682,-77.13095 -3.3443,-18.08813 -4.8214,-47.45562 -21.6468,-67.87895 z"
             id="path31485"
             sodipodi:nodetypes="csccccc" />
          <path
             id="rect863"
             style="fill:#000000;fill-rule:evenodd;stroke:none;stroke-width:1.00013;stroke-linecap:round;stroke-linejoin:round"
             d="m 2215.9008,111.23571 c 16.3702,3.21558 29.4781,-1.94105 46.433,-10.71083 32.0464,17.16782 43.8342,35.84412 49.752,67.07293 11.0137,41.63716 -1.4492,109.0956 -10.5347,132.12851 4.8778,16.10227 72.2456,54.78404 64.9937,64.97243 -9.575,38.01879 -69.3029,62.09038 -72.4253,113.59177 27.3232,21.22401 -55.4056,20.07066 -50.5038,0.56849 14.2717,-6.49265 65.4141,-83.42897 66.4,-108.56901 -16.5294,-13.32947 -58.1558,-25.34865 -58.1558,-25.34865 -88.0567,80.61523 -200.7098,92.25404 -241.9617,138.10221 22.6449,24.39484 -88.2275,13.33698 -53.8892,-5.38795 25.0592,-3.50234 194.7575,-111.64394 225.3376,-157.47653 2.5561,-5.37132 -32.3167,11.03595 -48.7623,0.44292 -63.9487,-41.47789 -122.388,49.40438 -132.496,40.72868 -8.9898,-8.44479 76.513,-95.47476 132.231,-60.53544 17.4768,11.80425 70.0955,-12.08942 70.7568,-13.51048 11.5585,-24.8394 19.9999,-80.64697 -12.0642,-138.21442 -6.0995,-9.77415 13.808,-26.85773 24.8889,-37.85463 z"
             sodipodi:nodetypes="cccccccccccccccscc" />
          <path
             style="fill:#000000;fill-opacity:1;stroke:none;stroke-width:0.264583px;stroke-linecap:butt;stroke-linejoin:miter;stroke-opacity:1"
             d="m 2212.9082,224.50641 c 69.2883,15.99141 135.0101,12.27396 195.3604,12.47877 -22.9433,1.74812 -68.3163,37.84932 -70.766,52.26032 -45.9652,5.04031 -60.4715,-11.79506 -128.4261,-19.2632 4.5822,-15.41263 4.2041,-29.58253 3.8317,-45.47589 z"
             id="path38579"
             sodipodi:nodetypes="ccccc" />
        </g>
        <path
           style="fill:#000000;stroke:#ffaaaa;stroke-width:1.78484px;stroke-linecap:butt;stroke-linejoin:miter;stroke-opacity:1"
           d="m 2547.5024,157.92793 c -3.9581,18.30423 -14.7521,31.29122 -20.2175,35.80509 -15.887,8.22361 -24.3787,4.81444 -16.1565,-16.46665 -9.0891,27.70729 -47.5212,21.54637 -20.7747,-10.48512 -17.3102,27.46875 -42.3725,19.36616 -22.8687,-2.49325 -21.9222,25.03378 -25.8287,0.87979 -21.4154,-9.65357 3.3824,-7.00255 10.4173,-18.36615 17.2118,-24.05938 18.9382,-19.00744 88.3367,19.10051 84.221,27.35288 z"
           id="path18694"
           sodipodi:nodetypes="cccccccc" />
        <path
           id="path42953"
           style="fill:#ffaaaa;fill-rule:evenodd;stroke:none;stroke-width:3.78;stroke-linecap:round;stroke-linejoin:round"
           inkscape:transform-center-x="3.5124665"
           inkscape:transform-center-y="-1.9270447"
           transform="matrix(0.22730405,-0.03116821,0.03116821,0.22730405,355.82849,229.22244)"
           d="m 8432.8125,68.750002 c -12.7197,8.660255 -141.2379,-43.843038 -142.378,-59.1887904 -1.1402,-15.345753 113.7901,-135.4836416 131.4812,-117.8434416 13.1936,13.155712 23.6165,168.371978 10.8968,177.032232 z"
           sodipodi:nodetypes="ssss" />
        <path
           id="path43035"
           style="fill:#ffaaaa;fill-rule:evenodd;stroke:none;stroke-width:3.78;stroke-linecap:round;stroke-linejoin:round"
           inkscape:transform-center-x="-1.6519936"
           inkscape:transform-center-y="2.238427"
           transform="matrix(0.15661807,0.16765849,-0.16765849,0.15661807,826.14902,-1398.2936)"
           d="m 8433.4275,68.091626 c -12.7197,8.660255 -186.7959,-20.691416 -179.7497,-49.19931 5.6532,-22.8718573 149.1349,-118.410677 162.9947,-111.725178 13.8599,6.685498 29.4747,152.264234 16.755,160.924488 z"
           sodipodi:nodetypes="ssss" />
        <path
           style="fill:#4d4d4d;stroke:none;stroke-width:0.276131px;stroke-linecap:butt;stroke-linejoin:miter;stroke-opacity:1"
           d="m 2236.075,50.616385 c 1.3247,5.211319 0.5568,13.889357 -3.5945,15.804196 -3.7459,2.312123 -9.8096,-4.114963 -13.3904,-9.214364 2.6894,-2.678427 12.3157,-6.361762 16.9849,-6.589832 z"
           id="path43129"
           sodipodi:nodetypes="cccc" />
        <path
           style="fill:none;stroke:none;stroke-width:0.15604px;stroke-linecap:butt;stroke-linejoin:miter;stroke-opacity:1"
           d="m 2234.687,106.64068 c 2.0215,1.64478 12.8444,-1.01691 14.99,-4.93295 5.4037,-10.820642 2.3017,-21.430952 4.3042,-32.238238 l -5.0525,-0.64833 c -4.7158,-1.361623 -10.3819,1.775971 -16.4093,4.09783 -5.4421,0.907797 -11.9895,2.346064 -15.2465,5.72948 l -2.7247,2.436786 c 6.9326,5.301359 11.2013,19.612562 20.1388,25.555422 z"
           id="path49049"
           sodipodi:nodetypes="cccccccc" />
        <path
           style="fill:none;stroke:none;stroke-width:0.264583;stroke-linecap:butt;stroke-linejoin:miter;stroke-miterlimit:4;stroke-dasharray:none;stroke-opacity:1"
           d="m 2224.212,94.236142 c 1.9329,-9.408432 24.3655,-9.935158 28.8177,-6.535771"
           id="path54544"
           sodipodi:nodetypes="cc" />
        <path
           style="fill:#000000;fill-opacity:1;fill-rule:evenodd;stroke:none;stroke-width:0.292325;stroke-linecap:butt;stroke-linejoin:miter;stroke-miterlimit:4;stroke-dasharray:none"
           d="m 2217.8778,111.82917 c -18.453,-3.57869 -32.6015,-9.5726 -42.8103,-18.136328 -2.989,-2.507361 -4.0175,-3.626451 -8.2951,-9.025174 -12.4424,-15.703714 -17.6654,-26.260227 -20.1958,-40.818761 -0.1367,-0.78644 -1.5603,-2.632139 -6.1534,-7.978042 -12.1785,-14.174221 -16.6679,-20.304766 -21.2476,-29.014434 -3.02,-5.7433474 -4.207,-8.9702587 -5.3868,-14.6446612 l -1.0777,-5.1829938 0.6458,-0.522933 c 0.7585,-0.614224 2.2182,-1.058571 4.2531,-1.294668 1.0927,-0.126782 2.6054,0.09178 5.9927,0.865835 2.492,0.569483 6.1753,1.377542 8.1851,1.795685 2.0097,0.418147 7.2716,1.663885 11.693,2.7683134 9.3311,2.3308033 11.629,2.7919186 16.8088,3.3729108 6.3752,0.7150878 5.4104,0.9236361 17.515,-3.7857658 13.5818,-5.2841414 15.7909,-6.1187384 21.9931,-8.3090054 13.1164,-4.631977 25.4896,-7.72766 33.9677,-8.498461 1.6639,-0.151272 3.0582,-0.316849 3.0985,-0.367942 0.4196,-0.531731 3.7988,-5.753037 7.2494,-11.201295 7.1357,-11.266734 11.3126,-16.664152 16.6668,-21.536943 3.1177,-2.837331 3.7026,-3.164608 5.6562,-3.164608 1.7688,0 2.4357,0.7205 4.2744,4.61748 5.0373,10.676856 7.2252,22.958245 8.1086,45.516437 0.507,12.94541101 0.4389,12.4122843 2.0576,16.0995975 5.4804,12.4836345 7.6464,24.6302445 7.7113,43.2425915 0.032,9.278761 0.026,9.385174 -0.8061,13.154671 -4.2011,19.036761 -13.9015,33.677763 -28.6822,43.290444 -6.1104,3.97391 -17.6044,8.05901 -26.2048,9.31354 -4.9768,0.72595 -9.2188,0.56903 -15.0173,-0.55549 z m 23.4124,-5.13685 c 4.5598,-1.16611 7.6021,-3.00285 8.7606,-5.2889 2.3104,-4.559465 3.002,-8.698173 3.3403,-19.990613 0.1445,-4.823381 0.4025,-9.481696 0.5734,-10.35181 0.1709,-0.870114 0.2696,-1.623177 0.2193,-1.673472 -0.2152,-0.21514 -6.5929,-0.983228 -8.1641,-0.983228 -2.3777,0 -3.7546,0.376915 -9.1407,2.502178 -2.8401,1.120661 -5.6961,2.03146 -7.2713,2.318845 -5.9734,1.089816 -9.5967,2.68156 -13.069,5.741287 l -2.3486,2.069536 1.3805,1.357635 c 2.1813,2.145168 3.3691,3.783719 7.1362,9.844165 1.9395,3.120152 4.2886,6.696599 5.2203,7.947667 1.8008,2.41804 5.7836,6.37348 6.8502,6.80316 1.1199,0.45112 4.1245,0.31436 6.5129,-0.29645 z m -8.0653,-40.90892 c 1.2304,-0.96172 2.4401,-3.261899 2.8878,-5.490845 0.3533,-1.759519 0.4431,-7.024473 0.1451,-8.514302 -0.1599,-0.799346 -0.302,-0.913519 -1.1373,-0.913519 -3.2019,0 -12.3714,3.418985 -15.1749,5.658191 l -0.8555,0.683292 1.4344,1.871882 c 1.9477,2.541715 5.1112,5.628939 6.7553,6.592417 2.4414,1.430777 4.216,1.464471 5.9451,0.112884 z m -94.6727,-40.841101 c 7.2261,-5.313269 22.2893,-24.03614425 21.4544,-26.666801 -0.8817,-2.7781703 -28.2122,-9.903381 -39.4734,-10.290953 -3.8079,-0.131055 -4.4986,-0.02888 -5.3134,0.785945 -0.6877,0.687697 -0.7419,0.910376 -0.6005,2.4694449 0.2313,2.5510855 1.5048,6.0386641 3.9978,10.9481573 3.9216,7.7229913 10.6326,17.9607348 14.6622,22.3676198 2.0563,2.248773 2.6783,2.29438 5.2729,0.386587 z m 136.1427,-42.743073 c 1.3514,-0.856203 0.8093,-8.200202 -1.4479,-19.616962 -1.7506,-8.854493 -4.4234,-18.05499 -5.7746,-19.87817 -1.6765,-2.26204 -5.4539,0.05549 -11.7148,7.187253 -7.241,8.248216 -15.2245,20.122428 -15.2245,22.64405 0,0.41856 0.2987,1.041695 0.6639,1.384743 2.2133,2.079271 15.2489,6.226957 24.9146,7.927388 3.3783,0.594317 7.9074,0.7799 8.5833,0.351698 z"
           id="path62957" />
        <g
           id="g58848"
           transform="translate(185.91937,4.0925646)"
           style="stroke:#ffffff">
          <path
             style="fill:none;stroke:#ffffff;stroke-width:1.32292;stroke-linecap:butt;stroke-linejoin:miter;stroke-miterlimit:4;stroke-dasharray:none;stroke-opacity:1"
             d="m 1978.5836,43.028872 c 18.6488,6.013685 33.9897,-7.45552 33.9897,-7.45552"
             id="path58040"
             sodipodi:nodetypes="cc" />
          <path
             style="fill:none;stroke:#ffffff;stroke-width:1.32292;stroke-linecap:butt;stroke-linejoin:miter;stroke-miterlimit:4;stroke-dasharray:none;stroke-opacity:1"
             d="m 1986.4286,44.506641 -4.0925,7.308152"
             id="path58212" />
          <use
             id="use58674"
             inkscape:spray-origin="#path58212"
             xlink:href="#path58212"
             x="0"
             y="0"
             width="100%"
             height="100%"
             transform="rotate(-66.066331,1992.6579,26.365303)"
             style="stroke:#ffffff" />
          <use
             id="use58676"
             inkscape:spray-origin="#path58212"
             xlink:href="#path58212"
             x="0"
             y="0"
             width="100%"
             height="100%"
             transform="rotate(-31.484728,1990.0346,24.514141)"
             style="stroke:#ffffff" />
        </g>
        <g
           id="g58858"
           transform="rotate(-11.044519,2031.6626,-1307.8678)"
           style="stroke:#ffffff">
          <path
             style="fill:none;stroke:#ffffff;stroke-width:1.32292;stroke-linecap:butt;stroke-linejoin:miter;stroke-miterlimit:4;stroke-dasharray:none;stroke-opacity:1"
             d="m 1978.5836,43.028872 c 18.6488,6.013685 33.9897,-7.45552 33.9897,-7.45552"
             id="path58850"
             sodipodi:nodetypes="cc" />
          <path
             style="fill:none;stroke:#ffffff;stroke-width:1.32292;stroke-linecap:butt;stroke-linejoin:miter;stroke-miterlimit:4;stroke-dasharray:none;stroke-opacity:1"
             d="m 1986.4286,44.506641 -4.0925,7.308152"
             id="path58852" />
          <use
             id="use58854"
             inkscape:spray-origin="#path58212"
             xlink:href="#path58212"
             x="0"
             y="0"
             width="100%"
             height="100%"
             transform="rotate(-66.066331,1992.6579,26.365303)"
             style="stroke:#ffffff" />
          <use
             id="use58856"
             inkscape:spray-origin="#path58212"
             xlink:href="#path58212"
             x="0"
             y="0"
             width="100%"
             height="100%"
             transform="rotate(-31.484728,1990.0346,24.514141)"
             style="stroke:#ffffff" />
        </g>
        <path
           style="fill:none;stroke:#ffffff;stroke-width:0.79375;stroke-linecap:butt;stroke-linejoin:miter;stroke-miterlimit:4;stroke-dasharray:none;stroke-opacity:1"
           d="m 2170.5209,75.566285 c 2.464,0.568134 8.3236,-0.08909 10.6699,-1.023141"
           id="path60464"
           sodipodi:nodetypes="cc" />
        <path
           style="fill:none;stroke:#ffffff;stroke-width:0.79375;stroke-linecap:butt;stroke-linejoin:miter;stroke-miterlimit:4;stroke-dasharray:none;stroke-opacity:1"
           d="m 2174.4308,84.409148 c 0.8812,0.341299 6.8641,-0.474964 7.7832,-1.242386"
           id="path60466"
           sodipodi:nodetypes="cc" />
        <path
           style="fill:none;stroke:#ffffff;stroke-width:0.79375;stroke-linecap:butt;stroke-linejoin:miter;stroke-miterlimit:4;stroke-dasharray:none;stroke-opacity:1"
           d="m 2183.4564,95.261753 c 1.9351,-0.160675 4.32,-0.808055 5.9196,-1.86358"
           id="path60468"
           sodipodi:nodetypes="cc" />
        <path
           style="fill:none;stroke:#ffffff;stroke-width:0.79375;stroke-linecap:butt;stroke-linejoin:miter;stroke-miterlimit:4;stroke-dasharray:none;stroke-opacity:1"
           d="m 2283.2126,41.5103 c -0.7375,2.196264 -7.3081,6.431172 -7.3081,6.431172"
           id="path60470"
           sodipodi:nodetypes="cc" />
        <path
           style="fill:none;stroke:#ffffff;stroke-width:0.79375;stroke-linecap:butt;stroke-linejoin:miter;stroke-miterlimit:4;stroke-dasharray:none;stroke-opacity:1"
           d="m 2283.3588,51.887875 c -1.1244,1.497029 -3.4162,3.079029 -4.8234,3.215585"
           id="path60472"
           sodipodi:nodetypes="cc" />
        <path
           style="fill:none;stroke:#ffffff;stroke-width:0.79375;stroke-linecap:butt;stroke-linejoin:miter;stroke-miterlimit:4;stroke-dasharray:none;stroke-opacity:1"
           d="m 2283.6834,66.065687 c -1.4924,0.897185 -2.7267,0.988564 -4.4172,0.87698"
           id="path60474"
           sodipodi:nodetypes="cc" />
        <path
           style="fill:#ff0000;fill-opacity:1;fill-rule:evenodd;stroke:none;stroke-width:2.20971;stroke-linecap:butt;stroke-linejoin:miter;stroke-miterlimit:4;stroke-dasharray:none"
           d="m 8394.3751,338.54635 c -4.5451,-7.53863 -11.1959,-16.50518 -15.3979,-21.04595 l -10.3849,-11.22207 c -0.5303,-1.41421 15.0619,-12.93736 15.0619,-12.93736 9.1158,-7.83002 16.6951,-11.46769 35.8491,-15.49858 8.5074,-1.79035 23.8135,-5.60322 33.5363,-9.66663 15.9126,-6.65038 15.4256,-9.71481 33.8609,-9.56179 11.2642,0.0935 32.8598,2.90988 33.19,3.39404 0.3302,0.48417 -1.7386,17.289 -2.2101,34.7182 -0.8439,31.20062 -1.907,30.56807 -1.907,30.56807 0,0 -18.8218,-3.16899 -28.6205,-3.9162 -31.5549,-2.40626 -63.3552,6.05741 -75.7347,20.15681 l -8.1879,10.03079 z"
           id="path62207"
           transform="scale(0.26458334)"
           sodipodi:nodetypes="sscsssssscsscs" />
        <path
           style="fill:#ff5555;fill-opacity:1;fill-rule:evenodd;stroke:none;stroke-width:2.20971;stroke-linecap:butt;stroke-linejoin:miter;stroke-miterlimit:4;stroke-dasharray:none"
           d="m 8444.5917,404.02116 c -8.5382,-5.50366 -27.58,-26.80797 -33.9357,-38.6098 -4.0515,-7.52321 -7.0023,-12.2252 -7.0023,-12.2252 9.0477,-17.20941 28.7411,-24.05897 44.3863,-27.6706 17.0064,-3.92587 44.5778,-2.77176 55.5709,-0.62874 l 12.3625,2.40746 -1.0256,19.75428 c -1.5554,29.9587 -11.0331,48.25444 -45.4411,57.23571 -7.1669,1.87072 -19.0392,3.52435 -24.915,-0.26311 z"
           id="path62381"
           transform="scale(0.26458334)"
           sodipodi:nodetypes="ssssscsss" />
      </g>
      <path
         style="fill:none;stroke:#ffcc00;stroke-width:0.264583px;stroke-linecap:butt;stroke-linejoin:miter;stroke-opacity:1"
         d="m 251.01989,70.598828 c 1.70345,-4.355556 5.13715,-8.352604 11.1125,-9.525 8.00434,-2.531 13.11361,2.005036 17.4625,5.291667 13.65116,7.41634 22.02379,-13.678013 29.89791,-15.610417"
         id="path66756"
         sodipodi:nodetypes="cccc" />
      <path
         style="fill:none;stroke:#ff6600;stroke-width:0.264583px;stroke-linecap:butt;stroke-linejoin:miter;stroke-opacity:1"
         d="m 252.24328,77.432128 c 6.619,-4.192514 16.93333,-1.852084 16.93333,-1.852084 6.58175,1.550174 16.36508,2.80538 21.69583,-1.852083"
         id="path66758"
         sodipodi:nodetypes="ccc" />
      <g
         id="g72578"
         transform="translate(-18.054057,8.8867118)">
        <path
           style="fill:none;stroke:#00ff00;stroke-width:0.264583px;stroke-linecap:butt;stroke-linejoin:miter;stroke-opacity:1"
           d="m 273.29805,46.434376 c 5.22795,-9.216833 -0.74906,-18.110192 -2.64583,-20.6375 7.11466,3.784688 14.10326,4.502883 21.16666,5.556249"
           id="path66760"
           sodipodi:nodetypes="ccc" />
        <ellipse
           style="fill:#00ff00;fill-opacity:1;fill-rule:evenodd;stroke:none;stroke-width:0.930949;stroke-linecap:butt;stroke-linejoin:miter;stroke-miterlimit:4;stroke-dasharray:none"
           id="path72272"
           cx="271.1658"
           cy="45.70612"
           rx="2.444942"
           ry="2.0480673" />
      </g>
      <g
         id="g72574"
         transform="translate(-26.75368,19.737855)">
        <path
           style="fill:none;stroke:#0000ff;stroke-width:0.264583px;stroke-linecap:butt;stroke-linejoin:miter;stroke-opacity:1"
           d="m 321.46876,25.135417 c 0,0 -1.56345,15.820052 -7.67292,15.610417"
           id="path66762"
           sodipodi:nodetypes="cc" />
        <circle
           style="fill:#0000ff;fill-opacity:1;fill-rule:evenodd;stroke:none;stroke-width:0.79375;stroke-linecap:butt;stroke-linejoin:miter;stroke-miterlimit:4;stroke-dasharray:none"
           id="path72274"
           cx="313.87195"
           cy="39.048744"
           r="1.8520833" />
      </g>
    </g>
  </g>
</svg>
