<?xml version="1.0" encoding="UTF-8" standalone="no"?>
<!-- Created with Inkscape (http://www.inkscape.org/) -->

<svg
   width="1920"
   height="1080"
   viewBox="0 0 507.99999 285.75001"
   version="1.1"
   id="svg5"
   inkscape:version="1.1.2 (b8e25be833, 2022-02-05)"
   sodipodi:docname="catwanttosleep.svg"
   inkscape:export-filename="C:\Users\eric\Desktop\myprogrammingwork\mypicturework\catwanttosleep.png"
   inkscape:export-xdpi="96"
   inkscape:export-ydpi="96"
   xmlns:inkscape="http://www.inkscape.org/namespaces/inkscape"
   xmlns:sodipodi="http://sodipodi.sourceforge.net/DTD/sodipodi-0.dtd"
   xmlns="http://www.w3.org/2000/svg"
   xmlns:svg="http://www.w3.org/2000/svg">
  <sodipodi:namedview
     id="namedview7"
     pagecolor="#ffffff"
     bordercolor="#666666"
     borderopacity="1.0"
     inkscape:pageshadow="2"
     inkscape:pageopacity="0.0"
     inkscape:pagecheckerboard="0"
     inkscape:document-units="px"
     showgrid="false"
     units="px"
     inkscape:zoom="0.5115017"
     inkscape:cx="951.12098"
     inkscape:cy="757.57324"
     inkscape:window-width="1920"
     inkscape:window-height="1001"
     inkscape:window-x="-9"
     inkscape:window-y="-9"
     inkscape:window-maximized="1"
     inkscape:current-layer="layer1"
     inkscape:snap-global="true" />
  <defs
     id="defs2">
    <inkscape:path-effect
       effect="skeletal"
       id="path-effect68210"
       is_visible="true"
       lpeversion="1"
       pattern="M 0,4.9921383 C 0,2.2364779 2.2364779,0 4.9921383,0 c 2.7556603,0 4.9921382,2.2364779 4.9921382,4.9921383 0,2.7556603 -2.2364779,4.9921382 -4.9921382,4.9921382 C 2.2364779,9.9842765 0,7.7477986 0,4.9921383 Z"
       copytype="single_stretched"
       prop_scale="0.339201"
       scale_y_rel="false"
       spacing="0"
       normal_offset="0"
       tang_offset="0"
       prop_units="false"
       vertical_pattern="false"
       hide_knot="false"
       fuse_tolerance="0" />
    <inkscape:path-effect
       effect="skeletal"
       id="path-effect67743"
       is_visible="true"
       lpeversion="1"
       pattern="m -0.77590163,7.0612093 c 0,-2.7556604 2.23647793,-4.9921383 4.99213833,-4.9921383 2.7556603,0 4.9921382,2.2364779 4.9921382,4.9921383 0,2.7556603 -2.2364779,4.9921387 -4.9921382,4.9921387 -2.7556604,0 -4.99213833,-2.2364784 -4.99213833,-4.9921387 z"
       copytype="single_stretched"
       prop_scale="0.36611626"
       scale_y_rel="false"
       spacing="0"
       normal_offset="0"
       tang_offset="0"
       prop_units="false"
       vertical_pattern="false"
       hide_knot="false"
       fuse_tolerance="0" />
    <inkscape:path-effect
       effect="skeletal"
       id="path-effect67687"
       is_visible="true"
       lpeversion="1"
       pattern="M 0,4.9921383 C 0,2.2364779 2.2364779,0 4.9921383,0 c 2.7556603,0 4.9921382,2.2364779 4.9921382,4.9921383 0,2.7556603 -2.2364779,4.9921382 -4.9921382,4.9921382 C 2.2364779,9.9842765 0,7.7477986 0,4.9921383 Z"
       copytype="single_stretched"
       prop_scale="1"
       scale_y_rel="false"
       spacing="0"
       normal_offset="0"
       tang_offset="0"
       prop_units="false"
       vertical_pattern="false"
       hide_knot="false"
       fuse_tolerance="0" />
    <inkscape:path-effect
       effect="skeletal"
       id="path-effect67683"
       is_visible="true"
       lpeversion="1"
       pattern="M 0,4.9921383 C 0,2.2364779 2.2364779,0 4.9921383,0 c 2.7556603,0 4.9921382,2.2364779 4.9921382,4.9921383 0,2.7556603 -2.2364779,4.9921382 -4.9921382,4.9921382 C 2.2364779,9.9842765 0,7.7477986 0,4.9921383 Z"
       copytype="single_stretched"
       prop_scale="0.33920052"
       scale_y_rel="false"
       spacing="0"
       normal_offset="0"
       tang_offset="0"
       prop_units="false"
       vertical_pattern="false"
       hide_knot="false"
       fuse_tolerance="0" />
  </defs>
  <g
     inkscape:label="圖層 1"
     inkscape:groupmode="layer"
     id="layer1">
    <g
       id="g148472"
       transform="matrix(0.36894273,0,0,0.36894273,72.799434,-147.29205)">
      <path
         style="fill:#fae7da;fill-opacity:1;stroke:none;stroke-width:0.264583px;stroke-linecap:butt;stroke-linejoin:miter;stroke-opacity:1"
         d="m 489.82702,442.83544 c 5.82007,0.72753 12.2721,-7.18357 17.32847,-4.6554 6.65459,3.32733 8.73869,28.34002 11.63852,34.13968 7.80009,27.25615 38.03685,78.20631 25.86339,109.66077 -9.29138,20.30621 -196.03015,101.16197 -267.87368,84.11495 -24.76626,-12.72164 -35.98254,-88.52268 -46.34093,-129.53329 -1.49289,-4.67336 -0.86378,-25.41372 4.13814,-27.76464 52.08837,-22.53395 128.95691,-56.87668 255.24609,-65.96207 z"
         id="path1126"
         sodipodi:nodetypes="cscccccc" />
      <path
         style="fill:#1e1313;fill-opacity:1;stroke:none;stroke-width:0.264583px;stroke-linecap:butt;stroke-linejoin:miter;stroke-opacity:1"
         d="m 324.57338,679.42553 c 0,0 -0.51727,-7.6297 -2.06907,-13.96623 -1.18873,-5.76078 -7.01545,-14.77446 -8.79356,-16.0353 -12.56521,-6.48393 -37.32959,-18.42799 -37.48033,-33.07202 0.0502,-1.80976 1.0066,-7.69241 2.42555,-8.59693 0.72869,-0.46449 1.71218,-0.91087 1.4966,-1.92081 -1.17348,-5.49749 8.27571,-12.00268 16.24583,-8.18149 1.62455,0.77887 3.57885,1.23385 5.40027,0.95218 9.4434,-1.27861 13.54697,7.61727 19.91891,11.48208 2.36881,1.19409 5.7737,5.25127 5.83372,7.68297 0.0374,1.51739 3.39949,7.42513 4.58655,9.49399 4.54173,8.66291 9.4316,15.5611 10.02261,25.7809 0,3.10361 6.20723,18.62164 6.20723,18.62164 l 1.55181,6.72448 c -14.65322,6.73748 -10.19164,3.64738 -25.34612,1.03454 z"
         id="path1007"
         sodipodi:nodetypes="ccccsssccsccccc" />
      <path
         style="fill:#1e1313;fill-opacity:1;stroke:none;stroke-width:0.264583px;stroke-linecap:butt;stroke-linejoin:miter;stroke-opacity:1"
         d="m 485.89039,553.36731 c 5.60932,-2.82516 64.43271,82.72789 40.37934,82.02192 -41.90246,-1.84757 -111.92272,44.281 -138.39446,27.38605 -4.61069,6.27687 -12.49789,2.52247 -16.84109,4.12674 -4.90785,1.81284 -9.60986,-3.46464 -10.30528,-6.4773 -0.90059,-3.90151 -2.95627,-12.82476 3.74001,-18.08152 7.48704,-7.25418 9.05543,-12.73194 24.07864,-15.27109 26.23997,-4.43495 58.35541,-15.21953 83.81484,-28.55474"
         id="path1009"
         sodipodi:nodetypes="cccsscsc" />
      <path
         style="fill:none;stroke:none;stroke-width:0.264583px;stroke-linecap:butt;stroke-linejoin:miter;stroke-opacity:1"
         d="m 485.89039,553.36731 c -8.6006,30.13555 -78.1638,64.80627 -94.4013,49.39906 -14.9041,12.76973 -64.64955,8.69205 -69.43428,-21.56811 -2.44794,-3.76788 -9.04566,-12.14484 -6.0155,-18.94137 16.13886,-10.6281 4.94155,-44.11075 9.23942,-50.78828 8.77032,-15.69841 32.52336,-37.41378 55.42346,-43.44288 13.37613,-2.57437 32.2556,2.46266 53.71175,5.99938 49.21163,8.11179 54.16283,58.84591 51.47645,79.3422 z"
         id="path859"
         sodipodi:nodetypes="ccccccsc" />
      <path
         style="fill:#000000;stroke:#ffffff;stroke-width:0.264583px;stroke-linecap:butt;stroke-linejoin:miter;stroke-opacity:1"
         d="m 317.34377,562.52868 c 8.67178,-2.60158 7.47142,11.96262 15.00077,9.56948 0.11567,-0.0386 0.13671,-0.25866 0.25863,-0.25866 -2.87351,1.75069 -6.92069,8.73199 -9.82808,7.50038 -4.2598,-4.01341 -7.31211,-11.80469 -5.43132,-16.8112 z"
         id="path4995"
         sodipodi:nodetypes="ccccc" />
      <path
         style="fill:#1e1313;fill-opacity:1;stroke:none;stroke-width:0.264583px;stroke-linecap:butt;stroke-linejoin:miter;stroke-opacity:1"
         d="m 421.70255,480.60641 c 18.78272,-11.3039 24.12569,-44.08443 44.61435,-53.86051 1.24727,-0.46773 2.19159,-0.25863 3.62087,-0.25863 11.66907,15.35072 10.85573,60.76151 1.2285,79.91787 -17.99758,-3.00529 -32.47777,-21.28326 -49.46372,-25.79873 z"
         id="path5001"
         sodipodi:nodetypes="ccccc" />
      <path
         style="fill:#1e1313;fill-opacity:1;stroke:none;stroke-width:0.264583px;stroke-linecap:butt;stroke-linejoin:miter;stroke-opacity:1"
         d="m 357.36846,483.49274 c -4.59352,-9.80461 -12.59769,-16.65338 -20.75534,-27.28588 -3.08007,-4.36666 -6.46043,-7.76417 -10.12461,-11.09525 -0.81992,-0.74538 -1.27715,-0.0224 -1.48715,0.35561 -0.12249,6.47948 1.77012,9.69897 3.72231,16.32359 3.05856,6.19416 7.72615,26.33421 16.29393,31.2947 z"
         id="path5003"
         sodipodi:nodetypes="ccscccc" />
      <path
         style="fill:#d0f9f9;fill-opacity:1;stroke:none;stroke-width:0.401585px;stroke-linecap:butt;stroke-linejoin:miter;stroke-opacity:1"
         d="m 239.64819,703.6028 c 10.91271,-3.41336 21.72624,-7.91203 32.55421,-11.66365 11.27556,-3.90666 22.74714,-6.81705 34.03396,-10.83054 6.65465,-2.3663 12.43643,-6.31609 19.23658,-8.33114 40.91282,-12.34598 78.84073,-5.66014 116.15937,-19.99483 6.33337,-2.51702 11.42348,-5.81413 17.75686,-8.33117 6.65878,-2.64636 13.12763,-3.55269 19.97643,-4.99869 7.44097,-1.57101 14.76794,-4.15895 22.19605,-5.83182 5.64567,-1.27143 11.51413,-1.42588 17.01701,-3.33247 9.56581,-3.31428 19.50738,-6.3024 29.59474,-7.49805 1.35577,-0.16074 14.16303,-0.9521 17.01696,-1.66623 6.33268,-3.46615 15.37532,-7.44394 21.60031,-8.24652 4.54254,-0.63936 5.43132,-3.54495 11.09803,0 4.81906,3.01469 5.82894,20.5239 7.39868,25.82663 2.78787,8.04448 5.1286,12.66199 4.43925,19.16168 82.86078,155.74427 130.34486,250.27873 145.81406,375.3014 -19.3038,1.242 -22.99591,6.2595 -42.37628,6.2595 -14.89288,0 -33.5986,4.0139 -48.45098,5.9436 -18.53257,2.4079 -34.03845,3.5429 -50.43143,7.0927 -17.3069,3.7477 -42.20746,20.1492 -59.79743,19.1067 -6.27898,-0.3722 -67.19916,24.3072 -73.38538,23.0407 -14.39722,-2.9476 -94.63304,25.7124 -109.15019,23.5803 -13.37876,-1.9651 -31.29738,-120.20733 -40.70023,-134.32278 -12.26756,-20.57625 -86.94407,-230.61065 -94.99765,-232.21518 0,0 -15.94061,-32.83345 -16.04991,-33.06488 l -3.19931,-6.77451 c 6.43847,-5.33972 6.68887,-3.21951 22.64629,-8.21075 z"
         id="path995"
         sodipodi:nodetypes="sssccsssssccscccssssssccscs" />
      <path
         style="fill:none;stroke:none;stroke-width:0.264583px;stroke-linecap:butt;stroke-linejoin:miter;stroke-opacity:1"
         d="m 391.4891,602.76638 c -2.64142,7.77531 -6.22023,17.9026 -6.34008,25.02101"
         id="path7336"
         sodipodi:nodetypes="cc" />
      <path
         style="fill:none;stroke:none;stroke-width:0.264583px;stroke-linecap:butt;stroke-linejoin:miter;stroke-opacity:1"
         d="m 234.58093,508.79751 c -3.69251,-0.0292 -8.43057,0.13958 -9.82809,4.33211 -1.1144,3.34322 4.27332,6.47754 6.14256,8.14696 -3.41395,1.48872 -5.83474,4.60218 -5.62529,9.44014 0.32107,5.0218 3.83767,5.92949 7.66203,6.72449 -2.30408,1.63979 -5.24266,7.72067 -5.07569,9.31082 0.7474,5.39558 6.20178,6.14191 8.53492,6.46583 -1.02041,1.01634 -7.39905,6.66274 -6.78359,10.55312 0.78051,4.07809 6.78868,6.96559 10.15596,6.79185 -3.84613,2.23627 -8.3535,4.86473 -7.63983,10.19954 0.60967,5.64117 8.20204,8.49429 11.81759,8.81575 -2.81605,1.99063 -8.30434,8.77964 -6.87122,14.26733 1.24469,4.97799 7.07649,7.2384 11.7669,6.32477 -3.27179,2.4304 -7.6406,8.74225 -6.54161,13.79633 2.00151,5.69112 9.35285,5.44373 11.76269,4.07092 -2.14989,2.08884 -6.26797,6.59602 -6.29283,10.41395 0.26199,5.24642 8.54425,4.52248 11.52691,3.11076 -4.13196,3.80587 -6.85553,8.7969 -4.92076,12.86895 1.79623,2.71077 11.04249,4.51865 12.56997,0.50561"
         id="path1113"
         sodipodi:nodetypes="csccccccccccccccccc" />
      <path
         style="fill:none;stroke:none;stroke-width:0.264583px;stroke-linecap:butt;stroke-linejoin:miter;stroke-opacity:1"
         d="m 506.16936,438.40012 c 3.84029,-1.00567 8.83962,-1.77269 10.58114,2.57064 1.51484,3.94954 -0.94906,6.54592 -3.74503,8.45201 1.9116,-0.45855 8.92111,0.68242 9.30946,3.59667 0.21567,2.62193 -4.85038,6.70423 -6.85044,7.09025 2.11355,0.10182 10.10349,1.99135 10.73847,4.53124 0.70383,2.81964 -4.35239,6.49014 -7.40895,7.67879 3.17119,-0.33254 10.14965,1.03009 10.95452,4.29636 0.7546,3.31305 -2.43165,8.58583 -5.76616,9.74559 3.66402,-0.31677 10.00688,1.2756 11.42067,5.5156 1.58719,5.14195 -2.98017,7.01753 -5.53484,8.77786 3.20481,-0.82646 11.66177,4.32247 13.14506,7.78366 1.44699,3.70976 -3.53741,10.40504 -5.39903,12.13832 5.45339,-1.13552 11.67624,0.84854 13.53459,6.32477 1.38017,5.33062 -5.36644,8.52025 -8.49325,9.58905 4.82122,-0.95841 12.76131,1.229 13.9892,6.31692 1.01356,5.60382 -6.50123,9.81024 -10.45842,11.20162 4.03596,-0.62484 12.59921,3.58936 13.04476,7.03207 0.7858,5.28673 -8.15213,9.99871 -13.49794,11.14806"
         id="path1115"
         sodipodi:nodetypes="ccccccccccccccccccc" />
      <ellipse
         style="fill:#ffd5d5;fill-rule:evenodd;stroke:none;stroke-width:0.376701;stroke-linecap:round;stroke-linejoin:round"
         id="path10684"
         cx="-91.473396"
         cy="663.89673"
         rx="4.5880723"
         ry="7.3686881"
         transform="matrix(0.75976864,-0.65019353,0.53452814,0.84515068,0,0)" />
      <ellipse
         style="fill:#ffd5d5;fill-rule:evenodd;stroke:none;stroke-width:0.455507;stroke-linecap:round;stroke-linejoin:round"
         id="ellipse10766"
         cx="-167.30653"
         cy="640.56226"
         rx="5.6508684"
         ry="8.7478552"
         transform="matrix(0.71293084,-0.70123435,0.64138541,0.76721885,0,0)" />
      <ellipse
         style="fill:#ffd5d5;fill-rule:evenodd;stroke:none;stroke-width:0.366567;stroke-linecap:round;stroke-linejoin:round"
         id="ellipse10768"
         cx="71.889786"
         cy="680.26428"
         rx="4.224843"
         ry="7.5774212"
         transform="rotate(-20.641281)" />
      <ellipse
         style="fill:#ffd5d5;fill-opacity:1;fill-rule:evenodd;stroke:none;stroke-width:0.248413;stroke-linecap:round;stroke-linejoin:round"
         id="ellipse10770"
         cx="320.37497"
         cy="617.48169"
         rx="2.6837039"
         ry="5.47823" />
      <path
         style="fill:#ffd5d5;fill-opacity:1;stroke:none;stroke-width:0.223203px;stroke-linecap:butt;stroke-linejoin:miter;stroke-opacity:1"
         d="m 296.80739,623.48156 c -1.38932,1.66505 -0.42835,4.77776 -2e-5,7.52737 0.38105,2.44598 0.0294,5.51323 1.30912,6.49099 1.19,1.3215 4.31849,2.31185 5.6728,0.49091 1.99845,-3.09713 3.95975,-4.68587 7.4183,-6.65462 2.17894,-1.27784 3.32221,-4.57031 1.96366,-6.10919 -1.00173,-1.20913 -5.54501,-0.56339 -7.63648,-1.52728 -2.75363,-1.26908 -6.95858,-1.84418 -8.72738,-0.21818 z"
         id="path22822"
         sodipodi:nodetypes="csccccsc" />
      <path
         style="fill:#ffd5d5;fill-opacity:1;stroke:#000000;stroke-width:0.264583px;stroke-linecap:butt;stroke-linejoin:miter;stroke-opacity:1"
         d="m 465.81082,430.13547 c 0.43471,-0.16301 1.82755,-0.10874 2.29181,-0.10874 9.77686,2.77535 8.457,58.93025 1.2532,72.11097 -7.71651,3.32078 -29.64568,-17.49256 -37.5019,-19.13892 14.04404,-12.5365 23.3865,-48.38051 33.95689,-52.86331 z"
         id="path33319"
         sodipodi:nodetypes="ccccc" />
      <path
         style="fill:#ffd5d5;fill-opacity:1;stroke:none;stroke-width:0.264583px;stroke-linecap:butt;stroke-linejoin:miter;stroke-opacity:1"
         d="m 352.45333,483.83934 c -5.3949,-5.80684 -21.22336,-31.75874 -26.67164,-36.59669 2.66343,10.76123 8.14113,28.16012 13.61062,36.66135 0.59129,0.88691 4.46805,6.04888 5.23732,6.4335 2.25619,-1.54288 6.16898,-4.82729 7.8237,-6.49816 z"
         id="path33321"
         sodipodi:nodetypes="ccccc" />
      <path
         style="fill:#adfcfc;fill-opacity:1;fill-rule:evenodd;stroke:none;stroke-width:0.775901;stroke-linecap:round;stroke-linejoin:round"
         d="m 225.94287,515.81754 c -0.94043,-1.48291 -0.93871,-2.47179 0.007,-3.9628 1.15137,-1.81554 4.27756,-3.04683 7.75537,-3.05458 l 0.87583,-0.003 -0.71965,0.71123 c -1.36957,1.35358 -2.67618,4.53755 -3.27884,8.7345 l -0.27944,1.94604 c -1.65537,-1.46857 -3.31297,-2.74463 -4.36027,-4.37139 z"
         id="path53571"
         sodipodi:nodetypes="ccccsscc" />
      <path
         style="fill:#adfcfc;fill-opacity:1;fill-rule:evenodd;stroke:none;stroke-width:0.775901;stroke-linecap:round;stroke-linejoin:round"
         d="m 225.70487,528.50582 c -0.006,-3.22273 1.22592,-5.86915 3.50002,-7.51972 l 1.09825,-0.79717 0.0621,1.50747 c 0.10778,2.61633 -0.50273,9.06193 -0.39131,11.19185 0.0729,1.39393 0.2035,2.54431 0.20635,2.65099 -3.70668,0.47509 -4.42909,-4.67182 -4.47541,-7.03342 z"
         id="path53610"
         sodipodi:nodetypes="cscsscc" />
      <path
         style="fill:#adfcfc;fill-opacity:1;fill-rule:evenodd;stroke:none;stroke-width:0.775901;stroke-linecap:round;stroke-linejoin:round"
         d="m 232.1354,549.57529 c -3.95913,-1.02704 -6.234,-3.44572 -5.95656,-6.3331 0.0634,-0.65966 0.473,-1.96387 0.91027,-2.89829 0.87011,-1.85939 2.80343,-4.83997 3.13937,-4.83997 0.1772,0 3.46004,14.25884 3.31106,14.38142 -0.0275,0.0228 -0.6594,-0.11686 -1.40414,-0.31006 z"
         id="path53649" />
      <path
         style="fill:#adfcfc;fill-opacity:1;fill-rule:evenodd;stroke:none;stroke-width:0.775901;stroke-linecap:round;stroke-linejoin:round"
         d="m 234.58474,565.13738 c -3.04343,-0.98211 -5.31291,-2.69979 -6.33953,-4.79812 -0.83493,-1.70653 -0.75504,-2.60051 0.43211,-4.8351 0.72292,-1.36075 3.97988,-5.28587 4.74957,-5.72392 0.3871,-0.22029 0.38735,-0.21926 2.4249,9.70143 1.43951,7.00884 1.53974,6.56145 -1.26705,5.65571 z"
         id="path53688" />
      <path
         style="fill:#adfcfc;fill-opacity:1;fill-rule:evenodd;stroke:none;stroke-width:0.775901;stroke-linecap:round;stroke-linejoin:round"
         d="m 238.25475,581.33001 c -2.54117,-0.82344 -4.39101,-1.88198 -5.93231,-3.39468 -1.64615,-1.6156 -2.27132,-2.90912 -2.41171,-4.98994 -0.14456,-2.14265 0.44345,-3.66326 2.08964,-5.40385 1.18762,-1.25574 4.1956,-3.44334 4.73407,-3.44294 0.13233,10e-5 1.04638,3.8699 2.03122,8.59956 0.98485,4.72967 1.84109,8.74488 1.90277,8.92271 0.1554,0.44799 -0.3045,0.39258 -2.41368,-0.29086 z"
         id="path53727" />
      <path
         style="fill:#adfcfc;fill-opacity:1;fill-rule:evenodd;stroke:none;stroke-width:0.775901;stroke-linecap:round;stroke-linejoin:round"
         d="m 241.15716,600.68942 c -1.94763,-0.53705 -3.54785,-1.46404 -4.7549,-2.75447 -1.57968,-1.68881 -2.02023,-2.81006 -2.02217,-5.14657 -0.002,-2.14408 0.60271,-3.97991 2.1885,-6.64649 1.17187,-1.97056 3.87298,-4.87773 4.11287,-4.42664 0.0994,0.1869 0.38099,1.27093 0.62575,2.4089 0.51422,2.3908 3.69696,15.81362 3.90951,16.48791 0.12521,0.39719 -0.0416,0.44979 -1.36189,0.4295 -0.82752,-0.0127 -2.04147,-0.17119 -2.69767,-0.35214 z"
         id="path53766" />
      <path
         style="fill:#adfcfc;fill-opacity:1;fill-rule:evenodd;stroke:none;stroke-width:0.775901;stroke-linecap:round;stroke-linejoin:round"
         d="m 243.68289,618.09221 c -1.72724,-0.69522 -2.89414,-1.64782 -3.69733,-3.01839 -0.6206,-1.05897 -0.67356,-1.3552 -0.56487,-3.1595 0.18929,-3.14208 1.77788,-6.52004 4.48669,-9.54042 l 1.34771,-1.50273 0.30196,1.16385 c 0.70443,2.7151 2.70916,9.68502 3.6707,12.76205 0.57094,1.82705 0.96561,3.39439 0.87705,3.48294 -0.0886,0.0886 -1.28995,0.19513 -2.66976,0.23683 -2.00652,0.0607 -2.75767,-0.0243 -3.75215,-0.42463 z"
         id="path53805" />
      <path
         style="fill:#adfcfc;fill-opacity:1;fill-rule:evenodd;stroke:none;stroke-width:0.775901;stroke-linecap:round;stroke-linejoin:round"
         d="m 248.25232,631.32703 c -3.96044,-0.81866 -5.05277,-3.60523 -2.87431,-7.33247 0.93312,-1.5965 4.4707,-5.77497 4.86754,-5.74933 0.0965,0.006 0.44432,0.99058 0.77302,2.18744 0.46065,1.67734 2.96228,9.59987 3.33139,10.5503 0.18741,0.48257 -4.22349,0.73145 -6.09764,0.34406 z"
         id="path53844" />
      <path
         style="fill:#adfcfc;fill-opacity:1;fill-rule:evenodd;stroke:none;stroke-width:0.775901;stroke-linecap:round;stroke-linejoin:round"
         d="m 252.50009,644.92927 c -1.53031,-0.63476 -2.93163,-1.6235 -3.59774,-2.53851 -0.50654,-0.6958 -0.53253,-0.9712 -0.2836,-3.00494 0.25268,-2.0643 0.36616,-2.37899 1.45562,-4.03498 0.64987,-0.98787 1.86039,-2.39106 2.69007,-3.11824 l 1.5085,-1.32213 1.41775,3.9508 c 0.77976,2.17294 2.07727,5.29136 2.88337,6.92977 0.8061,1.63846 1.38901,3.07466 1.29531,3.19162 -0.0937,0.11695 -0.67355,0.37078 -1.2886,0.56405 -1.31747,0.41399 -4.33199,0.10786 -6.08068,-0.61744 z"
         id="path53883" />
      <path
         style="fill:#adfcfc;fill-opacity:1;fill-rule:evenodd;stroke:none;stroke-width:1.5518;stroke-linecap:round;stroke-linejoin:round"
         d="m 546.81651,560.60686 c -0.20243,-6.18131 -1.26163,-12.22324 -2.74424,-18.15609 l 2.72311,0.61015 c 0,0 10.22266,4.4605 10.49345,6.75012 0.27363,5.63125 -10.61656,11.50379 -10.47232,10.79582 z"
         id="path53922"
         sodipodi:nodetypes="ccscc" />
      <path
         style="fill:#adfcfc;fill-opacity:1;fill-rule:evenodd;stroke:none;stroke-width:1.15808;stroke-linecap:round;stroke-linejoin:round"
         d="m 543.47718,540.84181 c -0.20329,-1.14377 -0.86653,-3.84913 -1.4739,-6.01194 -0.60735,-2.16277 -1.57024,-4.66792 -1.49271,-4.75886 0.48755,-0.57176 4.97788,0.52695 6.90197,1.36512 3.98993,1.73808 4.72061,4.64808 1.94103,7.73038 -1.15014,1.27539 -4.62276,3.70925 -5.34564,3.74658 -0.0887,0.005 -0.32748,-0.9275 -0.53075,-2.07128 z"
         id="path53961"
         sodipodi:nodetypes="sssssss" />
      <path
         style="fill:#adfcfc;fill-opacity:1;fill-rule:evenodd;stroke:none;stroke-width:1.30662;stroke-linecap:round;stroke-linejoin:round"
         d="m 535.59954,516.53508 3.20294,0.76061 c 3.8039,0.90333 7.17098,1.93939 8.28896,4.89028 0.5054,1.334 0.0539,3.0137 -1.18826,4.4205 -0.88589,1.00331 -4.95466,3.46217 -5.59449,3.45464 -1.33747,-4.7996 -2.83368,-8.74084 -4.70915,-13.52603 z"
         id="path54000"
         sodipodi:nodetypes="cssscc" />
      <path
         style="fill:#adfcfc;fill-opacity:1;fill-rule:evenodd;stroke:none;stroke-width:1.27967;stroke-linecap:round;stroke-linejoin:round"
         d="m 534.859,514.35277 c -0.41054,-1.2098 -1.7083,-4.63814 -2.85528,-7.47444 -1.14696,-2.83633 -2.68864,-6.22595 -2.68864,-6.51875 0,-0.38874 1.28795,0.43388 2.22294,0.70203 4.24013,1.21604 8.95704,4.99043 8.95704,7.16724 0,1.52195 -2.18941,5.98616 -3.57353,7.28648 l -1.32199,1.01975 z"
         id="path54039"
         sodipodi:nodetypes="sssssscs" />
      <path
         style="fill:#adfcfc;fill-opacity:1;fill-rule:evenodd;stroke:none;stroke-width:5.86508;stroke-linecap:round;stroke-linejoin:round"
         d="m 1993.7557,1874.9934 c -3.7305,-8.7141 -8.6149,-21.0702 -10.5349,-26.3891 l -4.2941,-11.896 11.6057,3.6902 c 19.101,6.0735 31.9438,12.7126 31.9438,26.4059 0,6.5718 -7.4485,16.5387 -15.4531,20.6781 l -6.5082,3.3001 z"
         id="path54078"
         transform="scale(0.26458334)"
         sodipodi:nodetypes="sscssscs" />
      <path
         style="fill:#adfcfc;fill-opacity:1;fill-rule:evenodd;stroke:none;stroke-width:5.86508;stroke-linecap:round;stroke-linejoin:round"
         d="m 1969.4547,1812.3624 c -12.4345,-32.3248 -13.2217,-29.0993 -0.6768,-27.8046 14.0665,1.4518 29.7882,10.6174 31.4406,17.2011 1.9105,7.6124 -2.3077,18.8519 -10.0779,26.8527 -3.8243,3.9377 -10.2311,8.4554 -11.1749,8.4554 -0.9439,0 -5.2713,-13.6831 -9.511,-24.7046 z"
         id="path54117"
         transform="scale(0.26458334)"
         sodipodi:nodetypes="ssssss" />
      <path
         style="fill:#adfcfc;fill-opacity:1;fill-rule:evenodd;stroke:none;stroke-width:5.86508;stroke-linecap:round;stroke-linejoin:round"
         d="m 1957.2632,1775.6539 c -3.2805,-9.0413 -9.8311,-39.0603 -9.0973,-39.7941 1.4087,-1.4087 27.4096,6.7529 31.9202,10.1173 6.7239,5.0151 8.2617,13.6252 3.0565,20.2427 -4.1851,5.3204 -20.0213,18.2343 -22.5553,18.2343 -0.6979,0 -1.8611,-4.7679 -3.3241,-8.8002 z"
         id="path54156"
         transform="scale(0.26458334)"
         sodipodi:nodetypes="ssssss" />
      <path
         style="fill:#adfcfc;fill-opacity:1;fill-rule:evenodd;stroke:none;stroke-width:5.86508;stroke-linecap:round;stroke-linejoin:round"
         d="m 1947.2365,1734.1824 c -2.11,-6.9733 -8.3378,-32.68 -8.3378,-35.3216 0,-2.4763 3.3795,-0.5447 10.1418,0.4934 12.2542,1.8812 22.605,8.5924 22.605,13.4768 0,5.5824 -6.5843,14.3308 -14.4397,19.1857 -7.6231,4.7113 -8.9673,5.4771 -9.9693,2.1657 z"
         id="path54195"
         transform="scale(0.26458334)"
         sodipodi:nodetypes="ssssss" />
      <path
         style="fill:#adfcfc;fill-opacity:1;fill-rule:evenodd;stroke:none;stroke-width:1.5518;stroke-linecap:round;stroke-linejoin:round"
         d="m 511.84913,446.3308 c -0.63597,-1.70061 -1.94603,-4.01463 -2.91126,-5.14226 -1.99813,-2.33437 -1.72921,-2.67414 2.11654,-2.67414 5.58199,0 7.51025,5.78709 3.23926,9.72163 l -1.2882,1.18674 z"
         id="path54234" />
      <path
         style="fill:#000000;stroke:#ffffff;stroke-width:0.264583px;stroke-linecap:butt;stroke-linejoin:miter;stroke-opacity:1"
         d="m 348.20689,553.03448 c -0.25097,-0.27695 0.44232,-1.29376 1.4775,-2.97898 1.0437,-1.69909 2.37259,-4.1934 4.24338,-7.09632 0.92673,-1.46019 2.08751,-3.07359 3.59579,-4.51157 0.16686,-0.15939 0.33829,-0.31561 0.51421,-0.46835 1.44164,-1.25167 3.06159,-2.16363 4.73459,-2.72532 4.09408,-1.74535 7.47458,-2.43311 9.97932,-2.48962 0.56163,-0.0124 1.1396,0.068 1.43549,0.10231 0.2682,0.0241 0.6709,0.0818 0.79735,0.1006 0.33274,-0.20612 0.34002,0.13314 0.47175,0.13313 0.13173,-10e-6 -0.0163,0.63737 -0.25283,0.60102 -0.21254,0.15815 -0.48551,0.29067 -0.837,0.4242 -0.40334,0.15022 -0.8911,0.25866 -1.32626,0.40812 -2.53283,0.85958 -4.92906,1.72404 -9.04036,3.72836 -1.29152,0.51051 -2.56225,1.2761 -3.73675,2.27805 -0.14347,0.12239 -0.28407,0.24711 -0.42172,0.37389 -1.22921,1.13477 -2.31591,2.54403 -3.29296,3.8495 -2.18024,2.9603 -3.53245,4.83808 -5.3591,6.53629 -1.57469,1.46396 -2.74388,1.9979 -2.9824,1.73469 z"
         id="path67681"
         inkscape:path-effect="#path-effect67683"
         inkscape:original-d="m 348.20689,553.03448 c 6.05751,-5.48931 7.6326,-13.54691 15.1792,-16.27648 2.54982,-1.16261 6.88401,-2.65642 9.50984,-3.10899 0.26855,-0.0413 2.56034,-0.18357 2.56034,-0.54864"
         sodipodi:nodetypes="cccc" />
      <path
         style="fill:#000000;stroke:#ffffff;stroke-width:0.264583px;stroke-linecap:butt;stroke-linejoin:miter;stroke-opacity:1"
         d="m 327.31399,542.53043 c 0.78225,-0.0167 0.87503,0.21166 1.39446,0.45105 0.24418,0.18683 0.38166,0.41406 0.36435,0.6447 -10e-4,0.0138 -0.003,0.0275 -0.005,0.041 -0.0378,0.24348 -0.2463,0.44931 -0.55994,0.58976 v 0 c -0.16572,0.0669 -0.3631,0.11989 -0.57898,0.1539 v 0 0 0 c 0,0 0,0 0,0 -0.48022,0.009 -0.62925,0.0353 -0.72688,0.0394 -0.008,3.4e-4 -0.0177,3.8e-4 -0.0254,3.8e-4 -0.008,0 -0.0174,-4e-5 -0.0254,-4.3e-4 -0.10964,-0.005 -0.22015,-0.039 -0.71393,-0.13309 0,0 0,0 0,0 v 0 0 0 c -0.20912,-0.0664 -0.39362,-0.15536 -0.54687,-0.26217 v 0 c -0.28844,-0.18628 -0.46308,-0.41945 -0.46441,-0.66156 -7e-5,-0.0136 4e-4,-0.0272 10e-4,-0.0408 0.0171,-0.22775 0.18541,-0.42153 0.452,-0.5648 0.22509,-0.18519 0.99314,-0.248 1.43435,-0.25742 z"
         id="path67741"
         inkscape:original-d="m 327.31399,542.53043 c 0.003,0.14047 -0.13715,1.90729 -0.13715,1.92025"
         inkscape:path-effect="#path-effect67743"
         sodipodi:nodetypes="cc" />
      <path
         style="fill:#000000;stroke:#ffffff;stroke-width:0.264583px;stroke-linecap:butt;stroke-linejoin:miter;stroke-opacity:1"
         d="m 322.05481,581.19826 c 0.38005,-0.2081 2.05074,2.64908 6.17283,5.48378 1.97627,1.36163 4.39233,2.59649 7.40714,3.59787 0,0 0,0 0,0 4.45406,1.48176 9.50741,2.22442 15.3297,2.19462 0.83577,-0.004 1.66492,-0.0243 2.48461,-0.0577 6.70432,-0.29296 12.30439,-1.43838 17.05221,-3.05901 2.66636,-0.9139 4.64564,-1.81988 6.35538,-2.83613 2.90409,-1.7551 4.06303,-3.40123 4.36965,-3.2377 0.28524,0.15212 -0.27121,2.33864 -3.28667,4.77335 -1.65316,1.35251 -3.7545,2.62395 -6.47436,3.79251 -4.85375,2.09247 -10.83585,3.59225 -17.85871,3.94014 -0.86278,0.0452 -1.73774,0.0721 -2.6223,0.0779 -6.14788,0.0401 -11.63262,-0.94778 -16.36159,-2.80411 0,0 0,0 0,0 -3.21643,-1.26367 -5.79192,-2.87496 -7.78168,-4.60137 -4.18312,-3.63355 -5.16626,-7.05609 -4.78621,-7.26419 z"
         id="path68208"
         inkscape:path-effect="#path-effect68210"
         inkscape:original-d="m 322.05481,581.19826 c 11.09567,20.26433 53.10857,13.45423 59.17152,2.08576"
         sodipodi:nodetypes="cc" />
      <path
         style="fill:#1e1313;fill-opacity:1;fill-rule:evenodd;stroke:#1e1313;stroke-width:1.09357;stroke-linecap:round;stroke-linejoin:round;stroke-opacity:1"
         d="m 385.48775,626.17573 c 0.0932,-0.45067 0.27249,-1.63877 0.39842,-2.64023 0.35308,-2.80802 2.11393,-8.47127 3.85995,-14.62555 l 1.74298,-6.14357 c 29.98154,9.41302 72.71976,-19.45409 89.79863,-40.76541 0.52894,-0.90086 3.73726,-8.43256 4.34043,-8.22799 -1.41592,16.86029 -5.79546,31.11292 -13.63696,44.42827 -25.46921,14.77278 -57.53054,27.21627 -86.84218,29.58614 -0.17885,0 0.2455,-1.161 0.33873,-1.61166 z"
         id="path74370"
         sodipodi:nodetypes="ssscccccs" />
      <path
         style="fill:#1e1313;fill-opacity:1;fill-rule:evenodd;stroke:none;stroke-width:4.14724;stroke-linecap:round;stroke-linejoin:round;stroke-opacity:1"
         d="m 1369.9716,2302.2637 c -40.9032,-4.1945 -68.3508,-12.3813 -95.9184,-28.6095 -13.3294,-7.8465 -31.2084,-24.2693 -39.1665,-35.9763 -4.8908,-7.1948 -12.1421,-21.5782 -12.1421,-24.0847 0,-0.5247 3.577,2.5424 7.9489,6.8159 9.3258,9.1159 19.8997,15.8973 31.8364,20.7476 43.1632,17.5388 108.9426,13.6596 151.5221,-8.7011 12.2345,-6.425 26.8084,-20.195 26.8084,-25.3912 0,-1.9909 -0.113,-3.192 -0.113,-3.192 0,0 -3.2949,2.6735 -6.9342,5.6808 -20.5132,16.9512 -56.3585,27.9359 -99.2146,29.3596 -35.9148,1.193 -57.704,-2.9272 -81.7272,-14.5528 -14.4535,-6.9946 -30.404,-21.107 -39.5218,-34.5336 -6.4425,-9.487 -5.1025,-13.1445 1.367,-5.0943 7.7404,9.6318 11.4639,7.7085 30.2705,-11.2534 l 10.3851,-11.157 -3.4678,0.6844 c -7.3558,1.4518 -10.3761,-2.8564 -16.0212,-8.7438 -3.2343,-3.3732 -5.1647,-8.606 -8.5861,-14.163 -8.0324,-13.0457 -13.4774,-15.0272 -20.2523,-15.3778 l -7.6353,1.3711 6.0552,-8.8244 c 3.0644,-4.4659 8.9691,-10.8997 11.4833,-15.6489 4.9988,-9.4428 11.3266,-32.1347 11.3266,-40.618 0,-5.0968 -0.026,-4.3615 3.456,-3.97 2.0489,0.2304 9.8207,1.634 11.7505,-0.6912 2.9544,-3.5598 -3.6131,-5.895 -7.6792,-5.9932 0,0 -4.9325,-0.2024 -5.8489,-0.1413 l -0.789,-29.8083 c -0.4428,-16.7283 -1.2644,-40.3665 -1.74,-52.5317 -0.5756,-14.7269 -0.3442,-24.0261 0.6925,-27.8267 3.3323,-12.2164 26.5156,-43.1536 52.0756,-69.4932 l 15.2911,-15.7575 3.6614,2.399 c 4.4049,2.8862 2.3808,4.1372 27.8196,-17.1935 12.2619,-10.2818 18.7481,-16.6294 18.364,-17.9714 -0.3266,-1.1412 -0.8252,-2.8894 -1.108,-3.8848 -0.6813,-2.3985 25.3182,-18.7382 46.5351,-29.2455 53.4663,-26.4784 78.3597,-27.3044 193.272,-6.4131 22.6629,4.1202 41.5921,7.878 42.0647,8.3506 1.1145,1.1144 -13.4965,14.7036 -22.0261,20.4859 -3.6386,2.4666 -6.6317,4.8337 -6.6513,5.2602 -0.02,0.4265 2.9679,1.5453 6.6389,2.4861 14.1788,3.6339 39.7933,17.8146 75.6824,41.8992 38.4886,25.8292 51.0594,33.3075 67.1236,39.9318 12.737,5.2524 31.6323,10.139 33.1883,8.583 0.6485,-0.6485 3.2764,-6.3781 5.8398,-12.7324 l 4.6608,-11.5533 5.5469,9.5423 c 27.7652,47.7646 40.8776,99.6082 40.8742,161.6078 0,29.6767 -1.405,37.6338 -9.5086,53.9141 -11.8988,23.9047 -39.3382,54.8567 -71.8583,81.057 -55.909,45.0441 -131.4464,82.3499 -193.1111,95.3722 -20.6422,4.3593 -49.1781,4.454 -62.6752,0.2081 -5.3787,-1.692 -12.1017,-4.6523 -14.9401,-6.5784 l -5.1606,-3.5021 -6.2282,4.2851 c -18.6151,12.8076 -46.3561,20.1013 -80.5713,21.1839 -9.578,0.303 -19.9029,0.2958 -22.9442,-0.016 z m -50.0058,-212.6124 c 4.8412,-2.5035 15.7662,-14.7616 26.3662,-28.7322 6.2772,-8.2732 11.1069,-14.6139 17.4676,-19.5414 9.3108,-7.2127 21.3435,-11.8859 41.3965,-19.1861 7.5408,-2.7452 14.0731,-4.8124 14.3745,-5.7192 1.4802,-4.4543 -18.379,-3.7793 -34.6146,1.1585 -17.4817,5.3169 -28.5545,10.9844 -37.3147,20.5869 -4.7809,5.2406 -14.9698,21.9501 -22.6328,34.5562 -5.0296,8.2738 -9.2145,14.293 -9.2145,15.849 1.4742,3.401 2.0886,2.0867 4.1718,1.0283 z"
         id="path74409"
         transform="scale(0.26458334)"
         sodipodi:nodetypes="sssssssscsssssscsssscsssssscsssscsssssssssssssscscssssscsssscssssssscc" />
      <path
         style="fill:none;stroke:#ffffff;stroke-width:0.529167;stroke-linecap:butt;stroke-linejoin:miter;stroke-miterlimit:4;stroke-dasharray:none;stroke-opacity:1"
         d="m 385.14902,627.78739 c 11.14406,-3.6958 76.65541,-12.55805 85.21662,-24.48106"
         id="path96779"
         sodipodi:nodetypes="cc" />
      <path
         style="fill:#adfcfc;fill-opacity:1;fill-rule:evenodd;stroke:none;stroke-width:1.0564;stroke-linecap:round;stroke-linejoin:round"
         d="m 260.95592,665.08021 c -2.20472,-0.47674 -4.32306,-1.4591 -5.43862,-2.52214 -0.84832,-0.80836 -0.95036,-1.17091 -1.11329,-3.9558 -0.16538,-2.82672 -0.0902,-3.27594 0.96492,-5.75998 0.62937,-1.48184 1.90834,-3.65681 2.84219,-4.83335 l 2.01793,-2.36773 2.76029,5.15534 c 1.32927,2.48265 4.50292,6.41008 5.98255,8.40793 1.47965,1.99791 3.14607,3.33435 3.04911,3.51389 -0.097,0.17952 -1.99286,1.29577 -2.76953,1.70476 -1.66365,0.87609 -5.77621,1.20178 -8.29554,0.65718 z"
         id="path105470"
         sodipodi:nodetypes="ssssscssssss" />
      <path
         style="fill:#adfcfc;fill-opacity:1;fill-rule:evenodd;stroke:none;stroke-width:1.5518;stroke-linecap:round;stroke-linejoin:round"
         d="m 545.52425,578.92365 c 1.1541,-6.07599 1.44169,-12.20332 1.29226,-18.31679 l 2.52379,1.19083 c 0,0 8.99993,6.58789 8.7635,8.88131 -0.96434,5.55481 -12.8751,8.90394 -12.57955,8.24465 z"
         id="path108161"
         sodipodi:nodetypes="ccscc" />
      <path
         style="fill:#fae7da;fill-opacity:1;stroke:none;stroke-width:0.295219px;stroke-linecap:butt;stroke-linejoin:miter;stroke-opacity:1"
         d="m 309.95691,746.3622 c 8.02231,-2.50928 15.97171,-5.81641 23.93172,-8.57435 8.28905,-2.87192 16.7222,-5.01145 25.01953,-7.9619 4.89206,-1.73955 9.14244,-4.64318 14.14147,-6.12451 30.07641,-9.07595 57.95852,-4.16096 85.39273,-14.69888 4.65587,-1.85035 8.39779,-4.27417 13.05367,-6.12453 4.8951,-1.94543 9.65057,-2.6117 14.68536,-3.67471 5.47011,-1.1549 10.85642,-3.05738 16.31708,-4.28717 4.15032,-0.93467 8.46443,-1.04821 12.50979,-2.44981 7.03215,-2.43644 14.34054,-4.63311 21.7561,-5.51208 0.99668,-0.11816 10.41173,-0.69992 12.50975,-1.2249 4.65537,-2.54808 11.30293,-5.47229 15.87913,-6.0623 3.33938,-0.47001 3.99275,-2.60601 8.15854,0 3.54266,2.2162 4.28506,15.08782 5.43902,18.98604 2.04946,5.91378 3.77021,9.30827 3.26345,14.08641 60.9138,114.49295 95.82097,183.98847 107.19291,275.89691 -14.19088,0.91304 -16.90508,4.60157 -31.15225,4.60157 -10.94827,0 -24.69949,2.95076 -35.61798,4.36935 -13.62393,1.77013 -25.02283,2.60456 -37.07387,5.21416 -12.7229,2.755 -31.02815,14.8123 -43.95914,14.046 -4.61589,-0.2737 -49.40041,17.869 -53.94811,16.938 -10.58389,-2.1669 -69.56799,18.9021 -80.24004,17.3347 -9.83518,-1.4446 -23.00778,-88.36862 -29.92013,-98.74537 -9.01831,-15.1263 -63.91557,-169.52978 -69.83603,-170.70933 0,0 -11.71849,-24.13699 -11.79884,-24.30712 l -2.35192,-4.98018 c 4.73314,-3.92541 4.91722,-2.36677 16.64806,-6.036 z"
         id="path108217"
         sodipodi:nodetypes="sssccsssssccscccssssssccscs" />
      <ellipse
         style="fill:#1e1313;fill-opacity:1;fill-rule:evenodd;stroke:none;stroke-width:1.41979;stroke-linecap:round;stroke-linejoin:round"
         id="ellipse108219"
         cx="21.32148"
         cy="996.40466"
         rx="17.613417"
         ry="27.266539"
         transform="matrix(0.87327677,-0.48722447,0.41512836,0.90976285,0,0)" />
      <path
         style="fill:#1e1313;fill-opacity:1;stroke:none;stroke-width:1.20284px;stroke-linecap:butt;stroke-linejoin:miter;stroke-opacity:1"
         d="m 495.0695,866.9702 c -10.40153,5.32712 -12.20076,22.79029 -15.87564,37.32942 -3.26899,12.93367 -11.48184,27.40303 -7.19764,34.95088 3.11431,9.0633 16.54032,20.57272 27.097,14.39868 16.44263,-11.14436 29.51975,-14.88673 50.82346,-17.35585 13.50073,-1.74155 26.11436,-15.65825 22.62265,-26.15504 -2.41764,-8.10897 -26.31041,-14.48861 -34.64947,-23.6797 C 526.9107,874.3575 507.27057,862.63707 495.0695,866.9702 Z"
         id="path108221"
         sodipodi:nodetypes="csccccsc" />
      <ellipse
         style="fill:#1e1313;fill-opacity:1;fill-rule:evenodd;stroke:none;stroke-width:1.67698;stroke-linecap:round;stroke-linejoin:round"
         id="ellipse108223"
         cx="67.552628"
         cy="950.30249"
         rx="20.804085"
         ry="32.205872"
         transform="matrix(0.87327677,-0.48722447,0.41512836,0.90976285,0,0)" />
      <ellipse
         style="fill:#1e1313;fill-opacity:1;fill-rule:evenodd;stroke:none;stroke-width:1.66679;stroke-linecap:round;stroke-linejoin:round"
         id="ellipse108225"
         cx="131.52286"
         cy="972.66125"
         rx="20.677656"
         ry="32.010151"
         transform="matrix(0.87327677,-0.48722447,0.41512836,0.90976285,0,0)" />
      <ellipse
         style="fill:#1e1313;fill-opacity:1;fill-rule:evenodd;stroke:none;stroke-width:1.41979;stroke-linecap:round;stroke-linejoin:round"
         id="ellipse108227"
         cx="168.86797"
         cy="1028.5228"
         rx="17.613417"
         ry="27.266539"
         transform="matrix(0.87327677,-0.48722447,0.41512836,0.90976285,0,0)" />
      <path
         style="fill:none;stroke:#ffffff;stroke-width:0.410662;stroke-linecap:butt;stroke-linejoin:miter;stroke-miterlimit:4;stroke-dasharray:none;stroke-opacity:1"
         d="m 328.50866,557.13749 c -5.5779,-6.0689 -21.80781,-16.70669 -22.68066,-23.2828"
         id="path144208"
         sodipodi:nodetypes="cc" />
      <path
         style="fill:none;stroke:#ffffff;stroke-width:0.445101;stroke-linecap:butt;stroke-linejoin:miter;stroke-miterlimit:4;stroke-dasharray:none;stroke-opacity:1"
         d="M 324.68478,558.58261 C 320.37766,556.42148 305.6923,540.37616 301.3941,539.63492"
         id="path144210"
         sodipodi:nodetypes="cc" />
      <path
         style="fill:none;stroke:#ffffff;stroke-width:0.424364;stroke-linecap:butt;stroke-linejoin:miter;stroke-miterlimit:4;stroke-dasharray:none;stroke-opacity:1"
         d="m 321.12033,560.11694 c -7.44519,-4.33489 -21.7133,-19.44431 -24.16338,-21.88185"
         id="path144212"
         sodipodi:nodetypes="cc" />
      <path
         style="fill:none;stroke:#ffffff;stroke-width:0.383019;stroke-linecap:butt;stroke-linejoin:miter;stroke-miterlimit:4;stroke-dasharray:none;stroke-opacity:1"
         d="m 319.38493,562.2359 c -12.15741,-3.64622 -22.27355,-13.58656 -25.45958,-22.27712"
         id="path144214"
         sodipodi:nodetypes="cc" />
      <path
         style="fill:none;stroke:#ffffff;stroke-width:0.529167;stroke-linecap:butt;stroke-linejoin:miter;stroke-miterlimit:4;stroke-dasharray:none;stroke-opacity:1"
         d="m 347.54656,584.38974 c 15.59404,12.2678 28.01928,44.30185 28.76573,59.99657"
         id="path144216"
         sodipodi:nodetypes="cc" />
      <path
         style="fill:none;stroke:#ffffff;stroke-width:0.529167;stroke-linecap:butt;stroke-linejoin:miter;stroke-miterlimit:4;stroke-dasharray:none;stroke-opacity:1"
         d="m 356.91475,581.92624 c 10.34469,11.84088 28.17245,39.50183 28.96701,56.38218"
         id="path144218"
         sodipodi:nodetypes="cc" />
      <path
         style="fill:none;stroke:#ffffff;stroke-width:0.529167;stroke-linecap:butt;stroke-linejoin:miter;stroke-miterlimit:4;stroke-dasharray:none;stroke-opacity:1"
         d="m 363.69124,577.0382 c 7.15392,8.66141 36.43817,56.46855 36.67402,65.14973"
         id="path144220"
         sodipodi:nodetypes="cc" />
      <path
         style="fill:none;stroke:#ffffff;stroke-width:0.529167;stroke-linecap:butt;stroke-linejoin:miter;stroke-miterlimit:4;stroke-dasharray:none;stroke-opacity:1"
         d="m 345.53486,585.02983 c 10.33894,20.30143 18.82389,43.98474 24.57022,64.14122 0.48014,1.63245 2.06906,4.52231 2.06906,6.2072"
         id="path144222"
         sodipodi:nodetypes="ccc" />
    </g>
  </g>
</svg>
