<?xml version="1.0" encoding="UTF-8" standalone="no"?>
<!-- Created with Inkscape (http://www.inkscape.org/) -->

<svg
   width="1920"
   height="1080"
   viewBox="0 0 507.99999 285.75001"
   version="1.1"
   id="svg5"
   inkscape:version="1.2.1 (9c6d41e410, 2022-07-14)"
   sodipodi:docname="dogplayguitar.svg"
   inkscape:export-filename="C:\Users\eric\Desktop\myprogrammingwork\mypicturework\dogplayguitar.png"
   inkscape:export-xdpi="96"
   inkscape:export-ydpi="96"
   xmlns:inkscape="http://www.inkscape.org/namespaces/inkscape"
   xmlns:sodipodi="http://sodipodi.sourceforge.net/DTD/sodipodi-0.dtd"
   xmlns:xlink="http://www.w3.org/1999/xlink"
   xmlns="http://www.w3.org/2000/svg"
   xmlns:svg="http://www.w3.org/2000/svg">
  <sodipodi:namedview
     id="namedview7"
     pagecolor="#ffffff"
     bordercolor="#666666"
     borderopacity="1.0"
     inkscape:pageshadow="2"
     inkscape:pageopacity="0.0"
     inkscape:pagecheckerboard="0"
     inkscape:document-units="px"
     showgrid="false"
     units="px"
     inkscape:zoom="0.50373354"
     inkscape:cx="1044.2029"
     inkscape:cy="664.04155"
     inkscape:window-width="1920"
     inkscape:window-height="1001"
     inkscape:window-x="-9"
     inkscape:window-y="-9"
     inkscape:window-maximized="1"
     inkscape:current-layer="layer1"
     showguides="false"
     inkscape:snap-global="true"
     inkscape:showpageshadow="2"
     inkscape:deskcolor="#d1d1d1" />
  <defs
     id="defs2" />
  <g
     inkscape:label="圖層 1"
     inkscape:groupmode="layer"
     id="layer1">
    <g
       id="g96932"
       transform="matrix(0.83685631,0,0,0.83685631,-560.03406,-240.67479)"
       style="display:inline">
      <g
         id="g55253"
         transform="translate(8.0434433,209.80409)">
        <path
           style="display:inline;fill:none;stroke:none;stroke-width:0.264583px;stroke-linecap:butt;stroke-linejoin:miter;stroke-opacity:1"
           d="m 776.26761,164.16585 c -0.14764,-0.24448 -0.30602,-0.48278 -0.44291,-0.73343 -0.41413,-0.75823 -0.54608,-1.80735 -0.79725,-2.63078 -2.0949,-4.27044 -4.77345,-21.83193 1.32874,-20.9825 4.01342,3.0764 7.96209,8.51206 12.06487,10.45936 6.131,-0.74827 9.44373,-3.75779 15.04923,-5.40492 2.32322,-0.69695 5.57826,1.48596 7.01042,0.42722 4.71846,-3.05858 11.84354,-2.6609 15.88893,-5.30627 7.80516,-7.93916 14.83541,-20.09072 25.83053,-20.23313 5.06343,1.14099 4.64251,7.61684 5.13776,11.36818 1.47575,8.17056 0.0955,8.47953 0.0665,16.08998 3.60082,19.53476 5.6739,18.42093 8.1216,28.51482 -2.66012,8.23817 -14.9621,21.05566 -22.84226,29.49631 -0.20012,0.51131 -12.58459,10.32533 -19.35313,10.94132 -7.41402,0.67473 -14.65284,-2.11871 -21.53221,-4.20287 -9.77826,-3.83763 -17.08633,-9.17466 -23.46695,-17.65268 -3.69895,-3.49271 -4.26114,-7.99873 -4.84221,-13.5633 -0.32433,-2.78912 0.9495,-9.843 2.08988,-12.3884 0.52673,-1.17558 0.32517,-2.95077 0.68842,-4.19891 z"
           id="path32302"
           sodipodi:nodetypes="sscccccccccccscccsss" />
        <path
           style="fill:none;stroke:none;stroke-width:0.316943px;stroke-linecap:butt;stroke-linejoin:miter;stroke-opacity:1"
           d="m 798.17644,155.10389 c 3.72222,0.76133 3.70853,6.47626 1.95248,8.88123 -1.40662,1.95038 -6.0201,4.50074 -8.55265,2.97951 -2.21916,-1.34333 -2.94418,-7.15418 -1.44558,-7.71737 -0.10325,-3.96485 4.64014,-4.83994 8.04575,-4.14337 z"
           id="path32304"
           sodipodi:nodetypes="scccs" />
        <path
           style="fill:none;stroke:none;stroke-width:0.264583px;stroke-linecap:butt;stroke-linejoin:miter;stroke-opacity:1"
           d="m 823.62335,170.38567 c -4.49042,6.9275 -9.91949,7.64917 -13.35818,4.06576 -5.17857,-5.04627 -3.45624,-12.07018 2.54582,-10.5481 0.12282,0.0147 1.85689,0.59595 1.96318,0.51095 0.29048,-0.23239 1.1128,-0.69067 1.49348,-0.80487 4.3636,-0.809 8.79242,2.03222 7.3557,6.77626 z"
           id="path32308"
           sodipodi:nodetypes="cccscc" />
        <path
           style="fill:none;stroke:none;stroke-width:0.264583px;stroke-linecap:butt;stroke-linejoin:miter;stroke-opacity:1"
           d="m 812.43235,190.99949 c 2.85929,-1.78813 2.91061,-7.26692 6.68849,-8.14388 3.66379,-0.51291 4.56327,2.03631 7.58285,3.72117 4.17854,2.33152 6.84679,-1.2163 10.11608,-3.15694 0.57576,-0.34176 2.41721,-1.44353 3.01181,-0.57399 1.41076,9.77534 -6.95921,16.26175 -11.65741,21.95509 -1.04182,1.17201 -4.37012,1.91243 -5.86415,2.13652 -2.83665,0.42548 -5.89023,-0.49319 -8.25584,-2.07274 -6.95518,-1.83556 -9.98272,-5.31214 -15.01472,-10.37148 -4.05174,-3.6488 10.13036,-1.8022 13.39289,-3.49375 z"
           id="path32310"
           sodipodi:nodetypes="ccssccsccc" />
        <path
           style="fill:none;stroke:none;stroke-width:0.310583px;stroke-linecap:butt;stroke-linejoin:miter;stroke-opacity:1"
           d="m 835.54317,148.69994 c 6.98796,1.65407 2.98605,12.57265 -4.63763,11.92219 -2.43267,0.18983 -3.75923,-2.27765 -3.98174,-4.20224 -0.0674,-0.63703 -0.16986,-3.42506 0.73507,-3.65971 -0.10119,-3.8853 4.54702,-4.74282 7.8843,-4.06024 z"
           id="path37207"
           sodipodi:nodetypes="ccccc" />
        <path
           style="fill:none;stroke:none;stroke-width:0.316943px;stroke-linecap:butt;stroke-linejoin:miter;stroke-opacity:1"
           d="m 791.55972,159.88676 c -0.0323,-0.29056 0.0314,-0.56317 0.20075,-0.8047 1.04696,-1.10858 2.76873,-2.12431 4.19094,-1.64229 4.52175,2.44187 1.21094,9.04736 -1.89779,8.90652 -2.32431,-0.64581 -3.44885,-3.8334 -2.85277,-5.77528 0.081,-0.24652 0.23174,-0.46003 0.35887,-0.68428 z"
           id="path37242"
           sodipodi:nodetypes="sccccss" />
        <path
           style="display:inline;fill:none;stroke:none;stroke-width:0.310583px;stroke-linecap:butt;stroke-linejoin:miter;stroke-opacity:1"
           d="m 835.06306,158.48479 c -4.36466,2.72323 -6.75258,-1.63048 -5.97258,-5.1444 0.58116,-2.04851 2.74108,-2.87485 4.50026,-1.59322 3.29981,2.15598 0.92405,5.96928 1.24578,6.66788 0.0396,0.0712 0.18439,0.0592 0.2265,0.0697 z"
           id="path37244"
           sodipodi:nodetypes="ccccsc" />
        <path
           style="fill:none;stroke:none;stroke-width:0.264583px;stroke-linecap:butt;stroke-linejoin:miter;stroke-opacity:1"
           d="m 826.32805,139.88613 c 1.54982,-0.14764 2.97484,0.42321 4.38933,0.98014 2.0738,0.81653 3.50594,2.79861 5.61041,3.47502 1.81388,0.58301 3.95496,1.3209 5.84144,1.60386 2.2515,0.33771 5.14766,0.44123 7.16156,1.54445 2.53804,1.39035 2.15887,3.20772 5.47841,3.20772 0.79473,0 2.08456,0.31919 2.69868,-0.15453"
           id="path38176"
           sodipodi:nodetypes="csssssc" />
        <path
           style="fill:none;stroke:none;stroke-width:0.264583px;stroke-linecap:butt;stroke-linejoin:miter;stroke-opacity:1"
           d="m 803.01463,144.94113 c 0.7648,1.72409 3.89896,9.19135 4.1478,11.09485 0.69541,5.3211 0.11894,7.2205 -1.93481,11.23427 -2.58487,8.27128 -10.33437,12.84781 -13.35415,20.34549 -0.37997,1.02589 -0.42365,2.2179 -0.95708,3.17802 3.10325,7.0141 5.88576,16.57362 12.22693,21.60567"
           id="path38178"
           sodipodi:nodetypes="cccccc" />
        <path
           style="display:inline;fill:none;stroke:none;stroke-width:0.264583px;stroke-linecap:butt;stroke-linejoin:miter;stroke-opacity:1"
           d="m 816.62533,143.09385 c 0.75665,3.27007 0.9728,10.95802 2.34394,13.93199 1.44068,3.12478 2.91024,4.64263 5.39577,7.02737 8.5382,5.76017 15.5875,11.632 21.69849,17.56292 3.40677,6.70703 0.37272,14.63677 -1.64576,21.68363"
           id="path38180"
           sodipodi:nodetypes="csccc" />
        <path
           style="display:inline;fill:none;stroke:none;stroke-width:0.264583px;stroke-linecap:butt;stroke-linejoin:miter;stroke-opacity:1"
           d="m 812.08347,191.20231 c 4.06517,9.80723 4.51841,21.06638 14.36872,19.70818 7.74734,-5.73177 3.98103,-12.45851 2.36354,-19.41117 -0.27729,-1.49728 -0.4294,-3.7581 -0.75904,-4.57396"
           id="path38295"
           sodipodi:nodetypes="cccc" />
      </g>
      <path
         style="display:inline;fill:none;stroke:none;stroke-width:0.264583px;stroke-linecap:butt;stroke-linejoin:miter;stroke-opacity:1"
         d="m 873.31656,385.67209 c 14.60149,28.9856 22.37547,40.75016 24.49564,56.46983"
         id="path55362"
         sodipodi:nodetypes="cc" />
      <path
         style="fill:none;stroke:none;stroke-width:0.264583px;stroke-linecap:butt;stroke-linejoin:miter;stroke-opacity:1"
         d="m 789.95137,408.05213 c -7.18214,28.83038 3.60547,75.32491 18.13776,99.87889 14.87876,8.07078 32.38258,13.79717 44.82306,15.06986 12.99303,3.19913 14.32495,3.71426 22.39704,6.57702 9.66403,3.42733 25.57257,12.65336 29.75845,3.23372 2.42044,-5.44681 -6.16467,-4.06329 -6.16467,-4.06329 2.43282,-0.0115 5.09483,-0.10976 7.49344,-2.05086 3.06742,-2.48234 1.78001,-6.31799 -4.32085,-8.32968 -1.3789,-0.45468 6.91804,2.85141 8.28713,1.76054 2.67926,-2.13478 0.15807,-5.61392 0.0347,-5.85233 -3.8311,-7.40352 -21.52737,-9.3987 -28.18862,-11.62538 -15.89175,-5.40421 -46.71862,-9.50312 -49.34723,-21.20387"
         id="path55364"
         sodipodi:nodetypes="cccssssssscc" />
      <path
         style="fill:none;stroke:none;stroke-width:0.264583px;stroke-linecap:butt;stroke-linejoin:miter;stroke-opacity:1"
         d="m 815.60433,511.34407 c -2.58552,8.10216 -8.71593,32.24616 0.91609,33.34002 0,0 4.38249,30.60128 15.50056,37.88756"
         id="path55370"
         sodipodi:nodetypes="csc" />
      <path
         style="fill:none;stroke:none;stroke-width:0.264583px;stroke-linecap:butt;stroke-linejoin:miter;stroke-opacity:1"
         d="m 915.59657,534.32758 c 8.61033,5.44126 14.37238,22.15052 7.57099,26.03703 0,0 6.44672,14.62145 2.67917,19.72301"
         id="path55372"
         sodipodi:nodetypes="ccc" />
      <path
         style="display:inline;fill:none;stroke:none;stroke-width:0.264583px;stroke-linecap:butt;stroke-linejoin:miter;stroke-opacity:1"
         d="m 883.50255,464.84999 c 0.30406,-2.18919 -9.55743,-11.17227 -8.84319,-18.88598 0.69432,-7.49819 12.42296,-13.89622 3.58249,-21.85231 -8.15028,-7.33498 -10.24388,1.23005 -25.04188,-12.53825 -15.58972,15.31223 -25.4115,16.85245 -44.14734,9.59625 -0.68588,3.70358 -6.12975,24.90445 -1.79706,35.3025 1.78845,4.2921 7.62833,4.36973 11.01283,6.80646 2.16712,1.56027 4.89699,5.94836 6.50155,8.83645 0.98563,1.77406 -1.01744,17.14729 -1.40653,18.66459"
         id="path64455"
         sodipodi:nodetypes="cssccsssc" />
      <path
         style="fill:none;stroke:none;stroke-width:0.264583px;stroke-linecap:butt;stroke-linejoin:miter;stroke-opacity:1"
         d="m 865.17705,497.9336 c -1.37676,0.31755 -3.87943,0.49818 -4.92417,1.54292 -1.11244,1.11244 -2.41615,2.73134 -2.88885,4.46458 -0.1665,0.61052 0.40465,2.61194 0,3.15145 -2.14342,2.8579 -5.89394,4.0599 -8.66654,6.04033 -0.88124,0.62947 -1.17927,1.30805 -1.57572,2.10098 -0.0641,0.12808 -1.15366,0.62841 -1.31313,0.78785 -0.1238,0.12382 0.0783,0.36867 0,0.52525 -0.0573,0.11467 -1.77887,1.88624 -2.10098,2.10098 -0.79049,0.52699 -1.83327,1.40651 -2.59339,2.16663"
         id="path64461"
         sodipodi:nodetypes="cssssssssc" />
      <path
         style="fill:none;stroke:none;stroke-width:0.264583px;stroke-linecap:butt;stroke-linejoin:miter;stroke-opacity:1"
         d="m 850.08388,582.64686 c 0.81915,0.81433 11.48988,4.39269 12.56287,4.96684 9.02819,4.83111 31.6107,-3.78312 37.91464,-10.71716"
         id="path64889"
         sodipodi:nodetypes="csc" />
      <path
         style="fill:none;stroke:none;stroke-width:0.264583px;stroke-linecap:butt;stroke-linejoin:miter;stroke-opacity:1"
         d="m 826.43215,580.57134 c 1.37083,-0.9253 3.73425,0.13732 4.47809,1.37324 0.39751,0.66045 0.58966,1.07235 0.82929,1.79115 0.0422,0.12671 2.4e-4,0.47744 0.0995,0.38809 0.62635,-0.5637 -1.33699,-5.46706 2.95222,-6.2094 2.66663,-0.46151 3.79169,1.63616 3.84786,3.91073 v 2.0897 c 0.30178,0 0.0452,-0.60677 0.13269,-0.89559 0.46196,-1.52439 3.08221,-5.68849 5.34056,-4.41822 0.8771,0.49337 0.4713,3.47646 0.2322,4.17941 -0.11732,0.34486 -0.67871,1.28818 -0.53075,0.95528 0.048,-0.10787 0.0811,-0.2222 0.13268,-0.32838 0.73774,-1.51757 4.69757,-5.07066 5.73903,-2.25883 4.25805,12.26693 -13.52962,16.08103 -20.16904,12.54183 -2.11557,-0.77693 -6.29726,-10.48826 -3.08433,-13.11901 z"
         id="path67262"
         sodipodi:nodetypes="cssssccsssscccc" />
      <path
         style="fill:none;stroke:none;stroke-width:0.264583px;stroke-linecap:butt;stroke-linejoin:miter;stroke-opacity:1"
         d="m 901.85017,575.51961 c 3.72751,-2.06439 5.61912,2.92998 5.61912,5.8876 v -0.29853 c -0.16588,-3.10546 1.01619,-8.3831 3.49656,-7.93712 1.58134,1.12527 2.50978,5.60289 2.50743,7.2505 v 0.77618 c 0,-1.50961 0.20511,-8.31487 3.65536,-7.13199 1.99184,1.58274 1.47838,4.11255 0.8891,6.29612 -0.0273,0.0982 -0.0664,0.40045 -0.0664,0.29853 0.43696,-3.24181 2.78665,-5.47478 6.01052,-4.36221 3.89951,2.51588 1.06113,10.01242 -0.44413,12.39925 -13.14574,10.44265 -31.04991,-5.29481 -21.66756,-13.17833 z"
         id="path67264"
         sodipodi:nodetypes="cccccccccccc" />
      <path
         style="fill:none;stroke:none;stroke-width:0.264583px;stroke-linecap:butt;stroke-linejoin:miter;stroke-opacity:1"
         d="m 830.58801,528.02847 c 0.10591,0.88641 0.23308,2.60734 0.23308,3.49541 0,2.17615 0.013,4.62622 0.75059,6.71272 0.85191,2.40959 3.07018,3.80669 3.18995,6.50163 0.2105,4.73618 -1.34776,9.82327 1.59496,14.01647 2.81829,4.01589 5.21499,0.79099 8.44402,2.7442 4.72879,2.86041 8.0794,8.74742 12.05614,10.93454 2.06915,1.13798 7.38381,-3.61333 11.21177,-2.27978 3.59963,1.25402 12.13517,8.00806 16.04359,6.37498 4.68935,-1.9594 5.68431,-7.79286 9.42915,-10.72346 2.83358,-2.2175 6.67366,-2.1327 9.71057,-3.92631 1.68077,-0.99266 3.39678,-2.74976 3.98746,-4.68625 1.56538,-5.13199 -2.09494,-6.99545 -6.52063,-8.19033"
         id="path69450"
         sodipodi:nodetypes="csssssssssssc" />
      <path
         style="display:inline;fill:#ff9955;fill-opacity:1;fill-rule:evenodd;stroke:none;stroke-width:5.25246;stroke-linecap:square;stroke-miterlimit:4;stroke-dasharray:none;stroke-opacity:1"
         d="m 862.09124,587.01651 c -2.02219,-0.82947 -5.40637,-2.16056 -7.52036,-2.95796 -2.85282,-1.07609 -5.47793,-0.004 -5.83547,-0.94417 -0.64632,-1.69992 1.56763,-2.28357 -0.31652,-1.34361 -1.53193,0.76423 -4.58991,3.96804 -4.74728,2.60906 -0.24728,-2.1354 -0.0636,-5.88571 -2.25666,-3.7601 -1.57721,1.52868 -3.02535,5.54151 -3.02535,4.59042 0,-3.45824 -3.97092,-7.56058 -5.36239,-4.20429 l -1.02458,4.18238 -4.0178,-4.83164 c -3.39339,-4.08072 -6.73121,-15.36557 -9.44938,-27.63102 -0.74396,-3.35695 -1.35263,-6.5813 -1.35263,-7.16518 0,-0.68662 -0.45151,-1.17493 -1.27823,-1.38242 -0.70302,-0.17645 -1.82181,-1.08418 -2.48616,-2.01718 -2.37942,-3.34161 -1.87616,-14.32494 1.17446,-25.63067 0.62781,-2.32667 0.76594,-5.27717 0.94898,-5.19255 0.18302,0.0846 2.11746,1.04362 3.21914,2.22594 1.43417,1.53916 2.72698,1.55474 4.46214,4.39496 1.15552,1.89148 3.22368,4.95843 4.59587,6.81546 2.33886,3.16521 2.49573,3.58024 2.50777,6.63517 0.0175,4.45251 0.73874,7.22281 2.65451,10.19648 1.56639,2.43131 1.61039,2.65991 1.29702,6.73852 -0.41315,5.37734 0.36983,9.16535 2.32769,11.26127 1.26445,1.35359 1.86643,1.58734 4.08763,1.58734 3.2983,0 5.19536,1.2436 10.90311,7.14735 4.92966,5.09897 5.23306,5.18107 11.16642,3.02149 l 3.82342,-1.3916 6.84286,3.49007 c 9.73133,4.96324 12.0582,4.71672 16.09673,-1.70532 3.07554,-4.89075 4.61877,-6.19088 9.13296,-7.69425 4.95631,-1.6506 7.81455,-2.81781 8.41846,-5.48576 0.34534,-1.52559 -0.29914,-7.19378 -2.38601,-8.17414 l -2.7024,-1.26955 2.6203,-3.80154 c 3.5419,-5.13866 6.95259,-6.04028 9.1359,-6.80175 3.28266,-1.1449 5.35033,-1.15514 7.20614,1.08252 2.94407,3.54983 3.22567,6.13981 4.20709,10.37159 0.96163,4.14641 0.62158,6.98179 -1.07974,9.00371 l -1.20586,1.43309 1.59983,4.72033 c 1.10214,3.25186 1.67563,6.1092 1.84348,9.18488 l 0.24363,4.46458 -2.5305,0.85352 c -7.22604,4.13358 -22.61749,8.33286 -23.24119,-0.40106 -5.51484,5.94043 -19.61465,8.61139 -29.76787,9.05455 -4.86109,0.21214 -5.52638,0.11686 -8.92916,-1.27895 z"
         id="path75107"
         sodipodi:nodetypes="sssssssscssssssssssssssssscssssscssssscsscccsss" />
      <path
         style="fill:#ffffff;fill-opacity:1;fill-rule:evenodd;stroke:none;stroke-width:3.71404;stroke-linecap:square;stroke-miterlimit:4;stroke-dasharray:none;stroke-opacity:1"
         d="m 937.20077,467.67096 c -0.52927,-2.15016 -0.67948,-6.54479 -0.26646,-7.79621 1.04624,-3.17016 3.19445,-4.33245 6.26359,-3.38895 1.87264,0.57566 2.75463,1.20352 4.07132,2.89825 1.30567,1.6805 1.07702,2.22007 -1.67452,3.95124 -8.98075,5.65038 -8.173,5.23316 -8.39393,4.33567 z"
         id="path75359" />
      <path
         style="fill:#ffffff;fill-opacity:1;fill-rule:evenodd;stroke:none;stroke-width:3.71404;stroke-linecap:square;stroke-miterlimit:4;stroke-dasharray:none;stroke-opacity:1"
         d="m 912.16834,591.75837 c -3.63077,-0.48191 -7.13925,-2.28724 -9.6393,-4.96001 -3.12113,-3.33671 -3.72681,-6.76373 -1.69193,-9.57281 0.61095,-0.84336 1.53138,-1.63896 2.04544,-1.76797 1.85233,-0.4649 3.63625,1.6456 4.16976,4.93313 0.29887,1.84173 0.84489,1.47801 0.84489,-0.56282 0,-3.20787 1.7956,-6.92092 2.98993,-6.18279 0.74284,0.45911 1.80472,3.28607 2.06446,5.49603 0.13615,1.15843 0.36785,2.10622 0.51491,2.10622 0.14705,0 0.37261,-1.00698 0.50125,-2.23774 0.40074,-3.83397 1.85108,-5.6047 3.35711,-4.09866 0.79793,0.79795 0.9951,2.61339 0.51668,4.75792 -0.14809,0.66389 -0.11959,1.20708 0.0633,1.20708 0.18293,0 0.44286,-0.50194 0.57761,-1.11543 0.38926,-1.77226 2.20687,-3.34142 3.87049,-3.34142 3.43834,0 4.24746,4.75424 1.7409,10.22929 -0.67482,1.47397 -1.29175,2.1848 -2.52187,2.90571 -2.95114,1.72948 -6.57715,2.57945 -9.40367,2.20427 z"
         id="path75437" />
      <path
         style="fill:#ffffff;fill-opacity:1;fill-rule:evenodd;stroke:none;stroke-width:3.71404;stroke-linecap:square;stroke-miterlimit:4;stroke-dasharray:none;stroke-opacity:1"
         d="m 831.65585,594.09041 c -2.25801,-0.60727 -3.29438,-1.59393 -4.50297,-4.28705 -2.44629,-5.45107 -1.8578,-9.79876 1.23438,-9.1196 1.14623,0.25175 2.40938,1.51395 2.82472,2.82263 0.38312,1.20705 0.91879,0.7884 0.91879,-0.718 0,-1.88362 0.65564,-3.69668 1.50027,-4.14872 1.14271,-0.61156 2.8761,-0.41889 3.64366,0.40497 0.7466,0.8014 1.16996,2.28722 1.16996,4.10615 0,0.58729 0.16713,1.06778 0.37139,1.06778 0.20429,0 0.3714,-0.39275 0.3714,-0.87278 0,-1.11041 1.97175,-3.85445 3.15804,-4.39495 1.74265,-0.79401 2.66668,1.26109 1.60988,3.5805 -0.70681,1.55128 -0.15438,1.43283 1.6274,-0.34898 2.66097,-2.66097 3.92827,-2.17554 4.274,1.63714 0.44567,4.91484 -3.11774,8.70053 -9.63626,10.23739 -2.82188,0.66529 -6.1669,0.67839 -8.56466,0.0335 z"
         id="path75476" />
      <path
         style="display:inline;fill:none;stroke:none;stroke-width:0.264583px;stroke-linecap:butt;stroke-linejoin:miter;stroke-opacity:1"
         d="m 824.93019,478.2041 c 1.58201,0.11692 8.02167,3.36165 8.02167,3.36165"
         id="path76529"
         sodipodi:nodetypes="cc" />
      <path
         style="display:inline;fill:#ffffff;fill-opacity:1;fill-rule:evenodd;stroke:none;stroke-width:0.656556;stroke-linecap:square;stroke-miterlimit:4;stroke-dasharray:none;stroke-opacity:1"
         d="m 882.28032,576.83989 c -0.56377,-0.0578 -1.67198,-0.31908 -2.45893,-0.57988 -1.92318,-0.63733 -4.06834,-1.64299 -10.19236,-4.77819 l -3.03273,-1.55263 -2.67931,0.97459 c -3.81629,1.38819 -4.73485,1.66426 -5.81882,1.74884 -1.01272,0.079 -1.94008,-0.23878 -3.01776,-1.03417 -0.32493,-0.23982 -1.5059,-1.36764 -2.96881,-2.8352 -4.58631,-4.60081 -5.78487,-5.66703 -7.41897,-6.59974 -1.2655,-0.72234 -2.21424,-0.95726 -4.13641,-1.02425 -1.44002,-0.0502 -1.95496,-0.13695 -2.52722,-0.42583 -0.51441,-0.25966 -1.50284,-1.20157 -1.96983,-1.87711 -0.9743,-1.40935 -1.55866,-3.35743 -1.78064,-5.93616 -0.0861,-1.00002 -0.0414,-4.04543 0.0767,-5.21962 0.0399,-0.39722 0.0764,-1.25402 0.0811,-1.90403 0.0124,-1.72648 -0.10448,-2.07642 -1.39078,-4.16406 -0.80944,-1.31368 -1.09127,-1.85089 -1.48378,-2.82824 -0.59624,-1.48468 -0.92102,-2.94137 -1.11901,-5.01893 l -0.0434,-0.45585 1.3961,1.6705 c 4.12104,4.93101 7.45593,8.6124 11.61627,12.82319 8.1009,8.1992 16.05002,14.80494 23.37398,19.42391 3.61214,2.27801 7.32025,4.16449 10.36156,5.27132 1.86105,0.6773 2.90282,0.89125 4.33657,0.89058 2.67166,0 4.89593,-1.10056 7.33293,-3.62423 2.3686,-2.45287 4.11234,-5.05788 8.69582,-12.99086 2.09513,-3.62622 4.17497,-7.14145 4.49614,-7.59915 0.0329,-0.047 2.86296,1.34223 3.07341,1.50871 1.11069,0.87836 2.02726,3.92102 2.02255,6.71417 -0.003,1.4849 -0.28797,2.22433 -1.21798,3.15479 -1.13179,1.13233 -2.68248,1.89539 -6.53582,3.21614 -2.01742,0.69149 -2.77791,0.98809 -3.6439,1.4211 -1.0469,0.52353 -1.89065,1.12316 -2.73761,1.94562 -0.95959,0.93183 -1.645,1.80787 -2.86044,3.65609 -1.39345,2.11891 -1.49143,2.26422 -1.87142,2.77577 -1.89918,2.55656 -3.61382,3.49284 -5.9571,3.25281 z"
         id="path82499" />
    </g>
  </g>
  <g
     inkscape:groupmode="layer"
     id="layer2"
     inkscape:label="guitar">
    <g
       id="g32225"
       transform="matrix(0.83685632,0,0,0.83685632,-513.65899,-107.42757)"
       style="display:inline"
       inkscape:label="guitar">
      <path
         style="display:inline;fill:none;stroke:none;stroke-width:0.264583px;stroke-linecap:butt;stroke-linejoin:miter;stroke-opacity:1"
         d="m 930.8666,268.6333 0.0692,-4.83697 46.0246,-12.61869 2.77592,3.27868 27.56438,3.49522 -45.00591,32.66088 -14.60443,-2.04152 -98.38057,67.18058 c 0,0 -13.02794,8.32287 -4.43054,11.69616 13.66131,5.36015 23.47747,10.17518 21.06213,19.35035 -3.39341,9.31274 -25.92141,3.57065 -33.18235,5.00005 l -9.82846,2.46355 c -14.1014,5.09377 -18.06087,35.04033 -32.32476,35.08116 -24.26253,-4.56946 -73.81234,-60.46765 -66.18675,-75.3395 7.78683,-10.92033 37.06137,-7.1679 46.57308,-9.61078 15.01774,-5.66097 22.37694,-26.05011 33.35334,-41.8848 10.35297,-14.93532 23.26994,-21.48933 28.19258,-12.33248 3.79728,7.70495 -15.99638,27.34405 -10.29781,39.09438 2.57051,8.06407 12.62795,0.93247 12.62795,0.93247 z"
         id="path1250"
         sodipodi:nodetypes="ccccccccsccccccscccc" />
      <circle
         style="display:inline;fill:#ececec;fill-rule:evenodd;stroke:#000000;stroke-width:0.656286;stroke-linecap:square"
         id="path19429"
         cx="783.63153"
         cy="-627.06793"
         r="2.3109748"
         transform="rotate(53.269929)" />
      <use
         id="use19701"
         inkscape:spray-origin="#path19429"
         xlink:href="#path19429"
         x="0"
         y="0"
         width="100%"
         height="100%"
         transform="translate(-142.10183,134.12916)" />
      <use
         id="use19707"
         inkscape:spray-origin="#path19429"
         xlink:href="#path19429"
         x="0"
         y="0"
         width="100%"
         height="100%"
         transform="translate(39.936886,-11.813086)" />
      <use
         id="use19709"
         inkscape:spray-origin="#path19429"
         xlink:href="#path19429"
         x="0"
         y="0"
         width="100%"
         height="100%"
         transform="translate(-150.35648,146.49848)" />
      <use
         id="use19713"
         inkscape:spray-origin="#path19429"
         xlink:href="#path19429"
         x="0"
         y="0"
         width="100%"
         height="100%"
         transform="translate(15.974758,-4.7252303)" />
      <use
         id="use19715"
         inkscape:spray-origin="#path19429"
         xlink:href="#path19429"
         x="0"
         y="0"
         width="100%"
         height="100%"
         transform="translate(31.9495,-9.4504887)" />
      <use
         id="use19717"
         inkscape:spray-origin="#path19429"
         xlink:href="#path19429"
         x="0"
         y="0"
         width="100%"
         height="100%"
         transform="translate(7.987389,-2.362605)" />
      <use
         id="use19719"
         inkscape:spray-origin="#path19429"
         xlink:href="#path19429"
         x="0"
         y="0"
         width="100%"
         height="100%"
         transform="translate(23.962123,-7.0878675)" />
      <path
         style="display:inline;fill:#ff0000;fill-opacity:1;fill-rule:evenodd;stroke:none;stroke-width:0.198935;stroke-linecap:square;stroke-miterlimit:4;stroke-dasharray:none;stroke-opacity:1"
         d="m 767.05004,363.083 c -6.32883,-9.7997 -9.18837,-18.05948 -7.81112,-22.56241 0.5426,-1.77399 3.50336,-4.25488 6.66053,-5.58104 4.26731,-1.79247 12.54339,-2.97992 24.98598,-3.58504 14.91636,-0.72541 15.36383,-0.81793 20.26983,-4.19098 6.56741,-4.51534 10.38767,-9.40182 19.87081,-25.41676 8.91751,-15.05969 12.28537,-19.60598 18.1406,-24.48817 7.20353,-6.00639 13.15489,-7.10503 16.69211,-3.08139 2.5619,2.91421 1.99459,5.93605 -2.94257,15.67444 -4.03784,7.9645 -6.22596,13.21076 -6.93718,16.63264 -0.74255,3.57253 -0.013,7.74748 1.78248,10.20086 1.20631,1.64847 1.40876,1.7621 3.55718,1.99901 l 2.6287,0.42649 -1.29995,0.70012 c -0.6187,0.33321 -12.15968,8.61731 -26.23527,17.85196 -14.0756,9.23464 -25.63294,16.9509 -25.65268,17.08665 -0.0197,0.13575 3.57937,5.41311 8.51319,12.27294 l 8.9954,12.28648 1.0523,-0.65509 c 0.64114,-0.39914 12.01489,-8.1976 25.23179,-17.31009 21.28104,-14.67237 24.15026,-16.6954 23.1565,-15.37729 -1.27059,1.68528 -1.59921,4.32246 -0.65948,5.58182 0.35774,0.47941 3.01755,1.84093 6.16163,3.15405 12.6197,5.27056 17.43855,9.33524 17.40126,14.67783 -0.0296,4.24623 -1.94893,6.16689 -7.25628,7.26141 -3.43628,0.70866 -7.00564,0.77948 -14.98352,0.29735 -8.0407,-0.48593 -9.99403,-0.34963 -15.73382,1.09778 -6.31501,1.59247 -8.17592,2.50014 -10.9962,5.36341 -2.85158,2.89508 -4.57609,5.4302 -9.30838,13.68382 -4.57635,7.98164 -6.37088,10.69589 -8.77367,13.27011 -3.36433,3.60441 -6.73435,4.61201 -10.85901,3.24677 -12.40351,-4.10553 -29.91595,-18.326 -45.62869,-37.05141 -4.97718,-5.93148 -6.33189,-7.7517 -10.02234,-13.46623 z m 53.44344,39.01372 c 1.18971,0.23395 2.75835,-0.83598 2.93222,-2.0323 0.18686,-1.28564 -0.34891,-2.11523 -1.09076,-2.63481 -1.25022,-0.87564 -3.18253,-0.64495 -3.93319,1.41344 -0.47916,1.3139 0.58398,2.95716 2.09173,3.25367 z m 7.66241,-12.57032 c 1.77371,0.73782 3.62134,-0.56501 3.56603,-2.40568 -0.0472,-1.5719 -1.20842,-2.40989 -2.11384,-2.5293 -1.03676,-0.13673 -2.56184,0.25101 -2.98959,1.83844 -0.21536,1.73098 0.57743,2.8249 1.5374,3.09654 z"
         id="path27333"
         sodipodi:nodetypes="sssssssssssscsssscssssssssssssssssssssscsscc" />
      <path
         style="fill:#ff0000;fill-opacity:1;fill-rule:evenodd;stroke:none;stroke-width:0.198935;stroke-linecap:square;stroke-miterlimit:4;stroke-dasharray:none;stroke-opacity:1"
         d="m 966.04813,251.60658 0.12177,-2.14068 22.57107,-6.18758 c 12.41413,-3.40318 22.66573,-6.17388 22.78143,-6.15713 0.1157,0.0168 0.8765,0.7369 1.6906,1.60033 l 1.4802,1.56985 13.0452,1.6347 13.0453,1.6347 -2.9068,2.30561 c -1.5987,1.26807 -11.4348,8.48228 -21.858,16.03155 l -18.95133,13.72594 -7.2655,-1.05603 -7.26551,-1.05602 -7.58724,-8.92866 c -9.74653,-11.4697 -9.04506,-10.44706 -8.90119,-12.97658 z m 5.08084,4.02949 c 1.50862,-0.0454 2.40071,-0.81045 2.66019,-2.2733 0.11973,-0.67501 -0.0341,-1.06553 -0.2539,-1.48048 -0.26733,-0.50472 -0.66584,-0.97834 -1.21457,-1.19144 -1.27876,-0.49661 -2.99245,-0.19528 -3.60681,1.66658 -0.47567,1.44155 0.89777,3.32424 2.41509,3.27864 z m 6.9636,-2.62431 c 1.19486,0.57017 2.38986,0.0189 2.70849,-0.30292 0.19525,-0.19721 0.50154,-0.3781 0.62716,-0.63244 0.0952,-0.19286 0.2473,-0.35895 0.3343,-0.7882 0.14197,-0.70046 0.11514,-1.42413 -0.47319,-2.16752 -0.74347,-0.93941 -1.53513,-1.14831 -2.40167,-1.03534 -0.49983,0.0652 -0.91832,0.29026 -1.33054,0.58311 -0.37119,0.26371 -0.71986,0.72847 -0.84885,1.19295 -0.35054,1.26222 0.057,2.517 1.3843,3.15036 z m 9.46389,-2.12295 c 0.368,-0.0571 0.64706,-0.0904 1.01123,-0.34785 0.42014,-0.29708 0.91826,-0.67323 1.15278,-1.54351 0.69235,-2.56928 -2.30006,-4.13733 -4.12336,-2.75943 -2.13584,1.6141 -0.61413,5.04977 1.95935,4.65079 z m 7.32188,-2.34703 c 1.20688,0.11353 2.64245,-0.58547 2.88307,-2.24091 0.24061,-1.65544 -1.28766,-2.82805 -1.95101,-2.90651 -1.36639,-0.16161 -2.94223,0.77497 -3.20276,2.09975 -0.25616,1.30276 0.84019,2.9131 2.2707,3.04767 z m 7.84186,-2.36826 c 1.0962,0.1539 2.5349,-0.37589 3.0005,-1.96542 0.1457,-0.49743 0.152,-1.29277 -0.5339,-2.21198 -1.0551,-1.41403 -2.5363,-1.17026 -3.6475,-0.35552 -0.9426,0.69118 -1.1279,2.60665 -0.4135,3.56401 0.2264,0.30345 0.8679,0.86693 1.5944,0.96891 z m 8.1186,-2.39347 c 0.3005,0.0481 0.9769,0.1492 1.905,-0.52451 0.9926,-0.72039 1.5219,-2.2285 0.4441,-3.67281 -0.699,-0.93684 -2.5328,-1.23308 -3.4901,-0.51871 -0.3035,0.22644 -0.8691,0.83007 -1.06,1.53837 -0.3993,1.48199 0.7575,2.94676 2.201,3.17766 z"
         id="path27372"
         sodipodi:nodetypes="scssscccsscccsssssssssssssssssssssssssssssssssssssss" />
      <path
         style="fill:#aa4400;fill-opacity:1;fill-rule:evenodd;stroke:none;stroke-width:0.198935;stroke-linecap:square;stroke-miterlimit:4;stroke-dasharray:none;stroke-opacity:1"
         d="m 817.36949,364.39922 c -3.47688,-4.91405 -6.43629,-9.12834 -6.5764,-9.36507 -0.36721,-0.62037 0.52196,-1.23692 25.56958,-17.73041 12.35347,-8.13454 23.54632,-15.5807 24.87301,-16.54704 1.32673,-0.96629 3.42943,-2.19003 4.67265,-2.71936 1.98655,-0.8458 94.73594,-60.04691 98.61083,-62.94243 l 1.75816,-1.22202 1.54753,2.04996 c 0.82405,1.09157 4.38381,5.40751 7.97931,9.63233 3.59548,4.22479 6.76395,7.72833 6.738,7.90688 -0.026,0.17855 -22.65451,15.60359 -49.46743,33.91421 -26.81291,18.31061 -50.38323,34.55891 -52.37847,36.10737 -1.99523,1.54847 -8.82106,6.33377 -15.16852,10.63403 -6.34743,4.30029 -15.82465,10.75965 -21.06053,14.35417 -5.23588,3.59449 -11.02362,7.51381 -12.86171,8.70959 l -3.34198,2.17413 -2.28579,-3.01043 c -1.25728,-1.65566 -5.13057,-7.03099 -8.60745,-11.94508 z"
         id="path27546"
         sodipodi:nodetypes="sssssccssssssssccss" />
      <path
         style="fill:none;stroke:#000000;stroke-width:0.264583px;stroke-linecap:butt;stroke-linejoin:miter;stroke-opacity:1"
         d="m 965.83785,254.94706 16.12519,18.94455"
         id="path19191"
         sodipodi:nodetypes="cc" />
      <path
         style="fill:none;stroke:none;stroke-width:0.264583px;stroke-linecap:butt;stroke-linejoin:miter;stroke-opacity:1"
         d="m 867.76702,316.21761 -57.85074,37.94287 17.9725,24.81795 57.54179,-39.49165"
         id="path19914"
         sodipodi:nodetypes="cccc" />
      <path
         style="fill:none;stroke:#000000;stroke-width:1.32292;stroke-linecap:butt;stroke-linejoin:miter;stroke-miterlimit:4;stroke-dasharray:none;stroke-opacity:1"
         d="M 966.33621,255.33349 811.83772,356.76728"
         id="path23108"
         sodipodi:nodetypes="cc" />
      <path
         style="fill:none;stroke:#000000;stroke-width:0.926042;stroke-linecap:butt;stroke-linejoin:miter;stroke-miterlimit:4;stroke-dasharray:none;stroke-opacity:1"
         d="M 969.02284,258.54916 814.43357,360.43461"
         id="path23399"
         sodipodi:nodetypes="cc" />
      <path
         style="fill:none;stroke:#000000;stroke-width:0.661458;stroke-linecap:butt;stroke-linejoin:miter;stroke-miterlimit:4;stroke-dasharray:none;stroke-opacity:1"
         d="M 972.6316,262.87491 817.84538,365.03697"
         id="path23401"
         sodipodi:nodetypes="cc" />
      <path
         style="fill:none;stroke:#000000;stroke-width:0.529167;stroke-linecap:butt;stroke-linejoin:miter;stroke-miterlimit:4;stroke-dasharray:none;stroke-opacity:1"
         d="M 976.30326,267.2115 821.12043,369.50696"
         id="path23403"
         sodipodi:nodetypes="cc" />
      <path
         style="fill:none;stroke:#000000;stroke-width:0.264583;stroke-linecap:butt;stroke-linejoin:miter;stroke-miterlimit:4;stroke-dasharray:none;stroke-opacity:1"
         d="M 978.84251,270.32594 823.36565,372.78597"
         id="path23405"
         sodipodi:nodetypes="cc" />
      <path
         style="fill:none;stroke:#000000;stroke-width:0.132292;stroke-linecap:butt;stroke-linejoin:miter;stroke-miterlimit:4;stroke-dasharray:none;stroke-opacity:1"
         d="M 980.88069,272.72825 825.3101,375.40081"
         id="path23407"
         sodipodi:nodetypes="cc" />
      <path
         style="fill:none;stroke:#000000;stroke-width:0.264583px;stroke-linecap:butt;stroke-linejoin:miter;stroke-opacity:1"
         d="m 954.95256,262.44543 15.67293,19.27153"
         id="path25689"
         sodipodi:nodetypes="cc" />
      <use
         id="use25921"
         inkscape:spray-origin="#path25689"
         xlink:href="#path25689"
         x="0"
         y="0"
         width="100%"
         height="100%"
         transform="matrix(1.0098793,0.02004007,0.02004788,1.021388,-41.31692,-7.6479129)" />
      <use
         id="use25923"
         inkscape:spray-origin="#path25689"
         xlink:href="#path25689"
         x="0"
         y="0"
         width="100%"
         height="100%"
         transform="matrix(1.0060363,0.05158353,0.05151119,1.0380869,-101.90129,-4.955564)" />
      <use
         id="use25925"
         inkscape:spray-origin="#path25689"
         xlink:href="#path25689"
         x="0"
         y="0"
         width="100%"
         height="100%"
         transform="matrix(0.98696995,0.04598221,0.0454529,1.0257741,-67.88392,-5.5902347)" />
      <use
         id="use25927"
         inkscape:spray-origin="#path25689"
         xlink:href="#path25689"
         x="0"
         y="0"
         width="100%"
         height="100%"
         transform="matrix(0.99671545,0.03954628,0.03939558,1.0240161,-60.78891,-8.9846909)" />
      <use
         id="use25929"
         inkscape:spray-origin="#path25689"
         xlink:href="#path25689"
         x="0"
         y="0"
         width="100%"
         height="100%"
         transform="matrix(0.99717828,0.03044037,0.03025561,1.0213474,-44.258518,-9.2699952)" />
      <use
         id="use25931"
         inkscape:spray-origin="#path25689"
         xlink:href="#path25689"
         x="0"
         y="0"
         width="100%"
         height="100%"
         transform="matrix(1.0083543,0.01143059,0.01143059,1.0151434,-24.600952,-6.2363687)" />
      <use
         id="use26319"
         inkscape:spray-origin="#path25689"
         xlink:href="#use25929"
         x="0"
         y="0"
         width="100%"
         height="100%"
         transform="matrix(1.0164726,0.03641523,0.03655811,1.0341283,-101.16844,6.997122)" />
      <use
         id="use26321"
         inkscape:spray-origin="#path25689"
         xlink:href="#use25929"
         x="0"
         y="0"
         width="100%"
         height="100%"
         transform="matrix(1.0473709,0.04606073,0.0461858,1.0718918,-147.52347,-3.658392)" />
      <use
         id="use26325"
         inkscape:spray-origin="#path25689"
         xlink:href="#use25929"
         x="0"
         y="0"
         width="100%"
         height="100%"
         transform="matrix(1.041854,0.02968369,0.02979944,1.0554369,-107.27892,-3.809659)" />
      <ellipse
         style="fill:#e6e6e6;fill-opacity:1;fill-rule:evenodd;stroke:none;stroke-width:0.0636422;stroke-linecap:square;stroke-miterlimit:4;stroke-dasharray:none;stroke-opacity:1"
         id="path26589"
         cx="789.01312"
         cy="-520.44977"
         rx="1.2910955"
         ry="1.2910956"
         transform="rotate(53.269929)" />
      <use
         id="use26857"
         inkscape:spray-origin="#path26589"
         xlink:href="#path26589"
         x="0"
         y="0"
         width="100%"
         height="100%"
         transform="translate(-32.271789,21.023723)"
         style="stroke:none" />
      <use
         id="use26867"
         inkscape:spray-origin="#path26589"
         xlink:href="#path26589"
         x="0"
         y="0"
         width="100%"
         height="100%"
         transform="translate(54.81246,-36.609938)"
         style="stroke:none" />
      <use
         id="use26871"
         inkscape:spray-origin="#path26589"
         xlink:href="#path26589"
         x="0"
         y="0"
         width="100%"
         height="100%"
         transform="translate(27.83469,-18.677192)"
         style="stroke:none" />
      <rect
         style="fill:#000000;fill-opacity:1;fill-rule:evenodd;stroke:none;stroke-width:0.0860767;stroke-linecap:square;stroke-miterlimit:4;stroke-dasharray:none;stroke-opacity:1"
         id="rect32086"
         width="18.874771"
         height="32.421806"
         x="431.17444"
         y="741.0683"
         transform="matrix(0.83593468,-0.54882894,0.58557507,0.81061818,0,0)" />
    </g>
  </g>
  <g
     inkscape:groupmode="layer"
     id="layer3"
     inkscape:label="nose">
    <path
       style="display:inline;fill:#000000;fill-opacity:1;fill-rule:evenodd;stroke:none;stroke-width:0.131311;stroke-linecap:square;stroke-miterlimit:4;stroke-dasharray:none;stroke-opacity:1"
       d="m 813.8441,176.12543 c -2.91055,-0.51277 -5.99644,-4.22188 -6.30028,-7.57262 -0.16225,-1.7894 0.55387,-3.448 1.75749,-4.07041 0.92977,-0.4808 2.72383,-0.51451 4.34247,-0.0816 1.02601,0.27441 1.29178,0.2565 1.94832,-0.13131 1.71079,-1.0106 5.22142,-0.32858 6.7497,1.31127 1.55909,1.67294 1.63851,3.69973 0.22535,5.75158 -2.38652,3.4651 -5.75498,5.31599 -8.72305,4.79307 z"
       id="path46318"
       inkscape:label="nose"
       transform="matrix(0.83685632,0,0,0.83685632,-553.30286,-65.098915)" />
  </g>
  <g
     inkscape:groupmode="layer"
     id="layer4"
     inkscape:label="hand">
    <path
       style="display:inline;fill:#ff9955;fill-opacity:1;fill-rule:evenodd;stroke:none;stroke-width:0.656556;stroke-linecap:square;stroke-miterlimit:4;stroke-dasharray:none;stroke-opacity:1"
       d="m 839.50572,520.25986 c -6.94161,-1.84669 -14.24895,-4.43418 -21.10828,-7.47427 -2.43316,-1.07842 -2.68062,-1.20211 -2.66927,-1.33416 0.0122,-0.14039 -0.21249,-0.20894 -0.28739,-0.0877 -0.0369,0.0597 -0.79084,-0.2866 -2.7654,-1.27037 -2.94942,-1.46944 -4.4826,-2.27237 -4.43328,-2.32172 0.0172,-0.0172 1.35649,0.595 2.97601,1.36062 5.857,2.76887 8.71595,4.0663 8.9603,4.0663 0.0316,0 0.0574,-0.0333 0.0574,-0.0739 0,-0.1492 -0.49631,-1.31173 -1.21571,-2.84774 -0.85309,-1.82142 -1.16538,-2.54365 -1.56636,-3.62233 -1.1626,-3.12777 -1.81888,-6.1767 -1.81155,-8.41602 0.006,-1.79396 0.44982,-2.72818 2.11524,-4.45135 1.16901,-1.20957 2.4112,-2.18126 3.68739,-2.88447 1.03352,-0.56948 1.43349,-1.03245 1.73406,-2.00723 0.45042,-1.46082 1.28119,-8.86973 1.36813,-12.20145 0.0894,-3.42315 -0.26466,-4.8138 -1.85759,-7.29707 -2.2325,-3.48038 -3.58907,-4.90535 -6.01001,-6.31307 l -0.86987,-0.5058 h 0.49305 c 0.47977,0 0.50949,0.01 1.10395,0.361 0.336,0.19857 0.79362,0.50638 1.0169,0.68405 1.4918,1.18705 3.69533,4.18245 5.79985,7.88411 0.51049,0.89794 0.5678,1.10032 0.64146,2.26512 0.11927,1.88603 -0.38987,8.01238 -1.12128,13.49222 -0.16267,1.21875 -0.45656,3.10382 -0.5288,3.39156 -0.0329,0.13113 -0.014,0.15385 0.12822,0.15385 0.19847,0 0.19667,0.005 0.36835,-1.01766 0.33367,-1.98745 0.527,-6.38286 0.82045,-9.56686 0.093,-1.00973 0.16928,-2.07939 0.16928,-2.07939 5.02938,1.41408 6.96217,3.09471 9.57506,6.62358 0.61084,0.811 1.87688,2.06066 2.80109,2.7649 4.56388,3.47744 11.9534,6.34614 25.44088,9.87634 0.9208,0.24101 2.30053,1.17898 2.32841,1.20481 0.0279,0.0259 -0.64738,-0.0627 -1.01833,0.003 -1.48812,0.25908 -2.31671,0.57767 -2.9574,1.00293 -0.39577,0.26268 -1.34448,1.38345 -1.94395,2.22086 -0.48223,0.67368 -0.88109,1.45571 -1.08701,2.07552 -0.13224,0.39799 -0.0734,1.00868 -0.0337,1.66926 0.12589,2.09714 -0.80306,2.4461 -0.9068,2.64628 -0.15045,0.29036 -0.77989,0.74986 -1.35128,1.21082 -0.73184,0.59039 -4.02776,2.57058 -5.4038,3.36671 -1.50297,1.19653 -2.16191,2.39477 -3.85403,3.87218 0,0 -0.56748,0.63513 -1.32426,1.39785 -0.48152,0.48527 -1.24876,1.24441 -1.64823,1.54511 -0.68082,0.51247 -1.2179,1.15758 -1.2179,1.15758 -0.0682,0.11025 -1.22013,-0.15732 -2.594,-0.52282 z"
       id="path79495"
       sodipodi:nodetypes="sssssssssssssssssscssssssssssccssssssssssccsssss"
       inkscape:label="arm1"
       transform="matrix(0.83685632,0,0,0.83685632,-560.03405,-240.67479)" />
    <path
       style="display:inline;fill:#ffffff;stroke:none;stroke-width:0.264583px;stroke-linecap:butt;stroke-linejoin:miter;stroke-opacity:1"
       d="m 954.65768,483.03021 c -3.58093,-1.81629 -7.09733,-3.94796 -5.19286,-8.78411 1.22835,-2.27098 6.82221,-0.067 7.6957,0.80654 18.11638,11.70988 -3.00546,29.52128 -16.80784,16.28257 -6.52023,-6.12226 -0.80747,-8.39611 4.30938,-5.90239 14.40985,6.43195 -8.12751,-1.80327 -2.02542,-6.03894 4.02103,-2.87101 7.59648,1.64374 12.02104,3.63633 z"
       id="path62533"
       sodipodi:nodetypes="ccccccc"
       inkscape:label="hand2"
       transform="matrix(0.83685632,0,0,0.83685632,-560.03405,-240.67479)" />
    <path
       style="display:inline;fill:none;stroke:none;stroke-width:0.264583px;stroke-linecap:butt;stroke-linejoin:miter;stroke-opacity:1"
       d="m 935.47897,465.81484 c -0.25622,-1.47971 -0.61708,-3.95186 -0.72701,-5.43588 -0.90446,-12.20944 12.20697,-7.97431 12.20697,-1.43293"
       id="path55366"
       sodipodi:nodetypes="csc"
       inkscape:label="hand2-1"
       transform="matrix(0.83685632,0,0,0.83685632,-560.03405,-240.67479)" />
    <path
       style="display:inline;fill:#ffffff;fill-opacity:1;fill-rule:evenodd;stroke:none;stroke-width:3.71404;stroke-linecap:square;stroke-miterlimit:4;stroke-dasharray:none;stroke-opacity:1"
       d="m 895.64088,536.42161 c -2.75026,-0.4623 -7.15542,-1.92362 -13.15312,-4.36324 -12.06596,-4.90792 -24.38808,-8.57377 -33.64379,-10.00903 -2.14487,-0.33261 -4.54985,-0.78468 -5.3444,-1.00457 l -1.44467,-0.39987 2.18747,-2.12095 c 1.20311,-1.16652 2.93957,-2.95045 3.85879,-3.96428 0.93871,-1.03534 2.72198,-2.39813 4.06828,-3.10904 1.31834,-0.69614 3.11499,-1.92757 3.99259,-2.7365 1.49024,-1.37364 1.59562,-1.59951 1.59562,-3.41921 0,-1.66873 0.19995,-2.21909 1.39277,-3.83387 2.89285,-3.9161 5.2438,-3.85358 19.66362,0.52287 2.41163,0.73194 7.13555,1.99909 10.49756,2.81583 13.7949,3.35129 19.19168,6.01959 21.22358,10.49335 0.84598,1.86266 0.87603,2.77701 0.12649,3.84712 -0.76446,1.09143 -2.11039,1.06339 -5.62755,-0.11726 -3.50496,-1.17661 -4.32903,-0.98878 -1.51805,0.34594 4.09543,1.94466 5.18287,4.68945 2.71598,6.85541 -1.3379,1.17469 -2.75958,1.68986 -5.94863,2.15553 l -1.85701,0.27117 2.41412,0.2327 c 2.62159,0.25273 3.86844,0.7515 4.22928,1.6918 0.29094,0.75814 -0.89926,3.46649 -1.92236,4.37449 -1.57226,1.39536 -4.52112,1.97347 -7.50657,1.47161 z"
       id="path76377"
       inkscape:label="hand1"
       transform="matrix(0.83685632,0,0,0.83685632,-560.03405,-240.67479)" />
  </g>
  <g
     inkscape:groupmode="layer"
     id="layer5"
     inkscape:label="body">
    <path
       style="display:inline;fill:#ffffff;fill-opacity:1;fill-rule:evenodd;stroke:none;stroke-width:3.71404;stroke-linecap:square;stroke-miterlimit:4;stroke-dasharray:none;stroke-opacity:1"
       d="m 823.95988,489.63203 c 0,-0.18116 0.2398,-2.32997 0.53287,-4.77512 1.38113,-11.52316 1.32424,-12.06116 -1.77051,-16.74905 -2.66594,-4.03836 -4.36512,-5.52625 -7.81926,-6.84705 -4.07582,-1.55852 -5.95937,-2.70438 -6.87149,-4.18023 -1.35993,-2.2004 -3.37804,-6.18826 -3.36637,-11.84404 0.0122,-5.88024 -0.12497,-9.00848 2.443,-17.57789 l 1.9445,-6.48895 4.77674,1.38106 c 12.42925,3.59358 19.91775,3.67819 28.74716,-2.107 2.93434,-1.92261 4.63169,-2.95389 8.6209,-6.43907 l 2.03988,-1.78215 2.91965,2.35717 c 5.03357,4.06381 8.118,5.46892 13.62348,6.20609 1.60784,0.21529 3.64974,0.71274 4.53752,1.10546 2.0152,0.89141 5.19417,3.82834 6.1305,5.66372 1.40812,2.76009 0.88228,4.82512 -2.74886,10.79522 -3.02268,4.96972 -3.36508,5.98969 -3.14769,9.37678 0.21793,3.39627 1.36411,5.90256 5.43216,11.87823 1.666,2.44726 4.01391,5.04418 4.01391,5.36972 0,0.83706 -5.91772,9.69986 -8.33721,12.86526 -4.00716,5.24251 -9.43152,9.22832 -12.29857,10.63075 -4.48752,2.19506 -5.4139,1.49624 -14.67173,2.05083 l -6.09952,0.36539 c -7.43254,-2.59379 -9.60533,-6.34949 -9.77376,-9.54751 -0.14933,10.35523 7.4512,3.00257 -8.2745,8.39814 -0.32052,0.123 -0.5828,0.0754 -0.5828,-0.10576 z"
       id="path75320"
       sodipodi:nodetypes="ssssssscssscssssssssssscccs"
       inkscape:label="body3"
       transform="matrix(0.83685632,0,0,0.83685632,-560.03405,-240.67479)" />
    <path
       style="display:inline;fill:#ff9955;fill-opacity:1;fill-rule:evenodd;stroke:none;stroke-width:5.25246;stroke-linecap:square;stroke-miterlimit:4;stroke-dasharray:none;stroke-opacity:1"
       d="m 814.1409,510.47567 -5.93079,-2.80519 -3.59791,-7.51107 c -7.11256,-14.84834 -11.72287,-30.14631 -14.79098,-49.07952 -1.53863,-9.49487 -1.95042,-28.24199 -0.78774,-35.8605 0.45918,-3.00873 1.11159,-6.69914 1.24918,-6.83673 0.13758,-0.13758 1.8066,1.81856 3.14722,2.94269 4.44706,3.72895 7.66969,5.57449 11.50985,7.84503 l 4.11289,1.99932 -1.68783,6.12165 c -3.85112,25.51218 7.04934,27.57124 16.63608,42.89233 1.58488,2.53537 1.61966,7.71785 0.71401,15.63646 -0.76297,6.67084 -0.25464,5.07554 -2.34893,6.20296 -1.03819,0.55888 -3.49086,1.45907 -4.48736,2.56209 -1.47203,1.62933 -1.68055,1.96824 -1.68055,3.79765 0,3.05413 0.61992,7.41439 2.5396,11.3774 0.8762,1.80877 1.53482,3.34089 1.4636,3.40466 -0.0712,0.0638 -2.79837,-1.14639 -6.06028,-2.68923 z"
       id="path75029"
       sodipodi:nodetypes="scsssssscccssssssss"
       inkscape:label="body1"
       transform="matrix(0.83685632,0,0,0.83685632,-560.03405,-240.67479)" />
    <path
       style="display:inline;fill:#ff9955;fill-opacity:1;fill-rule:evenodd;stroke:none;stroke-width:5.25246;stroke-linecap:square;stroke-miterlimit:4;stroke-dasharray:none;stroke-opacity:1"
       d="m 878.49226,458.88647 c -3.88372,-5.87894 -5.30982,-10.28499 -4.77833,-13.04171 0,0 2.15178,-4.91617 3.88044,-7.94491 4.34271,-7.60868 4.92937,-8.94806 0.31924,-12.99582 -2.37728,-2.08727 -4.35139,-3.47629 -7.8124,-3.94358 -10.01496,-1.41064 -13.19229,-3.97671 -16.86391,-8.73791 l 3.61238,-4.5099 c 5.81004,-7.25356 11.58246,-13.36558 14.34727,-18.27604 l 2.11961,-3.76451 4.47794,9.74747 c 11.41484,24.8476 17.64167,35.63907 19.09918,43.72465 0.47019,2.60835 1.06884,4.00545 -0.90969,6.98474 -1.12519,1.69436 -3.77182,5.99294 -6.10835,9.8929 -2.33657,3.89993 -5.17446,8.41317 -5.51207,8.7811 -0.48249,0.52578 -3.1234,-1.75686 -5.87131,-5.91648 z"
       id="path75068"
       sodipodi:nodetypes="ssssccsscssssss"
       inkscape:label="body2"
       transform="matrix(0.83685632,0,0,0.83685632,-560.03405,-240.67479)" />
    <path
       style="display:inline;fill:none;stroke:none;stroke-width:0.264583px;stroke-linecap:butt;stroke-linejoin:miter;stroke-opacity:1"
       d="m 792.59145,160.35986 c 0.50866,-0.98753 3.17524,-1.4147 2.69515,0.31346 -0.19172,0.69017 -1.96204,1.70462 -2.62051,1.11202 -0.39291,-0.3536 -0.0643,-1.01523 -0.0746,-1.42548 z"
       id="path45072"
       inkscape:label="eye10"
       transform="matrix(0.83685632,0,0,0.83685632,-553.30286,-65.098915)" />
    <path
       style="display:inline;fill:none;stroke:none;stroke-width:0.264583px;stroke-linecap:butt;stroke-linejoin:miter;stroke-opacity:1"
       d="m 829.92561,154.18778 c 0.47668,-0.51077 2.39393,-1.41263 2.6371,-0.20897 0.223,1.10375 -1.18303,1.89283 -2.14783,1.76878 -0.36184,-0.0465 -0.45887,-0.7289 -0.38148,-1.00753 0.0138,-0.0499 0.18362,-0.50698 0.16587,-0.51496 -0.084,-0.0378 -0.18317,-0.0203 -0.27366,-0.0373 z"
       id="path45074"
       inkscape:label="eye9"
       transform="matrix(0.83685632,0,0,0.83685632,-553.30286,-65.098915)" />
    <path
       style="display:inline;fill:none;stroke:#000000;stroke-width:1.32292;stroke-linecap:butt;stroke-linejoin:miter;stroke-miterlimit:4;stroke-dasharray:none;stroke-opacity:1"
       d="m 826.60184,152.60717 c 0.042,-0.33601 -0.0872,-0.9479 -0.0428,-1.28526 0.20486,-1.56725 2.50936,-3.43526 3.93078,-3.77639 1.11998,-0.26879 2.28076,-0.32565 3.43321,-0.23136 1.13527,0.0929 2.22181,0.67038 3.19272,1.2165 0.78846,0.44349 1.80951,1.09027 2.22248,1.9479 0.99777,2.07221 0.69561,4.38306 -0.21561,6.4333 -0.21873,0.49212 -0.49599,1.26355 -0.99515,1.55234 -0.17309,0.10015 -0.34526,0.20077 -0.51414,0.306 -0.01,0.006 -0.29462,0.1414 -0.29025,0.14926 0.14833,0.26698 1.14625,0.18096 1.3766,0.20897 2.36612,0.0164 6.69841,-3.59576 8.2317,-4.94053"
       id="path45076"
       sodipodi:nodetypes="ccsssssscscc"
       inkscape:label="eye8"
       transform="matrix(0.83685632,0,0,0.83685632,-553.30286,-65.098915)" />
    <path
       style="display:inline;fill:none;stroke:#000000;stroke-width:1.32292;stroke-linecap:butt;stroke-linejoin:miter;stroke-miterlimit:4;stroke-dasharray:none;stroke-opacity:1"
       d="m 800.47339,155.82629 c -0.0395,-0.36955 -0.23831,-0.66545 -0.52245,-0.89559 -1.40819,-1.14059 -3.13209,-1.19649 -4.85958,-1.02992 -1.25772,0.12128 -2.62384,0.26869 -3.77322,0.84334 -2.31696,1.15844 -3.30052,4.15541 -3.30052,6.55271 0,0.47266 -0.0465,0.965 0.0746,1.42547 0.23731,0.90174 0.61516,1.73623 1.0283,2.56735 0.14341,0.28848 0.27043,0.56657 0.4644,0.82841 0.0304,0.041 0.40296,0.36155 0.29853,0.41795 -0.42989,0.23213 -1.05455,0.13433 -1.52588,0.13433 -1.73305,0 -3.12695,-0.30409 -4.58589,-1.26874 -0.53816,-0.35583 -1.06643,-1.16249 -1.55077,-1.32099"
       id="path45078"
       inkscape:label="eye7"
       transform="matrix(0.83685632,0,0,0.83685632,-553.30286,-65.098915)" />
    <path
       style="display:inline;fill:#000000;fill-opacity:1;fill-rule:evenodd;stroke:none;stroke-width:0.0328279;stroke-linecap:square;stroke-miterlimit:4;stroke-dasharray:none;stroke-opacity:1"
       d="m 793.75672,166.47912 c -0.80571,-0.33122 -1.81898,-1.12132 -2.27883,-2.06779 -0.6609,-1.36035 -0.88286,-3.21456 -0.37743,-4.11479 0.10613,-0.18903 0.21347,-0.6189 0.21347,-0.72957 0,-0.2731 0.26392,-0.6282 0.60206,-0.94672 0.41624,-0.3921 1.01854,-0.81205 1.49892,-1.07359 1.00782,-0.54867 2.46591,-0.52402 3.06988,-0.14473 1.32167,0.82997 2.02001,2.58815 1.87907,4.09215 -0.21632,2.30855 -1.91717,4.66902 -3.69327,4.97532 -0.16221,0.028 -0.65111,0.11773 -0.91387,0.01 z m 0.44601,-4.61486 c 0.49056,-0.22956 1.03554,-0.59602 1.19946,-1.04546 0.1043,-0.28599 0.11308,-0.76653 -0.0109,-1.00598 -0.0549,-0.10618 -0.22293,-0.25585 -0.37338,-0.3326 -0.4147,-0.21157 -1.20195,-0.15709 -1.76985,0.1225 -0.74453,0.36653 -0.89479,0.63764 -0.9045,1.63187 -0.004,0.43043 0.13001,0.69481 0.4155,0.8185 0.27371,0.11857 0.98563,0.0255 1.44351,-0.18883 z"
       id="path46357"
       sodipodi:nodetypes="ssssssssssssssssssss"
       inkscape:label="eye6"
       transform="matrix(0.83685632,0,0,0.83685632,-553.30286,-65.098915)" />
    <path
       style="display:inline;fill:#000000;fill-opacity:1;fill-rule:evenodd;stroke:none;stroke-width:0.0328279;stroke-linecap:square;stroke-miterlimit:4;stroke-dasharray:none;stroke-opacity:1"
       d="m 831.70721,159.56816 c -1.12708,-0.3169 -2.27777,-1.45497 -2.70278,-2.84295 -0.31578,-1.03132 -0.41629,-2.83185 -0.103,-3.62667 0.26858,-0.68136 0.80881,-1.46186 1.44508,-1.76021 0.32157,-0.15078 0.63391,-0.36998 1.2061,-0.36998 0.57346,0 1.31093,0.0549 1.63581,0.2072 1.1452,0.53687 2.07063,1.86946 2.29042,2.92703 0.13423,0.6458 0.0763,1.93637 -0.19476,3.03739 -0.1289,0.52361 0.0444,1.21096 0.0442,1.34691 0,0.3011 -0.5148,0.52582 -1.29257,0.78287 -0.66053,0.21831 -1.84248,0.43506 -2.32849,0.29841 z m -0.21776,-3.8238 c 0.42961,-0.16073 0.92123,-0.57378 1.09998,-0.92413 0.15664,-0.30706 0.17129,-0.90331 0.029,-1.17856 -0.16024,-0.30984 -0.43461,-0.41194 -1.01645,-0.37826 -0.41101,0.0238 -0.59079,0.0731 -0.99494,0.27277 -0.27131,0.13406 -0.60394,0.35706 -0.73917,0.49556 l -0.2459,0.25183 0.17012,0.0427 c 0.1488,0.0373 0.16386,0.0652 0.12002,0.22178 -0.14195,0.50722 0.003,1.12882 0.30363,1.2995 0.22135,0.12577 0.78351,0.0802 1.27373,-0.10319 z"
       id="path46396"
       sodipodi:nodetypes="sssssssscsssssssscssss"
       inkscape:label="eye5"
       transform="matrix(0.83685632,0,0,0.83685632,-553.30286,-65.098915)" />
    <path
       style="display:inline;fill:#803300;fill-opacity:1;fill-rule:evenodd;stroke:none;stroke-width:0.0328279;stroke-linecap:square;stroke-miterlimit:4;stroke-dasharray:none;stroke-opacity:1"
       d="m 829.38784,160.80204 c -1.94857,-0.62629 -2.75939,-4.08545 -2.77079,-4.7618 -0.003,-1.62279 0.003,-3.0618 0.45148,-3.26552 0.6408,-1.25177 0.31266,-2.818 2.56789,-3.82703 1.46113,-0.60253 4.21471,-1.03265 5.85406,-0.62031 1.33342,0.33538 2.70209,1.20344 3.22289,2.25979 0.36574,0.7418 0.71382,0.86076 0.67728,1.80748 -0.048,1.2442 -0.27945,3.74491 -1.01245,4.85848 -1.19303,1.8125 -3.6557,3.22235 -5.66505,3.66879 -0.53115,0.11801 -2.79871,-0.033 -3.32531,-0.11988 z m 4.11803,-1.42589 c 0.81198,-0.19933 1.77268,-0.70892 1.77268,-0.9403 0,-0.0867 -0.044,-0.13049 -0.13131,-0.13049 -0.18471,0 -0.17198,-0.15715 0.1021,-1.26015 0.27451,-1.10475 0.35531,-2.11249 0.22926,-2.8587 -0.16996,-1.0061 -0.80576,-1.94275 -1.74521,-2.5711 -0.75576,-0.50549 -1.11837,-0.62304 -1.93458,-0.62716 -0.664,-0.003 -0.70829,0.006 -1.20293,0.24173 -0.90281,0.43108 -1.49918,1.21201 -1.71802,2.2497 -0.22389,1.06166 -0.0726,2.63681 0.34819,3.62571 0.81748,1.92103 2.36334,2.74122 4.27982,2.27076 z"
       id="path46570"
       sodipodi:nodetypes="ccccssssscsssssssssss"
       inkscape:label="eye4"
       transform="matrix(0.83685632,0,0,0.83685632,-553.30286,-65.098915)" />
    <path
       style="display:inline;fill:#803300;fill-opacity:1;fill-rule:evenodd;stroke:none;stroke-width:0.0328279;stroke-linecap:square;stroke-miterlimit:4;stroke-dasharray:none;stroke-opacity:1"
       d="m 792.34623,167.60089 c -0.56857,-0.13791 -1.56377,-0.73799 -1.94427,-1.14897 -1.3018,-1.4061 -1.77723,-5.24237 -1.08193,-6.76111 0.55462,-1.48416 0.93951,-2.49779 0.93951,-2.49779 0.47059,-0.69052 0.76168,-0.91776 1.24227,-1.34459 1.25042,-1.11054 4.04299,-1.46265 6.45327,-1.16824 1.25949,0.15385 1.95746,0.52021 2.60765,1.16747 0.77653,0.77302 0.84841,2.60684 0.91649,4.06626 0.0612,1.31251 -0.19518,2.92699 -0.73342,3.74237 -0.55042,0.83378 -1.37062,1.74975 -2.57906,2.55479 -1.87071,1.24619 -4.44822,1.72268 -5.82051,1.38981 z m 3.03659,-1.37712 c 0.92613,-0.44545 1.8034,-1.41189 2.37284,-2.614 0.38918,-0.82155 0.57547,-1.61003 0.57843,-2.44839 0.003,-0.83974 -0.097,-1.30838 -0.42746,-2.00249 -0.21571,-0.45317 -0.36589,-0.65682 -0.79883,-1.08332 -0.33316,-0.32818 -0.68101,-0.59915 -0.92715,-0.72221 -0.35584,-0.17792 -0.45424,-0.19682 -1.01764,-0.1954 -1.05315,0.003 -2.03475,0.43926 -3.13725,1.39544 -0.45127,0.3914 -0.57173,0.57462 -0.63693,0.96886 -0.0238,0.14319 -0.12906,0.4535 -0.23415,0.68957 -0.49377,1.10918 -0.37248,2.59692 0.32943,4.04045 0.49014,1.00801 1.23312,1.75539 2.13283,2.14546 0.4503,0.19522 1.13946,0.12733 1.76588,-0.17397 z"
       id="path46609"
       sodipodi:nodetypes="ssccssssssssssssssssssss"
       inkscape:label="eye3"
       transform="matrix(0.83685632,0,0,0.83685632,-553.30286,-65.098915)" />
    <path
       style="display:inline;fill:#ffffff;fill-opacity:1;fill-rule:evenodd;stroke:none;stroke-width:0.0232127;stroke-linecap:square;stroke-miterlimit:4;stroke-dasharray:none;stroke-opacity:1"
       d="m 792.72807,162.06777 c -0.24079,-0.10884 -0.29197,-0.30156 -0.31751,-0.3508 -0.23482,-0.45277 -0.0619,-1.30478 0.17112,-1.67543 0.16044,-0.25518 1.02471,-0.63136 1.53724,-0.69066 1.22316,-0.14151 1.74585,0.65542 1.22911,1.58276 -0.19013,0.34121 -0.57168,0.75687 -1.37016,1.04989 -0.38802,0.0701 -0.90985,0.263 -1.2498,0.0842 z"
       id="path46838"
       sodipodi:nodetypes="cssssccc"
       inkscape:label="eye2"
       transform="matrix(0.83685632,0,0,0.83685632,-553.30286,-65.098915)" />
    <path
       style="display:inline;fill:#ffffff;fill-opacity:1;fill-rule:evenodd;stroke:none;stroke-width:0.0232127;stroke-linecap:square;stroke-miterlimit:4;stroke-dasharray:none;stroke-opacity:1"
       d="m 830.18104,155.83023 c -0.25749,-0.23428 -0.30123,-0.4083 -0.33354,-0.80214 -0.006,-0.0691 0.0469,-0.49979 0.0643,-0.64345 0.006,-0.0507 -0.1805,-0.0349 -0.28239,-0.0847 -0.0709,-0.0346 0.26694,-0.30112 0.38519,-0.42584 0.16799,-0.13839 0.85055,-0.51832 1.31981,-0.59198 0.45591,-0.0716 0.81839,-0.005 0.98874,0.0626 0.32254,0.12792 0.37017,0.47795 0.39952,0.76422 0.093,0.90747 -0.64253,1.54268 -1.48467,1.74123 -0.32458,0.10405 -0.79997,0.17382 -1.05694,-0.0199 z"
       id="path46877"
       sodipodi:nodetypes="cssscssscc"
       inkscape:label="eye1"
       transform="matrix(0.83685632,0,0,0.83685632,-553.30286,-65.098915)" />
    <path
       style="display:inline;fill:#ffaaaa;fill-opacity:1;fill-rule:evenodd;stroke:none;stroke-width:0.092851;stroke-linecap:square;stroke-miterlimit:4;stroke-dasharray:none;stroke-opacity:1"
       d="m 819.34519,206.6869 c -0.49538,-0.0884 -1.02278,-0.20763 -1.172,-0.26489 -0.49763,-0.19096 -1.75837,-3.26212 -3.50383,-8.53519 -0.95051,-2.87153 -1.84803,-5.50095 -1.99451,-5.84316 -0.26558,-0.62043 -0.26389,-0.62462 0.59659,-1.48561 0.57883,-0.57917 1.24751,-1.61797 2.03104,-3.15526 1.76985,-3.4724 2.69653,-4.30436 4.78573,-4.29651 1.41751,0.005 2.18636,0.3757 4.2431,2.04401 0.91922,0.74563 2.10571,1.555 2.63665,1.7986 1.08419,0.49742 1.06233,0.45311 1.3539,2.74573 0.1169,0.91922 0.6196,3.1755 1.11715,5.01395 0.49755,1.83845 1.03987,4.07211 1.20518,4.96368 l 0.30057,1.62104 -1.54258,1.76377 c -1.19277,1.36381 -1.79519,1.89081 -2.65676,2.32404 -2.09087,1.05139 -5.47767,1.649 -7.40023,1.3058 z"
       id="path47069"
       inkscape:label="tounge2"
       transform="matrix(0.83685632,0,0,0.83685632,-553.30286,-65.098915)" />
    <path
       style="display:inline;fill:#ffaaaa;fill-opacity:1;fill-rule:evenodd;stroke:none;stroke-width:0.092851;stroke-linecap:square;stroke-miterlimit:4;stroke-dasharray:none;stroke-opacity:1"
       d="m 822.47521,210.37658 c -1.6051,-0.55186 -3.59961,-2.67241 -4.37494,-4.00048 -0.0697,-0.11943 1.43856,0.48138 2.88734,0.3908 1.9385,-0.12119 2.58493,-0.26879 4.92914,-1.11795 0.87304,-0.31626 1.544,-0.4762 2.92274,-2.02172 l 2.11146,-2.36686 -0.029,1.6265 c 0.003,2.42137 -1.50632,5.26062 -3.80674,7.16159 -0.83926,0.69352 -0.93001,0.72308 -2.20147,0.71712 -0.84071,-0.004 -1.73363,-0.14633 -2.43943,-0.389 z"
       id="path47108"
       sodipodi:nodetypes="cssssccsscc"
       inkscape:label="tounge1"
       transform="matrix(0.83685632,0,0,0.83685632,-553.30286,-65.098915)" />
    <path
       style="display:inline;fill:#ffffff;fill-opacity:1;fill-rule:evenodd;stroke:none;stroke-width:0.092851;stroke-linecap:square;stroke-miterlimit:4;stroke-dasharray:none;stroke-opacity:1"
       d="m 816.37608,215.68886 c -2.4085,-0.38739 -5.12275,-1.06863 -9.40792,-2.36123 l -3.8069,-1.14833 -1.90739,-0.53671 c -2.505,-0.70488 -3.92526,-5.49421 -5.52458,-8.75186 -1.47074,-2.99572 -5.07301,-11.61147 -5.06422,-12.11473 0.0132,-0.75938 0.83325,-3.3766 1.43735,-4.56315 0.99139,-1.94727 2.24289,-3.87019 5.36945,-7.64419 4.24431,-4.73497 5.95895,-7.9282 8.20509,-13.0697 1.23365,-2.81742 1.56639,-4.59224 1.24186,-7.81585 -0.23646,-2.34868 -0.57059,-3.67037 -2.61359,-8.71983 -0.72874,-1.80119 -1.71894,-3.16213 -1.71894,-3.22493 0,-0.24756 3.07208,-0.6826 4.53292,-0.33236 2.20491,0.52859 2.77977,0.48736 4.21664,-0.30245 0.67297,-0.3699 2.07558,-0.9491 3.11692,-1.28711 1.70585,-0.5537 2.47948,-0.64273 2.58291,-0.36147 0.50681,3.91111 1.01742,7.78172 1.71413,11.98875 0.31358,1.21676 1.56157,3.15061 2.4411,4.43447 1.07998,1.57644 3.82926,3.63132 5.83332,5.01697 4.85599,4.22301 18.37119,13.05328 19.97636,18.21388 1.27723,4.1284 2.33118,9.18448 -1.18585,16.71045 l -0.62088,2.59897 -2.04001,1.98291 c -3.59317,3.49261 -12.49791,9.31468 -17.15125,10.93147 -1.37128,0.47645 -1.73566,0.52017 -4.73538,0.5681 -2.15622,0.0345 -3.80211,-0.0369 -4.89114,-0.21207 z m 11.18297,-6.05449 c 2.04392,-2.35386 3.2253,-3.8885 3.31824,-6.46827 l 0.0675,-1.87281 1.26122,-1.5083 c 3.50473,-4.19131 5.78381,-7.70334 6.8409,-10.68678 0.22375,-1.98468 0.326,-5.99731 0.0379,-6.04203 -0.92686,-0.0677 -1.7467,0.60583 -4.05515,2.14527 -3.02944,2.02024 -4.88351,3.03909 -7.04838,2.35727 -1.08962,-0.34318 -2.23231,-1.1413 -3.57878,-2.24513 -1.64469,-1.34831 -2.55731,-1.93397 -3.81951,-2.08346 -2.40442,-0.28477 -3.23586,0.44092 -5.15583,4.16855 -1.58636,3.0799 -1.43894,3.87015 -3.19643,4.23599 -0.70927,0.14764 -4.23947,0.4073 -6.31108,0.73028 -6.15472,0.95957 -6.91315,1.19196 -6.91315,1.19196 -0.0824,0.54735 6.44394,6.39888 8.48147,7.80743 1.73871,1.20197 3.65935,2.17829 5.5852,2.8187 0.81708,0.27171 2.411,1.00182 3.31508,1.45225 0.90406,0.45043 0.75845,-0.50416 0.89637,-0.50416 0.1379,0 1.10166,1.65507 1.40398,2.08915 0.89821,1.28959 2.61419,2.62186 3.78574,3.1563 2.40866,0.56553 3.97788,0.53391 5.08474,-0.74221 z m -10.7659,-33.73603 c 1.8706,-0.58098 3.50163,-1.6156 5.44153,-4.14831 1.05992,-1.38383 1.26906,-2.065 1.2317,-3.44687 -0.0363,-1.34336 -1.14518,-2.73838 -1.14518,-2.73838 -1.25973,-1.06631 -1.86836,-1.30091 -3.93141,-1.7007 -1.56685,-0.0342 -3.28298,0.70687 -3.7125,0.76491 -1.85563,-0.37851 -2.81955,-0.62749 -3.82793,-0.489 -0.92503,0.0739 -1.44332,0.21264 -2.15801,0.95858 -2.23923,2.3313 -0.57649,6.13557 0.47446,7.54482 2.39867,2.66859 4.42176,4.25056 7.62734,3.25495 z"
       id="path47301"
       sodipodi:nodetypes="sscssssccssssssccsccscsssscscsccsssssssssssssccsssscccccs"
       inkscape:label="face3"
       transform="matrix(0.83685632,0,0,0.83685632,-553.30286,-65.098915)" />
    <path
       style="display:inline;fill:#ff9955;fill-opacity:1;fill-rule:evenodd;stroke:none;stroke-width:0.131311;stroke-linecap:square;stroke-miterlimit:4;stroke-dasharray:none;stroke-opacity:1"
       d="m 845.15653,201.76936 c 1.36835,-4.20967 2.40131,-8.88182 2.64679,-11.97152 0.20891,-2.62949 -0.3574,-6.03077 -1.28402,-7.71191 -1.1085,-2.01111 -10.81532,-10.35081 -18.03609,-15.49585 -5.08773,-3.62516 -7.06168,-5.57609 -8.64204,-8.54113 -1.07971,-2.02573 -1.48968,-3.77461 -2.12542,-9.06668 -0.29499,-2.45552 -0.59727,-4.76661 -0.67178,-5.13575 -0.13359,-0.66189 -0.0908,-0.68124 3.09131,-1.39849 1.77475,-0.40002 3.97868,-1.07298 4.89765,-1.49546 0.91901,-0.42248 1.94771,-0.76815 2.286,-0.76815 1.21759,0 4.04834,1.25984 5.87735,2.61575 2.31683,1.71753 5.85711,2.93529 10.40448,3.57886 4.05548,0.57395 5.66949,1.18104 7.3398,2.76076 0.73126,0.69158 1.65783,1.38224 2.05907,1.53479 1.05143,0.39975 4.56221,0.36174 4.70244,-0.0509 0.0614,-0.18055 0.19902,0.24888 0.30588,0.95429 0.23646,1.56099 1.84344,8.19758 2.42383,10.01019 0.23127,0.72221 1.169,3.33334 2.08385,5.80252 0.91488,2.46917 1.90958,5.38668 2.21044,6.48336 l 0.54705,1.99396 -0.93083,1.96155 c -2.01263,4.24119 -6.65156,10.4828 -13.19181,17.74955 -4.95805,5.5088 -5.99395,8.26099 -5.99395,6.19028 z m -11.29501,-41.21693 c 0.69292,-0.20854 1.71625,-0.74592 2.27404,-1.19418 0.73912,-0.59396 1.01418,-0.70481 1.01418,-0.40871 0,0.78559 2.33825,0.51573 4.36364,-0.50361 2.01443,-1.01382 5.33389,-3.50648 5.34572,-4.01425 0.0119,-0.51484 -0.156,-0.42155 -2.03465,1.12969 -1.97548,1.63116 -5.02382,3.27133 -6.06861,3.26521 -0.38444,-0.002 -0.5579,-0.089 -0.39391,-0.19696 0.52504,-0.34575 1.42983,-2.41418 1.70341,-3.89419 0.33695,-1.82263 -0.0756,-4.01441 -0.9516,-5.05545 -0.34314,-0.4078 -1.36858,-1.14524 -2.27878,-1.63876 -1.53619,-0.83295 -1.8244,-0.89717 -4.01849,-0.89542 -2.75299,0.002 -3.88432,0.45993 -5.46732,2.21214 -0.77438,0.85713 -0.96692,1.27931 -0.96692,2.12 0,0.57735 0.11819,1.04973 0.26262,1.04973 0.14444,0 0.26263,-0.40952 0.26263,-0.91004 0,-1.1176 1.16755,-2.54753 2.73267,-3.34674 1.43163,-0.73106 4.17518,-0.92874 5.40861,-0.38971 l 0.91919,0.40169 -2.20184,0.0214 c -1.21099,0.0118 -2.67544,0.16332 -3.25432,0.33676 -1.30865,0.39208 -2.72433,1.69488 -2.95447,2.7189 -0.0956,0.42558 -0.34007,1.14619 -0.54319,1.60134 -0.20309,0.45516 -0.36928,1.58622 -0.36928,2.51348 0,2.17486 0.9906,4.26544 2.35951,4.97949 1.11056,0.57929 3.12335,0.61997 4.85716,0.0982 z"
       id="path47475"
       sodipodi:nodetypes="ssssssssssssssssssscsssssssssscsssscsssssscssssssss"
       inkscape:label="face2"
       transform="matrix(0.83685632,0,0,0.83685632,-553.30286,-65.098915)" />
    <path
       style="display:inline;fill:#ff9955;fill-opacity:1;fill-rule:evenodd;stroke:none;stroke-width:0.131311;stroke-linecap:square;stroke-miterlimit:4;stroke-dasharray:none;stroke-opacity:1"
       d="m 797.34744,209.66948 c -6.91796,-3.38839 -12.88728,-8.11223 -17.32283,-13.70848 -0.55904,-0.70534 -1.39973,-1.69608 -1.86817,-2.20163 -1.39769,-1.50843 -2.63218,-3.81617 -3.2335,-6.04476 -0.89646,-3.32229 -1.32892,-7.55524 -1.04865,-10.26423 0.27882,-2.69482 1.1571,-6.92906 1.71352,-8.26073 0.21251,-0.5086 0.50366,-1.8361 0.64699,-2.95 0.20881,-1.62258 0.1852,-2.20805 -0.11867,-2.94446 -3.43855,-8.33283 -4.2886,-19.73404 -1.67846,-22.51239 1.15601,-1.23054 1.70992,-0.92879 6.07748,3.31096 2.21493,2.15014 4.78446,4.46777 5.71005,5.1503 1.62454,1.19794 1.73291,1.23635 3.12727,1.10851 1.90209,-0.1744 4.06291,-0.91909 8.56408,-2.95146 5.50577,-2.48597 4.7497,-2.72256 6.64957,2.0808 2.06816,5.22886 2.32746,6.11784 2.53224,8.68109 0.22953,2.87295 -0.1285,4.50218 -1.88965,8.59869 -2.1712,5.05036 -2.99125,6.3399 -7.26475,11.42407 -4.33141,5.15305 -5.76204,7.43972 -6.73954,10.77224 l -0.556,1.8955 1.84076,4.46414 c 3.3841,8.20704 5.51289,12.17202 8.03238,14.96081 0.5474,0.60589 0.81577,1.07531 0.61384,1.07362 -0.19738,-0.002 -1.90196,-0.75882 -3.78796,-1.68259 z m -0.44157,-42.87275 c 1.94133,-0.91839 3.86789,-2.80912 4.23693,-4.1581 0.44524,-1.6276 0.34912,-4.30944 -0.19767,-5.51507 -0.26204,-0.57777 -0.4246,-1.20505 -0.36121,-1.39396 0.17627,-0.52543 -0.66423,-1.29633 -1.94786,-1.78656 -1.25986,-0.48114 -4.50389,-0.39587 -6.47898,0.1703 -1.38989,0.39842 -2.88888,1.8366 -3.61889,3.472 -0.93046,2.08455 -0.88927,5.28791 0.0951,7.38949 l 0.7252,1.54833 -1.70262,-0.15899 c -1.85576,-0.17329 -2.95712,-0.63374 -4.28715,-1.79229 -0.90591,-0.78913 -0.97732,-0.61804 -1.16597,-0.33032 -0.35994,0.54897 2.1875,1.93031 3.53232,2.32967 1.42984,0.42462 4.02423,0.54219 4.24056,0.19217 0.0709,-0.11468 -0.24046,-0.95361 -0.69183,-1.8643 -1.04622,-2.11083 -1.22931,-4.12376 -0.56672,-6.23039 0.58831,-1.87034 2.15067,-3.59116 3.65559,-4.02633 1.78536,-0.51625 4.88342,-0.64371 5.86224,-0.24119 0.81444,0.33492 0.6835,0.35877 -1.96966,0.35877 -2.43427,0 -2.99868,0.0837 -3.9334,0.58357 -1.24362,0.66502 -2.13725,1.68453 -2.34574,2.67623 -0.0786,0.37374 -0.32827,1.0201 -0.55484,1.43635 -0.31117,0.57169 -0.37727,1.2141 -0.27014,2.62623 0.20738,2.73381 1.15869,4.63614 2.65907,5.31724 1.12194,0.50932 3.27403,0.25421 5.08571,-0.60285 z"
       id="path47514"
       sodipodi:nodetypes="sssssssssssssssssscsssssssssssscssssssssssssssss"
       inkscape:label="face1"
       transform="matrix(0.83685632,0,0,0.83685632,-553.30286,-65.098915)" />
    <path
       style="display:inline;fill:#f48c47;fill-opacity:1;fill-rule:evenodd;stroke:none;stroke-width:0.131311;stroke-linecap:square;stroke-miterlimit:4;stroke-dasharray:none;stroke-opacity:1"
       d="m 852.44647,150.42442 c -0.27414,-0.18276 -0.65085,-0.33507 -1.30083,-0.95994 -1.62785,-1.56494 -2.96278,-2.34009 -6.88686,-2.94174 -3.27335,-0.50187 -6.33588,-1.17333 -8.21323,-1.99288 -0.50556,-0.22069 -2.09981,-1.01427 -2.96645,-1.67816 -1.55919,-1.19438 -5.01285,-2.57778 -4.97499,-2.57436 l -0.79764,-0.0721 2.813,-3.92513 c 6.05208,-8.44478 7.79132,-8.84584 9.78781,-10.58773 3.71832,-3.24414 6.93153,-4.93327 10.4679,-5.50278 1.89253,-0.30479 2.91644,-0.0122 4.04746,1.15661 1.14049,1.1786 1.81012,2.84899 2.12989,5.31315 0.14997,1.15554 0.47043,3.57823 0.7121,5.38376 0.35595,2.65892 0.39791,4.10628 0.22091,7.61605 -0.288,5.71012 -0.29234,8.00812 -0.018,9.52006 l 0.34243,1.54922 c 0,0 -1.39198,0.3402 -2.27404,0.24735 -1.12962,-0.11891 -2.15377,0.0724 -2.42793,-0.11035 z"
       id="path47553"
       sodipodi:nodetypes="sssssccsssssssscsss"
       inkscape:label="ear1"
       transform="matrix(0.83685632,0,0,0.83685632,-553.30286,-65.098915)" />
    <path
       style="display:inline;fill:#000000;fill-opacity:1;fill-rule:evenodd;stroke:none;stroke-width:3.71404;stroke-linecap:square;stroke-miterlimit:4;stroke-dasharray:none;stroke-opacity:1"
       d="m 815.4176,205.20119 c -0.51067,-0.29169 -1.96312,-0.88104 -3.22767,-1.30968 -3.25073,-1.10189 -6.33842,-3.2177 -10.26975,-7.03727 -2.60856,-2.53439 -3.30013,-3.40736 -2.96675,-3.7449 0.34727,-0.35157 13.13736,-1.34458 13.47118,-1.58484 0.10874,-0.0783 1.16872,3.04047 2.2833,6.30377 1.11461,3.2633 2.3227,6.53217 2.54278,7.09392 0.45006,1.14873 -0.49726,1.04198 -1.83309,0.279 z"
       id="path52139"
       sodipodi:nodetypes="ssssssss"
       inkscape:label="mouth3"
       transform="matrix(0.83685632,0,0,0.83685632,-553.30286,-65.098915)" />
    <path
       style="display:inline;fill:#000000;fill-opacity:1;fill-rule:evenodd;stroke:none;stroke-width:3.71404;stroke-linecap:square;stroke-miterlimit:4;stroke-dasharray:none;stroke-opacity:1"
       d="m 829.74011,196.17449 c -0.64794,-2.63438 -1.32331,-5.42254 -1.8269,-8.61267 l 2.26844,-0.1051 c 1.21274,-0.0562 2.47139,-0.743 4.6796,-2.24551 1.66447,-1.13253 3.36055,-2.11215 3.7691,-2.17694 0.69254,-0.10981 0.74099,0.0833 0.71591,2.85346 -0.0228,2.50548 -0.20484,3.34965 -1.16205,5.38536 -1.21875,2.59185 -2.73886,4.81487 -5.1544,7.53779 l -2.11863,2.48553 z"
       id="path52178"
       sodipodi:nodetypes="ccsssssscc"
       inkscape:label="mouth2"
       transform="matrix(0.83685632,0,0,0.83685632,-553.30286,-65.098915)" />
    <path
       style="display:inline;fill:#000000;stroke:none;stroke-width:0.264583px;stroke-linecap:butt;stroke-linejoin:miter;stroke-opacity:1"
       d="m 812.33691,191.64867 c 0.49723,-0.99268 1.69654,-2.00906 2.26415,-2.99145 0.89987,-1.55739 1.45363,-3.1678 2.68439,-4.53917 0.15417,-0.17179 0.26723,-0.35706 0.47268,-0.47765 0.43471,-0.25513 0.84016,-0.41533 1.32718,-0.50298 0.52549,-0.0946 1.16043,-0.13732 1.6997,-0.0344 0.80148,0.15301 1.80242,0.49676 2.37675,1.01364 0.79772,0.71792 1.71929,1.44384 2.5872,2.07375 0.5619,0.40782 1.16567,0.74183 1.79588,0.9939 0.15685,0.0627 0.89928,0.92402 1.00728,1.02122 0.0425,0.0383 -1.39021,-0.26674 -1.42714,-0.26487 -0.54251,0.0275 -1.18911,0.11439 -1.72232,0.32554 -1.15964,0.4592 -2.39319,0.83436 -3.59855,1.1598 -0.62685,0.16924 -0.77678,0.47495 -1.40663,0.63132 -0.75438,0.18729 -1.20875,0.50872 -2.00081,0.52388 -1.13165,0.0217 -2.30529,-0.10237 -3.42492,0.0896 -0.86305,0.1073 -1.65696,1.44319 -2.58444,1.18044 z"
       id="path53964"
       sodipodi:nodetypes="cssssssssssssssccc"
       inkscape:label="mouth1"
       transform="matrix(0.83685632,0,0,0.83685632,-553.30286,-65.098915)" />
  </g>
</svg>
