<?xml version="1.0" encoding="UTF-8" standalone="no"?>
<!-- Created with Inkscape (http://www.inkscape.org/) -->

<svg
   width="1920"
   height="1080"
   viewBox="0 0 507.99999 285.75001"
   version="1.1"
   id="svg5"
   inkscape:version="1.1.2 (b8e25be833, 2022-02-05)"
   sodipodi:docname="dryer.svg"
   inkscape:export-filename="C:\Users\eric\dryer.png"
   inkscape:export-xdpi="96"
   inkscape:export-ydpi="96"
   xmlns:inkscape="http://www.inkscape.org/namespaces/inkscape"
   xmlns:sodipodi="http://sodipodi.sourceforge.net/DTD/sodipodi-0.dtd"
   xmlns:xlink="http://www.w3.org/1999/xlink"
   xmlns="http://www.w3.org/2000/svg"
   xmlns:svg="http://www.w3.org/2000/svg">
  <sodipodi:namedview
     id="namedview7"
     pagecolor="#ffffff"
     bordercolor="#666666"
     borderopacity="1.0"
     inkscape:pageshadow="2"
     inkscape:pageopacity="0.0"
     inkscape:pagecheckerboard="0"
     inkscape:document-units="px"
     showgrid="false"
     units="px"
     inkscape:zoom="0.51150168"
     inkscape:cx="1093.838"
     inkscape:cy="567.93557"
     inkscape:window-width="1920"
     inkscape:window-height="1001"
     inkscape:window-x="-9"
     inkscape:window-y="-9"
     inkscape:window-maximized="1"
     inkscape:current-layer="layer1" />
  <defs
     id="defs2" />
  <g
     inkscape:label="圖層 1"
     inkscape:groupmode="layer"
     id="layer1">
    <rect
       style="fill:#ffffff;fill-rule:evenodd;stroke:none;stroke-width:2.3226;stroke-linecap:square"
       id="rect12660"
       width="216.73521"
       height="203.8035"
       x="217.25246"
       y="23.794317" />
    <g
       id="g12556"
       transform="translate(-197.59629,18.104372)">
      <path
         style="fill:none;stroke:none;stroke-width:0.264583px;stroke-linecap:butt;stroke-linejoin:miter;stroke-opacity:1"
         d="m 418.46926,61.464699 c 13.74734,-6.230021 46.93606,-25.25811 46.93606,-25.25811 l 8.7874,-0.595898 c 0,0 9.84104,0.233785 12.06774,0.300582 l 49.71966,-7.556063 c 49.58837,-8.094647 72.40996,-7.274977 88.5443,15.621996 17.14361,26.944352 -11.96546,43.614444 -21.34378,50.433099 -15.89849,14.333195 19.0244,46.309935 8.45434,103.443985 -3.01844,13.18042 -20.68276,18.68064 -29.61334,0.12474 -9.95204,-17.72286 -13.42774,-30.20084 -11.31868,-48.39583 0.68357,-6.15194 0.51265,-12.37256 0.83158,-18.54341 1.4068,-25.69991 -2.70146,-33.646974 -32.02333,-35.528155 -18.38784,-1.310121 -38.87115,-2.414238 -54.08459,-3.797218 L 473.03939,92.602889 462.1752,91.845355 C 457.34782,88.607601 421.49779,73.519416 418.53716,69.996572 Z"
         id="path869"
         sodipodi:nodetypes="ccccccccccccccccc" />
      <path
         style="fill:none;stroke:none;stroke-width:0.264583px;stroke-linecap:butt;stroke-linejoin:miter;stroke-opacity:1"
         d="m 486.26046,35.911273 c -0.22579,2.40569 -5.20973,36.828742 -0.83384,55.803144"
         id="path984"
         sodipodi:nodetypes="cc" />
      <path
         style="fill:none;stroke:none;stroke-width:0.264583px;stroke-linecap:butt;stroke-linejoin:miter;stroke-opacity:1"
         d="m 539.83037,27.848433 c 1.7272,21.280474 1.51086,41.439453 -0.31916,67.663203"
         id="path986"
         sodipodi:nodetypes="cc" />
      <path
         style="fill:none;stroke:none;stroke-width:0.264583px;stroke-linecap:butt;stroke-linejoin:miter;stroke-opacity:1"
         d="m 610.41469,31.206317 c -3.33664,22.950237 -2.63358,40.218293 2.14427,56.385334"
         id="path1990"
         sodipodi:nodetypes="cc" />
      <path
         style="fill:none;stroke:none;stroke-width:0.264583px;stroke-linecap:butt;stroke-linejoin:miter;stroke-opacity:1"
         d="m 571.53436,127.381 c -1.65476,1.27341 -6.22222,3.6492 -6.22222,3.6492 0.6858,4.31906 0.65658,12.68619 -1.40086,16.37219 l 6.30136,7.1421"
         id="path1992"
         sodipodi:nodetypes="cccc" />
      <path
         style="fill:none;stroke:none;stroke-width:0.264583px;stroke-linecap:butt;stroke-linejoin:miter;stroke-opacity:1"
         d="m 569.91594,109.51529 c -7.55753,0.54034 -3.39316,9.24913 1.40633,6.41731"
         id="path11178"
         sodipodi:nodetypes="cc" />
      <path
         style="fill:#000000;fill-rule:evenodd;stroke:none;stroke-width:19.5503;stroke-linecap:square"
         d="m 2242.8039,789.08243 c -20.1888,-7.52473 -29.868,-18.92471 -51.1762,-60.27427 -32.271,-62.62361 -38.5511,-96.55784 -32.5949,-176.12671 3.7236,-49.74396 3.4539,-114.86672 -0.5354,-129.27158 -11.0505,-39.90284 -34.5854,-54.70952 -98.481,-61.95808 l -20.1332,-2.28398 1.0113,-5.09767 c 4.7377,-23.8809 6.1166,-195.82403 1.8929,-236.01857 l -1.2566,-11.95777 16.3769,-2.40517 c 56.6304,-8.316962 76.443,-10.195705 118.2764,-11.215625 49.539,-1.207788 71.7123,1.058024 98.064,10.020815 10.1425,3.44968 28.142,11.32316 31.0495,13.58189 0.1759,0.13664 -0.946,9.92583 -2.493,21.75375 -1.5471,11.82792 -3.3382,39.54044 -3.9804,61.58337 -1.3135,45.08563 1.6132,78.61606 9.7795,112.04325 l 4.6855,19.17945 -10.0208,7.3154 c -5.5114,4.02349 -14.2866,10.34028 -19.5002,14.03736 -5.2138,3.69705 -11.812,10.68927 -14.6628,15.53824 -4.7721,8.11712 -5.1787,10.52187 -5.1267,30.32162 0.062,23.52583 0.2828,24.4635 21.4277,90.9088 24.4944,76.97038 31.2795,115.40474 31.2349,176.93001 -0.056,78.02616 -8.6363,106.22258 -36.6745,120.5266 -10.1449,5.17551 -27.4002,6.50759 -37.1629,2.86887 z"
         id="path11672"
         transform="scale(0.26458334)" />
      <path
         style="fill:#000000;fill-rule:evenodd;stroke:none;stroke-width:19.5503;stroke-linecap:square"
         d="m 1950.1402,353.76998 c -43.5482,-3.04177 -87.0965,-6.24534 -96.7739,-7.11904 l -17.5952,-1.58854 -2.274,-13.68519 c -3.915,-23.56172 -5.0564,-66.75872 -2.7379,-103.61647 2.0007,-31.80536 7.5027,-89.16369 8.6643,-90.32529 1.7841,-1.78412 197.4189,-30.00158 198.725,-28.66317 0.9053,0.92773 2.63,25.44038 3.8326,54.47254 2.0788,50.18475 0.7221,127.43306 -3.1503,179.3738 -1.1766,15.78206 -1.5942,17.09005 -5.3937,16.89418 -2.265,-0.11678 -39.7486,-2.70105 -83.2969,-5.74282 z"
         id="path11711"
         transform="scale(0.26458334)" />
      <path
         style="fill:#000000;fill-rule:evenodd;stroke:none;stroke-width:19.5503;stroke-linecap:square"
         d="m 1756.5925,346.21736 c -7.2376,-1.00342 -20.6589,-6.30069 -41.0556,-16.20417 -16.6666,-8.09237 -48.3935,-23.23461 -70.5043,-33.64942 -22.1107,-10.4148 -44.9845,-21.80519 -50.8307,-25.31197 l -10.6294,-6.37596 -0.56,-15.52889 -0.56,-15.52889 23.0428,-11.41499 c 30.2051,-14.96304 73.0803,-38.09047 117.8617,-63.57604 l 36.168,-20.58361 38.8005,-0.77531 c 36.9674,-0.73867 38.7499,-0.60517 37.7289,2.82557 -0.5894,1.98047 -2.632,18.11694 -4.5392,35.85882 -4.2733,39.75253 -4.9832,138.91572 -1.1256,157.22201 1.3412,6.36482 2.1479,11.86308 1.7926,12.21835 -1.4911,1.49118 -65.7272,2.19182 -75.5897,0.8245 z"
         id="path11750"
         transform="scale(0.26458334)" />
      <path
         style="fill:#000000;fill-rule:evenodd;stroke:none;stroke-width:19.5503;stroke-linecap:square"
         d="m 2313.6863,320.29386 c -5.2179,-19.37806 -9.6057,-47.52002 -11.7126,-75.12208 -2.3154,-30.33244 -0.8708,-67.37672 4.2533,-109.07237 l 2.2867,-18.60737 8.6783,6.23226 c 13.7239,9.85582 36.3814,34.75127 45.0375,49.48611 21.3113,36.27725 21.3979,73.66701 0.2463,106.39262 -8.4371,13.05382 -27.015,33.50014 -39.3155,43.26957 l -7.2328,5.74448 z"
         id="path11789"
         transform="scale(0.26458334)" />
      <path
         style="fill:#000000;fill-rule:evenodd;stroke:none;stroke-width:19.5503;stroke-linecap:square"
         d="m 2239.4843,786.31687 c -13.0882,-6.83124 -15.9884,-9.25923 -24.4966,-20.50817 -10.7474,-14.20947 -35.7189,-63.35103 -43.6501,-85.89915 -13.1162,-37.28902 -14.807,-62.63819 -10.3375,-154.98459 4.2711,-88.24591 0.1447,-116.33223 -20.0596,-136.53658 -13.8404,-13.8404 -38.6816,-22.82022 -74.7155,-27.00884 -11.1117,-1.29165 -21.0663,-2.88191 -22.1213,-3.53393 -1.2522,-0.77392 -1.1987,-14.05888 0.1542,-38.2648 2.2229,-39.77275 1.3519,-202.96578 -1.1131,-208.55112 -1.8464,-4.18375 -2.2068,-4.09886 44.8249,-10.558 53.1941,-7.305473 133.8168,-8.864742 161.5217,-3.123884 15.4345,3.198254 50.6182,15.411504 53.9258,18.719184 0.4679,0.46782 -0.2918,9.95457 -1.6882,21.08167 -1.5379,12.25554 -2.5541,42.19644 -2.5776,75.94937 -0.04,57.08362 0.9298,67.94194 8.9316,100.03214 2.0555,8.24365 3.7374,15.43131 3.7374,15.97258 0,0.54127 -7.698,6.66268 -17.1065,13.60312 -28.4727,21.00353 -31.7887,26.60553 -31.7353,53.61322 0.043,21.59529 2.5862,33.28644 17.5585,80.70769 14.7638,46.76076 25.8878,89.79374 30.5751,118.27918 5.0879,30.9198 5.1277,115.89522 0.065,139.5997 -7.7362,36.22469 -23.8323,53.0086 -52.143,54.37104 -9.4222,0.45345 -14.4767,-0.31179 -19.5502,-2.95983 z"
         id="path11828"
         transform="scale(0.26458334)" />
      <path
         style="fill:#000000;fill-rule:evenodd;stroke:none;stroke-width:2.44378;stroke-linecap:square"
         d="m 2148.9696,439.25062 c -4.1303,-1.11076 -7.8645,-4.74269 -9.3542,-9.09797 -0.4269,-1.24818 -0.5606,-2.18725 -0.5649,-3.96927 -0.01,-2.21054 0.043,-2.43261 0.9113,-4.18978 1.1141,-2.25418 3.0109,-4.1158 5.384,-5.28407 1.858,-0.9147 5.8526,-1.99926 7.3635,-1.99926 h 1.0164 l 0.7708,2.38269 c 1.6271,5.03013 2.898,10.62399 3.8375,16.89045 l 0.5629,3.75511 -1.2506,0.57109 c -2.8681,1.30971 -6.0305,1.65268 -8.6767,0.94101 z"
         id="path11867"
         transform="scale(0.26458334)" />
      <path
         style="fill:#000000;fill-rule:evenodd;stroke:none;stroke-width:2.44378;stroke-linecap:square"
         d="m 2146.2224,573.01173 c -4.6544,-5.27844 -9.7331,-11.0355 -11.286,-12.79349 l -2.8234,-3.19632 0.7482,-1.56906 c 1.5898,-3.33436 3.3363,-9.60593 4.2137,-15.13205 1.2524,-7.88743 1.7054,-15.69119 1.5249,-26.27069 -0.135,-7.91424 -0.3024,-10.63744 -0.989,-16.08814 l -0.3027,-2.40294 1.2349,-0.62551 c 4.9695,-2.51716 15.1456,-8.35876 18.9113,-10.85601 1.3887,-0.92093 2.5455,-1.67441 2.5707,-1.67441 0.061,0 -0.031,2.29146 -0.4558,11.3636 -0.3447,7.36267 -0.5768,14.73453 -1.0999,34.94612 -0.428,16.53553 -0.9434,25.29632 -2.1997,37.3899 -0.391,3.76343 -0.8327,8.3272 -0.9817,10.14171 -0.1489,1.81451 -0.3455,3.98881 -0.4368,4.83178 l -0.1661,1.53267 z"
         id="path11906"
         transform="scale(0.26458334)" />
      <ellipse
         style="fill:#808080;fill-rule:evenodd;stroke:none;stroke-width:2.64583;stroke-linecap:square"
         id="path12083"
         cx="613.00354"
         cy="47.692131"
         rx="0.90521866"
         ry="0.58192623" />
      <use
         id="use12315"
         inkscape:spray-origin="#path12083"
         xlink:href="#path12083"
         x="0"
         y="0"
         width="100%"
         height="100%"
         transform="translate(0.08902257,-9.150565)" />
      <use
         id="use12317"
         inkscape:spray-origin="#path12083"
         xlink:href="#path12083"
         x="0"
         y="0"
         width="100%"
         height="100%"
         transform="translate(2.446673e-5,-6.3590102)" />
      <use
         id="use12319"
         inkscape:spray-origin="#path12083"
         xlink:href="#path12083"
         x="0"
         y="0"
         width="100%"
         height="100%"
         transform="translate(3.5883056,-8.2640959)" />
      <use
         id="use12321"
         inkscape:spray-origin="#path12083"
         xlink:href="#path12083"
         x="0"
         y="0"
         width="100%"
         height="100%"
         transform="translate(0.08902257,23.343778)" />
      <use
         id="use12323"
         inkscape:spray-origin="#path12083"
         xlink:href="#path12083"
         x="0"
         y="0"
         width="100%"
         height="100%"
         transform="translate(0.08902257,18.947431)" />
      <use
         id="use12325"
         inkscape:spray-origin="#path12083"
         xlink:href="#path12083"
         x="0"
         y="0"
         width="100%"
         height="100%"
         transform="translate(2.446673e-5,12.718009)" />
      <use
         id="use12327"
         inkscape:spray-origin="#path12083"
         xlink:href="#path12083"
         x="0"
         y="0"
         width="100%"
         height="100%"
         transform="translate(2.446673e-5,9.5385068)" />
      <use
         id="use12329"
         inkscape:spray-origin="#path12083"
         xlink:href="#path12083"
         x="0"
         y="0"
         width="100%"
         height="100%"
         transform="translate(2.446673e-5,15.897516)" />
      <use
         id="use12331"
         inkscape:spray-origin="#path12083"
         xlink:href="#path12083"
         x="0"
         y="0"
         width="100%"
         height="100%"
         transform="translate(3.5883056,15.287791)" />
      <use
         id="use12333"
         inkscape:spray-origin="#path12083"
         xlink:href="#path12083"
         x="0"
         y="0"
         width="100%"
         height="100%"
         transform="translate(3.9300781,29.032245)" />
      <use
         id="use12335"
         inkscape:spray-origin="#path12083"
         xlink:href="#path12083"
         x="0"
         y="0"
         width="100%"
         height="100%"
         transform="translate(13.655976,5.5702717)" />
      <use
         id="use12337"
         inkscape:spray-origin="#path12083"
         xlink:href="#path12083"
         x="0"
         y="0"
         width="100%"
         height="100%"
         transform="translate(13.598056,9.0249658)" />
      <use
         id="use12339"
         inkscape:spray-origin="#path12083"
         xlink:href="#path12083"
         x="0"
         y="0"
         width="100%"
         height="100%"
         transform="translate(13.611641,12.23978)" />
      <use
         id="use12341"
         inkscape:spray-origin="#path12083"
         xlink:href="#path12083"
         x="0"
         y="0"
         width="100%"
         height="100%"
         transform="translate(3.6098756,25.76437)" />
      <use
         id="use12343"
         inkscape:spray-origin="#path12083"
         xlink:href="#path12083"
         x="0"
         y="0"
         width="100%"
         height="100%"
         transform="translate(3.5384651,22.56894)" />
      <use
         id="use12345"
         inkscape:spray-origin="#path12083"
         xlink:href="#path12083"
         x="0"
         y="0"
         width="100%"
         height="100%"
         transform="translate(6.8772465,-4.4401899)" />
      <use
         id="use12347"
         inkscape:spray-origin="#path12083"
         xlink:href="#path12083"
         x="0"
         y="0"
         width="100%"
         height="100%"
         transform="translate(6.9622162,26.614626)" />
      <use
         id="use12349"
         inkscape:spray-origin="#path12083"
         xlink:href="#path12083"
         x="0"
         y="0"
         width="100%"
         height="100%"
         transform="translate(3.5883056,9.3998185)" />
      <use
         id="use12351"
         inkscape:spray-origin="#path12083"
         xlink:href="#path12083"
         x="0"
         y="0"
         width="100%"
         height="100%"
         transform="translate(3.5883056,3.5118475)" />
      <use
         id="use12353"
         inkscape:spray-origin="#path12083"
         xlink:href="#path12083"
         x="0"
         y="0"
         width="100%"
         height="100%"
         transform="translate(3.6578651,18.927409)" />
      <use
         id="use12355"
         inkscape:spray-origin="#path12083"
         xlink:href="#path12083"
         x="0"
         y="0"
         width="100%"
         height="100%"
         transform="translate(13.683022,15.103505)" />
      <use
         id="use12357"
         inkscape:spray-origin="#path12083"
         xlink:href="#path12083"
         x="0"
         y="0"
         width="100%"
         height="100%"
         transform="translate(0.08902257,32.136485)" />
      <use
         id="use12359"
         inkscape:spray-origin="#path12083"
         xlink:href="#path12083"
         x="0"
         y="0"
         width="100%"
         height="100%"
         transform="translate(0.08902257,27.740137)" />
      <use
         id="use12361"
         inkscape:spray-origin="#path12083"
         xlink:href="#path12083"
         x="0"
         y="0"
         width="100%"
         height="100%"
         transform="translate(2.446673e-5,6.3590038)" />
      <use
         id="use12363"
         inkscape:spray-origin="#path12083"
         xlink:href="#path12083"
         x="0"
         y="0"
         width="100%"
         height="100%"
         transform="translate(3.5883056,-2.3761215)" />
      <use
         id="use12365"
         inkscape:spray-origin="#path12083"
         xlink:href="#path12083"
         x="0"
         y="0"
         width="100%"
         height="100%"
         transform="translate(2.446673e-5,3.1795038)" />
      <use
         id="use12367"
         inkscape:spray-origin="#path12083"
         xlink:href="#path12083"
         x="0"
         y="0"
         width="100%"
         height="100%"
         transform="translate(3.5883056,-5.320109)" />
      <use
         id="use12369"
         inkscape:spray-origin="#path12083"
         xlink:href="#path12083"
         x="0"
         y="0"
         width="100%"
         height="100%"
         transform="translate(2.446673e-5,-3.1795072)" />
      <use
         id="use12371"
         inkscape:spray-origin="#path12083"
         xlink:href="#path12083"
         x="0"
         y="0"
         width="100%"
         height="100%"
         transform="translate(3.5883056,6.4558355)" />
      <use
         id="use12373"
         inkscape:spray-origin="#path12083"
         xlink:href="#path12083"
         x="0"
         y="0"
         width="100%"
         height="100%"
         transform="translate(3.5883056,12.343799)" />
      <use
         id="use12375"
         inkscape:spray-origin="#path12083"
         xlink:href="#path12083"
         x="0"
         y="0"
         width="100%"
         height="100%"
         transform="translate(3.5883056,0.56786453)" />
      <ellipse
         style="fill:#808080;fill-rule:evenodd;stroke:none;stroke-width:2.64583;stroke-linecap:square"
         id="ellipse12457"
         cx="619.98663"
         cy="55.321831"
         rx="0.90521866"
         ry="0.58192623" />
      <use
         id="use12459"
         inkscape:spray-origin="#path12083"
         xlink:href="#path12083"
         x="0"
         y="0"
         width="100%"
         height="100%"
         transform="translate(6.9831394,-1.5208654)" />
      <use
         id="use12461"
         inkscape:spray-origin="#path12083"
         xlink:href="#path12083"
         x="0"
         y="0"
         width="100%"
         height="100%"
         transform="translate(6.9831394,1.2706894)" />
      <use
         id="use12463"
         inkscape:spray-origin="#path12083"
         xlink:href="#path12083"
         x="0"
         y="0"
         width="100%"
         height="100%"
         transform="translate(10.571421,-0.63439625)" />
      <use
         id="use12465"
         inkscape:spray-origin="#path12083"
         xlink:href="#path12083"
         x="0"
         y="0"
         width="100%"
         height="100%"
         transform="translate(6.9831394,20.347709)" />
      <use
         id="use12467"
         inkscape:spray-origin="#path12083"
         xlink:href="#path12083"
         x="0"
         y="0"
         width="100%"
         height="100%"
         transform="translate(6.9831394,17.168206)" />
      <use
         id="use12469"
         inkscape:spray-origin="#path12083"
         xlink:href="#path12083"
         x="0"
         y="0"
         width="100%"
         height="100%"
         transform="translate(6.9831394,23.527216)" />
      <use
         id="use12471"
         inkscape:spray-origin="#path12083"
         xlink:href="#path12083"
         x="0"
         y="0"
         width="100%"
         height="100%"
         transform="translate(10.571421,22.917491)" />
      <use
         id="use12473"
         inkscape:spray-origin="#path12083"
         xlink:href="#path12083"
         x="0"
         y="0"
         width="100%"
         height="100%"
         transform="translate(10.571421,17.029518)" />
      <use
         id="use12475"
         inkscape:spray-origin="#path12083"
         xlink:href="#path12083"
         x="0"
         y="0"
         width="100%"
         height="100%"
         transform="translate(10.571421,11.141547)" />
      <use
         id="use12477"
         inkscape:spray-origin="#path12083"
         xlink:href="#path12083"
         x="0"
         y="0"
         width="100%"
         height="100%"
         transform="translate(6.9831394,13.988703)" />
      <use
         id="use12479"
         inkscape:spray-origin="#path12083"
         xlink:href="#path12083"
         x="0"
         y="0"
         width="100%"
         height="100%"
         transform="translate(10.571421,5.2535781)" />
      <use
         id="use12481"
         inkscape:spray-origin="#path12083"
         xlink:href="#path12083"
         x="0"
         y="0"
         width="100%"
         height="100%"
         transform="translate(6.9831394,10.809203)" />
      <use
         id="use12483"
         inkscape:spray-origin="#path12083"
         xlink:href="#path12083"
         x="0"
         y="0"
         width="100%"
         height="100%"
         transform="translate(10.571421,2.3095906)" />
      <use
         id="use12485"
         inkscape:spray-origin="#path12083"
         xlink:href="#path12083"
         x="0"
         y="0"
         width="100%"
         height="100%"
         transform="translate(6.9831394,4.4501924)" />
      <use
         id="use12487"
         inkscape:spray-origin="#path12083"
         xlink:href="#path12083"
         x="0"
         y="0"
         width="100%"
         height="100%"
         transform="translate(10.571421,14.085535)" />
      <use
         id="use12489"
         inkscape:spray-origin="#path12083"
         xlink:href="#path12083"
         x="0"
         y="0"
         width="100%"
         height="100%"
         transform="translate(10.571421,19.973499)" />
      <use
         id="use12491"
         inkscape:spray-origin="#path12083"
         xlink:href="#path12083"
         x="0"
         y="0"
         width="100%"
         height="100%"
         transform="translate(10.571421,8.1975642)" />
    </g>
  </g>
</svg>
