<?xml version="1.0" encoding="UTF-8" standalone="no"?>
<!-- Created with Inkscape (http://www.inkscape.org/) -->

<svg
   width="1920"
   height="1080"
   viewBox="0 0 507.99999 285.75001"
   version="1.1"
   id="svg5"
   inkscape:version="1.1.2 (b8e25be833, 2022-02-05)"
   sodipodi:docname="egyptcatgod.svg"
   inkscape:export-filename="C:\Users\eric\Desktop\myprogrammingwork\mypicturework\egyptcatgod.png"
   inkscape:export-xdpi="96"
   inkscape:export-ydpi="96"
   xmlns:inkscape="http://www.inkscape.org/namespaces/inkscape"
   xmlns:sodipodi="http://sodipodi.sourceforge.net/DTD/sodipodi-0.dtd"
   xmlns="http://www.w3.org/2000/svg"
   xmlns:svg="http://www.w3.org/2000/svg">
  <sodipodi:namedview
     id="namedview7"
     pagecolor="#ffffff"
     bordercolor="#666666"
     borderopacity="1.0"
     inkscape:pageshadow="2"
     inkscape:pageopacity="0.0"
     inkscape:pagecheckerboard="0"
     inkscape:document-units="px"
     showgrid="false"
     units="px"
     inkscape:zoom="0.088388348"
     inkscape:cx="1968.5853"
     inkscape:cy="-2279.7122"
     inkscape:window-width="1920"
     inkscape:window-height="1001"
     inkscape:window-x="-9"
     inkscape:window-y="-9"
     inkscape:window-maximized="1"
     inkscape:current-layer="layer1"
     inkscape:snap-global="true" />
  <defs
     id="defs2">
    <inkscape:path-effect
       effect="rough_hatches"
       id="path-effect182578"
       is_visible="true"
       lpeversion="1"
       direction="144.22119,-50.338851 , 1.2378987,0.4677219"
       dist_rdm="75;1"
       growth="0"
       do_bend="true"
       bender="146.18562,-48.051636 , 1.5388629,-0.37417783"
       bottom_edge_variation="0.8190689;1"
       top_edge_variation="0.8190689;1"
       bottom_tgt_variation="0;1"
       top_tgt_variation="0;1"
       scale_bf="1"
       scale_bb="1"
       scale_tf="1"
       scale_tb="1"
       top_smth_variation="0;1"
       bottom_smth_variation="0;1"
       fat_output="true"
       stroke_width_top="1"
       stroke_width_bottom="1"
       front_thickness="1"
       back_thickness="0.25" />
    <inkscape:path-effect
       effect="rough_hatches"
       id="path-effect180685"
       is_visible="true"
       lpeversion="1"
       direction="89.802562,-56.075209 , 6.7351929,-0.93544334"
       dist_rdm="75;1"
       growth="0"
       do_bend="true"
       bender="82.319015,-42.656219 , 64.681286,14.03165"
       bottom_edge_variation="7.333876;1"
       top_edge_variation="7.333876;1"
       bottom_tgt_variation="0;1"
       top_tgt_variation="0;1"
       scale_bf="1"
       scale_bb="1"
       scale_tf="1"
       scale_tb="1"
       top_smth_variation="0;1"
       bottom_smth_variation="0;1"
       fat_output="true"
       stroke_width_top="1"
       stroke_width_bottom="1"
       front_thickness="1"
       back_thickness="0.25" />
  </defs>
  <g
     inkscape:label="圖層 1"
     inkscape:groupmode="layer"
     id="layer1">
    <rect
       style="fill:#b3b3b3;fill-opacity:1;fill-rule:evenodd;stroke:none;stroke-width:1.32292;stroke-miterlimit:4;stroke-dasharray:none;stroke-opacity:1"
       id="rect180359"
       width="176.61171"
       height="282.12973"
       x="163.88968"
       y="2.9934187"
       ry="0" />
    <g
       id="g180335"
       transform="matrix(1.8847616,0,0,1.8847616,-178.0651,-134.30878)">
      <g
         id="g76820"
         transform="translate(0,2.3811545)">
        <path
           style="fill:#000000;fill-opacity:1;stroke:#e8c613;stroke-width:0.0847785px;stroke-linecap:butt;stroke-linejoin:miter;stroke-opacity:1"
           d="m 235.95834,76.141383 c -0.17029,-0.304408 -0.51778,-0.331103 -0.79361,-0.157776 -1.48684,1.163952 -1.91578,5.127966 -1.38251,6.723658 0.21323,0.05104 0.62882,-0.215931 0.87291,-0.227365 0.97796,-0.263219 2.91439,-0.583212 3.93834,-0.560474 0.28567,0.01465 0.66909,0.09745 0.62148,-0.01609 -0.67816,-1.617133 -2.52389,-4.36738 -3.25661,-5.761954 z"
           id="path32674"
           sodipodi:nodetypes="cccccsc" />
        <path
           style="fill:#000000;stroke:#e8c613;stroke-width:0.0940235px;stroke-linecap:butt;stroke-linejoin:miter;stroke-opacity:1"
           d="m 244.32054,76.193533 c 0.18887,-0.337603 0.57424,-0.367209 0.88016,-0.174981 1.64897,1.290879 2.07387,5.809142 1.48244,7.578841 -0.0535,0.422548 -0.67706,-0.290302 -0.94776,-0.302984 -0.93213,-0.515552 -3.2322,-0.66714 -4.36781,-0.641923 -0.31683,0.01624 -0.71156,0.189396 -0.65876,0.06348 0.7521,-1.793479 2.79911,-4.975781 3.61173,-6.522431 z"
           id="path21069"
           sodipodi:nodetypes="cccccsc" />
        <path
           style="fill:#e8c613;fill-opacity:1;stroke:none;stroke-width:0.152021px;stroke-linecap:butt;stroke-linejoin:miter;stroke-opacity:1"
           d="m 226.17595,93.110684 c 0.39183,-0.07041 1.0831,-0.207887 1.0831,-0.207887 0,0 0.56318,0.02823 1.00703,0.03666 -0.11947,0.663177 -0.23529,1.420658 -0.23529,1.420658 0,0 -0.31058,0.568264 -0.69645,0.788236 -0.19178,-0.06972 -0.7582,-0.563434 -0.7582,-0.563434 0,0 -0.27816,-1.059862 -0.40019,-1.474236 z"
           id="path21268"
           sodipodi:nodetypes="ccccccc" />
        <path
           style="fill:#000000;fill-opacity:1;fill-rule:evenodd;stroke:#e8c613;stroke-width:0.259241;stroke-miterlimit:4;stroke-dasharray:none;stroke-opacity:1"
           d="m 231.2639,99.128428 c -0.90645,-5.1e-5 -2.12356,-0.439104 -2.7103,-0.977658 -0.47757,-0.438363 -0.77099,-1.071853 -0.77099,-1.664583 0,-0.220777 -0.0154,-0.246866 -0.24628,-0.417766 -0.3455,-0.255729 -0.72402,-0.930318 -0.82779,-1.475322 -0.026,-0.136556 0.002,-0.115297 0.20862,0.164061 0.32753,0.440757 0.3997,0.472435 0.62525,0.274408 0.35774,-0.314107 0.48268,-0.586932 0.59963,-1.309391 0.059,-0.364203 0.10721,-0.696681 0.10721,-0.738836 0,-0.108324 -0.99541,-0.104389 -1.52943,0.006 -0.274,0.05667 -0.41664,0.06591 -0.45319,0.02935 -0.0999,-0.09996 0.207,-0.507475 0.77469,-1.028427 0.93768,-0.860515 1.05392,-0.990719 1.23575,-1.38429 0.25309,-0.54788 0.33232,-1.072622 0.36854,-2.440933 0.0301,-1.138307 0.039,-1.218369 0.18706,-1.687559 0.31647,-1.002812 0.69552,-1.575481 1.3529,-2.043913 0.49567,-0.353208 2.55369,-1.479585 3.00822,-1.646436 1.10709,-0.406392 3.28316,-0.841518 4.46588,-0.892997 0.19962,-0.0087 0.65458,-0.04446 1.01103,-0.0795 1.37555,-0.13521 4.3932,0.147589 5.75973,0.539774 0.6233,0.178882 1.48522,0.549083 1.84407,0.792039 0.16667,0.112841 0.3847,0.24653 0.48451,0.297086 0.35603,0.180351 0.71724,0.542479 0.98768,0.990213 1.263,2.090954 2.41621,5.843613 3.12957,10.183884 0.28621,1.741339 0.55375,3.999738 0.6299,4.70878 l 0.50111,4.665648 -3.31603,-0.16371 c -2.71742,0.18494 -4.73593,0.44056 -5.66591,0.5143 -1.79971,0.13672 -5.62923,0.51705 -6.73292,0.53463 -0.14637,-0.23905 2.15582,-4.64863 2.07027,-4.66163 -2.33251,-0.664082 -4.78511,-1.094365 -7.09878,-1.087222 z"
           id="path54762"
           sodipodi:nodetypes="csssscssssssssssssssssssscccccc" />
        <path
           style="fill:#000000;fill-opacity:1;fill-rule:evenodd;stroke:#e8c613;stroke-width:0.259241;stroke-miterlimit:4;stroke-dasharray:none;stroke-opacity:1"
           d="m 229.68104,87.788 c 0.33776,-0.375632 1.31507,-0.896337 1.99122,-1.060902 0.48403,-0.117807 1.37562,-0.119556 1.89964,-0.0037 0.75077,0.165947 1.61293,0.534625 2.25876,0.965899 l 0.31236,0.208578 h 1.08289 c 0.92802,0 1.0829,-0.01113 1.0829,-0.07777 0,-0.06648 -0.14721,-0.07777 -1.01387,-0.07777 h -1.01388 l -0.30823,-0.209309 c -0.6657,-0.452067 -1.60838,-0.851648 -2.3799,-1.008782 -0.54273,-0.110537 -1.67406,-0.08607 -2.15398,0.04657 -0.59433,0.164269 -1.24257,0.516243 -1.8031,0.979021 -0.19755,0.163089 -0.23561,0.218994 -0.18808,0.276255 0.0804,0.09688 0.11736,0.09085 0.23327,-0.03806 z"
           id="path57730" />
        <path
           style="fill:#000000;fill-opacity:1;fill-rule:evenodd;stroke:#e8c613;stroke-width:0.259241;stroke-miterlimit:4;stroke-dasharray:none;stroke-opacity:1"
           d="m 229.68104,88.472851 c 0.33776,-0.375634 1.31507,-0.896339 1.99122,-1.060902 0.48403,-0.117807 1.37562,-0.119557 1.89964,-0.0037 0.75077,0.165946 1.61293,0.534624 2.25876,0.965897 l 0.31236,0.208579 h 1.08289 c 0.92802,0 1.0829,-0.01113 1.0829,-0.07777 0,-0.06648 -0.14721,-0.07777 -1.01387,-0.07777 h -1.01388 l -0.30823,-0.209309 c -0.6657,-0.452067 -1.60838,-0.851649 -2.3799,-1.008784 -0.54273,-0.110536 -1.67406,-0.08607 -2.15398,0.04658 -0.59433,0.164268 -1.24257,0.516241 -1.8031,0.979018 -0.19755,0.163091 -0.23561,0.218996 -0.18808,0.276255 0.0804,0.09688 0.11736,0.09085 0.23327,-0.03806 z"
           id="path57728" />
        <path
           style="fill:#2198ce;fill-opacity:1;stroke:#e8c613;stroke-width:0.227707px;stroke-linecap:butt;stroke-linejoin:miter;stroke-opacity:1"
           d="m 229.53159,89.659768 c 2.91602,2.918129 6.53848,0.139117 6.53848,0.139117 0,0 -3.36718,-3.145286 -6.53848,-0.139117 z"
           id="path21272"
           sodipodi:nodetypes="ccc" />
        <ellipse
           style="fill:#000000;fill-opacity:1;fill-rule:evenodd;stroke:none;stroke-width:0.450066;stroke-opacity:1"
           id="path33249"
           cx="232.80722"
           cy="89.676689"
           rx="0.2383038"
           ry="1.0448705" />
        <path
           style="fill:#e8c613;fill-opacity:1;stroke:none;stroke-width:0.0700631px;stroke-linecap:butt;stroke-linejoin:miter;stroke-opacity:1"
           d="m 244.45587,76.732751 c 0.14074,-0.251572 0.42791,-0.273632 0.65587,-0.13039 1.22875,0.961921 1.78785,4.926877 1.34713,6.2456 -1.39459,-0.995979 -3.53569,-1.407245 -4.85599,-1.287234 0.56044,-1.336442 2.24746,-3.675463 2.85299,-4.827976 z"
           id="path58751"
           sodipodi:nodetypes="ccccc" />
        <path
           style="fill:#e8c613;fill-opacity:1;stroke:none;stroke-width:0.0572149px;stroke-linecap:butt;stroke-linejoin:miter;stroke-opacity:1"
           d="m 235.35754,76.339853 c -1.00342,0.785519 -1.65294,4.609452 -1.29305,5.686341 1.44623,-0.250475 3.05434,-0.54434 4.66293,-0.513566 -0.86991,-1.329733 -2.10315,-3.938301 -3.05599,-5.099927 -0.0842,-0.102618 -0.22816,-0.150001 -0.31389,-0.07285 z"
           id="path58789"
           sodipodi:nodetypes="cccsc" />
      </g>
      <g
         id="g15598"
         transform="translate(-207.31921,89.713709)">
        <path
           style="fill:none;stroke:none;stroke-width:0.264583px;stroke-linecap:butt;stroke-linejoin:miter;stroke-opacity:1"
           d="m 439.46492,17.739531 c -8.75623,0.854793 -9.02788,4.907221 -11.52155,13.167489 -1.09919,0.517268 -1.28018,12.070197 -1.28018,12.070197 -0.84056,-0.258634 -17.19088,12.984606 -17.19088,12.984606 -0.90522,0.775902 -2.84655,-0.839608 -2.84655,-0.839608 l -0.8111,-33.874649 c -0.0323,-0.872889 4.59978,-1.035324 4.59978,-1.035324 -0.0205,-1.455324 0.34031,-5.312386 -0.9748,-7.507729 -1.22782,-2.049632 -3.1637,-4.719142 -4.58198,-4.72537 -1.50997,-0.0066 -3.64945,2.773784 -4.83615,4.807785 -1.27354,2.182835 -0.51719,5.904219 -0.60309,7.537665 0,0 4.26634,0.122035 4.29867,0.930266 l 0.0314,33.964349 c 0,0 -4.46398,0.663061 -4.33466,3.120083 0.0495,8.053565 2.60799,5.831661 4.75494,6.217981 l 1.1407,41.489118 -1.754,1.92676 c -0.84056,1.5518 -0.18575,3.27887 -0.18575,3.27887 l 5.3489,-0.013 c 0,0 0.70108,-1.62723 -0.10715,-3.27602 l -1.70962,-1.9128 -0.17274,-41.492928 c -0.0482,-0.04014 0.71865,-0.716144 2.37263,-1.083757 6.39558,-1.42148 21.09903,-10.044779 22.49929,-13.363904 0,0 2.01613,-2.789477 5.66933,-19.56835 7.54528,16.690155 2.96947,34.195069 -0.36576,49.195199 l -1.46306,9.875614 c -3.64915,11.120806 -4.5673,18.930156 -8.41256,29.626846 -2.15092,3.05093 -15.91072,2.21463 -15.91072,6.94951 6.70644,0.11878 13.4109,0.0762 20.11701,0 3.43394,-1.73572 3.1022,-5.64221 4.02339,-9.32697 4.84056,-10.33271 8.26899,-17.328107 9.50986,-27.432267 l 2.19456,-9.144087 c 0,0 4.59962,0.853556 7.4446,-1.215516 1.53947,11.95234 6.07147,32.73976 4.44274,40.35222 -3.33982,2.49863 -14.26478,1.93064 -14.26478,6.76663 7.72073,-0.0302 13.6544,0.18286 21.21427,0.18287 2.35729,-28.892216 -3.72735,-55.164929 -7.86389,-85.040024 l 4.63479,-12.177327 c -0.27507,7.037558 0.48395,13.926108 1.69949,20.763581 -0.61738,6.922226 0.36493,13.568346 1.53882,19.760422 l -0.74073,5.486453 c -0.32329,1.939754 6.14222,3.242113 6.40085,0.914408 V 70.04372 c 0,0 -0.18287,-41.1484 -0.73152,-42.245691 -0.76879,-5.37863 -0.91141,-5.933771 -4.02338,-9.875616 -3.66951,-1.219911 -7.34461,-1.336015 -11.15579,-1.463053 z"
           id="path881"
           sodipodi:nodetypes="cccccccsssccccccccccccsccccccccccccccccccccccccc" />
        <path
           style="fill:none;stroke:none;stroke-width:0.264583px;stroke-linecap:butt;stroke-linejoin:miter;stroke-opacity:1"
           d="m 428.81498,27.997119 8.45537,2.544149 -0.2114,0.91508 -8.56726,-2.457022 z"
           id="path13625" />
        <path
           style="fill:none;stroke:none;stroke-width:0.264583px;stroke-linecap:butt;stroke-linejoin:miter;stroke-opacity:1"
           d="m 428.20072,29.904543 8.63193,2.586339 -0.22632,0.937548 -8.66297,-2.52141 z"
           id="path13627" />
        <path
           style="fill:none;stroke:none;stroke-width:0.264583px;stroke-linecap:butt;stroke-linejoin:miter;stroke-opacity:1"
           d="m 462.54793,29.70261 8.32739,-0.09228 0.0647,0.771306 -8.34093,0.03233 z"
           id="path13629"
           sodipodi:nodetypes="ccccc" />
        <path
           style="fill:none;stroke:none;stroke-width:0.264583px;stroke-linecap:butt;stroke-linejoin:miter;stroke-opacity:1"
           d="m 462.56671,31.383172 8.37327,-0.09699 0.009,0.891828 -8.42455,0.11038 z"
           id="path13631"
           sodipodi:nodetypes="ccccc" />
      </g>
      <path
         style="fill:none;stroke:none;stroke-width:0.264583px;stroke-linecap:butt;stroke-linejoin:miter;stroke-opacity:1"
         d="m 227.80225,108.45909 c 0.16826,2.38943 1.53659,4.89502 2.7889,6.76663 4.15421,3.27094 19.44333,2.85108 22.92876,-0.41608 1.73175,-2.2566 3.38852,-5.15277 3.77191,-7.72215"
         id="path59187"
         sodipodi:nodetypes="cccc" />
      <path
         style="fill:none;stroke:none;stroke-width:0.228888px;stroke-linecap:butt;stroke-linejoin:miter;stroke-opacity:1"
         d="m 229.78887,107.8188 c 0.14556,2.06706 1.32928,4.23462 2.41264,5.85373 3.59376,2.82965 16.82019,2.46644 19.83539,-0.35994 1.49812,-1.95216 2.93137,-4.45761 3.26304,-6.68035"
         id="path60803"
         sodipodi:nodetypes="cccc" />
      <path
         style="fill:none;stroke:none;stroke-width:0.209418px;stroke-linecap:butt;stroke-linejoin:miter;stroke-opacity:1"
         d="m 230.5971,107.49551 c 0.13318,1.89123 1.2162,3.87441 2.20741,5.35578 3.28806,2.58895 15.38938,2.25663 18.1481,-0.32932 1.37068,-1.7861 2.68201,-4.07842 2.98547,-6.11208"
         id="path60805"
         sodipodi:nodetypes="cccc" />
      <path
         style="fill:none;stroke:none;stroke-width:0.264583px;stroke-linecap:butt;stroke-linejoin:miter;stroke-opacity:1"
         d="m 229.58535,169.45018 10.05848,0.54864 c 2.94196,0.5496 5.01992,0.013 7.44461,-1.21551 0.93755,-0.25863 8.76758,-3.01911 8.76758,-3.01911"
         id="path60840"
         sodipodi:nodetypes="cccc" />
      <path
         style="fill:none;stroke:none;stroke-width:0.264583px;stroke-linecap:butt;stroke-linejoin:miter;stroke-opacity:1"
         d="m 233.97453,144.0296 17.73951,-5.21213"
         id="path61952" />
      <path
         style="fill:none;stroke:none;stroke-width:0.264583px;stroke-linecap:butt;stroke-linejoin:miter;stroke-opacity:1"
         d="m 233.83737,145.5841 18.15099,-4.98353"
         id="path61954" />
      <path
         style="fill:none;stroke:none;stroke-width:0.264583px;stroke-linecap:butt;stroke-linejoin:miter;stroke-opacity:1"
         d="m 205.55174,142.97209 4.04114,6.91846 -0.93755,0.58193 -3.91184,-6.91846 z"
         id="path65655" />
      <path
         style="fill:none;stroke:none;stroke-width:0.264583px;stroke-linecap:butt;stroke-linejoin:miter;stroke-opacity:1"
         d="m 203.31384,144.77631 3.65157,6.51941 0.88467,-0.41865 -3.75805,-6.73232 z"
         id="path65657"
         sodipodi:nodetypes="ccccc" />
      <path
         style="fill:none;stroke:none;stroke-width:0.264583px;stroke-linecap:butt;stroke-linejoin:miter;stroke-opacity:1"
         d="m 257.92509,156.3564 6.22337,-0.0162 0.0162,0.5981 -6.14256,0.0323 z"
         id="path65659"
         sodipodi:nodetypes="ccccc" />
      <path
         style="fill:none;stroke:none;stroke-width:0.264583px;stroke-linecap:butt;stroke-linejoin:miter;stroke-opacity:1"
         d="m 258.15139,157.53641 5.96474,-0.0485 0.0485,0.67891 -5.85158,0.097 z"
         id="path65661"
         sodipodi:nodetypes="ccccc" />
      <path
         style="fill:none;stroke:none;stroke-width:0.264583px;stroke-linecap:butt;stroke-linejoin:miter;stroke-opacity:1"
         d="m 233.80747,146.23735 18.26604,-4.84939"
         id="path67733" />
      <path
         style="fill:none;stroke:none;stroke-width:0.264583px;stroke-linecap:butt;stroke-linejoin:miter;stroke-opacity:1"
         d="m 233.74283,147.46586 18.52464,-4.68774"
         id="path67735" />
      <path
         style="fill:none;stroke:none;stroke-width:0.264583px;stroke-linecap:butt;stroke-linejoin:miter;stroke-opacity:1"
         d="m 196.42928,144.93292 0.42029,9.33806"
         id="path67850" />
      <path
         style="fill:none;stroke:none;stroke-width:0.264583px;stroke-linecap:butt;stroke-linejoin:miter;stroke-opacity:1"
         d="m 199.30654,144.83593 0.10337,9.43505"
         id="path67852" />
      <path
         style="fill:#e8c613;fill-opacity:1;fill-rule:evenodd;stroke:none;stroke-width:0.646583;stroke-miterlimit:4;stroke-dasharray:none;stroke-opacity:1"
         d="m 196.12844,200.45347 c -0.0429,-0.16003 -0.0788,-0.64236 -0.0797,-1.07185 -0.003,-0.9837 0.23426,-1.45965 1.29892,-2.61423 l 0.81859,-0.88771 -0.0297,-1.35014 c -0.21532,-9.79939 -1.11321,-40.62477 -1.31247,-45.05927 -0.23072,-5.13379 -0.26141,-7.75526 -0.26069,-22.2548 0,-18.92337 0.19214,-16.75617 -1.50524,-17.06301 -0.55859,-0.10097 -1.39997,-0.21752 -1.86974,-0.25899 l -0.8541,-0.0754 -0.0834,-1.17544 c -0.23881,-3.36421 -0.0228,-4.92138 0.8926,-6.43318 0.82595,-1.3641 2.23816,-3.080547 3.02278,-3.673947 0.93626,-0.708075 1.54681,-0.758713 2.38591,-0.197879 1.11728,0.746763 3.23927,3.610776 3.78383,5.106946 0.39106,1.07444 0.56473,2.46348 0.56473,4.5164 v 1.7285 l -0.54959,0.0651 c -3.05906,0.36246 -3.65628,0.502 -3.90586,0.91263 -0.13065,0.21499 -0.079,3.5964 0.26699,17.46576 0.38685,15.50792 0.44185,19.68336 0.55962,42.46246 l 0.1306,25.26331 0.74692,0.83442 c 1.16244,1.29863 1.26418,1.51018 1.26418,2.62879 0,1.53142 0.2065,1.42249 -2.6965,1.42249 -2.49434,0 -2.51117,-0.002 -2.58864,-0.29097 z"
         id="path67971" />
      <path
         style="fill:#ff6600;fill-opacity:1;fill-rule:evenodd;stroke:none;stroke-width:1.29317;stroke-miterlimit:4;stroke-dasharray:none;stroke-opacity:1"
         d="m 243.50625,215.68079 c -3.98394,-0.0505 -5.88391,-0.16455 -5.88391,-0.35312 0,-0.68493 1.13612,-1.75581 2.52319,-2.3783 0.83098,-0.37291 3.26107,-1.07984 5.40023,-1.57095 2.13918,-0.49111 4.41788,-1.14134 5.06378,-1.44495 1.39568,-0.65604 1.48908,-0.98455 1.49344,-5.25222 0.005,-4.74199 -0.66709,-10.16485 -3.22781,-26.05001 -0.63061,-3.91184 -1.2201,-7.69436 -1.30998,-8.4056 l -0.34443,-1.69039 3.87135,-1.34139 c 2.10514,-0.72942 4.06813,-1.34373 4.22667,-1.38659 0.33499,-0.0905 0.43471,0.65459 1.30366,7.52198 0.99038,7.82714 1.63496,15.30691 1.96138,22.75978 0.27247,6.222 0.24196,9.15649 -0.17547,16.87586 l -0.15732,2.90963 -4.43043,-0.0596 c -2.43673,-0.0328 -7.07818,-0.0931 -10.31435,-0.13417 z"
         id="path72278"
         sodipodi:nodetypes="ssssscsscssssscsss" />
      <path
         style="fill:#ff6600;fill-opacity:1;fill-rule:evenodd;stroke:none;stroke-width:1.29317;stroke-miterlimit:4;stroke-dasharray:none;stroke-opacity:1"
         d="m 204.31817,215.03396 c 0.95753,-1.46119 2.53667,-2.08476 8.37515,-3.30717 5.6724,-1.18764 6.81188,-1.68889 7.48602,-3.29307 0.70453,-1.67644 2.67451,-8.51508 4.15215,-14.41376 0.78394,-3.12947 1.89945,-7.31934 2.47891,-9.31082 1.65383,-5.68393 1.66164,-5.71864 2.28283,-10.13405 0.32385,-2.302 0.73867,-4.98234 0.84095,-5.14786 0.27334,-0.4423 9.40532,-0.0203 9.40532,0.43377 0,0.17825 -0.57475,2.65059 -1.07507,4.72604 -0.50033,2.07546 -1.15192,5.20198 -1.44796,6.94783 -1.02259,6.03045 -2.77704,11.12006 -7.03167,20.39857 -1.7476,3.81119 -2.26934,5.23802 -2.61835,7.1607 -0.59187,3.26057 -1.03754,4.41059 -2.15143,5.55187 l -0.94663,0.96988 h -10.06578 -10.06578 z"
         id="path72317"
         sodipodi:nodetypes="ssssssssssssscccs" />
      <path
         style="fill:#1c661c;fill-opacity:1;fill-rule:evenodd;stroke:none;stroke-width:0.216263;stroke-opacity:1"
         d="m 257.65229,179.87725 c -0.0739,-0.0741 -0.0175,-0.59505 0.11787,-1.08878 0.21434,-0.78197 0.51457,-1.57807 1.20919,-3.20644 0.55746,-1.3068 0.61527,-1.48561 0.61755,-1.91032 0.003,-0.47474 -0.11641,-0.79922 -0.44464,-1.21289 -0.13099,-0.16507 -0.16304,-0.16859 -2.11102,-0.23164 -1.0879,-0.0352 -2.18324,-0.0652 -2.4341,-0.0667 -0.40621,-0.002 -0.47913,-0.0257 -0.6668,-0.21336 -0.32705,-0.32705 -0.25621,-0.79957 0.15643,-1.04332 0.18893,-0.1116 0.44301,-0.123 2.4593,-0.11039 2.19443,0.0138 2.25017,0.0105 2.31367,-0.13175 0.1137,-0.25483 -0.14201,-0.92327 -0.96367,-2.51899 -0.98746,-1.91772 -1.17734,-2.45393 -1.1309,-3.19359 0.0601,-0.95659 0.45827,-1.79668 1.26822,-2.67546 0.7757,-0.84163 2.11079,-1.61783 3.03764,-1.76604 0.35994,-0.0576 1.16759,0.17989 1.80371,0.5303 0.56772,0.31273 1.52187,1.25351 1.86541,1.83929 0.46686,0.79604 0.6119,1.30126 0.61701,2.14918 0.005,0.75599 0.002,0.76698 -0.30023,1.36967 -0.16766,0.33416 -0.7421,1.20769 -1.27652,1.94118 -0.53444,0.73348 -1.05417,1.50188 -1.15495,1.70754 -0.16739,0.34154 -0.23755,0.73719 -0.14683,0.82791 0.0201,0.02 0.35253,-0.0278 0.73889,-0.1062 0.56126,-0.11395 1.01649,-0.14422 2.26446,-0.15056 1.47982,-0.007 1.57273,2e-5 1.76615,0.14325 0.45432,0.33641 0.49116,0.75544 0.0925,1.05217 -0.24977,0.18592 -1.66879,0.33797 -3.6931,0.39573 l -1.57005,0.0448 -0.21368,0.24336 c -0.61192,0.69693 -0.66916,1.21953 -0.2676,2.44327 0.34474,1.05062 0.73587,2.45362 0.87692,3.14553 0.11789,0.57833 0.15055,1.54491 0.0571,1.69175 -0.039,0.0614 -0.71623,0.0912 -2.45597,0.10812 -1.32114,0.0129 -2.41554,0.01 -2.43201,-0.007 z m 3.50625,-10.30198 c 0.17627,-0.11205 0.48994,-0.38946 0.69704,-0.61647 1.57478,-1.72616 1.40316,-5.16758 -0.30011,-6.01824 l -0.33155,-0.16558 -0.31247,0.15127 c -1.02626,0.4968 -1.70067,1.88502 -1.70067,3.50066 0,1.2547 0.36442,2.28665 1.04939,2.97163 0.20924,0.20925 0.42487,0.38044 0.47916,0.38044 0.0543,0 0.24295,-0.0917 0.41921,-0.20371 z"
         id="path11981" />
      <path
         style="fill:#ff6600;fill-opacity:1;fill-rule:evenodd;stroke:none;stroke-width:1.29317;stroke-miterlimit:4;stroke-dasharray:none;stroke-opacity:1"
         d="m 259.40829,166.22201 c -0.60672,-0.27539 -1.17073,-0.67688 -1.25336,-0.89221 -0.0826,-0.21532 0.0275,-1.6865 0.24466,-3.26929 0.21722,-1.58279 0.10138,-3.65478 0.0249,-3.85414 -0.1139,-0.29681 0.76669,-0.10879 3.01296,-0.14131 l 2.57296,-0.0373 -0.007,4.05086 c -0.006,3.27602 -0.0493,3.67014 -0.51726,4.13814 -0.67921,0.67921 -2.58712,0.68164 -4.07744,0.005 z"
         id="path72356"
         sodipodi:nodetypes="csssscsscc" />
      <path
         style="fill:#ff6600;fill-opacity:1;fill-rule:evenodd;stroke:none;stroke-width:1.29317;stroke-miterlimit:4;stroke-dasharray:none;stroke-opacity:1"
         d="m 193.54399,153.45668 c -1.16649,-1.16648 -1.62861,-5.67411 -0.67907,-6.62365 0.59028,-0.59029 1.67867,-1.16862 2.62527,-1.39497 l 1.19794,-0.23079 0.087,3.24447 c 0.0928,1.72658 0.15986,3.66812 0.18049,4.35672 l 0.0351,1.17071 -1.66673,0.0819 c -0.88616,0.0435 -1.32385,-0.14825 -1.77994,-0.60434 z"
         id="path72395"
         sodipodi:nodetypes="sssccscsss" />
      <path
         style="fill:#ff6600;fill-opacity:1;fill-rule:evenodd;stroke:none;stroke-width:1.29317;stroke-miterlimit:4;stroke-dasharray:none;stroke-opacity:1"
         d="m 207.4761,146.73136 c -1.05433,-1.73568 -1.86185,-3.25728 -1.86185,-3.3412 0,-0.42815 13.00248,-10.27848 13.5629,-10.27848 0.18745,0 0.3425,-0.0873 0.34456,-0.19398 0.0779,-4.02694 0.98162,-12.0627 1.31743,-12.3985 0.11639,-0.1164 8.0927,2.18826 8.30485,2.4004 0.39912,0.39911 -3.28127,12.73073 -4.57096,15.52207 -0.55623,1.2039 -1.31061,2.30064 -2.11886,3.08045 -1.55141,1.49682 -6.88504,5.06722 -10.19119,6.82209 l -2.90021,1.49308 z"
         id="path72434"
         sodipodi:nodetypes="ssscssssscs" />
      <path
         style="fill:#ff6600;fill-opacity:1;fill-rule:evenodd;stroke:none;stroke-width:1.29317;stroke-miterlimit:4;stroke-dasharray:none;stroke-opacity:1"
         d="m 257.65762,152.83251 c -0.30149,-2.12723 -0.48803,-5.17932 -0.52557,-8.59958 -0.0409,-3.72344 -0.21849,-6.41853 -0.59658,-9.05218 -0.59457,-4.14147 -1.06061,-9.15099 -1.06474,-11.44455 l -0.12277,-1.871 4.13683,-0.0792 4.01043,-0.0416 0.0781,6.75375 c 0.0398,3.43805 0.17068,11.06023 0.17068,16.94052 l 0.24282,11.04198 -2.99989,0.0178 -2.83592,0.0271 z"
         id="path72473"
         sodipodi:nodetypes="cssccccsscccc" />
      <path
         style="fill:#ff6600;fill-opacity:1;fill-rule:evenodd;stroke:none;stroke-width:1.29317;stroke-miterlimit:4;stroke-dasharray:none;stroke-opacity:1"
         d="m 199.12373,149.50726 c -0.0234,-3.66375 -0.0736,-4.31065 -0.0736,-4.31065 1.04359,0.17609 3.57991,0.20844 4.19247,-0.19292 0.73576,-0.48208 0.26308,-0.19984 2.26508,3.3551 0.8015,1.4232 1.60802,2.62574 1.51362,2.72947 -0.13907,0.15279 -7.54589,2.51397 -7.85564,2.51397 -0.0137,-1.67378 -0.0526,-2.72717 -0.042,-4.09497 z"
         id="path72512"
         sodipodi:nodetypes="cssssccc" />
      <path
         style="fill:#e8c613;fill-opacity:1;fill-rule:evenodd;stroke:none;stroke-width:0.161646;stroke-miterlimit:4;stroke-dasharray:none;stroke-opacity:1"
         d="m 206.96583,150.98317 c -0.18484,-0.30767 -3.43469,-6.13509 -3.43469,-6.15883 0,-0.0305 0.43281,-0.39275 0.49504,-0.4143 0.023,-0.008 0.75507,1.27181 1.81652,3.17519 0.97795,1.75368 1.78213,3.19826 1.78705,3.21018 0.007,0.0165 -0.33554,0.18555 -0.57661,0.28474 -0.0127,0.005 -0.0521,-0.0384 -0.0873,-0.097 z"
         id="path75047" />
      <path
         style="fill:#e8c613;fill-opacity:1;fill-rule:evenodd;stroke:none;stroke-width:0.161646;stroke-miterlimit:4;stroke-dasharray:none;stroke-opacity:1"
         d="m 208.64514,150.1411 c -0.0352,-0.0578 -0.85257,-1.50169 -1.81642,-3.20868 -0.96385,-1.70698 -1.78083,-3.15023 -1.81551,-3.20722 l -0.063,-0.10362 0.26744,-0.21146 c 0.20939,-0.16558 0.27548,-0.20272 0.30459,-0.17118 0.0485,0.0525 3.8649,6.59361 3.85328,6.60422 -0.0259,0.0235 -0.63968,0.40301 -0.65191,0.40301 -0.008,0 -0.0432,-0.0473 -0.0784,-0.10507 z"
         id="path75086" />
      <path
         style="fill:#e8c613;fill-opacity:1;fill-rule:evenodd;stroke:none;stroke-width:0.161646;stroke-miterlimit:4;stroke-dasharray:none;stroke-opacity:1"
         d="m 224.99777,121.7391 c -2.28486,-0.66591 -4.16036,-1.21637 -4.16777,-1.22326 -0.0161,-0.015 0.15978,-0.63224 0.19015,-0.66755 0.0201,-0.0234 8.23606,2.41806 8.28456,2.46189 0.0243,0.022 -0.0959,0.58737 -0.13203,0.62063 -0.0114,0.0105 -1.89005,-0.52581 -4.17491,-1.19171 z"
         id="path75125" />
      <path
         style="fill:#e8c613;fill-opacity:1;fill-rule:evenodd;stroke:none;stroke-width:0.161646;stroke-miterlimit:4;stroke-dasharray:none;stroke-opacity:1"
         d="m 225.49886,119.79916 c -2.25819,-0.64839 -4.11035,-1.18286 -4.11588,-1.18771 -0.0262,-0.0229 0.2037,-0.69452 0.23773,-0.69452 0.0276,0 7.967,2.37643 8.13239,2.43419 0.0204,0.007 -0.10525,0.5902 -0.13227,0.61317 -0.009,0.008 -1.86378,-0.51674 -4.12197,-1.16513 z"
         id="path75164" />
      <path
         style="fill:#e8c613;fill-opacity:1;fill-rule:evenodd;stroke:none;stroke-width:0.161646;stroke-miterlimit:4;stroke-dasharray:none;stroke-opacity:1"
         d="m 258.15101,156.67751 c -0.0122,-0.0723 -0.0122,-0.14143 -1.6e-4,-0.15356 0.0122,-0.0122 1.3302,-0.0269 2.92902,-0.0327 l 2.90695,-0.0106 v 0.14363 0.14364 l -0.14999,0.0206 c -0.0825,0.0113 -1.39054,0.0206 -2.90679,0.0206 h -2.7568 z"
         id="path75203" />
      <path
         style="fill:#e8c613;fill-opacity:1;fill-rule:evenodd;stroke:none;stroke-width:0.161646;stroke-miterlimit:4;stroke-dasharray:none;stroke-opacity:1"
         d="m 260.26289,158.08009 c 8e-5,1.5e-4 0,0 0,5e-4 z"
         id="path75242"
         sodipodi:nodetypes="ccc" />
      <path
         style="fill:#e8c613;fill-opacity:1;fill-rule:evenodd;stroke:none;stroke-width:0.0571505;stroke-miterlimit:4;stroke-dasharray:none;stroke-opacity:1"
         d="m 258.37512,157.90534 c -0.0266,-0.1215 -0.0457,-0.22357 -0.0425,-0.22683 0.007,-0.007 0.0749,-0.007 2.91415,-0.0303 2.67436,-0.0215 2.73328,-0.0215 2.74132,-5.2e-4 0.003,0.009 0.01,0.0982 0.0143,0.19822 l 0.008,0.1819 -0.27308,0.007 c -0.15018,0.004 -0.97441,0.0186 -1.83163,0.0324 -0.71636,0.005 -1.55647,0.015 -2.21349,0.0366 -0.30168,0.004 -0.71051,0.011 -0.90853,0.0149 l -0.36004,0.007 z"
         id="path75320"
         sodipodi:nodetypes="cccccccccccc" />
      <path
         style="fill:#e8c613;fill-opacity:1;fill-rule:evenodd;stroke:none;stroke-width:0.0808231;stroke-miterlimit:4;stroke-dasharray:none;stroke-opacity:1"
         d="m 255.35519,121.78668 c 0.004,-0.0435 0.0119,-0.18526 0.0172,-0.31496 l 0.01,-0.23581 0.79458,-0.01 c 3.11427,-0.0385 7.2844,-0.0817 7.28985,-0.0756 0.004,0.004 0.0114,0.13942 0.0175,0.30075 l 0.0109,0.29334 -0.19865,0.009 c -0.10925,0.005 -1.70802,0.0277 -3.5528,0.0502 -1.84481,0.0225 -3.58854,0.0455 -3.87501,0.0512 l -0.5208,0.0104 z"
         id="path75359" />
      <path
         style="fill:#e8c613;fill-opacity:1;fill-rule:evenodd;stroke:none;stroke-width:0.0808231;stroke-miterlimit:4;stroke-dasharray:none;stroke-opacity:1"
         d="m 255.40559,119.89306 c -0.005,-0.0511 -0.0135,-0.14815 -0.0188,-0.21561 l -0.01,-0.12266 0.94273,-0.0106 c 5.26391,-0.0591 7.09642,-0.0778 7.10192,-0.0723 0.0103,0.0104 0.0459,0.46504 0.037,0.47392 -0.007,0.007 -5.86547,0.0391 -7.37058,0.0398 l -0.67328,2.7e-4 z"
         id="path75398" />
      <path
         style="fill:#e8c613;fill-opacity:1;fill-rule:evenodd;stroke:none;stroke-width:0.161646;stroke-miterlimit:4;stroke-dasharray:none;stroke-opacity:1"
         d="m 234.02956,145.00075 c 0.0116,-0.20004 0.0298,-0.47281 0.0405,-0.60617 l 0.0193,-0.24247 8.74914,-2.57017 c 4.81203,-1.4136 8.75659,-2.56713 8.76572,-2.56341 0.0327,0.0133 0.23355,1.43791 0.20617,1.46206 -0.0271,0.0239 -17.71529,4.88465 -17.77323,4.88413 -0.0164,-1.5e-4 -0.0199,-0.15657 -0.008,-0.36397 z"
         id="path75437" />
      <path
         style="fill:#e8c613;fill-opacity:1;fill-rule:evenodd;stroke:none;stroke-width:0.161646;stroke-miterlimit:4;stroke-dasharray:none;stroke-opacity:1"
         d="m 233.87195,146.98324 c 0.0127,-0.15875 0.0323,-0.36426 0.0438,-0.45668 l 0.0209,-0.16805 8.98753,-2.38719 c 4.94313,-1.31296 9.01014,-2.38769 9.03782,-2.38829 0.0403,-8e-4 0.0661,0.10401 0.13046,0.53002 l 0.0802,0.53112 -0.37291,0.0973 c -0.73194,0.19105 -17.90221,4.53037 -17.92623,4.53037 -0.0135,0 -0.0143,-0.12989 -0.003,-0.28864 z"
         id="path75476" />
      <path
         style="fill:none;stroke:none;stroke-width:0.194004px;stroke-linecap:butt;stroke-linejoin:miter;stroke-opacity:1"
         d="m 231.4623,107.41447 c 0.12338,1.75202 1.12668,3.58923 2.04494,4.96157 3.04604,2.39839 14.25666,2.09054 16.81233,-0.30508 1.26979,-1.65464 2.4846,-3.77823 2.76572,-5.66221"
         id="path75595"
         sodipodi:nodetypes="cccc" />
      <path
         style="fill:none;stroke:none;stroke-width:0.176968px;stroke-linecap:butt;stroke-linejoin:miter;stroke-opacity:1"
         d="m 232.55216,107.36328 c 0.11254,1.59817 1.02774,3.27405 1.86536,4.52587 2.77855,2.18778 13.00471,1.90696 15.33595,-0.27829 1.15828,-1.50933 2.26641,-3.44644 2.52284,-5.16498"
         id="path75597"
         sodipodi:nodetypes="cccc" />
      <path
         style="fill:none;stroke:none;stroke-width:0.150924px;stroke-linecap:butt;stroke-linejoin:miter;stroke-opacity:1"
         d="m 234.15647,107.19125 c 0.096,1.36298 0.8765,2.79223 1.59086,3.85984 2.36964,1.86582 11.09089,1.62632 13.07907,-0.23734 0.98782,-1.28722 1.93288,-2.93926 2.15158,-4.40489"
         id="path75599"
         sodipodi:nodetypes="cccc" />
      <path
         style="fill:#2198ce;fill-opacity:1;stroke:none;stroke-width:0.264583px;stroke-linecap:butt;stroke-linejoin:miter;stroke-opacity:1"
         d="m 265.78748,112.8173 -13.45498,-0.0267 c -0.6772,-6.89116 -1.47024,-22.162577 -6.03523,-27.104379 11.22547,0.190606 19.43431,15.391539 19.44299,26.144159 z"
         id="path79137"
         sodipodi:nodetypes="cccsc" />
      <path
         style="fill:#e8c613;fill-opacity:1;fill-rule:evenodd;stroke:none;stroke-width:0.161646;stroke-miterlimit:4;stroke-dasharray:none;stroke-opacity:1"
         d="m 240.32183,113.26088 c -2.2783,-0.12809 -4.09885,-0.50205 -5.2078,-1.06976 -0.4808,-0.24614 -0.59044,-0.3376 -0.80793,-0.67391 -0.80547,-1.2455 -1.35453,-2.49081 -1.56525,-3.54996 -0.088,-0.44255 -0.14274,-0.40319 0.64635,-0.46514 0.37341,-0.0293 0.68326,-0.0492 0.68855,-0.0442 0.005,0.005 0.0433,0.17445 0.0846,0.37659 0.18002,0.88322 0.64904,1.94169 1.31609,2.97004 0.18404,0.28372 0.2509,0.35885 0.40716,0.45756 0.981,0.61968 2.54762,0.99151 4.76155,1.13012 0.74028,0.0464 2.55074,0.0187 3.29758,-0.0504 1.83034,-0.16926 3.26049,-0.50124 4.21897,-0.97933 0.46334,-0.23112 0.67199,-0.39721 0.91871,-0.73127 0.98849,-1.33841 1.69759,-2.7735 1.93109,-3.90827 l 0.0582,-0.28287 0.16243,0.002 c 0.25152,0.003 0.89033,0.0525 0.90837,0.0705 0.0241,0.0241 -0.0727,0.46595 -0.18428,0.84157 -0.20421,0.6875 -0.64686,1.66147 -1.11617,2.45597 -0.24712,0.41833 -0.84477,1.31036 -1.06239,1.58574 -0.71093,0.89957 -3.08734,1.596 -6.25525,1.83318 -0.63241,0.0473 -2.58096,0.0668 -3.20058,0.032 z"
         id="path75638" />
      <path
         style="fill:#e8c613;fill-opacity:1;fill-rule:evenodd;stroke:none;stroke-width:0.0808231;stroke-miterlimit:4;stroke-dasharray:none;stroke-opacity:1"
         d="m 239.05085,114.65964 c -1.61913,0.0144 -5.68917,-0.78304 -6.32902,-1.7298 -0.60191,-0.69442 -2.0084,-3.21004 -2.2147,-5.09434 0.0111,-1.2e-4 0.4011,-0.0883 0.55226,-0.11026 0.15113,-0.0219 0.52915,-0.0605 0.54346,-0.0607 0.0277,0.31297 0.12474,0.69066 0.1946,0.96772 0.3036,1.06785 0.87349,2.2537 1.69552,3.50466 1.57783,1.71621 8.73023,1.85107 10.82051,1.64948 2.19619,-0.34093 4.48851,-0.57546 6.05003,-1.99843 0.88771,-1.17921 1.59433,-2.33168 2.07246,-3.51159 0.0799,-0.48943 0.43854,-1.38141 0.53697,-1.72699 0.003,-0.003 0.34007,0.0314 0.50649,0.0465 l 0.54813,0.075 c -0.32429,2.12083 -1.92125,4.58276 -3.05156,6.00309 -1.76274,1.50214 -5.59373,1.90409 -7.67735,2.03692 -1.66936,0.0515 -2.79431,0.0823 -4.2478,-0.0513 z"
         id="path75677"
         sodipodi:nodetypes="cccccccccccccccc" />
      <path
         style="fill:#e8c613;fill-opacity:1;fill-rule:evenodd;stroke:none;stroke-width:0.0808231;stroke-miterlimit:4;stroke-dasharray:none;stroke-opacity:1"
         d="m 240.28949,117.32527 c -0.0711,-0.003 -0.32572,-0.0131 -0.56575,-0.0226 -2.05082,-0.0812 -3.99915,-0.33254 -5.57681,-0.71946 -1.38174,-0.42826 -2.99238,-0.58438 -3.62027,-1.71577 -1.5126,-2.32487 -2.36424,-4.36995 -2.55759,-6.14179 -0.0238,-0.21809 -0.0243,-0.25318 -0.004,-0.26589 0.11819,-0.0743 1.67275,-0.51306 1.70466,-0.48114 0.004,0.004 0.0183,0.0941 0.032,0.20016 0.20082,1.56531 0.94549,3.33704 2.23483,5.31709 0.0926,0.14225 0.18415,0.27148 0.20342,0.28717 0.0675,0.055 0.40793,0.28222 0.52136,0.34797 1.8619,1.07899 5.50468,1.68763 9.59464,1.60307 1.20202,-0.0248 2.16572,-0.0874 3.23482,-0.21004 3.04556,-0.34927 5.35688,-1.05897 6.48335,-1.99072 0.14734,-0.12188 0.32692,-0.3485 0.74062,-0.93458 1.32792,-1.8813 2.28256,-3.87066 2.60898,-5.43685 0.0318,-0.15254 0.0627,-0.28907 0.0688,-0.30341 0.01,-0.0234 0.0489,-0.0197 0.38277,0.0366 0.3624,0.0611 1.32652,0.24989 1.34988,0.26433 0.0138,0.009 0.0116,0.0234 -0.0512,0.33937 -0.40126,2.02174 -1.65576,4.53741 -3.47596,6.97054 -0.11409,0.15249 -0.22685,0.28326 -0.2966,0.34391 -0.50408,0.43841 -1.40173,0.89772 -2.44882,1.25301 -1.26347,0.42872 -2.83938,0.76326 -4.6387,0.98473 -0.96414,0.11866 -1.84973,0.19168 -3.07129,0.25323 -0.31255,0.0157 -2.57426,0.0324 -2.85305,0.021 z"
         id="path75716"
         sodipodi:nodetypes="csccscscsscscsssssccscssscc" />
      <path
         style="fill:#552200;fill-opacity:1;fill-rule:evenodd;stroke:none;stroke-width:0.441942;stroke-miterlimit:4;stroke-dasharray:none;stroke-opacity:1"
         d="m 965.08156,455.92443 c 0.0169,-0.68216 0.1832,-2.36137 0.2167,-2.39479 0.0335,-0.0334 6.86578,-0.11375 15.25928,-0.14044 13.04017,-0.0414 15.14733,-0.1554 15.21444,-0.0494 0.0432,0.0682 0.1416,1.84141 0.1424,2.41262 l -0.124,2.22606 c -5.56089,-0.0231 -20.20609,0.17323 -26.64327,0.25239 l -3.92235,-0.0164 z"
         id="path105132"
         transform="scale(0.26458334)"
         sodipodi:nodetypes="csssccccc" />
      <path
         style="fill:#552200;fill-opacity:1;fill-rule:evenodd;stroke:none;stroke-width:0.15625;stroke-miterlimit:4;stroke-dasharray:none;stroke-opacity:1"
         d="m 976.09696,594.81857 c 0,0 -0.32349,-2.14962 -0.31435,-2.15834 0.013,-0.0124 10.72153,-0.0165 17.35991,-0.0415 1.56179,-0.006 3.0432,-0.0743 4.60292,-0.11011 l 0.0514,1.67541 -0.011,1.67529 -21.39604,0.0931 z"
         id="path105171"
         transform="scale(0.26458334)"
         sodipodi:nodetypes="sscccccs" />
      <path
         style="fill:#552200;fill-opacity:1;fill-rule:evenodd;stroke:none;stroke-width:0.441942;stroke-miterlimit:4;stroke-dasharray:none;stroke-opacity:1"
         d="m 771.13166,545.78702 c -0.0273,-0.0969 3.39081,-2.97997 3.49516,-2.94518 0.045,0.015 3.59068,6.07288 7.47545,12.98624 l 6.75847,12.02742 -1.98827,1.18868 -2.13861,0.90598 z"
         id="path105210"
         transform="scale(0.26458334)"
         sodipodi:nodetypes="csscccc" />
      <path
         style="fill:#552200;fill-opacity:1;fill-rule:evenodd;stroke:none;stroke-width:0.441942;stroke-miterlimit:4;stroke-dasharray:none;stroke-opacity:1"
         d="m 850.71955,457.56083 c -8.51694,-2.55993 -15.31914,-4.56753 -15.34517,-4.59502 -0.026,-0.0275 0.44813,-1.78319 0.63356,-2.41199 0.29137,-0.98807 0.55546,-2.28776 0.70196,-2.26262 0.0932,0.016 5.36933,1.5634 11.27588,3.25722 5.90655,1.69383 12.40975,3.46423 14.98627,4.20158 2.57652,0.73735 4.90498,1.37197 4.94519,1.41026 0.0402,0.0383 -0.3716,1.88989 -0.53329,2.62507 -0.26143,1.18897 -0.59471,2.46079 -0.75211,2.45361 -0.0973,-0.004 -7.39536,-2.11818 -15.91229,-4.67811 z"
         id="path105249"
         transform="scale(0.26458334)"
         sodipodi:nodetypes="sssssssscs" />
      <path
         style="fill:#552200;fill-opacity:1;fill-rule:evenodd;stroke:none;stroke-width:0.441942;stroke-miterlimit:4;stroke-dasharray:none;stroke-opacity:1"
         d="m 883.07592,433.53765 c -2.00072,-1.06854 -3.96129,-2.164 -5.7291,-3.46726 -4.58522,-6.22209 -7.59706,-12.60535 -8.68839,-18.53128 -0.28439,-1.29995 -0.63125,-3.2301 -0.55032,-3.31104 0.11394,-0.11396 3.04889,-0.73856 3.10308,-0.65088 0.0311,0.0503 0.0821,0.31753 0.11338,0.59377 0.1623,1.43453 0.87848,4.16793 1.60343,6.11972 1.37173,3.69311 3.33509,7.48113 5.98115,11.53976 0.69462,1.06543 0.71694,1.08868 1.62843,1.6962 4.93797,3.29122 13.49813,5.31036 25.57556,6.03265 2.30859,0.13807 10.00939,0.13754 12.33018,-8.8e-4 13.82527,-0.82437 23.98011,-3.25278 29.12396,-6.96465 0.98868,-0.71345 1.15163,-0.88451 2.24672,-2.35861 2.72202,-3.66408 5.45578,-8.199 7.12472,-11.81888 1.46335,-3.17399 2.63359,-6.60424 3.05179,-8.9456 0.0432,-0.24172 0.10331,-0.33146 0.22212,-0.33146 0.2503,0 5.10733,0.71979 5.10733,0.71979 -0.92714,6.69438 -6.31873,16.26673 -9.93036,21.50988 -2.10529,2.99065 -2.90592,3.82282 -4.52533,4.88429 -5.65351,3.70573 -17.6444,6.57648 -31.34957,7.24112 -13.09642,0.69297 -30.00688,-1.4312 -36.43878,-3.95664 z"
         id="path105522"
         transform="scale(0.26458334)"
         sodipodi:nodetypes="cccssssssscsssssccscc" />
      <path
         style="fill:#552200;fill-opacity:1;fill-rule:evenodd;stroke:none;stroke-width:0.441942;stroke-miterlimit:4;stroke-dasharray:none;stroke-opacity:1"
         d="m 908.05769,430.48596 c -7.81307,-0.41542 -13.0906,-1.1942 -17.97645,-2.65271 -2.87905,-0.85944 -6.04815,-2.35236 -7.10073,-3.34505 -0.15648,-0.14758 -0.64497,-0.83679 -1.08553,-1.53159 -2.94618,-4.64631 -5.03738,-9.18803 -6.00499,-13.04176 -0.2708,-1.07853 -0.59959,-2.94208 -0.5307,-3.00795 0.0517,-0.0494 4.06162,-0.27669 4.06162,-0.27669 1.15772,5.69768 3.34935,10.31363 5.88648,14.33865 0.71337,1.11913 1.42426,1.80926 2.1408,2.22619 4.42281,2.57353 9.80283,3.54182 19.32787,4.69354 1.5269,0.18462 7.7526,0.26427 10.53337,0.15196 12.1201,-0.48954 19.81911,-2.47752 24.71772,-5.29331 0.88444,-0.50839 1.7654,-1.40149 3.06166,-3.21857 2.07512,-2.90887 3.37889,-5.06343 4.85003,-8.05815 1.36277,-2.69831 2.71096,-6.1775 3.0451,-8.88507 0.12962,0.0245 1.73114,0.0389 2.20303,0.0705 l 0.85799,0.0573 -0.0513,0.2793 c -0.12855,0.69977 -0.75138,3.0228 -1.04478,3.89688 -1.30807,3.89683 -3.52291,8.22071 -6.45105,12.59396 -1.56088,2.33121 -2.71486,3.83729 -3.2899,4.29374 -2.07853,1.64983 -5.43344,3.09047 -9.88242,4.24364 -4.41972,1.14559 -9.58617,2.15432 -15.99829,2.34946 -1.27524,0.0388 -10.08274,0.17883 -11.26951,0.11574 z"
         id="path105561"
         transform="scale(0.26458334)"
         sodipodi:nodetypes="ssssssccsssssccscssssssss" />
      <path
         style="fill:#ffdd55;fill-opacity:1;fill-rule:evenodd;stroke:none;stroke-width:0.220971;stroke-miterlimit:4;stroke-dasharray:none;stroke-opacity:1"
         d="m 884.23582,551.48287 c 0.0117,-0.29886 0.0452,-0.61099 0.0622,-0.69422 l 0.24184,-1.38571 33.60391,-9.2774 c 18.60815,-5.13735 33.58718,-9.18204 33.58718,-9.18204 0,0 0.65047,4.19939 0.62695,4.22292 -0.0154,0.0154 -60.22889,15.94309 -66.91284,17.67013 l -1.27507,0.32946 z"
         id="path105791"
         transform="scale(0.26458334)"
         sodipodi:nodetypes="sscscsscs" />
      <path
         style="fill:none;stroke:none;stroke-width:0.264583px;stroke-linecap:butt;stroke-linejoin:miter;stroke-opacity:1"
         d="m 235.13538,107.26028 c 0.50818,1.26463 0.81252,2.52012 1.93053,3.17005 2.89579,1.6834 7.84593,1.10664 10.61371,-0.49026 1.43005,-0.82509 2.26553,-2.40952 2.50476,-3.68545"
         id="path105943"
         sodipodi:nodetypes="cssc" />
      <path
         style="fill:none;stroke:none;stroke-width:0.264583px;stroke-linecap:butt;stroke-linejoin:miter;stroke-opacity:1"
         d="m 235.98897,107.19596 c 0.40138,0.75063 0.95771,1.63874 1.89777,2.07621 2.41221,1.12256 6.45473,1.25392 9.05366,-0.39612 0.92705,-0.58859 1.46632,-1.64876 1.96723,-2.62965"
         id="path105945"
         sodipodi:nodetypes="cssc" />
      <path
         style="fill:none;stroke:none;stroke-width:0.264583px;stroke-linecap:butt;stroke-linejoin:miter;stroke-opacity:1"
         d="m 237.4126,107.06734 c 0.3515,0.46839 0.65869,1.08732 1.15253,1.37407 2.0457,1.18786 5.27232,1.02786 7.47794,-0.23154 0.82168,-0.46917 1.40096,-1.32253 1.86994,-1.98155"
         id="path105947"
         sodipodi:nodetypes="cssc" />
      <path
         style="fill:none;stroke:none;stroke-width:0.264583px;stroke-linecap:butt;stroke-linejoin:miter;stroke-opacity:1"
         d="m 238.62576,106.9738 c 1.31349,2.5474 7.11416,0.84318 7.74651,-0.59051"
         id="path105949"
         sodipodi:nodetypes="cc" />
      <path
         style="fill:#552200;fill-opacity:1;fill-rule:evenodd;stroke:none;stroke-width:0.441942;stroke-miterlimit:4;stroke-dasharray:none;stroke-opacity:1"
         d="m 911.41644,424.91871 c -8.50653,-0.39783 -13.8621,-1.14713 -17.80853,-3.20443 -1.36087,-0.70943 -2.56823,-1.23543 -3.12158,-2.09318 -1.88467,-2.92149 -3.85108,-6.62927 -4.71839,-9.16772 -0.45554,-1.33329 -1.14689,-4.19208 -1.02804,-4.31093 0.0779,-0.0779 4.69144,-0.39574 4.69144,-0.39574 0,0 0.38521,0.97006 0.85909,2.20971 1.77714,4.64884 2.52174,5.80534 4.24046,7.45538 2.85995,2.74567 7.57717,4.25915 14.32229,4.83763 1.6079,0.1379 5.98848,0.31511 7.73398,0.17758 5.73141,-0.45166 10.62041,-1.52509 15.34048,-3.51012 1.46126,-0.61453 3.39726,-1.60795 4.34908,-2.22838 4.52556,-3.77553 7.28747,-8.06136 8.62243,-12.53731 0,0 1.9186,-0.0424 2.40296,0 l 1.62272,0.14201 c -0.57497,4.47848 -3.20914,9.5529 -5.21407,12.67466 -1.55575,2.36368 -2.79047,4.19009 -3.41134,4.6568 -3.43976,2.58572 -10.53224,4.60212 -19.84526,5.21482 -2.7517,0.0336 -6.28682,0.18233 -9.03772,0.0792 z"
         id="path122042"
         transform="scale(0.26458334)"
         sodipodi:nodetypes="csssscsssssccsccsccc" />
      <path
         style="fill:#552200;fill-opacity:1;fill-rule:evenodd;stroke:none;stroke-width:0.441942;stroke-miterlimit:4;stroke-dasharray:none;stroke-opacity:1"
         d="m 911.99097,415.54575 c -5.90754,-0.45655 -11.78258,-2.14965 -14.51322,-4.18248 -0.90574,-0.67428 -2.30366,-2.13628 -3.04963,-3.18941 -0.67941,-0.95916 -1.70673,-2.63247 -1.65064,-2.68856 0.0208,-0.0208 0.95087,-0.12403 2.06845,-0.20887 l 3.43687,-0.26089 c 0.34182,0.53899 0.73498,1.13398 1.09078,1.64461 1.62176,2.36946 2.31964,2.54616 4.10782,3.29581 7.8536,3.29241 15.60784,3.12919 24.06852,-0.51976 1.37257,-0.59196 2.50498,-1.20622 3.44116,-1.96122 2.24703,-2.12128 3.2793,-3.1556 4.86734,-5.42973 l 2.05716,-0.1859 c 0.307,-0.0277 0.89276,-0.033 1.30296,10e-4 l 0.74582,0.0621 -0.49909,0.93978 c -2.59335,4.88329 -4.30462,6.9282 -7.22148,8.62945 -3.42227,1.99602 -7.6436,3.31032 -12.51884,3.89771 -1.13682,0.13697 -6.56443,0.2466 -7.73398,0.15621 z"
         id="path122081"
         transform="scale(0.26458334)"
         sodipodi:nodetypes="sssssccssccsccsssss" />
      <path
         style="fill:#552200;fill-opacity:1;fill-rule:evenodd;stroke:none;stroke-width:0.441942;stroke-miterlimit:4;stroke-dasharray:none;stroke-opacity:1"
         d="m 910.44417,408.61466 c -2.41684,-0.30012 -4.35179,-0.96316 -5.79166,-1.9846 -0.5363,-0.38044 -1.62829,-1.4724 -1.80771,-1.80764 -0.0805,-0.15042 -0.0703,-0.18072 0.0612,-0.18148 0.0868,-5e-4 0.6152,-0.0405 1.17425,-0.0888 0.55906,-0.0483 6.52527,-0.52357 13.25825,-1.05608 6.73299,-0.53252 12.42023,-0.99028 12.63833,-1.01725 l 0.39654,-0.049 -0.61751,0.62656 c -2.39009,2.42511 -7.99216,4.65371 -13.65479,5.43211 -1.20563,0.16573 -4.70913,0.24388 -5.65686,0.12619 z"
         id="path122120"
         transform="scale(0.26458334)" />
      <path
         style="fill:#e8c613;fill-opacity:1;fill-rule:evenodd;stroke:none;stroke-width:0.441942;stroke-miterlimit:4;stroke-dasharray:none;stroke-opacity:1"
         d="m 909.78126,420.58189 c -5.97126,-0.48202 -10.77011,-1.86441 -14.05147,-4.04775 -0.92824,-0.61763 -2.10834,-1.84943 -2.83649,-2.96076 -0.9096,-1.38825 -1.52129,-2.74345 -3.0739,-6.81021 l -0.38806,-1.01646 0.45224,-0.0564 c 0.24873,-0.031 0.72231,-0.0763 1.05239,-0.10059 l 1.85015,-0.0754 c 0.77883,1.77587 3.58268,4.96655 4.96544,6.01713 2.61035,1.61757 7.80148,3.21318 12.44283,3.84733 7.26327,0.56916 15.10418,-0.5966 20.55065,-3.14773 1.91745,-0.91041 2.78574,-1.62928 3.99492,-2.83249 1.67467,-1.66641 2.67102,-2.63014 4.42568,-5.96021 l 0.79872,-1.51585 2.28047,0.0375 c 2.23765,0.0368 2.68118,0.12235 2.63452,0.28172 -0.0235,0.0804 -0.10612,0.39661 -0.18351,0.70268 -0.44636,1.76529 -1.73819,4.61867 -2.82932,6.2494 -1.79789,2.68702 -3.96701,4.71495 -6.57421,6.14627 -5.08384,2.79098 -12.0462,4.69369 -19.0587,5.20847 -1.11361,0.0817 -5.56743,0.10473 -6.45235,0.0333 z"
         id="path128906"
         transform="scale(0.26458334)"
         sodipodi:nodetypes="sssscssccccsscssssssss" />
      <path
         style="fill:#e8c613;fill-opacity:1;fill-rule:evenodd;stroke:none;stroke-width:0.441942;stroke-miterlimit:4;stroke-dasharray:none;stroke-opacity:1"
         d="m 911.85839,412.26982 c -3.21891,-0.25032 -6.51826,-1.14367 -9.104,-2.46504 -1.59532,-0.81524 -2.19737,-1.40301 -3.7287,-3.64028 -0.42223,-0.61688 -0.76031,-1.12795 -0.7513,-1.13573 0.009,-0.008 0.59312,-0.0589 1.29802,-0.11371 0.70489,-0.0548 3.05777,-0.22841 3.23006,-0.25082 2.0142,3.33148 8.1495,4.49758 13.5948,3.72921 5.40486,-1.06598 10.43497,-2.43153 13.9761,-5.96364 0.0991,-0.002 2.53691,-0.1674 3.5821,-0.25599 1.0452,-0.0886 1.91424,-0.14892 1.93122,-0.13404 0.017,0.0149 -0.2577,0.41754 -0.61039,0.8948 -1.90627,2.57955 -3.68939,4.37814 -5.3425,5.38886 -3.20143,1.95739 -7.80503,3.40449 -12.30888,3.8692 -1.2276,0.12666 -4.55798,0.17133 -5.76653,0.0773 z"
         id="path128945"
         transform="scale(0.26458334)"
         sodipodi:nodetypes="ssssscccsssssss" />
      <path
         style="fill:#2198ce;fill-opacity:1;stroke:none;stroke-width:0.25281px;stroke-linecap:butt;stroke-linejoin:miter;stroke-opacity:1"
         d="m 231.06772,112.47744 4.75336,0.0497 c 0.14531,-5.56503 1.00428,-6.07087 2.80785,-10.10294 -1.53079,-0.33771 -3.0637,-0.76142 -4.5153,-0.86176 -1.02202,4.16321 -2.78732,7.53265 -3.04591,10.915 z"
         id="path79135"
         sodipodi:nodetypes="ccccc" />
      <path
         style="fill:none;stroke:none;stroke-width:0.264583px;stroke-linecap:butt;stroke-linejoin:miter;stroke-opacity:1"
         d="m 229.95115,120.25497 25.27757,-0.83865"
         id="path133800" />
      <path
         style="fill:#ff6600;fill-opacity:1;fill-rule:evenodd;stroke:none;stroke-width:1.25;stroke-miterlimit:4;stroke-dasharray:none;stroke-opacity:1"
         d="m 853,450.29051 c -8.25,-2.48882 -15.25739,-4.53875 -15.42874,-4.60313 -0.34608,-0.13005 0.64069,-2.68796 2.85261,-9.43738 2.53997,-7.75042 4.7779,-12.56194 7.57829,-16.29324 2.75197,-3.66678 6.5122,-6.7828 10.47297,-8.59747 l 3.08425,-1.41308 c 0.28253,1.26426 0.46903,3.42156 0.68265,4.53256 0.94713,4.9341 4.39236,12.24152 8.23988,18.34445 2.00985,3.18802 2.18736,3.2342 4.65461,4.30627 9.68673,4.20909 24.51014,6.69042 43.83575,6.18289 6.54016,-0.17176 12.50243,-1.03082 17.74805,-1.96549 8.66944,-1.54472 15.38141,-3.75504 19.50951,-6.79397 3.42033,-2.5179 10.25629,-13.58458 13.15596,-21.36542 0.51242,-1.375 1.2866,-3.46648 1.64794,-4.95233 l 0.77877,-3.20233 2.03154,0.59458 c 1.2039,0.35235 5.05659,1.35781 5.76654,1.70177 0.67064,0.32491 4.06482,4.63045 6.73689,8.54581 3.66162,5.36532 5.18398,8.96777 6.5376,15.47031 1.04647,5.02705 2.99288,19.92871 2.69348,20.17742 -0.0432,0.0359 -6.69337,0.33433 -14.96999,0.33557 l -15.40497,0.002 0.12373,-1.93692 c 0.0421,-0.65833 -0.1848,-0.79869 -0.68148,-0.79869 -0.45073,0 -0.66577,0.19047 -0.84673,0.75 -0.1334,0.4125 -0.26134,0.77481 -0.2843,0.80513 -0.0865,0.11432 -88.63869,3.06987 -91.97711,3.06987 -1.96591,0 -2.14221,-0.0416 -2.30141,-0.54323 -0.16982,-0.53503 -0.58292,1.15178 -0.8606,1.6422 z"
         id="path136064"
         transform="scale(0.26458334)"
         sodipodi:nodetypes="cssssccssssssscsssssscsssssscc" />
      <path
         style="fill:none;stroke:none;stroke-width:0.264583px;stroke-linecap:butt;stroke-linejoin:miter;stroke-opacity:1"
         d="m 233.74283,147.46586 c -1.12055,18.85431 22.11319,18.29834 22.11319,18.29834"
         id="path136202"
         sodipodi:nodetypes="cc" />
      <path
         style="fill:#d40000;fill-opacity:1;fill-rule:evenodd;stroke:none;stroke-width:2.5;stroke-miterlimit:4;stroke-dasharray:none;stroke-opacity:1"
         d="m 961.96875,626.37777 c -10.6609,-0.48646 -23.31539,-3.17795 -33.21875,-5.74481 -20.56253,-5.32961 -33.74104,-17.07276 -40.84963,-31.90186 -3.59736,-7.5044 -3.9035,-16.62507 -5.39204,-25.73919 -0.75753,-4.63825 1.54658,-6.40717 1.54658,-6.40717 1.90861,-0.60577 68.85209,-17.71948 68.94942,-17.61956 0.12799,0.13137 9.33493,60.67217 11.22592,73.53482 0.82879,5.6375 1.63248,10.98125 1.78597,11.875 0.1535,0.89375 -0.0249,2.26914 -0.24357,2.21616 -0.21871,-0.053 -2.0164,-0.13183 -3.8039,-0.21339 z"
         id="path136563"
         transform="scale(0.26458334)"
         sodipodi:nodetypes="ssssssssss" />
      <path
         style="fill:#f2f2f2;fill-opacity:1;fill-rule:evenodd;stroke:none;stroke-width:2.5;stroke-miterlimit:4;stroke-dasharray:none;stroke-opacity:1"
         d="m 907.5,641.99808 c -1.65,-0.20631 -10.9875,-0.77442 -20.75,-1.26248 -9.7625,-0.48806 -17.81127,-0.93325 -17.88616,-0.98931 -0.0749,-0.0561 1.42503,-7.16567 3.33314,-15.79911 5.08548,-23.00977 9.0287,-51.20372 9.97294,-59.68948 0.42815,-3.8477 1.0431,4.69621 2.25064,11.48541 1.0219,5.74556 3.02936,12.50225 6.21215,17.94652 3.3932,5.80419 12.27634,14.66039 18.61729,18.56084 14.04382,8.63863 33.90372,12.68673 55.58505,14.28224 1.24451,0.0916 -5.8395,2.03548 -16.90625,5.81277 -8.21084,2.80252 -16.76572,5.90341 -19.01085,6.89087 -6.66607,2.93192 -13.25845,3.78197 -21.41795,2.76173 z"
         id="path136737"
         transform="scale(0.26458334)"
         sodipodi:nodetypes="ssssssssssss" />
      <path
         style="fill:#1c661c;fill-opacity:1;fill-rule:evenodd;stroke:none;stroke-width:2.5;stroke-miterlimit:4;stroke-dasharray:none;stroke-opacity:1"
         d="m 885.0921,527.875 c -0.30224,-15.21749 -0.92284,-22.41783 -2.87658,-33.375 -2.0703,-11.61082 -6.73299,-27.53123 -10.53001,-35.95391 -0.7944,-1.76215 -2.15869,-4.92058 -2.15869,-4.92058 0,0 93.83964,-3.07203 93.98717,-2.96413 0.0612,0.0448 -4.45438,11.27535 -8.93125,23.04643 l -8.13977,21.40196 2.06638,14.45562 2.4289,15.8803 -4.27539,1.35658 c -8.50784,2.69953 -61.36629,18.07273 -61.72772,18.07273 -0.2297,0 0.32218,-8.68125 0.15696,-17 z"
         id="path136776"
         transform="scale(0.26458334)"
         sodipodi:nodetypes="ssscsscccsss" />
      <path
         style="fill:#2198ce;fill-opacity:1;stroke:none;stroke-width:0.264583px;stroke-linecap:butt;stroke-linejoin:miter;stroke-opacity:1"
         d="m 248.06641,97.769478 c -2.50392,0.559801 -2.47307,2.126863 -2.70927,5.310792 l -0.69053,9.87394 6.7019,-0.21702 c 0.19009,-1.42531 0.0415,-3.87716 0.23007,-5.19496 0.0415,-0.73755 0.5834,-1.1234 0.5834,-1.1234 0,0 -0.45085,-8.180336 -1.58594,-11.691573 0,0 0.46654,3.00548 -2.52963,3.042221 z"
         id="path172444"
         sodipodi:nodetypes="cccccccc" />
    </g>
    <g
       aria-label="hello"
       id="text181602"
       style="font-size:10.5833px;line-height:1.25;stroke-width:0.264583"
       inkscape:path-effect="#path-effect182578" />
  </g>
</svg>
