<?xml version="1.0" encoding="UTF-8" standalone="no"?>
<!-- Created with Inkscape (http://www.inkscape.org/) -->

<svg
   width="1920"
   height="1080"
   viewBox="0 0 507.99999 285.75001"
   version="1.1"
   id="svg5"
   inkscape:version="1.1.2 (b8e25be833, 2022-02-05)"
   sodipodi:docname="hamsterplaydrum.svg"
   inkscape:export-filename="C:\Users\eric\Desktop\myprogrammingwork\mypicturework\hamsterplaydrum.png"
   inkscape:export-xdpi="96"
   inkscape:export-ydpi="96"
   xmlns:inkscape="http://www.inkscape.org/namespaces/inkscape"
   xmlns:sodipodi="http://sodipodi.sourceforge.net/DTD/sodipodi-0.dtd"
   xmlns:xlink="http://www.w3.org/1999/xlink"
   xmlns="http://www.w3.org/2000/svg"
   xmlns:svg="http://www.w3.org/2000/svg">
  <sodipodi:namedview
     id="namedview7"
     pagecolor="#ffffff"
     bordercolor="#666666"
     borderopacity="1.0"
     inkscape:pageshadow="2"
     inkscape:pageopacity="0.0"
     inkscape:pagecheckerboard="false"
     inkscape:document-units="px"
     showgrid="false"
     units="px"
     inkscape:zoom="0.35355339"
     inkscape:cx="2295.2686"
     inkscape:cy="456.79098"
     inkscape:window-width="1920"
     inkscape:window-height="1001"
     inkscape:window-x="-9"
     inkscape:window-y="-9"
     inkscape:window-maximized="1"
     inkscape:current-layer="layer1"
     inkscape:snap-global="true" />
  <defs
     id="defs2">
    <linearGradient
       id="linearGradient29881"
       inkscape:swatch="solid">
      <stop
         style="stop-color:#f67e07;stop-opacity:1;"
         offset="0"
         id="stop29879" />
    </linearGradient>
    <inkscape:path-effect
       effect="lattice2"
       gridpoint0="46.234375,222.97656"
       gridpoint1="62.47973,222.97656"
       gridpoint2="46.234375,230.90242"
       gridpoint3="62.47973,230.90242"
       gridpoint4="50.295714,222.97656"
       gridpoint5="58.418391,222.97656"
       gridpoint6="50.295714,230.90242"
       gridpoint7="58.418391,230.90242"
       gridpoint8x9="58.285896,221.03159"
       gridpoint10x11="54.357053,230.90242"
       gridpoint12="46.234375,224.95803"
       gridpoint13="62.47973,224.95803"
       gridpoint14="46.234375,228.92096"
       gridpoint15="62.47973,228.92096"
       gridpoint16="50.295714,224.95803"
       gridpoint17="58.418391,224.95803"
       gridpoint18="50.295714,228.92096"
       gridpoint19="58.418391,228.92096"
       gridpoint20x21="54.357053,224.95803"
       gridpoint22x23="54.357053,228.92096"
       gridpoint24x26="46.234375,226.93949"
       gridpoint25x27="62.47973,226.93949"
       gridpoint28x30="50.295714,226.93949"
       gridpoint29x31="58.418391,226.93949"
       gridpoint32x33x34x35="54.357053,226.93949"
       id="path-effect26710"
       is_visible="true"
       lpeversion="1"
       horizontal_mirror="false"
       vertical_mirror="false"
       perimetral="false"
       live_update="true" />
    <inkscape:path-effect
       effect="transform_2pts"
       start="46.234375,226.93949"
       end="62.47973,226.93949"
       id="path-effect26706"
       is_visible="true"
       lpeversion="1"
       first_knot="1"
       last_knot="2"
       helper_size="3"
       stretch="1"
       offset="0"
       elastic="false"
       from_original_width="true"
       flip_vertical="false"
       flip_horizontal="false"
       lock_length="false"
       lock_angle="false" />
    <inkscape:path-effect
       effect="lattice2"
       gridpoint0="46.234375,222.97605"
       gridpoint1="62.47973,222.97605"
       gridpoint2="46.234375,230.90294"
       gridpoint3="62.47973,230.90294"
       gridpoint4="50.295714,222.97605"
       gridpoint5="58.418391,222.97605"
       gridpoint6="50.295714,230.90294"
       gridpoint7="58.418391,230.90294"
       gridpoint8x9="54.357053,222.97605"
       gridpoint10x11="54.357053,230.90294"
       gridpoint12="46.234375,224.95777"
       gridpoint13="62.47973,224.95777"
       gridpoint14="46.234375,228.92121"
       gridpoint15="62.47973,228.92121"
       gridpoint16="51.233262,224.89311"
       gridpoint17="59.71156,224.69914"
       gridpoint18="49.810775,228.82422"
       gridpoint19="58.418391,228.92121"
       gridpoint20x21="54.357053,224.95777"
       gridpoint22x23="54.357053,228.92121"
       gridpoint24x26="46.234375,226.93919"
       gridpoint25x27="62.47973,226.93919"
       gridpoint28x30="50.295714,226.93919"
       gridpoint29x31="60.196499,226.55123"
       gridpoint32x33x34x35="54.357053,226.93919"
       id="path-effect22708"
       is_visible="true"
       lpeversion="1"
       horizontal_mirror="false"
       vertical_mirror="false"
       perimetral="false"
       live_update="true" />
    <inkscape:path-effect
       effect="sketch"
       id="path-effect22503"
       is_visible="true"
       lpeversion="1"
       nbiter_approxstrokes="1"
       strokelength="100"
       strokelength_rdm="0.3;1"
       strokeoverlap="0.3"
       strokeoverlap_rdm="0.3;1"
       ends_tolerance="0.1;1"
       parallel_offset="5;1"
       tremble_size="5;1"
       tremble_frequency="1"
       nbtangents="5"
       tgt_places_rdmness="1;1"
       tgtscale="10"
       tgtlength="100"
       tgtlength_rdm="0.3;1" />
    <inkscape:path-effect
       effect="knot"
       id="path-effect22501"
       is_visible="true"
       lpeversion="1"
       switcher_size="15"
       interruption_width="3"
       prop_to_stroke_width="true"
       add_stroke_width="inkscape_1.0_and_up"
       both="false"
       inverse_width="false"
       add_other_stroke_width="inkscape_1.0_and_up"
       crossing_points_vector="" />
    <inkscape:path-effect
       effect="join_type"
       id="path-effect22499"
       is_visible="true"
       lpeversion="1"
       linecap_type="butt"
       line_width="0.4"
       linejoin_type="extrp_arc"
       miter_limit="100"
       attempt_force_join="true" />
    <inkscape:path-effect
       effect="roughen"
       id="path-effect22497"
       is_visible="true"
       lpeversion="1.1"
       method="size"
       max_segment_size="0.158538"
       segments="3"
       displace_x="10;1"
       displace_y="10;1"
       global_randomize="1;1"
       handles="along"
       shift_nodes="true"
       fixed_displacement="false"
       spray_tool_friendly="false" />
    <inkscape:path-effect
       effect="envelope"
       id="path-effect22495"
       is_visible="true"
       lpeversion="1"
       yy="true"
       xx="true"
       bendpath1="M 46.234375,222.97574 H 62.47973"
       bendpath2="m 62.47973,222.97574 v 7.92689"
       bendpath3="M 46.234375,230.90263 H 62.47973"
       bendpath4="m 46.234375,222.97574 v 7.92689" />
    <inkscape:path-effect
       effect="offset"
       id="path-effect22493"
       is_visible="true"
       lpeversion="1"
       linejoin_type="miter"
       unit="mm"
       offset="0.16825028"
       miter_limit="4"
       attempt_force_join="false"
       update_on_knot_move="true" />
    <inkscape:path-effect
       effect="gears"
       id="path-effect22491"
       is_visible="true"
       lpeversion="1"
       teeth="3"
       phi="5"
       min_radius="5" />
    <inkscape:path-effect
       effect="vonkoch"
       id="path-effect22489"
       is_visible="true"
       lpeversion="1"
       ref_path="M 46.234375,226.93918 H 62.47973"
       generator="m 46.234375,230.90263 h 5.415118 m 5.415119,0 h 5.415118"
       similar_only="false"
       nbgenerations="1"
       drawall="true"
       maxComplexity="1000" />
    <inkscape:path-effect
       effect="rough_hatches"
       id="path-effect22468"
       is_visible="true"
       lpeversion="1"
       direction="53.839785,226.23898 , 0.21415964,0.032329236"
       dist_rdm="75;1"
       growth="0"
       do_bend="true"
       bender="53.290188,227.03618 , 0.18294386,0.032329236"
       bottom_edge_variation="0.792689;1"
       top_edge_variation="0.792689;1"
       bottom_tgt_variation="0;1"
       top_tgt_variation="0;1"
       scale_bf="1"
       scale_bb="1"
       scale_tf="1"
       scale_tb="1"
       top_smth_variation="0;1"
       bottom_smth_variation="0;1"
       fat_output="true"
       stroke_width_top="1"
       stroke_width_bottom="1"
       front_thickness="1"
       back_thickness="0.25" />
  </defs>
  <g
     inkscape:label="圖層 1"
     inkscape:groupmode="layer"
     id="layer1">
    <rect
       style="fill:#ffffff;fill-opacity:1;fill-rule:evenodd;stroke:none;stroke-width:2.45265;stroke-miterlimit:4;stroke-dasharray:none;stroke-opacity:1"
       id="rect138665"
       width="296.93918"
       height="273.05002"
       x="68.708542"
       y="8.4666662" />
    <g
       id="g77769"
       transform="matrix(0.92665746,0,0,0.92665746,9.8188669,10.986731)">
      <g
         id="g77018"
         transform="translate(508.46992,-1.1952701)">
        <g
           id="g13660"
           transform="matrix(1,0,0,0.81441848,34.583669,-6.4410849)">
          <ellipse
             style="fill:#000000;fill-opacity:1;fill-rule:evenodd;stroke:#cccccc;stroke-width:2.64583"
             id="path1013"
             cx="-322.26251"
             cy="180.97501"
             rx="43.920834"
             ry="17.991667" />
          <rect
             style="fill:#4d4d4d;fill-opacity:1;fill-rule:evenodd;stroke-width:2.64583"
             id="rect1139"
             width="5.291667"
             height="109.00834"
             x="-324.72122"
             y="198.81168" />
          <g
             id="g2035"
             transform="rotate(-42.984786,-159.60207,430.34519)"
             style="fill:#4d4d4d;fill-opacity:1">
            <path
               id="rect1245"
               style="fill:#4d4d4d;fill-opacity:1;fill-rule:evenodd;stroke-width:2.64583"
               d="m -171.21246,251.74706 3.33434,0.004 1.72582,16.03637 c -3.20807,0.7276 -3.70417,0.7276 -6.87917,0 z m -0.36983,-50.66372 h 4.36563 l -0.66146,50.66772 -3.33434,-0.004 z" />
          </g>
          <g
             id="g13628"
             transform="rotate(41.752603,-335.47696,35.453162)"
             style="fill:#4d4d4d;fill-opacity:1">
            <path
               id="path13626"
               style="fill:#4d4d4d;fill-opacity:1;fill-rule:evenodd;stroke-width:2.64583"
               d="m -171.21246,251.74706 3.33434,0.004 1.72582,16.03637 c -3.20807,0.7276 -3.70417,0.7276 -6.87917,0 z m -0.36983,-50.66372 h 4.36563 l -0.66146,50.66772 -3.33434,-0.004 z" />
          </g>
          <g
             id="g13632"
             transform="rotate(10.637322,-620.57543,-576.45761)"
             style="fill:#4d4d4d;fill-opacity:1">
            <path
               id="path13630"
               style="fill:#4d4d4d;fill-opacity:1;fill-rule:evenodd;stroke-width:2.64583"
               d="m -171.21246,251.74706 3.33434,0.004 1.72582,16.03637 c -3.20807,0.7276 -3.70417,0.7276 -6.87917,0 z m -0.36983,-50.66372 h 4.36563 l -0.66146,50.66772 -3.33434,-0.004 z" />
          </g>
        </g>
        <g
           id="g76985"
           transform="matrix(0.67834531,0,0,0.67834531,-216.50913,51.332097)">
          <path
             style="fill:#ffe6d5;stroke:none;stroke-width:0.164981px;stroke-linecap:butt;stroke-linejoin:miter;stroke-opacity:1"
             d="m -54.943697,0.2691407 c 5.448641,17.0954793 0.555863,19.7376183 -7.919804,28.7003393 -5.699102,6.026596 54.8200462,-5.252429 56.8588274,2.538855 0.3051276,1.166081 2.998361,4.485239 2.998361,4.485239 -14.4241074,9.366319 -53.5211684,16.992886 -50.5079914,24.940245 -3.574471,18.122682 11.011628,27.435626 10.631962,43.287951 -5.307651,21.11749 -3.810858,25.3344 -22.753115,34.17479 -26.355508,3.86859 -54.745223,3.36203 -80.694853,-2.56649 -14.91306,-10.5798 -14.38942,-17.4053 -17.87568,-34.40126 0.076,-16.223734 16.73392,-26.542693 15.32458,-43.577862 3.5111,-7.914534 -68.89597,-20.261325 -57.93276,-30.087306 1.04333,-0.935099 2.54471,-3.838943 2.94266,-5.023237 2.16088,-6.430718 69.5112,10.103036 64.94931,4.551416 -4.86867,-5.924945 -11.00819,-15.196678 -2.53272,-29.2280614 l 10.64712,-22.1694786 c -9.85186,-8.190799 -10.52609,-15.634878 -7.4959,-21.842702 2.98713,-2.722329 10.82367,-1.938982 20.93229,5.905316 15.28705,-2.41298 28.111783,-1.849647 43.783712,0.906977 5.474182,-6.609253 17.445103,-10.099432 22.479177,-6.797964 3.80948,7.391545 -1.639678,18.64985 -12.007592,23.905377 z"
             id="path13867"
             sodipodi:nodetypes="csssccccccssscccccccc" />
          <path
             style="fill:#ff5555;fill-opacity:1;stroke:none;stroke-width:0.164981px;stroke-linecap:butt;stroke-linejoin:miter;stroke-opacity:1"
             d="m -146.3303,135.83007 c -0.39338,-8.19026 -2.96557,-16.86113 -4.66361,-24.54697 -0.6254,-1.90223 -1.15754,-6.28889 0.009,-6.2014 2.69791,0.14737 3.72101,3.7043 4.34059,3.25545 0.35714,-2.76154 0.40042,-2.9778 1.69482,-5.568 1.99964,-1.97699 4.2541,4.97205 4.28197,5.49724 0.1255,-1.10941 0.18263,-4.27292 1.0749,-5.28995 2.97522,-2.94977 2.78465,6.70781 4.09801,6.16429 1.07605,-2.52533 2.46879,-4.7997 3.72942,-4.10238 1.28759,0.74762 2.1629,3.43371 1.608,5.47566 -2.98144,9.09916 -6.37164,16.49595 -7.96963,24.6852 -2.23647,1.31289 -4.41751,1.53747 -8.20352,0.63086 z"
             id="path17064"
             sodipodi:nodetypes="ccccccccccccc" />
          <path
             style="fill:#ff5555;fill-opacity:1;stroke:none;stroke-width:0.181616px;stroke-linecap:butt;stroke-linejoin:miter;stroke-opacity:1"
             d="m -74.995098,138.52948 c -1.927166,-10.5293 -3.09233,-20.53137 -7.394482,-29.61695 -0.756802,-1.39775 1.102272,-3.84664 2.259081,-2.3471 1.167022,1.09299 1.942848,1.93969 2.167419,3.76493 0.290318,-2.32191 0.60016,-6.12489 2.752396,-5.4301 1.407693,0.65841 1.844246,3.03301 2.239346,4.75209 0.975043,-1.60178 0.808169,-5.28633 3.463348,-4.44771 2.563741,1.13607 0.664609,5.45171 1.740537,5.84702 1.312609,-2.05252 0.960889,-3.48429 3.028086,-4.37938 2.590778,-0.63934 2.262186,2.43758 1.71047,4.33648 -2.338496,8.74903 -3.182034,21.22187 -2.60656,27.3878 -2.827153,1.20474 -9.359641,0.13292 -9.359641,0.13292 z"
             id="path17066"
             sodipodi:nodetypes="cccccccccccc" />
          <g
             id="g68611"
             transform="matrix(0.54181513,0,0,0.54181513,-253.84334,132.27046)">
            <g
               id="g22000"
               transform="translate(18.708867,-8.6060789)">
              <path
                 id="rect21012"
                 style="fill-rule:evenodd;stroke:none;stroke-width:2.64583"
                 d="m 221.32396,-272.12398 c 0.66146,-1.85208 33.73437,0.66146 33.73437,0.66146 2.38125,3.04271 0,36.5125 0,36.5125 -5.95312,5.15938 -26.45833,-0.52916 -26.45833,-0.52916 z"
                 sodipodi:nodetypes="ccccc" />
              <path
                 id="path21706"
                 style="fill-rule:evenodd;stroke:none;stroke-width:2.64583"
                 d="m 318.38038,-272.11067 c -0.66146,-1.85208 -33.73438,0.66146 -33.73438,0.66146 -2.38125,3.04271 0,36.5125 0,36.5125 5.95313,5.15938 26.45833,-0.52917 26.45833,-0.52917 z"
                 sodipodi:nodetypes="ccccc" />
              <rect
                 style="fill:#000000;fill-opacity:1;fill-rule:evenodd;stroke:none;stroke-width:4.59197"
                 id="rect21730"
                 width="27.893599"
                 height="1.8520833"
                 x="255.85139"
                 y="-254.33818" />
              <ellipse
                 style="fill:#ffffff;fill-opacity:1;fill-rule:evenodd;stroke:none;stroke-width:2.64583"
                 id="path21892"
                 cx="306.82544"
                 cy="-261.92413"
                 rx="4.490128"
                 ry="5.238483" />
            </g>
            <path
               id="path22024"
               style="fill:#ff5555;fill-rule:evenodd;stroke-width:2.64583"
               d="m 296.34845,-219.64212 c 0,1.81495 -2.06538,4.30756 -2.89742,5.76168 -1.63113,2.85064 -3.03584,3.96693 -6.45701,3.96693 -3.16469,0 -5.16859,-1.89897 -6.86137,-4.40041 -1.07065,-1.58212 -2.49307,-3.24652 -2.49307,-5.3282 0,-1.42324 0.29387,-2.7751 0.82193,-3.99353 0.83202,-1.91974 -0.004,-1.78845 1.75796,-2.80304 1.34111,-0.77247 5.3975,-1.87371 7.03913,-1.87371 2.09931,0 5.7569,0.7192 7.31781,1.9336 2.28042,1.77418 1.77204,3.547 1.77204,6.73668 z"
               sodipodi:nodetypes="ssssssssss" />
            <path
               id="path22161"
               style="fill:none;stroke:#000000;stroke-width:0.264583px;stroke-linecap:butt;stroke-linejoin:miter;stroke-opacity:1"
               d="m 269.64155,-201.26064 c 8.38565,8.38564 14.45001,-0.8816 17.21216,-8.2319 2.1989,12.81052 18.62273,17.14179 19.45722,7.48355"
               sodipodi:nodetypes="ccc" />
          </g>
          <path
             style="fill:#2b1100;fill-opacity:1;stroke:#000000;stroke-width:0.164981px;stroke-linecap:butt;stroke-linejoin:miter;stroke-opacity:1"
             d="m -52.269126,-45.242657 c 4.011983,7.313726 -4.130078,19.376365 -11.199292,21.961058 -1.101587,0.423626 -7.31907,-11.351993 -8.866108,-15.573982 2.733041,-4.193829 15.368491,-9.407848 20.0654,-6.387076 z"
             id="path24170"
             sodipodi:nodetypes="cccc" />
          <path
             style="fill:#2b1100;fill-opacity:1;stroke:#000000;stroke-width:0.164981px;stroke-linecap:butt;stroke-linejoin:miter;stroke-opacity:1"
             d="m -138.01349,-43.463609 c 0,-0.393379 0.2763,-1.698455 0.72912,-1.924871 4.81406,-2.420818 18.10672,3.020877 18.34462,7.524504 0.0519,1.37048 -9.24985,12.869119 -11.4616,11.984571 -6.25513,-4.345682 -8.7753,-11.621777 -7.61214,-17.584204 z"
             id="path24172"
             sodipodi:nodetypes="ccccc" />
          <path
             style="fill:none;stroke:#000000;stroke-width:0.164981px;stroke-linecap:butt;stroke-linejoin:miter;stroke-opacity:1"
             d="m -117.3714,-40.043112 c -1.89244,6.845847 -8.67181,12.941414 -13.43639,15.93738"
             id="path65461"
             sodipodi:nodetypes="cc" />
          <path
             style="fill:none;stroke:#000000;stroke-width:0.164981px;stroke-linecap:butt;stroke-linejoin:miter;stroke-opacity:1"
             d="m -73.587692,-39.136134 c 0.933273,4.199721 8.313401,17.049086 10.471592,17.107413"
             id="path66793"
             sodipodi:nodetypes="cc" />
          <path
             style="fill:#552200;fill-opacity:1;fill-rule:evenodd;stroke:none;stroke-width:0.583294"
             d="m -131.24727,-24.632673 c -5.12468,-4.451625 -7.82463,-8.66708 -8.4371,-13.172967 -0.10815,-0.795587 -0.0937,-2.61859 0.0274,-3.444847 0.19036,-1.299685 0.61284,-2.748116 1.17627,-4.032739 0.24074,-0.548858 0.29148,-0.621317 0.58442,-0.834373 0.64443,-0.468694 1.42012,-0.789944 2.42017,-1.002291 0.75212,-0.159701 2.6783,-0.143566 3.70392,0.03102 3.42901,0.583686 7.07419,2.169051 11.08261,4.820027 1.02288,0.676487 2.89421,2.008855 3.10891,2.213513 0.0619,0.05898 0.0429,0.174732 -0.10341,0.63158 -1.43073,4.46644 -5.35907,9.433927 -10.6175,13.426097 -0.8672,0.658372 -2.40916,1.72583 -2.48756,1.722052 -0.0274,-0.0017 -0.23351,-0.161995 -0.45808,-0.357068 z m 1.86654,-1.271539 c 1.7388,-0.755975 5.38673,-4.415989 8.45922,-8.487218 0.85849,-1.137559 1.51724,-2.120448 1.84273,-2.74942 0.17903,-0.345981 0.22652,-0.502136 0.22652,-0.744839 0,-1.763413 -2.39751,-4.05059 -6.09542,-5.814926 -4.69149,-2.238393 -9.86986,-3.021507 -12.22003,-1.848015 -0.34617,0.17285 -0.39532,0.221173 -0.56515,0.555721 -0.35615,0.70158 -0.65534,2.70961 -0.65806,4.416616 -0.006,3.532253 1.16092,7.167834 3.25668,10.149333 1.16299,1.654476 2.83884,3.348316 4.41193,4.459263 0.33701,0.238018 0.36295,0.246119 0.69995,0.218732 0.1925,-0.01567 0.48123,-0.08549 0.64163,-0.155247 z"
             id="path66964" />
          <path
             style="fill:#552200;fill-opacity:1;fill-rule:evenodd;stroke:none;stroke-width:0.291648"
             d="m -63.270486,-22.159298 c -0.500651,-0.148417 -1.307836,-0.917128 -2.289603,-2.180468 -2.879524,-3.705401 -6.834111,-10.973626 -7.806689,-14.348059 -0.04738,-0.164453 -0.09043,-0.327338 -0.09566,-0.361984 -0.01221,-0.08124 0.278009,-0.424858 0.88004,-1.041936 3.072024,-3.14869 7.852505,-5.652849 12.613765,-6.607444 3.355114,-0.672676 6.254947,-0.4877 8.239038,0.525546 0.509923,0.260422 0.539108,0.285251 0.673253,0.573027 1.033489,2.217242 1.313923,4.681344 0.842276,7.401249 -0.459966,2.65256 -1.68932,5.465481 -3.498729,8.005508 -2.307387,3.239083 -5.47246,5.985022 -9.099412,7.894426 -0.332139,0.174846 -0.336577,0.176216 -0.458283,0.140135 z m 0.171579,-1.161927 c 1.825265,-0.733652 3.851574,-2.177432 5.638513,-4.017511 1.5543,-1.600544 2.946061,-3.480136 4.003488,-5.40683 0.288254,-0.5252 0.841534,-1.669374 1.03989,-2.150441 1.451236,-3.519682 1.696216,-6.782951 0.704105,-9.379104 -0.05717,-0.149572 -0.184927,-0.441967 -0.283916,-0.64976 -0.174714,-0.366719 -0.184778,-0.380693 -0.342813,-0.475788 -1.33768,-0.804957 -3.404674,-1.030866 -6.010346,-0.656871 -4.716073,0.676883 -10.655873,3.443758 -13.290219,6.190835 -0.323478,0.33732 -0.796362,0.932636 -0.796362,1.002555 0,0.01996 0.123009,0.341741 0.273356,0.715093 1.469912,3.650049 4.806334,10.019971 6.824856,13.030061 0.594772,0.886952 1.130019,1.553144 1.417251,1.764006 0.139161,0.10214 0.31574,0.18562 0.399302,0.188755 0.01876,0 0.209047,-0.06904 0.422895,-0.155 z"
             id="path67198" />
          <path
             style="fill:#ff8080;stroke:none;stroke-width:0.164981px;stroke-linecap:butt;stroke-linejoin:miter;stroke-opacity:1"
             d="m -204.2339,21.65634 v 0 c 1.35371,1.893582 -3.25344,7.840002 -5.65249,8.207996 -1.41242,0.298605 0.99468,-4.946728 0.70306,-5.238343 -0.95163,0.06927 -2.53758,4.607136 -4.12451,3.712069 -1.493,-0.373643 1.14743,-4.495821 0.83023,-4.595246 -0.64641,-0.202622 -3.1877,3.977957 -4.74852,3.275398 -1.26579,-0.454125 2.82785,-4.323434 0.0962,-5.487912 -4.38735,-2.041463 -4.53918,0.806205 -6.34127,-1.94036 3.57296,-0.620469 4.86544,-2.194856 9.46222,-0.820766 2.81615,0.938723 7.74485,1.567316 9.77511,2.887164 z"
             id="path67673"
             sodipodi:nodetypes="cccccsccccc" />
          <path
             id="path53137"
             style="fill:#e9c6af;fill-rule:evenodd;stroke-width:0.522865"
             d="m -268.56664,4.0902498 c -0.0594,0.6298158 1.65721,1.721083 2.43808,1.6510023 l 65.43424,24.8759819 c 0.6127,0.232858 1.12132,0.305283 1.35226,-0.308127 l 0.16354,-0.434408 c 0.23095,-0.61341 -0.16664,-0.869477 -0.78121,-1.097341 L -265.63848,4.4241167 c -0.52299,-0.5952711 -2.53923,-0.8463432 -2.92816,-0.3338669 z"
             sodipodi:nodetypes="ccsssscc" />
          <path
             style="fill:#ff8080;stroke:none;stroke-width:0.164981px;stroke-linecap:butt;stroke-linejoin:miter;stroke-opacity:1"
             d="m -1.9910106,37.749145 c 1.90615849,-0.771916 0.022884,-7.729446 0.3385061,-6.732366 1.13915566,1.56807 2.8133103,5.367891 3.7414819,3.965205 C 2.6592006,32.935789 1.9951204,31.550499 0.50246259,29.515185 2.3159618,31.86185 4.1553444,34.614969 4.6477487,33.480228 5.6141688,31.566799 4.8870731,31.016523 3.9862192,29.604396 5.995544,26.328905 9.7849022,29.16611 10.250362,27.737509 3.3421802,24.164635 -6.7202006,29.301501 -6.7202006,29.301501 c -0.7786819,2.120853 3.0041413,6.863755 4.72919,8.447644 z"
             id="path67675"
             sodipodi:nodetypes="ccccccccc" />
          <path
             id="rect49497"
             style="fill:#e9c6af;fill-rule:evenodd;stroke-width:0.512231"
             d="m 57.149998,8.4666669 c 0.07918,0.6146573 -1.565195,1.7403441 -2.332061,1.6977621 l -63.2365688,26.53746 c -0.5920662,0.248528 -1.0877004,0.33628 -1.3342518,-0.256603 L -9.9274898,36.025419 C -10.174054,35.43253 -9.793327,35.168556 -9.1992093,34.924967 L 54.294174,8.8911791 c 0.492205,-0.6002658 2.457938,-0.9133124 2.855824,-0.4245122 z"
             sodipodi:nodetypes="ccsssscc" />
        </g>
      </g>
      <g
         id="g138641"
         transform="matrix(0.78807863,0,0,0.78807863,145.50904,28.996601)">
        <path
           style="fill:none;stroke:none;stroke-width:0.264583px;stroke-linecap:butt;stroke-linejoin:miter;stroke-opacity:1"
           d="m 56.876232,68.032021 -2.377461,85.588669 c -0.548645,11.33867 87.600369,13.53325 87.783249,2.19458 l 4.0234,-87.783249"
           id="path8279"
           sodipodi:nodetypes="cccc" />
        <g
           id="g138147"
           transform="translate(-226.48333,-35.983334)">
          <g
             id="use117962"
             transform="matrix(0.25051978,0.27532672,-0.37512983,0.32051226,401.63429,81.021302)"
             style="fill:#4d4d4d;stroke:none">
            <path
               id="path138407"
               style="fill:#4d4d4d;fill-rule:evenodd;stroke:none;stroke-width:1.32292"
               d="m 416.02465,272.03937 h 11.70444 l -2.19839,52.88802 h -8.47151 z"
               sodipodi:nodetypes="ccccc" />
            <path
               id="path138409"
               style="fill:#4d4d4d;fill-rule:evenodd;stroke:none;stroke-width:1.32292"
               d="m 417.05919,324.92739 h 8.47151 c 0.56037,7.75984 1.12075,15.51969 1.68112,23.27954 0.12932,2.3277 -11.96306,2.71566 -11.70443,0 0.51727,-7.75985 1.03454,-15.5197 1.5518,-23.27954 z"
               sodipodi:nodetypes="ccccc" />
          </g>
          <g
             id="use117964"
             transform="matrix(0.18905251,-0.36326724,0.46854807,0.28185006,198.65881,359.73879)"
             style="fill:#4d4d4d;stroke:none">
            <path
               id="path138413"
               style="fill:#4d4d4d;fill-rule:evenodd;stroke:none;stroke-width:1.32292"
               d="m 416.02465,272.03937 h 11.70444 l -2.19839,52.88802 h -8.47151 z"
               sodipodi:nodetypes="ccccc" />
            <path
               id="path138415"
               style="fill:#4d4d4d;fill-rule:evenodd;stroke:none;stroke-width:1.32292"
               d="m 417.05919,324.92739 h 8.47151 c 0.56037,7.75984 1.12075,15.51969 1.68112,23.27954 0.12932,2.3277 -11.96306,2.71566 -11.70443,0 0.51727,-7.75985 1.03454,-15.5197 1.5518,-23.27954 z"
               sodipodi:nodetypes="ccccc" />
          </g>
          <g
             id="g131911"
             transform="translate(-20.205576,56.126601)">
            <ellipse
               style="fill:#000000;fill-opacity:1;fill-rule:evenodd;stroke:#cccccc;stroke-width:2.64583;stroke-miterlimit:4;stroke-dasharray:none;stroke-opacity:1"
               id="path8516"
               cx="422.96268"
               cy="126.63925"
               rx="49.576717"
               ry="10.549315" />
            <path
               id="rect127338"
               style="fill-rule:evenodd;stroke:none;stroke-width:2.64583"
               d="m 374.00687,130.23632 c 6.26281,3.63998 14.65363,5.48176 23.00436,6.62373 9.51994,1.30186 19.04724,1.63475 26.35456,1.64113 14.8535,0.013 36.23806,-2.14385 44.95883,-6.15953 1.91179,-0.88033 3.19341,-1.73608 4.04875,-2.56949 0.1183,0.22017 -0.0523,15.62209 -0.0523,15.62209 -31.79453,6.73633 -72.99881,5.7837 -99.08438,-0.18709 0,0 0.11694,-14.47475 0.77013,-14.97084 z"
               sodipodi:nodetypes="cssscccc" />
            <path
               id="use45752"
               style="fill:#cccccc;fill-opacity:1;fill-rule:evenodd;stroke:none;stroke-width:0.454469"
               d="m 454.36281,148.26803 0.13015,-10.77431 2.0158,-0.24699 -0.0439,10.75111 z"
               sodipodi:nodetypes="ccccc" />
            <use
               id="use10027"
               inkscape:spray-origin="#g9805"
               xlink:href="#g9805"
               x="0"
               y="0"
               width="100%"
               height="100%"
               transform="rotate(-28.963591,352.59889,-245.04243)" />
            <path
               id="use15196"
               style="fill:#cccccc;fill-opacity:1;fill-rule:evenodd;stroke:none;stroke-width:0.663622"
               d="m 424.89445,149.99866 0.15364,-8.86352 2.33861,-0.0935 0.0462,8.95238 z"
               sodipodi:nodetypes="ccccc" />
            <path
               id="rect127340"
               style="fill:#cccccc;fill-rule:evenodd;stroke-width:2.64583"
               d="m 372.07284,144.91111 c 15.89708,3.28947 22.6262,3.70102 32.45787,4.36508 12.28385,0.8297 22.89179,0.8425 32.36022,0.44275 15.26069,-0.6443 26.43016,-2.7018 36.52613,-4.5091 l 5e-5,4.72213 c -38.62917,6.21771 -57.4775,5.93195 -101.53062,-0.0212 z"
               sodipodi:nodetypes="csscccc" />
            <use
               id="use9981"
               inkscape:spray-origin="#g9805"
               xlink:href="#g9805"
               x="0"
               y="0"
               width="100%"
               height="100%"
               transform="rotate(-26.156837,351.90763,-222.06408)" />
          </g>
          <path
             id="rect131935"
             style="fill:#4d4d4d;fill-rule:evenodd;stroke-width:2.15775"
             d="m 404.75638,210.61104 3.38827,-0.0182 0.65481,90.85341 -5.61266,-0.17876 z"
             sodipodi:nodetypes="ccccc" />
        </g>
        <g
           id="g127081">
          <g
             id="g97996"
             transform="translate(-137.91534,27.047136)">
            <g
               id="g50157"
               transform="matrix(0.86589102,0,0,0.74963432,63.108208,33.413226)">
              <g
                 id="slice-0-text17975"
                 class="text17975-slice UnoptimicedTransforms"
                 style="font-style:italic;font-size:10.5833px;line-height:1.25;font-family:Elephant;-inkscape-font-specification:'Elephant, Italic';display:inline;stroke-width:0.264583">
                <path
                   d=""
                   id="path50137" />
                <path
                   d=""
                   id="path50139" />
                <path
                   d="m 62.47973,224.00183 c 4.93e-4,-0.0135 7.39e-4,-0.0272 7.39e-4,-0.0409 0,-0.0144 -2.46e-4,-0.0287 -7.39e-4,-0.0428 z"
                   id="path50141" />
              </g>
              <g
                 id="g50135">
                <use
                   id="use9631"
                   inkscape:spray-origin="#g7653"
                   xlink:href="#g7653"
                   x="0"
                   y="0"
                   width="100%"
                   height="100%"
                   transform="rotate(18.013243,259.9954,-531.48615)" />
                <path
                   id="path48882"
                   style="fill:#4d4d4d;fill-rule:evenodd;stroke:none;stroke-width:0.689601"
                   d="m 19.538308,254.23899 3.742309,-0.0627 c 0.07563,4.36549 0.503192,8.93566 0.578819,13.30115 0.0039,1.30886 -5.850006,1.32396 -5.656699,-0.19618 0.445192,-4.34742 0.890384,-8.69485 1.335571,-13.04227 z m 7.323451,-51.30995 8.035985,0.3168 -2.268393,29.95454 -9.126563,10.3254 -0.222171,10.65051 -3.742309,0.0627 -0.161249,-10.97138 7.088643,-10.34797 z" />
                <g
                   id="g47134"
                   transform="translate(-2.194581,1.4630542)">
                  <ellipse
                     style="fill:#000000;fill-opacity:1;fill-rule:evenodd;stroke:#cccccc;stroke-width:2.64583;stroke-miterlimit:4;stroke-dasharray:none;stroke-opacity:1"
                     id="path8164"
                     cx="74.615761"
                     cy="97.658875"
                     rx="44.429688"
                     ry="13.339787" />
                  <path
                     id="rect10135"
                     style="fill:#cccccc;fill-opacity:1;fill-rule:evenodd;stroke:none;stroke-width:0.794692"
                     d="m 25.711456,182.45548 c 23.185276,12.12876 69.991291,12.55701 91.325604,2.53206 l -4.29049,18.4248 -84.951808,-0.14065 z"
                     sodipodi:nodetypes="ccccc" />
                  <path
                     style="fill:#000000;fill-opacity:1;fill-rule:evenodd;stroke:none;stroke-width:3.65763;stroke-miterlimit:4;stroke-dasharray:none;stroke-opacity:1"
                     d="m 66.75185,192.02757 c -3.520475,-0.16134 -8.375987,-0.48342 -10.790027,-0.71573 -10.349862,-0.99603 -26.846083,-5.49906 -27.922331,-7.62206 -0.233643,-0.46089 1.830429,-82.21626 2.096621,-83.04445 0.02167,-0.0674 0.768049,0.51888 1.658647,1.30281 4.332814,3.8139 14.540458,7.00036 27.458935,8.57171 6.129171,0.74553 26.098787,0.63723 32.126321,-0.17422 12.584644,-1.69419 21.869524,-4.69364 26.142284,-8.44517 l 1.2899,-1.13256 -0.2268,4.20626 c -0.12474,2.31345 -0.997,21.324 -1.93836,42.24567 -1.31032,29.12188 -1.82879,38.22932 -2.21161,38.84948 -0.90948,1.47336 -11.27654,4.21572 -20.29308,5.36807 -5.277498,0.67449 -19.067457,0.97162 -27.3905,0.59019 z"
                     id="path34829" />
                  <path
                     id="use45756"
                     style="fill:#cccccc;fill-opacity:1;fill-rule:evenodd;stroke:none;stroke-width:1.54823"
                     d="m 80.651607,192.17068 3.25808,-81.32298 4.57407,-0.23544 -3.44136,81.41052 z"
                     sodipodi:nodetypes="ccccc" />
                </g>
              </g>
              <use
                 id="use10011"
                 inkscape:spray-origin="#g9805"
                 xlink:href="#g9805"
                 x="0"
                 y="0"
                 width="100%"
                 height="100%"
                 transform="rotate(-22.365805,139.60995,572.60064)" />
              <use
                 id="use9957"
                 inkscape:spray-origin="#g9805"
                 xlink:href="#g9805"
                 x="0"
                 y="0"
                 width="100%"
                 height="100%"
                 transform="rotate(157.96554,154.6573,149.1859)" />
              <path
                 id="use45760"
                 style="fill:#cccccc;fill-opacity:1;fill-rule:evenodd;stroke:none;stroke-width:1.38131"
                 d="m 108.96584,186.66098 3.7975,-78.82259 c 1.68112,-0.67891 2.42333,-1.12032 3.68417,-2.44582 0.0162,0.12123 -3.2611,76.39492 -3.90768,80.14511 0,0 -1.85947,1.16902 -3.57399,1.1233 z"
                 sodipodi:nodetypes="ccccc" />
              <path
                 id="use45778"
                 style="fill:#cccccc;fill-opacity:1;fill-rule:evenodd;stroke:none;stroke-width:0.663622"
                 d="m 62.789963,188.74086 1.642781,-26.19159 2.371234,0.1426 -1.449381,26.1938 z"
                 sodipodi:nodetypes="ccccc" />
              <path
                 id="path48266"
                 style="fill:#cccccc;fill-opacity:1;fill-rule:evenodd;stroke:none;stroke-width:1.38131"
                 d="m 29.571605,183.33166 1.285038,-76.44824 c -1.632633,-0.78841 -1.874484,-0.86481 -3.045069,-2.27065 -0.02417,0.1199 -2.573145,73.19993 -1.910966,76.85234 0,0 1.957199,1.79898 3.670997,1.86655 z"
                 sodipodi:nodetypes="ccccc" />
            </g>
            <g
               id="g97911"
               transform="matrix(1.0236308,0,0,1.1639005,283.12592,-25.822339)">
              <g
                 id="g86395"
                 transform="translate(-41.907862,-38.166089)">
                <g
                   id="g83274"
                   transform="translate(5.2384828,-28.437478)">
                  <ellipse
                     style="fill:#ffd42a;fill-opacity:1;fill-rule:evenodd;stroke:none;stroke-width:1.32292;stroke-opacity:1"
                     id="path8828"
                     ry="14.996306"
                     rx="61.814041"
                     cy="100.86691"
                     cx="-111.83708"
                     transform="rotate(16.736754)" />
                  <g
                     id="g75203">
                    <rect
                       style="fill:#4d4d4d;fill-opacity:1;fill-rule:evenodd;stroke:none;stroke-width:0.701029;stroke-opacity:1"
                       id="rect9079"
                       width="5.4270124"
                       height="3.1011498"
                       x="-113.64432"
                       y="103.16806"
                       transform="rotate(18.429846)" />
                    <path
                       id="rect9081"
                       style="fill:#d5ac06;fill-opacity:1;fill-rule:evenodd;stroke:none;stroke-width:0.701029"
                       d="m -132.78674,46.74777 0.6206,0.206804 -4.97086,16.143186 -1.47105,-0.490204 z"
                       sodipodi:nodetypes="ccccc" />
                  </g>
                  <g
                     id="use9625"
                     transform="matrix(0.49261213,0.33304706,-0.43971729,0.65038877,-208.79381,-44.586238)"
                     style="fill:#4d4d4d;stroke:none">
                    <path
                       id="path80835"
                       style="fill:#4d4d4d;fill-rule:evenodd;stroke:none;stroke-width:1.32292"
                       d="m 416.01318,271.97333 8.44687,-4.32542 0.3492,57.17019 -5.04621,0.0766 z"
                       sodipodi:nodetypes="ccccc" />
                    <path
                       id="path80837"
                       style="fill:#4d4d4d;fill-rule:evenodd;stroke:none;stroke-width:1.32292"
                       d="m 419.77451,324.96074 5.04621,-0.0766 c 0.56037,7.75984 0.9564,8.94237 1.51677,16.70222 0.12932,2.3277 -10.10568,3.44262 -9.84705,0.72696 0.51727,-7.75985 2.76681,-9.59274 3.28407,-17.35258 z"
                       sodipodi:nodetypes="ccccc" />
                  </g>
                  <path
                     id="path79421"
                     style="fill:#4d4d4d;fill-rule:evenodd;stroke:none;stroke-width:1.04446"
                     d="m -123.35604,267.06126 -0.1194,3.83964 -38.80516,28.22435 -1.91532,-2.87855 z"
                     sodipodi:nodetypes="ccccc" />
                  <path
                     id="path79423"
                     style="fill:#4d4d4d;fill-rule:evenodd;stroke:none;stroke-width:1.04446"
                     d="m -164.19592,296.2467 1.91532,2.87855 c -5.32502,4.62039 -3.43348,3.12575 -8.75851,7.74614 -1.61367,1.36492 -5.26633,-3.23018 -3.21119,-4.60031 5.77904,-4.03545 4.27536,-1.98893 10.05438,-6.02438 z"
                     sodipodi:nodetypes="ccccc" />
                  <g
                     id="use9641"
                     transform="matrix(0.3207373,-0.52125027,0.68819929,0.42346489,-437.15386,375.74303)"
                     style="fill:#4d4d4d;stroke:none">
                    <path
                       id="path80860"
                       style="fill:#4d4d4d;fill-rule:evenodd;stroke:none;stroke-width:1.32292"
                       d="m 419.68103,268.99819 5.02264,-2.40597 -1.96164,58.54743 -5.68284,-0.21226 z"
                       sodipodi:nodetypes="ccccc" />
                    <path
                       id="path80862"
                       style="fill:#4d4d4d;fill-rule:evenodd;stroke:none;stroke-width:1.32292"
                       d="m 417.05919,324.92739 5.68265,0.2096 c 0.56037,7.75984 2.65849,6.48029 3.21886,14.24014 0.12932,2.3277 -10.6288,2.53558 -10.37017,-0.18008 0.51727,-7.75985 0.9514,-6.50982 1.46866,-14.26966 z"
                       sodipodi:nodetypes="ccccc" />
                  </g>
                  <path
                     id="rect75227"
                     style="fill:#4d4d4d;fill-rule:evenodd;stroke-width:2.66327"
                     d="m -122.10421,98.876374 2.22742,-4e-5 2.46435,172.024566 h -6.0661 z"
                     sodipodi:nodetypes="ccccc" />
                  <path
                     id="path79721"
                     style="fill:#4d4d4d;fill-rule:evenodd;stroke-width:10"
                     inkscape:transform-center-x="0.16699427"
                     inkscape:transform-center-y="3.6574583"
                     transform="matrix(0.08830343,0.08853229,-0.08853229,0.08830343,96.972384,313.47163)"
                     d="m -2336,148 -200.7941,-61.697155 141.803,-141.835895 z"
                     sodipodi:nodetypes="cccc" />
                  <path
                     id="use45768"
                     style="fill:#ffd42a;fill-opacity:1;fill-rule:evenodd;stroke:none;stroke-width:1.6345"
                     d="m -111.46879,141.01883 -33.15618,-63.562763 5.18309,1.586498 31.39748,59.408725 z"
                     sodipodi:nodetypes="ccccc" />
                  <path
                     id="rect69402"
                     style="fill:#4d4d4d;fill-opacity:1;fill-rule:evenodd;stroke-width:2.64583"
                     d="m -111.46879,141.01883 3.42439,-2.56754 5.70374,6.73473 c 0.79375,0.66146 -5.68855,4.82864 -5.95313,3.83646 z"
                     sodipodi:nodetypes="ccccc" />
                  <ellipse
                     style="fill:#4d4d4d;fill-opacity:1;fill-rule:evenodd;stroke:none;stroke-width:1.10243;stroke-miterlimit:4;stroke-dasharray:none;stroke-opacity:1"
                     id="path79745"
                     cx="-108.35272"
                     cy="97.837387"
                     rx="1.3229169"
                     ry="7.7170153" />
                  <ellipse
                     style="fill:#4d4d4d;fill-opacity:1;fill-rule:evenodd;stroke:none;stroke-width:1.10243;stroke-miterlimit:4;stroke-dasharray:none;stroke-opacity:1"
                     id="ellipse85521"
                     cx="-162.53392"
                     cy="128.5934"
                     rx="1.3229169"
                     ry="7.7170153"
                     transform="rotate(-24.868222)" />
                  <path
                     id="path86079"
                     style="fill:#4d4d4d;fill-rule:evenodd;stroke-width:0.204204"
                     inkscape:transform-center-x="-0.54652586"
                     inkscape:transform-center-y="0.09698427"
                     d="m -95.264545,183.99128 -4.156562,2.41517 0.261737,-4.30038 z"
                     sodipodi:nodetypes="cccc" />
                </g>
                <path
                   id="rect83298"
                   style="fill:#4d4d4d;fill-rule:evenodd;stroke-width:2.64583"
                   d="m -117.39816,152.00954 19.363698,1.30962 1.357069,-29.00597 18.801728,2.29906 -1.35639,4.72399 -13.084317,0.0528 -1.888438,26.93963 -23.28689,-1.36119 z"
                   sodipodi:nodetypes="ccccccccc" />
                <path
                   id="rect85173"
                   style="fill:#4d4d4d;fill-rule:evenodd;stroke-width:2.64583"
                   d="m -98.788481,158.00126 4.589518,0.21633 -0.353111,4.43812 -4.676243,-0.0165 z"
                   sodipodi:nodetypes="ccccc" />
              </g>
              <g
                 id="g97643"
                 transform="rotate(-4.3229512,933.34241,3518.3433)">
                <ellipse
                   style="fill:#000000;fill-opacity:1;fill-rule:evenodd;stroke:#cccccc;stroke-width:2.70697;stroke-miterlimit:4;stroke-dasharray:none;stroke-opacity:1"
                   id="path8620"
                   cx="173.21545"
                   cy="8.3800926"
                   rx="35.550552"
                   ry="11.974923"
                   transform="rotate(12.348716)" />
                <path
                   id="rect90696"
                   style="fill:#cccccc;fill-rule:evenodd;stroke:none;stroke-width:2.64583"
                   d="m 150.25489,-3.0858318 c 30.1625,2.38124996 44.05531,4.6784961 65.48656,16.3201628 l -0.49513,3.418498 C 193.91821,5.0533316 166.47876,0.27041512 148.21022,0.16827561 Z"
                   sodipodi:nodetypes="ccccc" />
                <path
                   id="rect90698"
                   style="fill:#000000;fill-rule:evenodd;stroke:none;stroke-width:2.64583"
                   d="M 149.29676,-6.3021792e-6 C 182.22437,1.496703 193.44968,5.2384772 213.65526,15.715443 c 0,0 -4.86431,16.089626 -11.5995,32.36634 C 189.64989,32.247339 148.95724,26.594791 136.76182,32.366335 144.05827,12.722024 149.29676,-6.3021792e-6 149.29676,-6.3021792e-6 Z"
                   sodipodi:nodetypes="ccccc" />
                <path
                   id="use45758"
                   style="fill:#cccccc;fill-opacity:1;fill-rule:evenodd;stroke:none;stroke-width:0.663622"
                   d="m 136.75238,32.394141 c 1.38906,-4.29948 11.98116,-32.41566726 11.98116,-32.41566726 l 1.32585,0.03551271 -11.26966,31.60468155 z"
                   sodipodi:nodetypes="ccccc" />
                <use
                   id="use10029"
                   inkscape:spray-origin="#g9805"
                   xlink:href="#g9805"
                   x="0"
                   y="0"
                   width="100%"
                   height="100%"
                   transform="rotate(-96.988147,140.07296,123.50379)" />
                <path
                   id="use15194"
                   style="fill:#cccccc;fill-opacity:1;fill-rule:evenodd;stroke:none;stroke-width:0.663622"
                   d="m 202.09486,47.907523 c 1.38906,-4.29948 11.62895,-32.341052 11.62895,-32.341052 l 1.30104,0.911945 -11.9684,32.828539 z"
                   sodipodi:nodetypes="ccccc" />
                <use
                   id="use9985"
                   inkscape:spray-origin="#g9805"
                   xlink:href="#g9805"
                   x="0"
                   y="0"
                   width="100%"
                   height="100%"
                   transform="rotate(84.644825,294.67357,61.993588)" />
                <path
                   id="use45754"
                   style="fill:#cccccc;fill-opacity:1;fill-rule:evenodd;stroke:none;stroke-width:0.577016"
                   d="m 168.34987,31.948318 c 1.23728,-3.728712 10.85821,-29.0155401 10.85821,-29.0155401 l 1.42261,0.20653 -10.7102,29.1267141 z"
                   sodipodi:nodetypes="ccccc" />
                <use
                   id="use9987"
                   inkscape:spray-origin="#g9805"
                   xlink:href="#g9805"
                   x="0"
                   y="0"
                   width="100%"
                   height="100%"
                   transform="rotate(-7.5669018,-780.00741,671.29442)" />
              </g>
            </g>
            <g
               id="g47166"
               transform="translate(-9.5098523,-8.0467981)">
              <ellipse
                 style="fill:#000000;fill-opacity:1;fill-rule:evenodd;stroke:#000000;stroke-width:1.32292;stroke-opacity:1"
                 id="path909"
                 cx="221.28696"
                 cy="207.75369"
                 rx="76.444588"
                 ry="68.763542" />
              <path
                 style="fill:none;stroke:#cccccc;stroke-width:2.64583;stroke-linecap:butt;stroke-linejoin:miter;stroke-miterlimit:4;stroke-dasharray:none;stroke-opacity:1"
                 d="m 182.88178,148.07149 c 111.06247,-76.313862 186.86681,53.2018 82.4483,116.35718"
                 id="path1920"
                 sodipodi:nodetypes="cc" />
              <g
                 id="g9805"
                 transform="rotate(22.098128,773.68642,79.947547)">
                <path
                   id="path4392"
                   style="fill:#cccccc;fill-rule:evenodd;stroke:none;stroke-width:0.979026"
                   inkscape:transform-center-x="-0.31047766"
                   inkscape:transform-center-y="-0.39654249"
                   d="m 321.88807,337.72538 -10.29891,-0.59306 0.21087,-2.89541 2.45532,-2.53206 c 0.47083,-0.44777 5.6198,-0.28811 6.00708,0.22015 l 1.90583,2.95442 z"
                   sodipodi:nodetypes="ccccccc" />
                <ellipse
                   style="fill:#ffffff;fill-opacity:1;fill-rule:evenodd;stroke:none;stroke-width:0.992919;stroke-opacity:1"
                   id="path5788"
                   transform="matrix(0.99943,0.03375905,-0.03029796,0.99954091,0,0)"
                   ry="1.1572845"
                   rx="1.1639148"
                   cy="323.79288"
                   cx="326.97546" />
              </g>
              <g
                 id="g7653"
                 transform="matrix(0.67193684,-0.14359585,0.18958755,0.88714863,-34.835632,46.636403)"
                 style="fill:#4d4d4d;stroke:none">
                <path
                   id="rect5910"
                   style="fill:#4d4d4d;fill-rule:evenodd;stroke:none;stroke-width:1.32292"
                   d="m 416.02465,272.03937 h 11.70444 l -2.19839,52.88802 h -8.47151 z"
                   sodipodi:nodetypes="ccccc" />
                <path
                   id="rect6014"
                   style="fill:#4d4d4d;fill-rule:evenodd;stroke:none;stroke-width:1.32292"
                   d="m 417.05919,324.92739 h 8.47151 c 0.56037,7.75984 1.12075,15.51969 1.68112,23.27954 0.12932,2.3277 -11.96306,2.71566 -11.70443,0 0.51727,-7.75985 1.03454,-15.5197 1.5518,-23.27954 z"
                   sodipodi:nodetypes="ccccc" />
              </g>
              <path
                 id="rect7677"
                 style="fill:#cccccc;fill-opacity:1;fill-rule:evenodd;stroke:none;stroke-width:0.663622"
                 d="m 254.73382,141.68947 18.65699,-16.57044 2.64333,1.04768 -19.59454,17.44334 z"
                 sodipodi:nodetypes="ccccc" />
              <g
                 id="use9629"
                 transform="matrix(0.57339437,0.23255693,-0.30704161,0.75704441,-10.968216,-72.55171)"
                 style="fill:#4d4d4d;stroke:none">
                <path
                   id="path15420"
                   style="fill:#4d4d4d;fill-rule:evenodd;stroke:none;stroke-width:1.32292"
                   d="m 417.05919,324.92739 h 8.47151 c 0.56037,7.75984 1.12075,15.51969 1.68112,23.27954 0.12932,2.3277 -11.96306,2.71566 -11.70443,0 0.51727,-7.75985 1.03454,-15.5197 1.5518,-23.27954 z m 2.56729,-57.21796 c 3.09722,2.83417 7.19406,5.7893 8.0815,6.41244 l -2.17728,50.80552 h -8.47151 z"
                   sodipodi:nodetypes="cccccccccc" />
              </g>
              <use
                 id="use9959"
                 inkscape:spray-origin="#g9805"
                 xlink:href="#g9805"
                 x="0"
                 y="0"
                 width="100%"
                 height="100%"
                 transform="rotate(-47.373666,222.40656,220.31807)" />
              <use
                 id="use9969"
                 inkscape:spray-origin="#g9805"
                 xlink:href="#g9805"
                 x="0"
                 y="0"
                 width="100%"
                 height="100%"
                 transform="rotate(116.34405,227.43812,207.91085)" />
              <use
                 id="use9989"
                 inkscape:spray-origin="#g9805"
                 xlink:href="#g9805"
                 x="0"
                 y="0"
                 width="100%"
                 height="100%"
                 transform="rotate(28.461037,218.78729,221.37755)" />
              <use
                 id="use10003"
                 inkscape:spray-origin="#g9805"
                 xlink:href="#g9805"
                 x="0"
                 y="0"
                 width="100%"
                 height="100%"
                 transform="rotate(-178.06863,220.71025,207.5214)" />
              <use
                 id="use10005"
                 inkscape:spray-origin="#g9805"
                 xlink:href="#g9805"
                 x="0"
                 y="0"
                 width="100%"
                 height="100%"
                 transform="rotate(-147.79335,219.05434,208.36403)" />
              <use
                 id="use10007"
                 inkscape:spray-origin="#g9805"
                 xlink:href="#g9805"
                 x="0"
                 y="0"
                 width="100%"
                 height="100%"
                 transform="rotate(-83.958981,220.65354,215.83419)" />
              <use
                 id="use10009"
                 inkscape:spray-origin="#g9805"
                 xlink:href="#g9805"
                 x="0"
                 y="0"
                 width="100%"
                 height="100%"
                 transform="rotate(-117.48727,218.6242,209.92035)" />
              <use
                 id="use10013"
                 inkscape:spray-origin="#g9805"
                 xlink:href="#g9805"
                 x="0"
                 y="0"
                 width="100%"
                 height="100%"
                 transform="rotate(149.47295,224.19984,207.52168)" />
              <use
                 id="use10031"
                 inkscape:spray-origin="#g9805"
                 xlink:href="#g9805"
                 x="0"
                 y="0"
                 width="100%"
                 height="100%"
                 transform="rotate(69.18697,226.22967,211.06122)" />
              <path
                 id="use15188"
                 style="fill:#cccccc;fill-opacity:1;fill-rule:evenodd;stroke:none;stroke-width:0.454905"
                 d="m 301.06383,212.93658 12.08417,1.22501 -0.85699,2.35265 -11.26875,-1.01047 z"
                 sodipodi:nodetypes="ccccc" />
              <path
                 id="use15192"
                 style="fill:#cccccc;fill-opacity:1;fill-rule:evenodd;stroke:none;stroke-width:0.64704"
                 d="m 288.84969,168.82614 21.17168,-12.46391 1.17265,2.22975 -21.03069,12.36654 z"
                 sodipodi:nodetypes="ccccc" />
              <path
                 style="fill:#000000;fill-opacity:1;fill-rule:evenodd;stroke:#cccccc;stroke-width:6.91207;stroke-miterlimit:4;stroke-dasharray:none;stroke-opacity:1"
                 d="m 1152.8372,806.09796 -10.4636,-1.06484 -0.3271,-3.4036 c -0.299,-3.11246 -0.7327,-3.81244 -5.0699,-8.18314 -3.1374,-3.16159 -5.283,-4.77953 -6.3384,-4.77953 -0.8775,0 -1.7304,-0.38881 -1.8953,-0.86401 -0.165,-0.4752 -0.6168,-6.71043 -1.0041,-13.85605 -1.264,-23.31923 -4.7792,-42.25328 -11.768,-63.3863 -5.419,-16.38628 -12.5234,-32.62313 -19.3122,-44.13697 l -2.1349,-3.62076 1.6647,-1.52298 c 0.9752,-0.89212 2.4072,-3.81449 3.4571,-7.05499 1.9235,-5.93683 2.1782,-7.9754 1.1277,-9.02595 -0.4255,-0.42548 10.2906,-7.09856 29.7744,-18.54097 17.3477,-10.18795 30.6982,-17.61642 31.0417,-17.2721 1.2959,1.29916 7.9389,17.75033 11.4084,28.25241 6.0979,18.45815 9.6777,35.65416 11.419,54.85223 1.3282,14.64288 0.512,43.25593 -1.6393,57.46886 -2.7283,18.02568 -6.7339,34.39908 -12.3441,50.45809 -2.7176,7.77905 -1.3414,7.33478 -17.5961,5.6806 z"
                 id="path17078"
                 transform="scale(0.26458334)" />
              <path
                 style="fill:#000000;fill-opacity:1;fill-rule:evenodd;stroke:#cccccc;stroke-width:6.91207;stroke-miterlimit:4;stroke-dasharray:none;stroke-opacity:1"
                 d="m 1073.7122,938.02259 c 24.5138,-30.77047 41.2268,-66.07227 49.5211,-104.60011 l 1.1532,-5.35685 h 2.3376 c 1.5186,0 3.9767,-0.99579 7.0155,-2.84202 6.33,-3.84581 7.0511,-4.57587 7.5401,-7.63404 0.3578,-2.23741 0.6458,-2.59263 1.8903,-2.33152 0.8076,0.16941 5.8656,0.67182 11.2401,1.11646 l 9.7717,0.80844 -1.4019,3.19492 c -3.8749,8.83077 -9.0764,19.30415 -13.6015,27.38715 -2.7668,4.94213 -5.0976,9.05946 -5.1796,9.14962 -0.082,0.0902 -5.5705,1.31253 -12.1966,2.71638 -6.626,1.40385 -12.1299,2.60503 -12.2309,2.66927 -0.101,0.0643 0.9408,4.9961 2.3151,10.95967 1.3743,5.96357 2.3158,11.53157 2.0923,12.37335 -0.5414,2.03861 -13.7281,18.0745 -23.7103,28.83316 -8.1285,8.76083 -30.5353,30.39252 -31.4953,30.40584 -0.288,0.004 1.9346,-3.07838 4.9391,-6.84972 z"
                 id="path17117"
                 transform="scale(0.26458334)" />
              <path
                 style="fill:#000000;fill-opacity:1;fill-rule:evenodd;stroke:#cccccc;stroke-width:6.91207;stroke-miterlimit:4;stroke-dasharray:none;stroke-opacity:1"
                 d="m 1091.4076,632.68291 -2.7726,-3.16009 -7.0634,-0.63963 c -5.0368,-0.45611 -7.4809,-0.41616 -8.5187,0.13925 -0.8004,0.42838 -1.5187,0.67591 -1.5962,0.55007 -0.078,-0.12584 -2.8632,-3.39443 -6.1903,-7.26352 -8.3134,-9.66776 -23.6285,-24.34715 -34.5524,-33.11828 -13.6021,-10.92154 -37.39535,-26.36748 -48.93585,-31.76781 -2.35101,-1.10015 -2.45637,-1.28604 -1.7658,-3.11556 1.01246,-2.68233 -1.2358,-14.82494 -2.97063,-16.04403 -1.07025,-0.75208 1.76495,-3.50013 24.58848,-23.83272 14.1891,-12.64044 26.251,-22.98262 26.8043,-22.98262 0.5534,0 5.2882,1.71827 10.5219,3.81838 46.956,18.84199 86.9482,52.74943 112.6116,95.47812 2.4614,4.09806 4.4752,7.81225 4.4752,8.25376 0,0.64999 -60.7073,36.99312 -61.6014,36.87835 -0.1439,-0.0185 -1.5093,-1.45563 -3.0342,-3.19367 z"
                 id="path17156"
                 transform="scale(0.26458334)" />
              <path
                 style="fill:#000000;fill-opacity:1;fill-rule:evenodd;stroke:#cccccc;stroke-width:6.91207;stroke-miterlimit:4;stroke-dasharray:none;stroke-opacity:1"
                 d="m 933.91587,537.62104 c -32.307,-10.60724 -68.7378,-15.75099 -105.15903,-14.84763 -29.67981,0.73614 -54.67075,4.51032 -81.56239,12.3177 -5.3223,1.5452 -10.29898,2.95751 -11.05931,3.13846 -5.31232,1.26424 36.20892,-20.26678 53.56852,-27.7782 43.005,-18.60806 83.46166,-29.26157 124.664,-32.82795 12.35325,-1.06927 40.59292,-0.88332 52.81626,0.34778 15.55237,1.56639 33.55328,4.85408 45.24238,8.26309 l 3.9557,1.15363 -25.28422,22.50176 -25.2842,22.50175 -3.46151,-1.11794 c -1.90384,-0.61487 -3.8146,-1.12262 -4.24615,-1.12834 -0.43155,-0.006 -3.63851,1.27338 -7.12658,2.84243 -5.06546,2.27861 -6.5096,3.25756 -7.17487,4.86367 -0.45811,1.10596 -1.02571,2.11229 -1.26133,2.23627 -0.23562,0.12399 -4.11789,-0.98593 -8.62727,-2.46648 z"
                 id="path17195"
                 transform="scale(0.26458334)" />
              <g
                 aria-label="chi"
                 id="text17975"
                 style="font-style:italic;font-size:10.5833px;line-height:1.25;font-family:Elephant;-inkscape-font-specification:'Elephant, Italic';fill:#f60711;fill-opacity:1;stroke-width:0.264583"
                 transform="matrix(5.0918149,0,0,5.0918149,-55.489093,-947.78018)">
                <path
                   d="m 50.023438,225.67383 c -1.037164,0 -1.929848,0.35033 -2.677735,1.04883 -0.740831,0.69144 -1.111328,1.45726 -1.111328,2.29687 0,0.61383 0.228891,1.0817 0.6875,1.40625 0.465665,0.3175 0.963023,0.47656 1.492187,0.47656 0.451555,0 0.874422,-0.10474 1.269532,-0.3164 0.402165,-0.21167 0.804866,-0.59691 1.207031,-1.1543 l -0.148437,-0.10547 c -0.127,0.18345 -0.249197,0.34251 -0.369141,0.47656 -0.112889,0.13406 -0.257205,0.26363 -0.433594,0.39063 -0.169333,0.12703 -0.325686,0.22169 -0.466797,0.28516 -0.14111,0.0565 -0.300174,0.0859 -0.476562,0.0859 -0.225778,0 -0.402298,-0.0772 -0.529297,-0.23242 -0.119944,-0.16227 -0.179688,-0.4482 -0.179688,-0.85742 0,-0.35983 0.06441,-0.7699 0.191407,-1.22852 0.126999,-0.46566 0.291483,-0.88582 0.496093,-1.25976 0.204611,-0.37394 0.403251,-0.6552 0.59375,-0.84571 0.1905,-0.19049 0.362357,-0.2871 0.517579,-0.2871 0.07761,0 0.134641,0.0121 0.169921,0.0332 0.04233,0.0212 0.06445,0.0514 0.06445,0.0937 0,0.0776 -0.08457,0.22388 -0.253906,0.43555 -0.162277,0.21166 -0.24414,0.40835 -0.24414,0.59179 0,0.21872 0.08457,0.40262 0.253906,0.55078 0.169333,0.14817 0.380766,0.22266 0.634766,0.22266 0.282221,0 0.511111,-0.0919 0.6875,-0.27539 0.183444,-0.1905 0.27539,-0.4388 0.27539,-0.74219 0,-0.27516 -0.122197,-0.52422 -0.36914,-0.75 -0.239888,-0.22578 -0.667419,-0.33984 -1.28125,-0.33984 z"
                   id="path22443"
                   style="fill:#f60711;fill-opacity:1" />
                <path
                   d="M 52.976562,223.08203 V 223.25 l 0.464844,0.0215 c 0.232833,0 0.34961,0.0819 0.34961,0.24414 0,0.0776 -0.02212,0.17227 -0.06445,0.28516 -0.03528,0.11289 -0.132644,0.37127 -0.294921,0.77344 -0.155222,0.40217 -0.423689,1.07138 -0.804688,2.00976 -0.373943,0.93133 -0.704864,1.74953 -0.994141,2.45508 -0.289276,0.70556 -0.530203,1.29215 -0.720703,1.75782 h 2.052735 l 1.302734,-3.18555 c 0.190499,-0.45862 0.39185,-0.81166 0.603516,-1.0586 0.211666,-0.254 0.376149,-0.42043 0.496094,-0.49804 0.119944,-0.0776 0.244094,-0.11524 0.371093,-0.11524 0.0635,0 0.108499,0.0175 0.136719,0.0527 0.03528,0.0353 0.05273,0.0923 0.05273,0.16992 0,0.1905 -0.09737,0.47176 -0.294922,0.8457 -0.197554,0.37394 -0.381448,0.72698 -0.550781,1.0586 -0.169333,0.32455 -0.306276,0.59302 -0.412109,0.80468 -0.112889,0.27517 -0.169922,0.54906 -0.169922,0.82422 0,0.35278 0.09466,0.64336 0.285156,0.86914 0.197556,0.22578 0.483479,0.33789 0.857422,0.33789 0.529165,0 0.931865,-0.1416 1.207031,-0.42382 0.275166,-0.28928 0.573883,-0.71215 0.898438,-1.26954 l -0.136719,-0.0625 c -0.07055,0.13406 -0.157839,0.28109 -0.263672,0.44336 -0.105833,0.16228 -0.264896,0.371 -0.476562,0.625 -0.20461,0.24694 -0.40325,0.3711 -0.59375,0.3711 -0.05644,0 -0.101439,-0.0148 -0.136719,-0.043 -0.02822,-0.0282 -0.04297,-0.0678 -0.04297,-0.11719 0,-0.10583 0.119487,-0.3871 0.359375,-0.8457 0.246944,-0.45862 0.463041,-0.88148 0.646485,-1.26953 0.183446,-0.38806 0.300222,-0.65382 0.349609,-0.79493 0.05645,-0.14111 0.08398,-0.33042 0.08398,-0.57031 0,-0.42333 -0.136943,-0.74146 -0.412109,-0.95312 -0.26811,-0.21167 -0.576154,-0.31836 -0.921875,-0.31836 -0.402165,0 -0.698173,0.0791 -0.888672,0.23437 -0.183444,0.15523 -0.412335,0.39149 -0.6875,0.70899 l 1.470703,-3.53516 z"
                   id="path22445"
                   style="fill:#f60711;fill-opacity:1" />
                <path
                   d="m 62.47973,223.9181 c -0.0094,-0.27003 -0.108421,-0.4938 -0.296136,-0.6681 -0.197555,-0.18345 -0.438482,-0.27344 -0.720703,-0.27344 -0.275166,0 -0.51143,0.09 -0.708985,0.27344 -0.197555,0.18344 -0.294922,0.42166 -0.294922,0.71094 0,0.28222 0.09466,0.51848 0.285157,0.70898 0.197555,0.18344 0.436528,0.27344 0.71875,0.27344 0.275165,0 0.511429,-0.09 0.708984,-0.27344 0.194649,-0.18123 0.298231,-0.40386 0.307855,-0.66809 z m -2.190668,1.75573 c -0.34572,0 -0.666557,0.1094 -0.96289,0.32812 -0.289277,0.21873 -0.632234,0.68117 -1.027344,1.38672 l 0.138672,0.0645 c 0.190499,-0.35278 0.377103,-0.6387 0.560547,-0.85742 0.190499,-0.22578 0.342189,-0.38213 0.455078,-0.46679 0.119946,-0.0917 0.20452,-0.13672 0.253906,-0.13672 0.04939,0 0.0843,0.0148 0.105469,0.043 0.02822,0.0212 0.04297,0.0561 0.04297,0.10546 0,0.0564 -0.02483,0.14373 -0.07422,0.26368 -0.04939,0.11994 -0.156082,0.34612 -0.318359,0.67773 -0.162278,0.33161 -0.351592,0.70949 -0.570313,1.13281 -0.211666,0.42334 -0.353273,0.72671 -0.423828,0.91016 -0.0635,0.17639 -0.0957,0.37774 -0.0957,0.60352 0,0.33866 0.09932,0.61992 0.296875,0.8457 0.197555,0.21872 0.486189,0.32812 0.867187,0.32812 0.52211,0 0.910064,-0.13694 1.164063,-0.41211 0.261055,-0.27516 0.581892,-0.72286 0.96289,-1.34375 l -0.136718,-0.0742 c -0.08467,0.15522 -0.19407,0.33173 -0.328125,0.52929 -0.127,0.1905 -0.25115,0.35965 -0.371094,0.50782 -0.119944,0.14816 -0.242141,0.26764 -0.369141,0.35937 -0.126999,0.0847 -0.22903,0.12695 -0.30664,0.12695 -0.0635,0 -0.113158,-0.0148 -0.148438,-0.043 -0.02822,-0.0353 -0.04297,-0.085 -0.04297,-0.14843 0,-0.13406 0.12957,-0.43007 0.390624,-0.88868 0.261055,-0.46566 0.467068,-0.84895 0.615235,-1.15234 0.148166,-0.31045 0.264943,-0.58358 0.349609,-0.8164 0.08467,-0.23284 0.126953,-0.43961 0.126953,-0.62305 0,-0.41628 -0.116776,-0.72703 -0.349609,-0.93164 -0.225777,-0.21167 -0.494243,-0.31836 -0.804688,-0.31836 z"
                   id="path22447"
                   style="fill:#f60711;fill-opacity:1" />
              </g>
            </g>
          </g>
          <g
             id="g115981"
             transform="translate(-239.49332,-7.3331195)">
            <path
               id="path111813"
               style="fill:#4d4d4d;fill-rule:evenodd;stroke-width:10"
               inkscape:transform-center-x="-0.064794192"
               inkscape:transform-center-y="1.7149769"
               transform="matrix(0.10866861,0.11271912,-0.11271912,0.10866861,371.12217,-134.21214)"
               d="m 1632,510 -76.3034,-20.92996 c 0,0 28.2351,-28.18451 54.5274,-56.29152 z"
               sodipodi:nodetypes="cccc" />
            <g
               id="g115967">
              <g
                 id="g115955">
                <ellipse
                   style="fill:#ffd42a;fill-opacity:1;fill-rule:evenodd;stroke:none;stroke-width:1.32292;stroke-opacity:1"
                   id="path8832"
                   cx="491.952"
                   cy="89.612068"
                   rx="39.1367"
                   ry="4.7549262" />
                <g
                   id="g115945">
                  <use
                     id="use9633"
                     inkscape:spray-origin="#g7653"
                     xlink:href="#g7653"
                     x="0"
                     y="0"
                     width="100%"
                     height="100%"
                     transform="matrix(0.45539927,-0.17909237,0.36598077,0.93062241,270.80701,90.851716)" />
                  <use
                     id="use9635"
                     inkscape:spray-origin="#g7653"
                     xlink:href="#g7653"
                     x="0"
                     y="0"
                     width="100%"
                     height="100%"
                     transform="matrix(0.48934913,0,0,1,343.04677,21.573094)" />
                  <use
                     id="use9647"
                     inkscape:spray-origin="#g7653"
                     xlink:href="#g7653"
                     x="0"
                     y="0"
                     width="100%"
                     height="100%"
                     transform="matrix(0.40417621,0.3325377,-0.63535051,0.77222389,514.36175,-27.24263)" />
                  <g
                     id="g111608">
                    <rect
                       style="fill:#4d4d4d;fill-opacity:1;fill-rule:evenodd;stroke:none;stroke-width:0.612951;stroke-opacity:1"
                       id="rect74179"
                       width="3.4184906"
                       height="0.94197208"
                       x="490.0451"
                       y="83.46582"
                       transform="matrix(0.99996649,0.00818624,-0.00517474,0.99998661,0,0)" />
                    <path
                       id="path74181"
                       style="fill:#e4ba13;fill-opacity:1;fill-rule:evenodd;stroke:none;stroke-width:0.61295"
                       d="m 491.36551,63.136101 0.34659,0.01487 0.0585,24.341988 -0.81425,-0.0046 z"
                       sodipodi:nodetypes="ccccc" />
                  </g>
                </g>
              </g>
              <path
                 id="rect114648"
                 style="fill:#4d4d4d;fill-rule:evenodd;stroke-width:1.48444"
                 d="m 489.67962,102.77108 c 1.10812,2.00387 1.18244,2.15064 1.29937,2.3845 0,0 0.56216,-1.23834 1.40877,-2.38633 l 0.002,148.32034 h -3.17501 z"
                 sodipodi:nodetypes="cccccc" />
            </g>
          </g>
          <g
             id="g126961"
             transform="translate(-203.2,-20.108333)">
            <ellipse
               style="fill:#ffd42a;fill-opacity:1;fill-rule:evenodd;stroke:none;stroke-width:1.32292;stroke-opacity:1"
               id="path8830"
               cx="403.92831"
               cy="98.500488"
               rx="55.596058"
               ry="8.0467987"
               transform="rotate(-11.687845)" />
            <g
               id="use65295"
               transform="matrix(0.45904012,-0.2647396,0.2647396,0.45904012,463.24703,-53.608428)">
              <rect
                 style="fill:#4d4d4d;fill-opacity:1;fill-rule:evenodd;stroke:none;stroke-width:1.32292;stroke-opacity:1"
                 id="rect74173"
                 width="10.24138"
                 height="5.8522167"
                 x="578.64832"
                 y="422.84424"
                 transform="matrix(0.50273194,0.16752757,-0.16752757,0.50273194,-360.49848,-247.56802)" />
              <path
                 id="path74175"
                 style="fill:#d5ac06;fill-opacity:1;fill-rule:evenodd;stroke:none;stroke-width:1.32292"
                 d="m 583.26611,391.06852 h 1.23445 l 0.73153,31.86715 h -2.92611 z"
                 sodipodi:nodetypes="ccccc"
                 transform="matrix(0.50273194,0.16752757,-0.16752757,0.50273194,-360.49848,-247.56802)" />
            </g>
            <g
               id="g97876"
               transform="matrix(-0.95570167,-0.18285529,-0.33037936,0.98313984,516.63726,129.32555)">
              <ellipse
                 style="fill:#000000;fill-opacity:1;fill-rule:evenodd;stroke:#cccccc;stroke-width:2.70697;stroke-miterlimit:4;stroke-dasharray:none;stroke-opacity:1"
                 id="ellipse97858"
                 cx="173.21545"
                 cy="8.3800926"
                 rx="35.550552"
                 ry="11.974923"
                 transform="rotate(12.348716)" />
              <path
                 id="path97860"
                 style="fill:#cccccc;fill-rule:evenodd;stroke:none;stroke-width:2.64583"
                 d="m 150.25489,-3.0858318 c 30.1625,2.38124996 44.05531,4.6784961 65.48656,16.3201628 l -0.49513,3.418498 C 193.91821,5.0533316 166.47876,0.27041512 148.21022,0.16827561 Z"
                 sodipodi:nodetypes="ccccc" />
              <path
                 id="path97862"
                 style="fill:#000000;fill-rule:evenodd;stroke:none;stroke-width:2.64583"
                 d="M 149.29676,-6.3021792e-6 C 182.22437,1.496703 193.44968,5.2384772 213.65526,15.715443 c 0,0 -4.86431,16.089626 -11.5995,32.36634 C 189.64989,32.247339 148.95724,26.594791 136.76182,32.366335 144.05827,12.722024 149.29676,-6.3021792e-6 149.29676,-6.3021792e-6 Z"
                 sodipodi:nodetypes="ccccc" />
              <path
                 id="path97864"
                 style="fill:#cccccc;fill-opacity:1;fill-rule:evenodd;stroke:none;stroke-width:0.663622"
                 d="m 136.75238,32.394141 c 1.38906,-4.29948 11.98116,-32.41566726 11.98116,-32.41566726 l 1.32585,0.03551271 -11.26966,31.60468155 z"
                 sodipodi:nodetypes="ccccc" />
              <use
                 id="use97866"
                 inkscape:spray-origin="#g9805"
                 xlink:href="#g9805"
                 x="0"
                 y="0"
                 width="100%"
                 height="100%"
                 transform="rotate(-96.988147,140.07296,123.50379)" />
              <path
                 id="path97868"
                 style="fill:#cccccc;fill-opacity:1;fill-rule:evenodd;stroke:none;stroke-width:0.663622"
                 d="m 202.09486,47.907523 c 1.38906,-4.29948 11.62895,-32.341052 11.62895,-32.341052 l 1.30104,0.911945 -11.9684,32.828539 z"
                 sodipodi:nodetypes="ccccc" />
              <use
                 id="use97870"
                 inkscape:spray-origin="#g9805"
                 xlink:href="#g9805"
                 x="0"
                 y="0"
                 width="100%"
                 height="100%"
                 transform="rotate(84.644825,294.67357,61.993588)" />
              <path
                 id="path97872"
                 style="fill:#cccccc;fill-opacity:1;fill-rule:evenodd;stroke:none;stroke-width:0.577016"
                 d="m 168.34987,31.948318 c 1.23728,-3.728712 10.85821,-29.0155401 10.85821,-29.0155401 l 1.42261,0.20653 -10.7102,29.1267141 z"
                 sodipodi:nodetypes="ccccc" />
              <use
                 id="use97874"
                 inkscape:spray-origin="#g9805"
                 xlink:href="#g9805"
                 x="0"
                 y="0"
                 width="100%"
                 height="100%"
                 transform="rotate(-7.5669018,-780.00741,671.29442)" />
            </g>
            <path
               id="rect116192"
               style="fill:#4d4d4d;fill-rule:evenodd;stroke-width:2.17662"
               d="m 419.41936,41.104259 4.09828,-0.03829 0.42529,236.573611 h -7.13596 z"
               sodipodi:nodetypes="ccccc" />
            <path
               id="rect116448"
               style="fill:#666666;fill-rule:evenodd;stroke-width:2.64583"
               d="m 416.36747,22.66058 4.06734,-0.84567 3.08266,19.251246 -4.11119,0.99318 z"
               sodipodi:nodetypes="ccccc" />
            <g
               id="use117966"
               transform="matrix(0.53220814,0.58913916,-1.1012447,0.49630818,494.33949,-108.42129)"
               style="fill:#4d4d4d;stroke:none">
              <path
                 id="path138389"
                 style="fill:#4d4d4d;fill-rule:evenodd;stroke:none;stroke-width:1.32292"
                 d="m 416.02465,272.03937 h 11.70444 l -2.19839,52.88802 h -8.47151 z"
                 sodipodi:nodetypes="ccccc" />
              <path
                 id="path138391"
                 style="fill:#4d4d4d;fill-rule:evenodd;stroke:none;stroke-width:1.32292"
                 d="m 417.05919,324.92739 h 8.47151 c 0.56037,7.75984 1.12075,15.51969 1.68112,23.27954 0.12932,2.3277 -11.96306,2.71566 -11.70443,0 0.51727,-7.75985 1.03454,-15.5197 1.5518,-23.27954 z"
                 sodipodi:nodetypes="ccccc" />
            </g>
            <g
               id="use117968"
               transform="matrix(0.40782061,-0.55299298,0.73010874,0.53843975,48.61957,358.83093)"
               style="fill:#4d4d4d;stroke:none">
              <path
                 id="path138395"
                 style="fill:#4d4d4d;fill-rule:evenodd;stroke:none;stroke-width:1.32292"
                 d="m 416.02465,272.03937 h 11.70444 l -2.19839,52.88802 h -8.47151 z"
                 sodipodi:nodetypes="ccccc" />
              <path
                 id="path138397"
                 style="fill:#4d4d4d;fill-rule:evenodd;stroke:none;stroke-width:1.32292"
                 d="m 417.05919,324.92739 h 8.47151 c 0.56037,7.75984 1.12075,15.51969 1.68112,23.27954 0.12932,2.3277 -11.96306,2.71566 -11.70443,0 0.51727,-7.75985 1.03454,-15.5197 1.5518,-23.27954 z"
                 sodipodi:nodetypes="ccccc" />
            </g>
            <g
               id="use117970"
               transform="matrix(0.67585587,0.12384557,-0.16351155,0.89232287,180.3887,-23.000834)"
               style="fill:#4d4d4d;stroke:none">
              <path
                 id="path138401"
                 style="fill:#4d4d4d;fill-rule:evenodd;stroke:none;stroke-width:1.32292"
                 d="m 416.02465,272.03937 h 11.70444 l -2.19839,52.88802 h -8.47151 z"
                 sodipodi:nodetypes="ccccc" />
              <path
                 id="path138403"
                 style="fill:#4d4d4d;fill-rule:evenodd;stroke:none;stroke-width:1.32292"
                 d="m 417.05919,324.92739 h 8.47151 c 0.56037,7.75984 1.12075,15.51969 1.68112,23.27954 0.12932,2.3277 -11.96306,2.71566 -11.70443,0 0.51727,-7.75985 1.03454,-15.5197 1.5518,-23.27954 z"
                 sodipodi:nodetypes="ccccc" />
            </g>
            <path
               id="rect118268"
               style="fill:#4d4d4d;fill-opacity:1;fill-rule:evenodd;stroke-width:2.64583"
               d="m 375.10036,126.69504 -0.2139,-8.25531 32.26721,0.22786 5.67064,7.92518 -0.65007,18.93 19.7137,0.33818 -0.0388,6.05154 -19.64147,0.60246 -0.17335,6.50065 -6.09472,0.0284 0.0544,-6.62253 -8.92703,-0.61055 0.11475,-5.36143 9.27805,-0.7838 -0.44048,-18.70784 z"
               sodipodi:nodetypes="cccccccccccccccc" />
          </g>
        </g>
      </g>
    </g>
    <path
       style="fill:#552200;fill-opacity:1;fill-rule:evenodd;stroke:none;stroke-width:7.07107"
       d=""
       id="path67003"
       transform="scale(0.26458334)" />
  </g>
</svg>
