<?xml version="1.0" encoding="UTF-8" standalone="no"?>
<!-- Created with Inkscape (http://www.inkscape.org/) -->

<svg
   width="1920"
   height="1080"
   viewBox="0 0 507.99999 285.75001"
   version="1.1"
   id="svg5"
   inkscape:version="1.1.2 (b8e25be833, 2022-02-05)"
   sodipodi:docname="scooter.svg"
   inkscape:export-filename="C:\Users\eric\Desktop\myprogrammingwork\mypicturework\scooter.png"
   inkscape:export-xdpi="96"
   inkscape:export-ydpi="96"
   xmlns:inkscape="http://www.inkscape.org/namespaces/inkscape"
   xmlns:sodipodi="http://sodipodi.sourceforge.net/DTD/sodipodi-0.dtd"
   xmlns:xlink="http://www.w3.org/1999/xlink"
   xmlns="http://www.w3.org/2000/svg"
   xmlns:svg="http://www.w3.org/2000/svg">
  <sodipodi:namedview
     id="namedview7"
     pagecolor="#ffffff"
     bordercolor="#666666"
     borderopacity="1.0"
     inkscape:pageshadow="2"
     inkscape:pageopacity="0.0"
     inkscape:pagecheckerboard="0"
     inkscape:document-units="px"
     showgrid="false"
     units="px"
     inkscape:zoom="0.64"
     inkscape:cx="1371.0938"
     inkscape:cy="597.65625"
     inkscape:window-width="1920"
     inkscape:window-height="1001"
     inkscape:window-x="-9"
     inkscape:window-y="-9"
     inkscape:window-maximized="1"
     inkscape:current-layer="layer1" />
  <defs
     id="defs2">
    <linearGradient
       inkscape:collect="always"
       id="linearGradient79237">
      <stop
         style="stop-color:#4d4d4d;stop-opacity:1"
         offset="0"
         id="stop79233" />
      <stop
         style="stop-color:#333333;stop-opacity:1"
         offset="1"
         id="stop79235" />
    </linearGradient>
    <linearGradient
       inkscape:collect="always"
       id="linearGradient78769">
      <stop
         style="stop-color:#4d4d4d;stop-opacity:1"
         offset="0"
         id="stop78765" />
      <stop
         style="stop-color:#1a1a1a;stop-opacity:1"
         offset="1"
         id="stop78767" />
    </linearGradient>
    <linearGradient
       inkscape:collect="always"
       id="linearGradient78361">
      <stop
         style="stop-color:#4d4d4d;stop-opacity:1"
         offset="0"
         id="stop78357" />
      <stop
         style="stop-color:#333333;stop-opacity:1"
         offset="1"
         id="stop78359" />
    </linearGradient>
    <inkscape:path-effect
       effect="powerstroke"
       id="path-effect77466"
       is_visible="true"
       lpeversion="1"
       offset_points="1.4990198,-0.18599027 | 0.6318081,-0.40100127 | 2.3536689,-0.047248968"
       not_jump="false"
       sort_points="true"
       interpolator_type="CentripetalCatmullRom"
       interpolator_beta="0.3014862"
       start_linecap_type="zerowidth"
       linejoin_type="round"
       miter_limit="4"
       scale_width="1"
       end_linecap_type="zerowidth" />
    <linearGradient
       inkscape:collect="always"
       id="linearGradient75911">
      <stop
         style="stop-color:#808080;stop-opacity:1"
         offset="0"
         id="stop75907" />
      <stop
         style="stop-color:#333333;stop-opacity:1"
         offset="1"
         id="stop75909" />
    </linearGradient>
    <linearGradient
       inkscape:collect="always"
       id="linearGradient75262">
      <stop
         style="stop-color:#999999;stop-opacity:1"
         offset="0"
         id="stop75258" />
      <stop
         style="stop-color:#333333;stop-opacity:1"
         offset="1"
         id="stop75260" />
    </linearGradient>
    <linearGradient
       inkscape:collect="always"
       id="linearGradient74440">
      <stop
         style="stop-color:#999999;stop-opacity:1"
         offset="0"
         id="stop74436" />
      <stop
         style="stop-color:#666666;stop-opacity:1"
         offset="1"
         id="stop74438" />
    </linearGradient>
    <linearGradient
       inkscape:collect="always"
       id="linearGradient73810">
      <stop
         style="stop-color:#333333;stop-opacity:1"
         offset="0"
         id="stop73806" />
      <stop
         style="stop-color:#1a1a1a;stop-opacity:1"
         offset="1"
         id="stop73808" />
    </linearGradient>
    <linearGradient
       inkscape:collect="always"
       id="linearGradient73500">
      <stop
         style="stop-color:#666666;stop-opacity:1"
         offset="0"
         id="stop73496" />
      <stop
         style="stop-color:#cccccc;stop-opacity:1"
         offset="1"
         id="stop73498" />
    </linearGradient>
    <linearGradient
       inkscape:collect="always"
       id="linearGradient72144">
      <stop
         style="stop-color:#4d4d4d;stop-opacity:1"
         offset="0"
         id="stop72140" />
      <stop
         style="stop-color:#b3b3b3;stop-opacity:1"
         offset="1"
         id="stop72142" />
    </linearGradient>
    <linearGradient
       inkscape:collect="always"
       id="linearGradient69591">
      <stop
         style="stop-color:#ff0000;stop-opacity:1;"
         offset="0"
         id="stop69587" />
      <stop
         style="stop-color:#ff0000;stop-opacity:0;"
         offset="1"
         id="stop69589" />
    </linearGradient>
    <linearGradient
       inkscape:collect="always"
       id="linearGradient69345">
      <stop
         style="stop-color:#ff0000;stop-opacity:1;"
         offset="0"
         id="stop69341" />
      <stop
         style="stop-color:#ff0000;stop-opacity:0;"
         offset="1"
         id="stop69343" />
    </linearGradient>
    <linearGradient
       inkscape:collect="always"
       id="linearGradient69005">
      <stop
         style="stop-color:#ff0000;stop-opacity:1;"
         offset="0"
         id="stop69001" />
      <stop
         style="stop-color:#ff0000;stop-opacity:0;"
         offset="1"
         id="stop69003" />
    </linearGradient>
    <linearGradient
       inkscape:collect="always"
       id="linearGradient68661">
      <stop
         style="stop-color:#ff0000;stop-opacity:1;"
         offset="0"
         id="stop68657" />
      <stop
         style="stop-color:#ff0000;stop-opacity:0;"
         offset="1"
         id="stop68659" />
    </linearGradient>
    <linearGradient
       inkscape:collect="always"
       id="linearGradient67913">
      <stop
         style="stop-color:#333333;stop-opacity:1"
         offset="0"
         id="stop67909" />
      <stop
         style="stop-color:#b3b3b3;stop-opacity:1"
         offset="1"
         id="stop67911" />
    </linearGradient>
    <linearGradient
       inkscape:collect="always"
       id="linearGradient67527">
      <stop
         style="stop-color:#4d4d4d;stop-opacity:1"
         offset="0"
         id="stop67523" />
      <stop
         style="stop-color:#b3b3b3;stop-opacity:1"
         offset="1"
         id="stop67525" />
    </linearGradient>
    <linearGradient
       inkscape:collect="always"
       id="linearGradient66103">
      <stop
         style="stop-color:#4d4d4d;stop-opacity:1"
         offset="0"
         id="stop66099" />
      <stop
         style="stop-color:#b3b3b3;stop-opacity:1"
         offset="1"
         id="stop66101" />
    </linearGradient>
    <linearGradient
       inkscape:collect="always"
       id="linearGradient65659">
      <stop
         style="stop-color:#4d4d4d;stop-opacity:1"
         offset="0"
         id="stop65655" />
      <stop
         style="stop-color:#b3b3b3;stop-opacity:1"
         offset="1"
         id="stop65657" />
    </linearGradient>
    <linearGradient
       inkscape:collect="always"
       id="linearGradient62205">
      <stop
         style="stop-color:#4d4d4d;stop-opacity:1"
         offset="0"
         id="stop62201" />
      <stop
         style="stop-color:#b3b3b3;stop-opacity:1"
         offset="1"
         id="stop62203" />
    </linearGradient>
    <linearGradient
       inkscape:collect="always"
       id="linearGradient25695">
      <stop
         style="stop-color:#ffefa9;stop-opacity:1;"
         offset="0"
         id="stop25691" />
      <stop
         style="stop-color:#ffefa9;stop-opacity:0;"
         offset="1"
         id="stop25693" />
    </linearGradient>
    <linearGradient
       inkscape:collect="always"
       id="linearGradient20473">
      <stop
         style="stop-color:#ffeeaa;stop-opacity:1;"
         offset="0"
         id="stop20469" />
      <stop
         style="stop-color:#ffeeaa;stop-opacity:0;"
         offset="1"
         id="stop20471" />
    </linearGradient>
    <linearGradient
       inkscape:collect="always"
       xlink:href="#linearGradient20473"
       id="linearGradient20475"
       x1="781.02417"
       y1="89.447708"
       x2="628.74915"
       y2="90.324684"
       gradientUnits="userSpaceOnUse" />
    <linearGradient
       inkscape:collect="always"
       xlink:href="#linearGradient25695"
       id="linearGradient25697"
       x1="821.00909"
       y1="-0.22104087"
       x2="669.08118"
       y2="-1.0962224"
       gradientUnits="userSpaceOnUse" />
    <linearGradient
       inkscape:collect="always"
       xlink:href="#linearGradient62205"
       id="linearGradient62207"
       x1="2510.9375"
       y1="671.875"
       x2="2156.25"
       y2="671.875"
       gradientUnits="userSpaceOnUse" />
    <linearGradient
       inkscape:collect="always"
       xlink:href="#linearGradient65659"
       id="linearGradient65653"
       x1="2701.5625"
       y1="254.6875"
       x2="2339.0625"
       y2="259.375"
       gradientUnits="userSpaceOnUse" />
    <linearGradient
       inkscape:collect="always"
       xlink:href="#linearGradient66103"
       id="linearGradient66105"
       x1="2851.5625"
       y1="24.999998"
       x2="1876.5625"
       y2="526.5625"
       gradientUnits="userSpaceOnUse" />
    <linearGradient
       inkscape:collect="always"
       xlink:href="#linearGradient67527"
       id="linearGradient67529"
       x1="2740.625"
       y1="178.125"
       x2="2543.75"
       y2="531.25"
       gradientUnits="userSpaceOnUse" />
    <linearGradient
       inkscape:collect="always"
       xlink:href="#linearGradient67913"
       id="linearGradient67915"
       x1="2579.6875"
       y1="546.875"
       x2="2246.74"
       y2="594.20667"
       gradientUnits="userSpaceOnUse" />
    <linearGradient
       inkscape:collect="always"
       xlink:href="#linearGradient68661"
       id="linearGradient68663"
       x1="2959.8589"
       y1="480.58234"
       x2="2033.2205"
       y2="657.69958"
       gradientUnits="userSpaceOnUse" />
    <linearGradient
       inkscape:collect="always"
       xlink:href="#linearGradient69005"
       id="linearGradient69007"
       x1="2458.9209"
       y1="640.92145"
       x2="2225.2488"
       y2="659.67145"
       gradientUnits="userSpaceOnUse" />
    <linearGradient
       inkscape:collect="always"
       xlink:href="#linearGradient69345"
       id="linearGradient69347"
       x1="2466.8127"
       y1="691.92188"
       x2="2264.9495"
       y2="759.10938"
       gradientUnits="userSpaceOnUse" />
    <linearGradient
       inkscape:collect="always"
       xlink:href="#linearGradient69591"
       id="linearGradient69593"
       x1="3188.8865"
       y1="613.63904"
       x2="2971.875"
       y2="656.25"
       gradientUnits="userSpaceOnUse" />
    <linearGradient
       inkscape:collect="always"
       xlink:href="#linearGradient72144"
       id="linearGradient72146"
       x1="2731.7524"
       y1="84.7976"
       x2="2257.2173"
       y2="493.86987"
       gradientUnits="userSpaceOnUse" />
    <linearGradient
       inkscape:collect="always"
       xlink:href="#linearGradient73500"
       id="linearGradient73502"
       x1="2500.4673"
       y1="466.88004"
       x2="2350"
       y2="729.6875"
       gradientUnits="userSpaceOnUse" />
    <linearGradient
       inkscape:collect="always"
       xlink:href="#linearGradient73810"
       id="linearGradient73812"
       x1="3154.3591"
       y1="354.65823"
       x2="3208.4971"
       y2="369.02133"
       gradientUnits="userSpaceOnUse" />
    <linearGradient
       inkscape:collect="always"
       xlink:href="#linearGradient74440"
       id="linearGradient74442"
       x1="2794.1768"
       y1="268.47958"
       x2="3040.5591"
       y2="178.98639"
       gradientUnits="userSpaceOnUse" />
    <linearGradient
       inkscape:collect="always"
       xlink:href="#linearGradient75262"
       id="linearGradient75264"
       x1="2709.7642"
       y1="508.96259"
       x2="3072.5999"
       y2="309.35922"
       gradientUnits="userSpaceOnUse" />
    <linearGradient
       inkscape:collect="always"
       xlink:href="#linearGradient75911"
       id="linearGradient75913"
       x1="2935.918"
       y1="375"
       x2="3314.563"
       y2="142.52621"
       gradientUnits="userSpaceOnUse" />
    <linearGradient
       inkscape:collect="always"
       xlink:href="#linearGradient78361"
       id="linearGradient78363"
       x1="3055.4746"
       y1="524.25336"
       x2="3203.5251"
       y2="543.58832"
       gradientUnits="userSpaceOnUse" />
    <linearGradient
       inkscape:collect="always"
       xlink:href="#linearGradient78769"
       id="linearGradient78771"
       x1="3018.2155"
       y1="576.89247"
       x2="3225.5416"
       y2="576.89247"
       gradientUnits="userSpaceOnUse" />
    <linearGradient
       inkscape:collect="always"
       xlink:href="#linearGradient79237"
       id="linearGradient79239"
       x1="3077.0193"
       y1="434.48398"
       x2="3206.5635"
       y2="444.70386"
       gradientUnits="userSpaceOnUse" />
  </defs>
  <g
     inkscape:label="圖層 1"
     inkscape:groupmode="layer"
     id="layer1">
    <rect
       style="fill:#ffffff;fill-opacity:1;fill-rule:evenodd;stroke:none;stroke-width:1.21708;stroke-linejoin:round"
       id="rect84539"
       width="287.32098"
       height="239.77866"
       x="126.91732"
       y="28.11198" />
    <g
       id="g84515"
       transform="matrix(0.78420059,0,0,0.78420059,-300.49066,92.077032)">
      <path
         style="fill:none;stroke:none;stroke-width:0.264583px;stroke-linecap:butt;stroke-linejoin:miter;stroke-opacity:1"
         d="m 765.23304,-7.8236754 c 4.25821,0.2430918 3.86135,4.9823462 -0.32329,4.7200686"
         id="path3856"
         sodipodi:nodetypes="cc" />
      <path
         style="fill:url(#linearGradient25697);fill-opacity:1;stroke:none;stroke-width:0.264583px;stroke-linecap:butt;stroke-linejoin:miter;stroke-opacity:1"
         d="m 671.6722,-13.319645 c -3.62087,-1.034536 -4.78472,19.2682245 -3.49155,20.5613939 l 2.45705,4.1381431 10.86261,3.620874 14.35416,-4.914044 c -2.3277,-2.8449731 15.00077,-25.863389 18.10438,-26.122023 l -31.42401,4.396776 z"
         id="path5852"
         sodipodi:nodetypes="cccccccc" />
      <path
         style="fill:none;stroke:none;stroke-width:0.264583px;stroke-linecap:butt;stroke-linejoin:miter;stroke-opacity:1"
         d="m 664.61337,-7.9916967 -0.0672,1.2206616"
         id="path3377" />
      <path
         style="fill:none;stroke:none;stroke-width:0.264583px;stroke-linecap:butt;stroke-linejoin:miter;stroke-opacity:1"
         d="m 727.27854,0.7758617 0.77382,-1.7817115 6.77539,1.46974366"
         id="path3379" />
      <path
         style="fill:none;stroke:none;stroke-width:0.264583px;stroke-linecap:butt;stroke-linejoin:miter;stroke-opacity:1"
         d="m 724.95081,22.242475 -57.43231,10.676246 -9.23918,-4.70041"
         id="path3494"
         sodipodi:nodetypes="ccc" />
      <path
         style="fill:none;stroke:none;stroke-width:0.264583px;stroke-linecap:butt;stroke-linejoin:miter;stroke-opacity:1"
         d="M 717.41101,23.687544 697.79424,58.451259 628.739,109.9194 l -17.06984,5.43132"
         id="path3746"
         sodipodi:nodetypes="cccc" />
      <path
         style="fill:url(#linearGradient20475);fill-opacity:1;stroke:none;stroke-width:0.264583px;stroke-linecap:butt;stroke-linejoin:miter;stroke-opacity:1"
         d="m 685.34042,67.731237 -9.27143,19.945652 -35.17422,20.690711 -12.15575,1.5518"
         id="path4218"
         sodipodi:nodetypes="cccc" />
      <ellipse
         style="fill:#000000;fill-opacity:0;fill-rule:evenodd;stroke:none;stroke-width:1.21708;stroke-linejoin:round"
         id="path1150"
         cx="826.06781"
         cy="150.49791"
         rx="28.382778"
         ry="31.202496" />
      <path
         id="path5851"
         style="fill:none;stroke:none;stroke-width:0.264583px;stroke-linecap:butt;stroke-linejoin:miter;stroke-opacity:1"
         d="m 697.28402,111.01187 22.43916,-52.564677 -7.70408,-9.824062 12.93171,-26.380656 -17.58711,-0.258634 5.17269,-13.9662303 9.31082,-2.327705 5.43131,-4.91404402 17.58709,3.10360662 0.9989,-1.4005201 -11.03676,-2.01505434 3.37804,-5.70127006 26.70397,2.1337296 0.32327,-4.7200685 -26.57463,-2.2630469 0.0131,-3.367969 -7.51348,-3.615146 0.25865,-8.534918 16.03529,-12.543745 28.78189,-0.299201 c 2.74323,-0.731527 7.51339,-17.378227 7.51339,-17.378227 0.18288,-1.463054 -26.33786,-1.836432 -26.33786,-0.55626 l -10.99195,15.000766 -17.84575,16.035301 -0.25863,8.276284 -18.10438,-7.6297 -21.59594,-1.163852 -10.21605,1.293169 -10.86261,-12.414425 -2.58634,-21.20798 c -1.55181,-3.232923 -12.41441,-1.293169 -11.89714,0.775903 0,0 3.86913,22.360017 12.94373,21.880394 l 8.03519,10.39638 0.0278,2.273035 -8.5923,8.642049 -0.85164,6.2332074 -10.26959,1.0448408 -0.0314,1.2218972 10.23376,-1.0460763 1.43614,11.4264049 4.6554,6.724482 10.86263,3.620874 0.25863,4.138142 -16.0353,1.034536 c -22.777,21.989327 -38.13643,59.501798 -53.01994,86.900986 l -1.60154,15.0949 26.17175,-7.59452 -4.91403,17.61943 c 10.83029,-0.19397 32.84649,19.36521 32.32922,36.30573 l 39.82963,6.07791 78.94131,-12.67205 m 62.06446,-43.09415 13.14002,11.5398 4.65542,-2.58634 -20.94933,-54.571749 6.98309,-3.362241 c 2.17267,-4.798242 -4.40123,-3.910854 -8.01764,-4.65541 l 8.27627,-33.88104 -13.06101,5.560629 c 0,0 -2.32768,-11.250573 -6.59514,-11.250573 -18.84399,0.987758 -36.65755,2.871587 -54.58869,7.958115 -9.24625,2.622887 -2.81655,4.662996 -18.81995,5.423661 -1.2266,-0.08494 -11.15642,-0.539455 -12.16782,-0.174643 -4.7901,-0.252411 -11.71694,22.090493 -14.32556,31.411839 l 0.34633,5.297369 5.67644,1.91055 -1.06023,6.804458 -10.31873,33.017035 -16.2478,8.33858"
         sodipodi:nodetypes="ccccccccccccccccccccccccccccccccccccccccccccccccccccccccccccscccccccc" />
      <path
         style="fill:none;stroke:none;stroke-width:0.264583px;stroke-linecap:butt;stroke-linejoin:miter;stroke-opacity:1"
         d="m 637.27392,114.57477 c -1.03353,-2.58382 57.52358,-37.914778 61.03758,-36.984602 l -9.82808,20.690711 35.17421,47.588641 59.4717,-18.71544 -9.10009,9.10111 -35.84934,21.00892 -8.63369,9.91724 -25.02748,7.39649 -22.50117,-3.62084 c 6.99632,-7.98169 9.94206,-9.63 5.02094,-18.67407 -14.092,-22.70762 -21.32625,-49.64149 -49.35117,-37.70816"
         id="path6727"
         sodipodi:nodetypes="cccccccccccc" />
      <path
         style="fill:none;stroke:none;stroke-width:0.264583px;stroke-linecap:butt;stroke-linejoin:miter;stroke-opacity:1"
         d="M 712.01912,48.623131 698.3115,77.59017"
         id="path10262" />
      <path
         style="fill:none;stroke:none;stroke-width:0.264583px;stroke-linecap:butt;stroke-linejoin:miter;stroke-opacity:1"
         d="m 661.58196,123.52868 -34.65342,54.41144 3.62087,4.13814 35.48127,-55.65318 c 0.73082,-1.02314 -3.57174,-4.0657 -4.44872,-2.8964 z"
         id="path10764"
         sodipodi:nodetypes="ccccc" />
      <path
         style="fill:none;stroke:none;stroke-width:0.264583px;stroke-linecap:butt;stroke-linejoin:miter;stroke-opacity:1"
         d="m 736.07694,77.431608 16.03041,2.227631 38.27783,-4.65541 42.93323,-26.897926 3.23291,-11.250613"
         id="path10517" />
      <ellipse
         style="fill:none;fill-rule:evenodd;stroke:none;stroke-width:1.54478;stroke-linejoin:round"
         id="path10948"
         cx="628.73895"
         cy="174.06059"
         rx="26.475439"
         ry="29.061777" />
      <path
         id="path12412"
         style="fill:none;fill-rule:evenodd;stroke:none;stroke-width:1.23674;stroke-linejoin:round"
         d="m 664.9379,173.9313 a 38.267982,42.018177 0 0 1 -38.26798,42.01818 38.267982,42.018177 0 0 1 -38.26798,-42.01818 38.267982,42.018177 0 0 1 38.26798,-42.01817 38.267982,42.018177 0 0 1 38.26798,42.01817 z" />
      <path
         style="fill:url(#linearGradient62207);fill-opacity:1;fill-rule:evenodd;stroke:none;stroke-width:6.3591;stroke-linejoin:round"
         d="m 2343.3659,810.68069 c -46.6966,-10.43011 -84.6098,-43.16333 -103.862,-89.67164 -18.1793,-43.91673 -16.4223,-93.88236 4.8154,-136.93938 15.8367,-32.10687 37.5258,-54.26893 67.7102,-69.18646 32.6507,-16.13638 73.3989,-17.25873 106.5313,-2.93423 12.9053,5.57954 23.4866,11.7503 31.0796,18.12498 l 5.3021,4.45143 -9.5199,15.28202 -9.5199,15.28203 -4.2047,-3.20707 c -7.0299,-5.36199 -24.4356,-12.96202 -34.6328,-15.12205 -21.7973,-4.61725 -43.3979,-1.782 -64.2426,8.43234 -11.2984,5.53646 -14.9752,8.29252 -26.3211,19.72984 -15.8194,15.94677 -24.3663,30.97411 -29.8044,52.40293 -4.1693,16.42873 -4.6547,39.52738 -1.1853,56.40622 8.0121,38.97948 35.8681,71.2025 71.8262,83.08629 9.6739,3.19715 13.3105,3.65501 29.0307,3.65501 15.7201,0 19.3567,-0.45786 29.0306,-3.65501 26.0847,-8.62074 49.2104,-28.86949 61.8823,-54.18383 7.7281,-15.43835 11.0064,-29.18359 11.7341,-49.19955 1.0743,-29.54862 -4.2674,-49.73329 -19.2254,-72.6466 l -6.8219,-10.45013 9.1953,-14.42426 c 7.6152,-11.94562 9.5358,-14.14167 11.1769,-12.7797 1.0899,0.90451 5.4721,6.89047 9.7383,13.30214 17.5453,26.36898 26.6926,57.52016 26.6926,90.90157 0,44.31671 -16.3233,84.83672 -46.2532,114.81631 -17.9914,18.02126 -39.4005,30.63792 -62.2662,36.6943 -14.806,3.92163 -44.3462,4.85678 -57.8862,1.8325 z"
         id="path12853"
         transform="scale(0.26458334)" />
      <path
         id="path15828"
         style="fill:none;stroke:none;stroke-width:0.264583px;stroke-linecap:butt;stroke-linejoin:miter;stroke-opacity:1"
         d="m 616.29086,149.23745 2.73253,-1.47872 m -2.73253,1.47872 5.12901,17.09313 -5.61257,2.29872 0.51726,11.37989 -10.34534,7.50038 1.55178,2.32771 10.86263,-7.50039 6.10236,0.72499 -12.51578,12.41342 3.30983,2.63826 15.25939,-16.0353 13.44896,14.84498 3.56945,-3.72321 -14.92608,-14.27504 m -13.61838,-31.16626 6.24952,17.6152 5.0179,-2.17594 1.36623,-17.14292 4.25064,0.84328 -3.5478,16.55827 1.44818,3.59428" />
      <path
         style="fill:none;stroke:none;stroke-width:0.264583px;stroke-linecap:butt;stroke-linejoin:miter;stroke-opacity:1"
         d="m 790.38518,75.003831 -31.77513,24.214921 17.36328,0.413412 -26.45834,26.458336 64.6989,-33.899747 28.15673,-18.997399"
         id="path19686"
         sodipodi:nodetypes="cccccc" />
      <path
         id="path1152"
         style="fill:none;fill-rule:evenodd;stroke:none;stroke-width:1.21708;stroke-linejoin:round"
         d="m 842.19363,152.47036 c -0.76735,14.34001 -9.21128,19.16632 -17.25841,18.0036 -11.76543,-2.54892 -12.14243,-16.00034 -12.14243,-16.00034 l 24.31885,2.5107 z"
         sodipodi:nodetypes="ccccc" />
      <path
         style="fill:none;stroke:none;stroke-width:0.264583px;stroke-linecap:butt;stroke-linejoin:miter;stroke-opacity:1"
         d="m 845.01304,48.369142 -27.28515,22.324219 -6.65003,37.896289 -22.28878,13.78014 -64.59553,21.08399 -15.74337,-17.8621"
         id="path19801"
         sodipodi:nodetypes="cccccc" />
      <path
         style="fill:none;stroke:none;stroke-width:0.264583px;stroke-linecap:butt;stroke-linejoin:miter;stroke-opacity:1"
         d="m 788.4865,126.18753 1.97756,6.51216 4.85827,-1.93458 -0.44683,-1.47548 4.04126,-0.30707 11.62267,-7.26716 2.69141,-1.81051 -0.64331,-1.29529 -3.07584,0.52483 -12.99599,3.66891 -2.63704,3.54123 -0.68274,-1.97958 z"
         id="path19916"
         sodipodi:nodetypes="ccccccccccccc" />
      <path
         style="fill:none;stroke:none;stroke-width:0.264583px;stroke-linecap:butt;stroke-linejoin:miter;stroke-opacity:1"
         d="m 811.52671,112.44792 28.32603,-11.01078 2.5852,11.19667 c 2.7771,-1.1693 7.3539,6.05057 7.3539,6.05057 l -9.44572,0.3468 -1.30044,10.16259 -3.12081,-1.37841 -0.0916,-4.56338 -8.32947,-1.87928 -5.37191,3.48554 -7.67496,-4.71223 -2.93021,-7.69809"
         id="path874"
         sodipodi:nodetypes="cccccccccccc" />
      <path
         style="fill:none;stroke:none;stroke-width:0.264583px;stroke-linecap:butt;stroke-linejoin:miter;stroke-opacity:1"
         d="m 814.45693,120.14601 c -16.53011,18.46444 -12.41117,31.03545 -3.5436,33.39484 l 26.19954,2.71099 c 2.52298,-1.09348 1.69029,-2.0764 3.77472,-3.49404 8.04593,-5.4721 -1.84191,-23.56403 -1.84191,-23.56403"
         id="path1046"
         sodipodi:nodetypes="cccsc" />
      <path
         style="fill:none;stroke:none;stroke-width:0.264583px;stroke-linecap:butt;stroke-linejoin:miter;stroke-opacity:1"
         d="m 798.91678,128.98256 -9.73369,12.1994 -5.72305,20.72383"
         id="path2954"
         sodipodi:nodetypes="ccc" />
      <path
         style="fill:#ffeeaa;fill-opacity:0;fill-rule:evenodd;stroke:none;stroke-width:14.375;stroke-linejoin:round"
         d="m 2481.1444,340.50171 c 53.0034,-39.51286 97.0695,-71.14194 97.9246,-70.28683 0.8551,0.8551 -4.5516,14.58625 -12.015,30.51367 l -13.5697,28.95895 -67.3671,39.46218 c -57.4385,33.6462 -69.8709,39.73716 -84.355,41.3279 l -16.9877,1.8657 z"
         id="path16900"
         transform="scale(0.26458334)" />
      <path
         style="fill:#ffeeaa;fill-opacity:0;fill-rule:evenodd;stroke:none;stroke-width:5.08233;stroke-linejoin:round"
         d="m 2383.7627,411.66634 c 2.793,-2.67445 202.3503,-151.09081 202.6553,-150.72036 0.1594,0.19364 -6.9842,15.92005 -15.8746,34.94757 l -16.1645,34.5955 -66.2803,39.0078 -66.2803,39.00779 -17.8712,2.35545 c -21.7692,2.86918 -22.3635,2.89293 -20.1844,0.80625 z"
         id="path16939"
         transform="scale(0.26458334)" />
      <path
         style="fill:#ffeeaa;fill-opacity:0;fill-rule:evenodd;stroke:none;stroke-width:5.08233;stroke-linejoin:round"
         d="m 2383.7627,411.66634 c 2.793,-2.67445 202.3503,-151.09081 202.6553,-150.72036 0.1594,0.19364 -6.9842,15.92005 -15.8746,34.94757 l -16.1645,34.5955 -66.2803,39.0078 -66.2803,39.00779 -17.8712,2.35545 c -21.7692,2.86918 -22.3635,2.89293 -20.1844,0.80625 z"
         id="path17015"
         transform="scale(0.26458334)" />
      <path
         style="fill:#b3b3b3;fill-opacity:0;fill-rule:evenodd;stroke:none;stroke-width:7.1875;stroke-linejoin:round"
         d="m 2507.4219,115.18027 c -8.8086,-4.44341 -15.9818,-8.79783 -15.9405,-9.67647 0.041,-0.87866 5.6134,-7.532487 12.3824,-14.7863 l 12.3073,-13.188766 28.6332,-1.947156 c 15.7483,-1.070937 29.4754,-1.991453 30.5047,-2.045609 1.1335,-0.05969 2.0577,-3.273969 2.3437,-8.151844 0.4615,-7.869469 0.615,-8.101234 6.7223,-10.149422 40.0425,-13.428922 47.294,-16.438687 46.5413,-19.317234 -2.4701,-9.445594 35.0421,-65.634594 58.4146,-87.498438 5.6167,-5.254156 9.9634,-9.753234 9.6594,-9.997969 -0.304,-0.244718 -27.2715,3.322797 -59.9278,7.927829 l -59.375,8.372781 -19.9441,-3.142094 c -10.9693,-1.728141 -21.3223,-3.142078 -23.0068,-3.142078 -6.8834,0 -12.2964,20.485391 -13.8311,52.34375 -1.3111,27.216328 -3.3813,25.513563 -7.3414,-6.0383281 -2.2647,-18.0429689 -2.4189,-23.7860629 -0.9228,-34.3652029 l 1.7963,-12.701875 16.3906,-16.441563 c 21.4012,-21.467748 21.3812,-20.057862 0.6622,-46.840431 -12.0299,-15.5506 -16.5682,-20.33135 -19.3002,-20.33135 -9.0586,0 -22.7668,-15.12978 -30.5164,-33.68103 -5.7106,-13.6704 -12.2629,-36.01109 -12.8902,-43.95048 -0.4636,-5.86744 -0.3469,-6.00591 7.3414,-8.70899 9.6874,-3.40593 27.664,-3.07141 31.3182,0.5828 1.7475,1.74746 3.8158,13.60563 7.4269,42.57967 l 5.0049,40.15771 20.3125,23.3737 c 23.1004,26.581764 19.5126,24.908504 45.3125,21.132687 11.7821,-1.724316 20.7349,-1.691208 55.2093,0.204166 l 41.1468,2.262217 34.6344,14.589884 34.6345,14.589885 1.0311,-16.091696 1.0312,-16.091695 6.7813,-6.179078 c 3.7298,-3.3985 18.7345,-16.91687 33.3439,-30.04083 24.6452,-22.13941 28.061,-25.90212 47.3233,-52.1294 11.4185,-15.54721 21.6138,-28.80968 22.6563,-29.47216 1.0425,-0.66248 18.4188,-1.15594 38.6142,-1.09659 35.3501,0.1039 53.4382,1.1992 55.6062,3.36714 1.5625,1.56254 -13.0648,43.33758 -18.813,53.72935 l -5.0637,9.15399 -25.6304,0.95572 c -14.0967,0.52564 -39.2022,1.05299 -55.79,1.17187 l -30.1596,0.21616 -30.3873,23.81991 -30.3872,23.819915 v 7.200883 c 0,3.960484 -0.4461,11.468273 -0.9912,16.683973 l -0.9912,9.483085 14.2724,7.168046 14.2725,7.168047 v 6.234328 c 0,3.428875 0.1757,6.296797 0.3906,6.373157 0.2148,0.07641 22.7491,2.102781 50.0761,4.503172 27.327,2.400375 49.9008,4.623046 50.1639,4.939281 0.2632,0.316219 0.053,3.750953 -0.4667,7.632719 l -0.9452,7.057765 -42.1875,-3.447015 c -23.2031,-1.89586 -45.8273,-3.489829 -50.276,-3.542141 l -8.0884,-0.09512 -4.7746,8.203125 c -2.626,4.5117187 -5.3625,9.0928594 -6.0811,10.1803281 -1.0442,1.58006252 -3.7874,1.46415627 -13.658,-0.577125 -11.8117,-2.4427187 -12.4214,-2.4294531 -13.9554,0.3035 -0.8822,1.5717969 -6.0442,7.1049375 -11.4711,12.2958749 -9.6758,9.255016 -10.2212,9.530906 -28.125,14.226391 l -18.2579,4.788344 -9.6861,25.680406 c -5.3273,14.124219 -9.7219,26.543094 -9.7656,27.597484 -0.059,1.428594 6.8628,2.025781 27.1667,2.34375 l 27.2462,0.426672 -100.2931,18.588775 C 2571.6944,113.96884 2525.8594,122.542 2525,122.7965 c -0.8594,0.25448 -8.7695,-3.17281 -17.5781,-7.61623 z"
         id="path17242"
         transform="scale(0.26458334)" />
      <path
         style="fill:#b3b3b3;fill-opacity:0;fill-rule:evenodd;stroke:none;stroke-width:2.54116;stroke-linejoin:round"
         d="m 2506.3621,115.15392 c -9.1151,-4.64355 -16.5728,-8.68484 -16.5728,-8.98064 0,-0.85699 13.974,-16.368106 20.8201,-23.110275 l 6.2488,-6.153983 28.45,-1.739334 c 15.6475,-0.956633 29.283,-1.870038 30.301,-2.029789 l 1.8511,-0.29046 -0.3851,-7.836611 -0.385,-7.836616 26.7078,-9.067506 c 14.6893,-4.987125 26.9172,-9.248653 27.1733,-9.47006 0.256,-0.221407 0.1634,-0.967024 -0.2059,-1.656934 -1.3868,-2.591347 1.6747,-11.221276 7.9258,-22.341685 7.4811,-13.3084455 23.8085,-36.460215 36.6219,-51.928861 7.7673,-9.376761 18.5962,-20.189573 21.6078,-21.575563 2.1162,-0.973896 3.2001,-2.455019 1.7967,-2.455019 -0.3109,0 -14.6671,1.978915 -31.9026,4.397591 -17.2356,2.418675 -43.788,6.141686 -59.0054,8.273353 l -27.6681,3.875763 -21.3189,-3.303398 c -15.6601,-2.426553 -21.6835,-3.1648 -22.6923,-2.781261 -6.9039,2.624863 -12.6602,30.254806 -12.7534,61.215344 -0.023,7.671811 -0.1022,13.948764 -0.1757,13.948787 -0.073,1.6e-5 -1.2374,-1.677965 -2.5864,-3.728851 l -2.4527,-3.728883 -2.5235,-20.2579135 c -1.388,-11.1418485 -2.517,-21.8313145 -2.509,-23.7543685 0.01,-1.923049 0.7043,-8.503296 1.5473,-14.622764 l 1.5326,-11.126308 16.4267,-16.741212 16.4267,-16.741206 -0.3775,-4.725689 -0.3775,-4.725683 -15.1297,-19.597425 -15.1297,-19.59742 -2.7727,-0.17074 c -15.1246,-0.93134 -29.0023,-20.49708 -39.4391,-55.60401 -2.6423,-8.88793 -6.3533,-24.44709 -6.3599,-26.66487 0,-1.36608 1.982,-2.96367 5.5954,-4.50108 8.9757,-3.81893 25.5817,-4.6828 32.533,-1.69243 5.3664,2.30856 4.6423,-0.8479 10.1254,44.13762 3.7942,31.12938 5.0789,40.25329 5.7923,41.1374 0.5043,0.62486 9.7251,11.20067 20.4908,23.50181 15.3925,17.587926 19.8769,22.392374 20.9922,22.490524 0.7801,0.06865 9.6995,-0.925719 19.8209,-2.209709 l 18.4026,-2.334524 40.4309,2.143782 40.4309,2.143782 34.7104,14.613616 c 19.0907,8.037489 34.7938,14.530271 34.8956,14.428398 0.1019,-0.101868 0.367,-7.232156 0.5892,-15.845087 l 0.404,-15.659868 7.7897,-7.054934 c 4.2844,-3.88021 19.4603,-17.54342 33.7243,-30.36267 l 25.9346,-23.30774 20.9348,-28.55449 c 11.5142,-15.70497 21.3725,-28.71943 21.9074,-28.92102 1.8781,-0.70777 13.1388,-1.5195 25.994,-1.87378 25.8022,-0.71109 67.9127,1.70725 70.2391,4.03374 0.2639,0.26388 -0.7367,4.38072 -2.2565,9.28403 -8.6055,27.76431 -17.1026,48.10928 -22.4034,53.64151 l -2.3005,2.40093 -19.5678,0.0424 c -10.7622,0.0233 -35.3533,0.22714 -54.6468,0.45297 l -35.0792,0.41059 -30.4595,23.85618 -30.4596,23.856179 -0.3528,13.670224 c -0.1941,7.518623 -0.4084,15.007966 -0.4764,16.64299 l -0.1235,2.972771 14.0869,6.753958 14.0869,6.753958 0.1554,6.40999 0.1555,6.409983 1.778,0.290118 c 0.978,0.159564 22.6598,2.035849 48.182,4.169522 25.5221,2.133667 47.2389,4.018002 48.2595,4.187409 l 1.8556,0.308011 -0.398,7.835754 c -0.2188,4.309667 -0.4788,7.923546 -0.5775,8.030844 -0.099,0.107304 -22.3823,-1.574169 -49.5189,-3.736595 -27.1365,-2.162432 -49.7692,-3.928221 -50.2948,-3.923979 -0.6506,0.0055 -2.9428,3.357443 -7.1816,10.5028285 -3.4242,5.7723115 -6.5516,10.49556383 -6.9496,10.49611626 -0.398,5.5242e-4 -5.8874,-1.11765961 -12.1987,-2.48491686 -6.3112,-1.3672573 -11.8343,-2.4859223 -12.2735,-2.4859223 -0.4509,0 -1.4544,1.5054911 -2.3053,3.45861396 -1.3775,3.16201024 -2.3788,4.24485044 -11.6754,12.62662344 l -10.1687,9.168004 -17.3118,4.298342 c -9.5215,2.36409 -17.5013,4.46612 -17.733,4.671186 -0.4229,0.374435 -20.3444,53.758296 -20.132,53.947999 0.062,0.05568 13.4131,0.313862 29.6682,0.573729 l 29.5549,0.472491 -103.8563,19.285489 c -57.121,10.60701 -104.1049,19.33683 -104.4088,19.39958 -0.3038,0.0628 -8.0102,-3.68517 -17.1252,-8.32872 z"
         id="path17412"
         transform="scale(0.26458334)" />
      <path
         style="fill:#808080;fill-opacity:0;fill-rule:evenodd;stroke:none;stroke-width:10.1647;stroke-linejoin:round"
         d="m 2506.2511,113.6049 -15.0265,-7.71173 12.3474,-14.063886 12.3474,-14.06389 25.881,-1.42798 c 14.2346,-0.785397 27.8698,-1.62692 30.3005,-1.870076 3.3969,-0.339809 4.5762,-2.326669 5.0968,-8.587127 l 0.6774,-8.145053 26.944,-8.984719 c 25.7888,-8.599524 26.9532,-9.251808 27.1593,-15.214773 0.4205,-12.167518 36.1501,-64.685759 57.2213,-84.108476 5.6624,-5.219488 9.8488,-9.936609 9.3029,-10.482489 -0.5459,-0.545879 -27.2209,2.661846 -59.2777,7.12828 -58.0837,8.092722 -58.3615,8.109335 -80.3822,4.806479 -19.144,-2.871378 -22.5834,-2.893128 -25.7361,-0.162745 -5.2768,4.570146 -8.7843,20.66704 -10.1626,46.6397 -0.6646,12.5224413 -1.9382,21.968946 -2.8304,20.992233 -3.0385,-3.326584 -6.8419,-44.401509 -5.3403,-57.673433 1.4515,-12.829884 1.9862,-13.713379 17.8111,-29.432661 11.9926,-11.912621 16.3146,-17.737186 16.3146,-21.986699 0,-8.347649 -26.7294,-42.197045 -35.8549,-45.405575 -15.7646,-5.54291 -28.9911,-26.65039 -38.1535,-60.88737 -2.9686,-11.09283 -4.9357,-20.91599 -4.3713,-21.82925 0.5644,-0.91326 6.028,-2.86037 12.1413,-4.32693 11.3582,-2.72478 25.2425,-1.54118 27.6518,2.35723 0.7388,1.19536 3.5292,20.06201 6.2009,41.92589 l 4.8576,39.75251 15.4213,17.79509 c 8.4818,9.7873 17.9073,20.67209 20.9456,24.18842 l 5.5243,6.393328 19.8874,-2.670764 c 14.9264,-2.004535 30.0848,-2.101245 60.767,-0.387689 l 40.8796,2.283073 34.2504,14.627558 34.2505,14.627558 0.6388,-15.990416 0.6388,-15.990415 34.147,-30.522113 c 28.937,-25.86521 37.2682,-34.84932 54.6039,-58.8833 17.6976,-24.53568 21.4606,-28.55557 27.8974,-29.80229 10.7428,-2.08073 84.073,0.28425 86.5811,2.79234 3.2121,3.21209 -11.6293,45.57788 -20.5915,58.77979 l -4.1252,6.0767 -54.5398,0.0387 -54.5398,0.0387 -29.6527,23.169 c -16.309,12.74295 -29.8428,23.414989 -30.0751,23.715647 -0.2323,0.300657 -1.047,8.267923 -1.8103,17.705039 l -1.3878,17.158388 14.3377,7.070252 c 12.4846,6.156467 14.3377,7.860323 14.3377,13.183025 0,7.63809 -1.622,7.289223 55.6722,11.973687 l 45.7286,3.738829 -1.2994,6.843187 c -0.7146,3.763755 -1.4198,7.02363 -1.567,7.244168 -0.1472,0.220529 -22.6263,-1.403576 -49.9535,-3.60914 -27.3271,-2.205563 -49.7574,-3.877557 -49.8449,-3.715541 -7.9587,14.7286367 -12.9106,21.40801152 -15.2154,20.52353142 -1.5636,-0.60000222 -7.3564,-1.76774482 -12.8729,-2.59499352 -8.7838,-1.3172073 -10.3396,-0.9253376 -12.523,3.15427079 C 2742.4872,9.8762046 2724.9101,20.947751 2707.8912,24.98553 l -16.466,3.906632 -9.3913,25.891046 c -5.1652,14.24007 -9.3912,26.632338 -9.3912,27.538385 0,0.906024 5.7176,1.658275 12.7058,1.671666 6.9882,0.01326 16.6712,0.679044 21.5178,1.479268 7.1078,1.173576 -9.1312,4.79604 -83.9689,18.731173 -51.0295,9.50194 -94.7697,17.2395 -97.2004,17.19458 -2.4306,-0.0449 -11.1813,-3.55193 -19.4459,-7.79338 z"
         id="path18289"
         transform="scale(0.26458334)" />
      <path
         style="fill:#1a1a1a;fill-opacity:0;fill-rule:evenodd;stroke:none;stroke-width:10.1647;stroke-linejoin:round"
         d="m 2506.2511,113.6049 -15.0265,-7.71173 12.3474,-14.063886 12.3474,-14.06389 25.881,-1.42798 c 14.2346,-0.785397 27.8698,-1.62692 30.3005,-1.870076 3.3969,-0.339809 4.5762,-2.326669 5.0968,-8.587127 l 0.6774,-8.145053 26.944,-8.984719 c 25.7888,-8.599524 26.9532,-9.251808 27.1593,-15.214773 0.4205,-12.167518 36.1501,-64.685759 57.2213,-84.108476 5.6624,-5.219488 9.8488,-9.936609 9.3029,-10.482489 -0.5459,-0.545879 -27.2209,2.661846 -59.2777,7.12828 -58.0837,8.092722 -58.3615,8.109335 -80.3822,4.806479 -19.144,-2.871378 -22.5834,-2.893128 -25.7361,-0.162745 -5.2768,4.570146 -8.7843,20.66704 -10.1626,46.6397 -0.6646,12.5224413 -1.9382,21.968946 -2.8304,20.992233 -3.0385,-3.326584 -6.8419,-44.401509 -5.3403,-57.673433 1.4515,-12.829884 1.9862,-13.713379 17.8111,-29.432661 11.9926,-11.912621 16.3146,-17.737186 16.3146,-21.986699 0,-8.347649 -26.7294,-42.197045 -35.8549,-45.405575 -15.7646,-5.54291 -28.9911,-26.65039 -38.1535,-60.88737 -2.9686,-11.09283 -4.9357,-20.91599 -4.3713,-21.82925 0.5644,-0.91326 6.028,-2.86037 12.1413,-4.32693 11.3582,-2.72478 25.2425,-1.54118 27.6518,2.35723 0.7388,1.19536 3.5292,20.06201 6.2009,41.92589 l 4.8576,39.75251 15.4213,17.79509 c 8.4818,9.7873 17.9073,20.67209 20.9456,24.18842 l 5.5243,6.393328 19.8874,-2.670764 c 14.9264,-2.004535 30.0848,-2.101245 60.767,-0.387689 l 40.8796,2.283073 34.2504,14.627558 34.2505,14.627558 0.6388,-15.990416 0.6388,-15.990415 34.147,-30.522113 c 28.937,-25.86521 37.2682,-34.84932 54.6039,-58.8833 17.6976,-24.53568 21.4606,-28.55557 27.8974,-29.80229 10.7428,-2.08073 84.073,0.28425 86.5811,2.79234 3.2121,3.21209 -11.6293,45.57788 -20.5915,58.77979 l -4.1252,6.0767 -54.5398,0.0387 -54.5398,0.0387 -29.6527,23.169 c -16.309,12.74295 -29.8428,23.414989 -30.0751,23.715647 -0.2323,0.300657 -1.047,8.267923 -1.8103,17.705039 l -1.3878,17.158388 14.3377,7.070252 c 12.4846,6.156467 14.3377,7.860323 14.3377,13.183025 0,7.63809 -1.622,7.289223 55.6722,11.973687 l 45.7286,3.738829 -1.2994,6.843187 c -0.7146,3.763755 -1.4198,7.02363 -1.567,7.244168 -0.1472,0.220529 -22.6263,-1.403576 -49.9535,-3.60914 -27.3271,-2.205563 -49.7574,-3.877557 -49.8449,-3.715541 -7.9587,14.7286367 -12.9106,21.40801152 -15.2154,20.52353142 -1.5636,-0.60000222 -7.3564,-1.76774482 -12.8729,-2.59499352 -8.7838,-1.3172073 -10.3396,-0.9253376 -12.523,3.15427079 C 2742.4872,9.8762046 2724.9101,20.947751 2707.8912,24.98553 l -16.466,3.906632 -9.3913,25.891046 c -5.1652,14.24007 -9.3912,26.632338 -9.3912,27.538385 0,0.906024 5.7176,1.658275 12.7058,1.671666 6.9882,0.01326 16.6712,0.679044 21.5178,1.479268 7.1078,1.173576 -9.1312,4.79604 -83.9689,18.731173 -51.0295,9.50194 -94.7697,17.2395 -97.2004,17.19458 -2.4306,-0.0449 -11.1813,-3.55193 -19.4459,-7.79338 z"
         id="path18365"
         transform="scale(0.26458334)" />
      <path
         style="fill:#1a1a1a;fill-opacity:0;fill-rule:evenodd;stroke:none;stroke-width:10.1647;stroke-linejoin:round"
         d="m 2506.2511,113.6049 -15.0265,-7.71173 12.3474,-14.063886 12.3474,-14.06389 25.881,-1.42798 c 14.2346,-0.785397 27.8698,-1.62692 30.3005,-1.870076 3.3969,-0.339809 4.5762,-2.326669 5.0968,-8.587127 l 0.6774,-8.145053 26.944,-8.984719 c 25.7888,-8.599524 26.9532,-9.251808 27.1593,-15.214773 0.4205,-12.167518 36.1501,-64.685759 57.2213,-84.108476 5.6624,-5.219488 9.8488,-9.936609 9.3029,-10.482489 -0.5459,-0.545879 -27.2209,2.661846 -59.2777,7.12828 -58.0837,8.092722 -58.3615,8.109335 -80.3822,4.806479 -19.144,-2.871378 -22.5834,-2.893128 -25.7361,-0.162745 -5.2768,4.570146 -8.7843,20.66704 -10.1626,46.6397 -0.6646,12.5224413 -1.9382,21.968946 -2.8304,20.992233 -3.0385,-3.326584 -6.8419,-44.401509 -5.3403,-57.673433 1.4515,-12.829884 1.9862,-13.713379 17.8111,-29.432661 11.9926,-11.912621 16.3146,-17.737186 16.3146,-21.986699 0,-8.347649 -26.7294,-42.197045 -35.8549,-45.405575 -15.7646,-5.54291 -28.9911,-26.65039 -38.1535,-60.88737 -2.9686,-11.09283 -4.9357,-20.91599 -4.3713,-21.82925 0.5644,-0.91326 6.028,-2.86037 12.1413,-4.32693 11.3582,-2.72478 25.2425,-1.54118 27.6518,2.35723 0.7388,1.19536 3.5292,20.06201 6.2009,41.92589 l 4.8576,39.75251 15.4213,17.79509 c 8.4818,9.7873 17.9073,20.67209 20.9456,24.18842 l 5.5243,6.393328 19.8874,-2.670764 c 14.9264,-2.004535 30.0848,-2.101245 60.767,-0.387689 l 40.8796,2.283073 34.2504,14.627558 34.2505,14.627558 0.6388,-15.990416 0.6388,-15.990415 34.147,-30.522113 c 28.937,-25.86521 37.2682,-34.84932 54.6039,-58.8833 17.6976,-24.53568 21.4606,-28.55557 27.8974,-29.80229 10.7428,-2.08073 84.073,0.28425 86.5811,2.79234 3.2121,3.21209 -11.6293,45.57788 -20.5915,58.77979 l -4.1252,6.0767 -54.5398,0.0387 -54.5398,0.0387 -29.6527,23.169 c -16.309,12.74295 -29.8428,23.414989 -30.0751,23.715647 -0.2323,0.300657 -1.047,8.267923 -1.8103,17.705039 l -1.3878,17.158388 14.3377,7.070252 c 12.4846,6.156467 14.3377,7.860323 14.3377,13.183025 0,7.63809 -1.622,7.289223 55.6722,11.973687 l 45.7286,3.738829 -1.2994,6.843187 c -0.7146,3.763755 -1.4198,7.02363 -1.567,7.244168 -0.1472,0.220529 -22.6263,-1.403576 -49.9535,-3.60914 -27.3271,-2.205563 -49.7574,-3.877557 -49.8449,-3.715541 -7.9587,14.7286367 -12.9106,21.40801152 -15.2154,20.52353142 -1.5636,-0.60000222 -7.3564,-1.76774482 -12.8729,-2.59499352 -8.7838,-1.3172073 -10.3396,-0.9253376 -12.523,3.15427079 C 2742.4872,9.8762046 2724.9101,20.947751 2707.8912,24.98553 l -16.466,3.906632 -9.3913,25.891046 c -5.1652,14.24007 -9.3912,26.632338 -9.3912,27.538385 0,0.906024 5.7176,1.658275 12.7058,1.671666 6.9882,0.01326 16.6712,0.679044 21.5178,1.479268 7.1078,1.173576 -9.1312,4.79604 -83.9689,18.731173 -51.0295,9.50194 -94.7697,17.2395 -97.2004,17.19458 -2.4306,-0.0449 -11.1813,-3.55193 -19.4459,-7.79338 z"
         id="path18441"
         transform="scale(0.26458334)" />
      <path
         style="fill:url(#linearGradient66105);fill-opacity:1;fill-rule:evenodd;stroke:none;stroke-width:7.1875;stroke-linejoin:round"
         d="m 2507.4219,115.18027 c -8.8086,-4.44341 -15.9818,-8.79783 -15.9405,-9.67647 0.041,-0.87866 5.6134,-7.532487 12.3824,-14.7863 l 12.3073,-13.188766 28.6332,-1.947156 c 15.7483,-1.070937 29.4754,-1.991453 30.5047,-2.045609 1.1335,-0.05969 2.0577,-3.273969 2.3437,-8.151844 0.4615,-7.869469 0.615,-8.101234 6.7223,-10.149422 40.0425,-13.428922 47.294,-16.438687 46.5413,-19.317234 -2.4701,-9.445594 35.0421,-65.634594 58.4146,-87.498438 5.6167,-5.254156 9.9634,-9.753234 9.6594,-9.997969 -0.304,-0.244718 -27.2715,3.322797 -59.9278,7.927829 l -59.375,8.372781 -19.9441,-3.142094 c -10.9693,-1.728141 -21.3223,-3.142078 -23.0068,-3.142078 -6.8834,0 -12.2964,20.485391 -13.8311,52.34375 -1.3111,27.216328 -3.3813,25.513563 -7.3414,-6.0383281 -2.2647,-18.0429689 -2.4189,-23.7860629 -0.9228,-34.3652029 l 1.7963,-12.701875 16.3906,-16.441563 c 21.4012,-21.467748 21.3812,-20.057862 0.6622,-46.840431 -12.0299,-15.5506 -16.5682,-20.33135 -19.3002,-20.33135 -9.0586,0 -22.7668,-15.12978 -30.5164,-33.68103 -5.7106,-13.6704 -12.2629,-36.01109 -12.8902,-43.95048 -0.4636,-5.86744 -0.3469,-6.00591 7.3414,-8.70899 9.6874,-3.40593 27.664,-3.07141 31.3182,0.5828 1.7475,1.74746 3.8158,13.60563 7.4269,42.57967 l 5.0049,40.15771 20.3125,23.3737 c 23.1004,26.581764 19.5126,24.908504 45.3125,21.132687 11.7821,-1.724316 20.7349,-1.691208 55.2093,0.204166 l 41.1468,2.262217 34.6344,14.589884 34.6345,14.589885 1.0311,-16.091696 1.0312,-16.091695 6.7813,-6.179078 c 3.7298,-3.3985 18.7345,-16.91687 33.3439,-30.04083 24.6452,-22.13941 28.061,-25.90212 47.3233,-52.1294 11.4185,-15.54721 21.6138,-28.80968 22.6563,-29.47216 1.0425,-0.66248 18.4188,-1.15594 38.6142,-1.09659 35.3501,0.1039 53.4382,1.1992 55.6062,3.36714 1.5625,1.56254 -13.0648,43.33758 -18.813,53.72935 l -5.0637,9.15399 -25.6304,0.95572 c -14.0967,0.52564 -39.2022,1.05299 -55.79,1.17187 l -30.1596,0.21616 -30.3873,23.81991 -30.3872,23.819915 v 7.200883 c 0,3.960484 -0.4461,11.468273 -0.9912,16.683973 l -0.9912,9.483085 14.2724,7.168046 14.2725,7.168047 v 6.234328 c 0,3.428875 0.1757,6.296797 0.3906,6.373157 0.2148,0.07641 22.7491,2.102781 50.0761,4.503172 27.327,2.400375 49.9008,4.623046 50.1639,4.939281 0.2632,0.316219 0.053,3.750953 -0.4667,7.632719 l -0.9452,7.057765 -42.1875,-3.447015 c -23.2031,-1.89586 -45.8273,-3.489829 -50.276,-3.542141 l -8.0884,-0.09512 -4.7746,8.203125 c -2.626,4.5117187 -5.3625,9.0928594 -6.0811,10.1803281 -1.0442,1.58006252 -3.7874,1.46415627 -13.658,-0.577125 -11.8117,-2.4427187 -12.4214,-2.4294531 -13.9554,0.3035 -0.8822,1.5717969 -6.0442,7.1049375 -11.4711,12.2958749 -9.6758,9.255016 -10.2212,9.530906 -28.125,14.226391 l -18.2579,4.788344 -9.6861,25.680406 c -5.3273,14.124219 -9.7219,26.543094 -9.7656,27.597484 -0.059,1.428594 6.8628,2.025781 27.1667,2.34375 l 27.2462,0.426672 -100.2931,18.588775 C 2571.6944,113.96884 2525.8594,122.542 2525,122.7965 c -0.8594,0.25448 -8.7695,-3.17281 -17.5781,-7.61623 z"
         id="path39292"
         transform="scale(0.26458334)" />
      <path
         style="fill:url(#linearGradient65653);fill-opacity:1;fill-rule:evenodd;stroke:none;stroke-width:7.1875;stroke-linejoin:round"
         d="m 2315.599,419.30859 c 1.0917,-13.10586 1.5288,-14.26898 14.8297,-39.45998 7.5377,-14.27584 21.6126,-41.77331 31.2776,-61.10547 35.0551,-70.11837 59.7567,-114.54008 85.5614,-153.86814 17.6023,-26.82693 38.8923,-55.5 41.2093,-55.5 0.783,0 8.4292,3.51563 16.9918,7.8125 8.5625,4.29688 17.0184,7.8125 18.7908,7.8125 1.7725,0 43.0143,-7.41583 91.6486,-16.47962 48.6342,-9.063794 89.2392,-16.270826 90.2332,-16.015627 1.0049,0.25798 -14.1793,28.724027 -34.1983,64.111977 l -36.0056,63.64798 -130.1439,96.94029 -130.1439,96.9403 -29.1618,9.33359 c -16.039,5.13349 -29.8035,9.33361 -30.5878,9.33361 -0.8364,0 -0.9609,-5.58337 -0.3011,-13.50391 z"
         id="path39331"
         transform="scale(0.26458334)" />
      <path
         style="fill:url(#linearGradient67529);fill-opacity:1;fill-rule:evenodd;stroke:none;stroke-width:7.1875;stroke-linejoin:round"
         d="m 2620.2751,393.53922 c -8.3871,-11.3718 -15.3254,-21.42569 -15.4184,-22.34199 -0.2479,-2.44092 85.5818,-183.6289 86.8031,-183.24297 0.5691,0.17984 6.7833,7.61121 13.8093,16.51415 7.8834,9.98952 12.4899,17.1684 12.0312,18.75 -0.9298,3.20648 -80.6426,189.66345 -81.4129,190.43375 -0.3097,0.30968 -7.4252,-8.74113 -15.8123,-20.11294 z"
         id="path39409"
         transform="scale(0.26458334)" />
      <path
         style="fill:url(#linearGradient74442);fill-opacity:1;fill-rule:evenodd;stroke:none;stroke-width:7.1875;stroke-linejoin:round"
         d="m 2809.9501,295.38292 c -16.2837,-2.37098 -33.2337,-5.78019 -38.4649,-7.73654 l -9.3526,-3.49763 -0.9366,-8.87125 c -0.7967,-7.54666 0.017,-12.02083 5.4532,-29.965 12.1992,-40.27168 26.2826,-74.94169 35.8594,-88.27712 6.8142,-9.48858 11.1554,-10.49005 39.9929,-9.22577 28.7878,1.26211 49.7386,-0.9795 60.2329,-6.44456 4.082,-2.12577 10.7617,-5.62167 14.8437,-7.76866 19.8699,-10.45073 94.5031,-25.06859 159.0043,-31.14299 45.9642,-4.328678 61.0725,-4.785702 65.359,-1.9771 5.3448,3.50207 9.5046,10.82863 14.3518,25.27739 l 4.1841,12.47243 -5.9392,21.28654 -5.9393,21.28653 -81.3306,50.82374 -81.3307,50.82374 -72.6562,8.78578 c -39.961,4.83218 -73.0079,8.6966 -73.4375,8.58758 -0.4297,-0.10906 -13.8819,-2.1057 -29.8937,-4.43711 z"
         id="path39448"
         transform="scale(0.26458334)" />
      <path
         style="fill:url(#linearGradient75264);fill-opacity:1;fill-rule:evenodd;stroke:none;stroke-width:7.1875;stroke-linejoin:round"
         d="m 2709.7642,508.96259 c -15.2547,-17.39036 -27.7531,-32.32196 -27.7742,-33.18134 -0.029,-1.18809 50.3461,-28.57977 56.7365,-30.85058 2.0759,-0.73769 39.8534,-123.24842 42.2064,-136.87361 1.2175,-7.05001 2.4901,-13.0709 2.8279,-13.37975 0.3378,-0.30885 11.8642,1.09416 25.6142,3.1178 13.75,2.02364 28.5156,3.6988 32.8125,3.72257 4.2969,0.0238 36.6046,-3.48406 71.7949,-7.79518 35.1903,-4.31113 64.595,-7.6342 65.3438,-7.38461 0.7488,0.2496 -24.3654,20.03805 -55.8092,43.97434 -31.4438,23.9363 -57.5502,44.13473 -58.0141,44.8854 -0.4643,0.75123 8.2243,1.36487 19.3254,1.36487 11.0929,0 25.6116,0.46007 32.2637,1.02238 l 12.0948,1.02239 -48.8986,48.91715 c -26.8943,26.90444 -48.5306,49.28528 -48.0806,49.73522 0.4499,0.44994 54.9107,-27.54339 121.024,-62.20739 66.1132,-34.66399 120.4016,-62.87565 120.6407,-62.69257 0.2392,0.18309 -1.6944,12.36818 -4.2968,27.078 -2.6025,14.70981 -4.7317,27.40079 -4.7317,28.20218 0,1.19341 -72.9194,47.31653 -83.5938,52.87489 -1.7187,0.89498 -56.5625,19.03248 -121.875,40.30556 -65.3125,21.27308 -119.4531,38.92196 -120.3125,39.21972 -0.8594,0.29777 -14.0436,-13.68708 -29.2983,-31.07744 z"
         id="path39487"
         transform="scale(0.26458334)" />
      <path
         id="path39565"
         style="fill:url(#linearGradient75913);fill-opacity:1;fill-rule:evenodd;stroke:none;stroke-width:7.1875;stroke-linejoin:round"
         transform="scale(0.26458334)"
         d="m 3078.9063,343.52864 c 0,-1.08255 2.9242,-18.52639 6.4983,-38.76408 l 6.4983,-36.79581 50.1164,-40.91131 c 27.564,-22.50123 50.3331,-40.69467 50.5979,-40.42987 0.2647,0.26479 -2.7411,13.31373 -6.6797,28.99764 -3.9387,15.68391 -6.907,29.27884 -6.5963,30.21096 0.3107,0.93212 6.3177,2.51671 13.3488,3.52132 14.1002,2.01466 17.4663,3.84528 17.4663,9.49912 0,3.22711 -1.9367,4.67695 -13.1099,9.81456 -7.5869,3.48862 -34.519,20.49942 -63.93,40.3794 -60.316,40.76981 -54.2101,36.88645 -54.2101,34.47807 z M 2889.0625,421.875 2935.918,375 l -23.4278,-0.15453 c -12.8852,-0.085 -27.1204,-0.61233 -31.6336,-1.17188 l -8.2059,-1.01734 57.4247,-43.74045 c 54.3257,-41.38003 61.7671,-46.46158 137.8934,-94.16483 44.2578,-27.7334 81.2826,-51.64395 82.2774,-53.13454 0.9948,-1.4906 4.0616,-10.79612 6.8151,-20.67893 2.7536,-9.88281 5.6158,-18.72558 6.3606,-19.6506 1.7723,-2.20115 43.5001,-20.04203 44.5112,-19.03094 0.427,0.4271 -2.4603,13.71238 -6.4163,29.52285 l -7.1927,28.74631 -51.5962,42.15932 c -28.3778,23.18762 -52.1453,43.214 -52.8165,44.50306 -0.6713,1.28906 -4.2558,19.98638 -7.9657,41.54959 l -6.7452,39.20583 -115.2761,60.40355 c -63.4018,33.22194 -115.8253,60.40353 -116.4967,60.40353 -0.6714,0 19.8643,-21.09375 45.6348,-46.875 z" />
      <path
         style="fill:none;stroke:none;stroke-width:0.264583px;stroke-linecap:butt;stroke-linejoin:miter;stroke-opacity:1"
         d="m 824.96258,85.007733 6.30453,19.688717"
         id="path39676"
         sodipodi:nodetypes="cc" />
      <path
         style="fill:none;fill-opacity:0.0862745;fill-rule:evenodd;stroke:none;stroke-width:7.1875;stroke-linejoin:round"
         d="m 3107.0313,681.83649 c -7.2489,-1.4054 -19.4859,-5.68336 -26.9532,-9.42261 -4.082,-2.0441 -7.4218,-3.45154 -7.4218,-3.12766 0,1.96294 -34.2492,-30.59188 -34.3149,-32.61728 -0.041,-1.26161 -9.7735,-20.21056 -10.8086,-21.04394 -0.5336,-0.42969 -1.0835,-1.83594 -1.2218,-3.125 -0.1383,-1.28906 -1.7203,-7.90544 -3.5156,-14.70307 -4.3763,-16.57027 -4.4209,-40.53663 -0.1089,-58.52361 3.2534,-13.57103 14.1457,-36.47093 21.2815,-44.74207 4.3632,-5.05737 4.3325,-4.88846 -1.7947,9.86578 -15.7954,38.03483 -7.1175,69.25265 21.3842,76.92735 5.417,1.45865 5.8589,2.03934 6.8074,8.94589 2.6338,19.17763 8.834,31.98666 20.5659,42.4869 12.6201,11.29527 17.8196,13.23257 35.6317,13.27625 13.5274,0.0331 16.5689,-0.46389 22.6563,-3.70259 7.6911,-4.09203 27.1074,-22.99754 25.7967,-25.11819 -0.4489,-0.7264 -0.1542,-1.55657 0.6548,-1.84481 2.077,-0.73995 7.7313,-24.21352 7.728,-32.0823 0,-3.60703 0.8999,-8.17734 2.0031,-10.15625 9.2667,-16.6231 7.6471,-37.37442 -5.5538,-71.157 -5.5722,-14.26 -6.97,-24.00063 -4.0948,-28.53478 1.2085,-1.90562 3.4143,-0.44518 11.8002,7.8125 5.6727,5.58594 13.7869,15.42969 18.0317,21.875 4.2448,6.44531 8.2404,12.44935 8.8791,13.34231 0.6386,0.89296 1.4385,2.65077 1.7775,3.90625 0.3389,1.25548 2.0351,6.853 3.7692,12.43894 2.5391,8.17904 3.2342,15.32217 3.5701,36.69182 0.2294,14.59456 -0.1447,27.25081 -0.8312,28.125 -0.6866,0.87419 -2.1373,4.40193 -3.2238,7.83943 -1.0865,3.4375 -4.3684,11.33525 -7.293,17.55056 -2.9247,6.2153 -5.3885,11.8403 -5.4751,12.5 -0.087,0.65969 -6.5645,7.56075 -14.3951,15.33569 -15.6939,15.58242 -25.8771,22.12834 -42.3624,27.2312 -10.6751,3.30438 -34.5299,5.38639 -42.9687,3.75029 z"
         id="path40032"
         transform="scale(0.26458334)" />
      <g
         id="g5166"
         transform="matrix(1.1594742,0,0,1.1594742,-169.64719,-24.890342)"
         style="stroke:none">
        <ellipse
           style="fill:#666666;fill-rule:evenodd;stroke:none;stroke-width:1.20539;stroke-linejoin:round"
           id="ellipse4804"
           cx="868.29358"
           cy="147.55159"
           rx="5.7123952"
           ry="6.4311733" />
        <ellipse
           style="fill:#666666;fill-rule:evenodd;stroke:none;stroke-width:1.30994;stroke-linejoin:round"
           id="ellipse4844"
           cx="868.20837"
           cy="147.65614"
           rx="6.2119284"
           ry="6.9843664" />
        <ellipse
           style="fill:#333333;fill-rule:evenodd;stroke:none;stroke-width:1.2474;stroke-linejoin:round"
           id="ellipse4806"
           cx="868.20032"
           cy="147.61983"
           rx="5.9114351"
           ry="6.6552577" />
        <ellipse
           style="fill:#666666;fill-rule:evenodd;stroke:none;stroke-width:1.1643;stroke-linejoin:round"
           id="path4722"
           cx="868.24493"
           cy="147.62466"
           rx="5.5176544"
           ry="6.2119288" />
      </g>
      <path
         style="fill:url(#linearGradient67915);fill-opacity:1;fill-rule:evenodd;stroke:none;stroke-width:7.1875;stroke-linejoin:round"
         d="m 2544.5313,640.51664 c -15.0391,-2.42025 -27.799,-4.44065 -28.3553,-4.4898 -0.5563,-0.0491 -1.83,-4.83543 -2.8305,-10.63621 -4.1484,-24.05177 -14.6803,-48.57643 -29.8445,-69.49577 l -7.6195,-10.51139 21.8459,-34.22783 c 14.5211,-22.7514 21.5156,-35.0888 20.8606,-36.79565 -1.2849,-3.34838 -14.114,-10.84971 -16.7957,-9.82064 -1.1414,0.43801 -11.0473,14.92397 -22.0129,32.19102 -10.9657,17.26705 -20.1913,31.39463 -20.5013,31.39463 -0.31,0 -6.04,-3.72866 -12.7334,-8.28592 -13.4116,-9.13151 -32.1746,-17.55771 -45.1627,-20.28199 -4.6273,-0.97058 -8.4262,-2.49846 -8.4421,-3.39527 -0.016,-0.89681 3.6618,-14.92533 8.1724,-31.17448 l 8.2011,-29.54391 6.6222,-2.92929 c 26.4515,-11.70075 55.7143,-11.7327 77.6974,-0.0848 11.0611,5.86075 34.5762,29.80612 45.0968,45.92197 9.4682,14.50364 47.474,81.21454 58.4826,102.65345 8.8665,17.2672 9.1835,25.91914 1.3747,37.52295 -8.0465,11.95705 -21.6358,26.80991 -24.3253,26.58713 -1.3128,-0.10874 -14.6915,-2.17791 -29.7305,-4.59816 z"
         id="path67840"
         transform="scale(0.26458334)" />
      <path
         style="fill:url(#linearGradient68663);fill-opacity:1;fill-rule:evenodd;stroke:none;stroke-width:7.1875;stroke-linejoin:round"
         d="m 2618.75,651.46314 c -19.7656,-3.29395 -36.4906,-6.02537 -37.1666,-6.06983 -0.676,-0.0444 3.444,-5.43912 9.1556,-11.98817 18.4292,-21.13117 20.2821,-31.95414 9.2423,-53.98445 -3.1563,-6.29856 -6.305,-12.15506 -6.9969,-13.01444 -0.692,-0.85937 -10.8108,-18.62311 -22.4863,-39.47495 -26.9245,-48.08591 -37.362,-63.65121 -53.3021,-79.48819 -26.3068,-26.13668 -55.3904,-32.71844 -92.9102,-21.02602 -5.549,1.72927 -10.3242,2.90909 -10.6115,2.62182 -1.5409,-1.5409 43.7253,-32.06844 88.7416,-59.84734 56.0966,-34.6164 131.0799,-76.1048 133.343,-73.77886 0.3644,0.37457 -7.4414,17.69218 -17.3463,38.48357 l -18.0089,37.80254 16.5625,22.35371 c 9.1093,12.29455 16.5302,22.9451 16.4909,23.66789 -0.039,0.72279 1.0178,2.12904 2.3491,3.125 1.3313,0.99596 11.2124,13.76396 21.9579,28.37333 10.7455,14.60938 32.0273,43.36528 47.2928,63.902 15.2656,20.53672 28.1313,37.91091 28.5904,38.60931 0.4591,0.69839 49.8554,-14.17079 109.7696,-33.04262 59.9141,-18.87185 109.4456,-34.31244 110.0701,-34.31244 0.6244,0 -5.1781,6.35892 -12.8946,14.13094 -13.7715,13.87069 -15.2928,14.87073 -82.5971,54.29687 l -68.5671,40.16594 -16.4353,18.75 -16.4352,18.75 -45.4664,13.61903 c -25.0065,7.49046 -47.9272,13.56172 -50.935,13.49169 -3.0079,-0.07 -21.6407,-2.82239 -41.4063,-6.11633 z"
         id="path68391"
         transform="scale(0.26458334)" />
      <path
         style="fill:url(#linearGradient69007);fill-opacity:1;fill-rule:evenodd;stroke:none;stroke-width:7.1875;stroke-linejoin:round"
         d="m 2320.3125,742.95819 -4.6875,-3.85558 23.3627,-23.40217 c 12.8494,-12.8712 23.0448,-23.7179 22.6562,-24.10378 -0.3885,-0.38588 -6.1289,-1.45469 -12.7563,-2.37514 l -12.05,-1.67353 -19.9813,13.94607 c -17.8689,12.47168 -20.19,13.67344 -21.9555,11.36732 -1.0858,-1.41832 -1.7889,-3.07547 -1.5625,-3.68255 0.2264,-0.60709 8.4976,-7.00954 18.3805,-14.22766 l 17.9687,-13.12385 -0.4718,-21.94278 -0.4719,-21.94279 9.5989,-3.58971 c 5.2793,-1.97435 9.9543,-4.51633 10.3889,-5.64884 0.4346,-1.13252 -3.3838,-15.9642 -8.4853,-32.95929 l -9.2756,-30.90016 3.7934,-2.0754 c 2.0864,-1.14148 3.9794,-1.8446 4.2067,-1.5625 0.2273,0.28209 5.4977,14.92696 11.712,32.54415 6.2143,17.61719 11.4954,32.22846 11.7358,32.4695 0.2404,0.24103 4.9274,-1.46832 10.4155,-3.79855 5.4881,-2.33024 10.0963,-4.28596 10.2404,-4.34604 0.144,-0.0601 1.4442,-14.5226 2.8892,-32.13894 1.445,-17.61635 2.7333,-32.08442 2.863,-32.15128 0.1297,-0.0669 3.1043,0.47817 6.6102,1.21117 l 6.3743,1.33273 -6.6405,30.77765 c -6.1484,28.49727 -6.476,31.17117 -4.4212,36.08902 1.2206,2.92126 2.2193,6.32181 2.2193,7.55678 0,1.23498 -5.6466,11.07068 -12.5478,21.85712 -13.7303,21.4598 -13.4703,19.57001 -4.0919,29.74282 l 4.6172,5.00823 -4.1182,5.14802 c -2.2649,2.83141 -14.8529,16.20846 -27.9731,29.72677 L 2325,746.81375 Z"
         id="path68430"
         transform="scale(0.26458334)" />
      <path
         style="fill:url(#linearGradient69347);fill-opacity:1;fill-rule:evenodd;stroke:none;stroke-width:7.1875;stroke-linejoin:round"
         d="m 2410.0036,715.57828 c -13.2363,-14.68875 -24.2252,-27.19117 -24.4197,-27.78317 -0.1945,-0.592 0.9699,-2.79987 2.5876,-4.90638 l 2.9412,-3.83003 6.7874,6.06459 c 3.7331,3.33553 15.789,14.70457 26.7909,25.26453 21.6214,20.75282 21.5229,20.54108 13.1905,28.33285 l -3.8118,3.56442 z"
         id="path68469"
         transform="scale(0.26458334)" />
      <path
         style="fill:url(#linearGradient69593);fill-opacity:1;fill-rule:evenodd;stroke:none;stroke-width:7.1875;stroke-linejoin:round"
         d="m 3109.8634,646.23816 c -15.8143,-5.46657 -31.0185,-22.91908 -36.795,-41.6212 -3.3362,-10.80127 -4.8967,-22.0888 -2.9454,-22.0888 2.3467,0 84.7496,7.00689 90.6319,7.86607 5.2773,0.77083 8.3716,-4.68179 14.7533,-10.77892 l 11.785,-11.25955 -2.4729,21.16936 c -2.9664,25.39399 -16.2042,48.9499 -36.7413,55.04874 -10.0763,2.99234 -28.3914,5.06027 -38.2156,1.6643 z"
         id="path68508"
         transform="scale(0.26458334)"
         sodipodi:nodetypes="ssssscsss" />
      <path
         style="fill:url(#linearGradient73812);fill-opacity:1;fill-rule:evenodd;stroke:none;stroke-width:7.1875;stroke-linejoin:round"
         d="M 3222.1661,470.29111 3199.0198,450 h 7.1307 c 3.9219,0 7.1308,-0.56222 7.1308,-1.24939 0,-3.66198 -15.6115,-20.01976 -22.2657,-23.33001 -4.082,-2.0307 -7.4156,-4.53811 -7.4079,-5.57202 0.044,-5.93852 -8.3977,-37.03608 -10.0539,-37.03608 -1.0571,0 -8.1688,2.45239 -15.8038,5.44976 -7.6349,2.99736 -14.352,4.93095 -14.9267,4.29687 -0.5747,-0.63408 -5.9993,-16.62163 -12.0546,-35.52788 -8.4003,-26.22793 -10.5738,-34.79586 -9.1704,-36.15074 4.3799,-4.22872 60.7029,-41.44385 61.5066,-40.64018 0.4887,0.48871 18.2474,46.09159 39.4637,101.33974 l 38.5752,100.45118 -7.4697,4.29688 c -4.1083,2.36328 -7.6703,4.28725 -7.9156,4.27548 -0.2453,-0.0125 -10.8619,-9.15239 -23.5924,-20.3125 z"
         id="path69941"
         transform="scale(0.26458334)" />
      <path
         style="fill:url(#linearGradient79239);fill-opacity:1;fill-rule:evenodd;stroke:none;stroke-width:7.1875;stroke-linejoin:round"
         d="m 3166.1971,457.79921 c -17.9205,-9.4691 -47.9715,-12.0969 -70.996,-6.20821 -6.7816,1.73442 -13.1033,2.8568 -14.0483,2.49417 -1.7135,-0.65753 -12.4272,-27.24918 -11.3878,-28.26471 0.8277,-0.80865 101.5456,-39.88296 102.8023,-39.88296 0.6004,0 3.1014,9.14063 5.5577,20.3125 4.2855,19.4912 4.6254,20.3125 8.4064,20.3125 2.7759,0 6.7276,2.86628 13.3729,9.69967 9.2285,9.48975 9.3485,9.72309 5.5454,10.78175 -2.1379,0.59514 -10.0395,1.15217 -17.5591,1.23783 l -13.6718,0.15575 v 6.25 c 0,7.10847 -0.264,7.21085 -8.0217,3.11171 z"
         id="path69980"
         transform="scale(0.26458334)" />
      <path
         style="fill:url(#linearGradient78363);fill-opacity:1;fill-rule:evenodd;stroke:none;stroke-width:7.1875;stroke-linejoin:round"
         d="m 3108.5938,583.67604 c -49.063,-5.32301 -51.7247,-5.9924 -60.372,-15.18335 -8.5856,-9.12534 -10.6115,-14.74362 -10.6124,-29.43019 0,-18.72829 5.4607,-33.85787 20.3747,-56.44007 5.8369,-8.83812 8.4162,-11.17831 17.6941,-16.05369 l 10.8611,-5.70736 10.4046,6.36827 10.4045,6.36828 10.1481,-6.61176 10.1481,-6.61176 9.6152,1.93818 c 5.2884,1.066 12.2519,2.62604 15.4746,3.46677 l 5.8594,1.52859 v 8.54618 c 0,8.4711 0.053,8.56753 6.0752,10.977 5.4271,2.17149 6.6176,3.71207 11.1592,14.44047 5.5403,13.08732 10.88,29.38815 10.8439,33.1034 -0.016,1.69617 -0.7687,1.41281 -2.7225,-1.02555 -4.3695,-5.45348 -13.1899,-9.89983 -19.651,-9.90611 -23.2142,-0.0225 -35.4447,29.7899 -20.3503,49.60518 5.0297,6.6029 11.3421,9.76398 19.4975,9.76398 6.4708,0 6.5272,0.0471 3.7417,3.125 -3.4828,3.84849 -1.6118,3.9207 -58.5937,-2.26146 z"
         id="path70019"
         transform="scale(0.26458334)" />
      <path
         style="fill:url(#linearGradient78771);fill-opacity:1;fill-rule:evenodd;stroke:none;stroke-width:7.1875;stroke-linejoin:round"
         d="m 3108.914,682.5952 c -36.186,-5.24262 -68.53,-32.49915 -82.4935,-69.51801 -15.799,-41.88495 -8.477,-88.12613 19.3339,-122.10124 3.0076,-3.67417 5.7082,-6.44042 6.0014,-6.14722 0.2932,0.2932 -1.8583,5.05715 -4.7811,10.58655 -8.5646,16.20267 -12.1253,28.72787 -12.2003,42.91526 -0.069,12.97823 3.3007,24.05532 9.4259,30.98943 4.6216,5.23184 16.3837,11.93003 20.9494,11.93003 4.0354,0 4.3816,0.4713 4.3816,5.96641 0,13.91735 8.896,34.26184 19.7104,45.07628 20.9032,20.90315 55.1661,20.70901 76.3075,-0.43238 11.2375,-11.2375 18.5811,-29.87518 20.2493,-51.39156 0.3997,-5.15625 1.8998,-12.53906 3.3334,-16.40625 4.9439,-13.3357 0.2813,-39.50577 -11.8596,-66.56557 -3.9655,-8.83828 -4.4715,-11.4588 -3.6169,-18.7302 0.5465,-4.64983 1.6569,-8.45423 2.4677,-8.45423 0.8107,0 7.5952,6.15234 15.0766,13.67188 22.7589,22.87493 32.7872,46.39371 34.1697,80.13595 0.988,24.11543 -2.1317,38.60475 -13.1072,60.87566 -6.0885,12.35446 -9.5595,17.0694 -20.7253,28.15306 -14.7,14.59198 -25.5901,21.2335 -43.0994,26.28494 -13.6871,3.94875 -26.8313,5.00007 -39.5235,3.16121 z"
         id="path70058"
         transform="scale(0.26458334)" />
      <path
         style="fill:#333333;fill-opacity:1;fill-rule:evenodd;stroke:none;stroke-width:3.59375;stroke-linejoin:round"
         d="m 3165.1447,484.66051 -4.3865,-1.9554 -0.4963,-4.74841 c -0.2729,-2.61162 -0.4963,-6.63043 -0.4963,-8.93068 0,-2.30025 -0.1989,-4.18227 -0.442,-4.18227 -0.2432,0 -7.4595,-1.58939 -16.0364,-3.53198 -12.5847,-2.85031 -15.9143,-3.36077 -17.252,-2.64485 -0.9117,0.48792 -5.3304,3.30778 -9.8194,6.26635 -4.489,2.95858 -8.513,5.37923 -8.9423,5.37923 -1.412,0 -17.7969,-10.49338 -17.216,-11.02567 0.9232,-0.84603 9.3335,-3.07138 16.125,-4.26662 3.4746,-0.6115 10.7611,-1.1123 16.1921,-1.11289 15.6882,-0.002 28.8687,3.14141 43.0986,10.27756 5.9542,2.986 7.5779,4.13983 7.2892,5.17999 -0.2043,0.73604 -0.7908,4.94177 -1.3033,9.34607 -0.5124,4.4043 -1.1559,7.98467 -1.4298,7.95639 -0.2739,-0.0283 -2.472,-0.93135 -4.8846,-2.00682 z"
         id="path70097"
         transform="scale(0.26458334)" />
      <path
         style="fill:none;stroke:none;stroke-width:0.264583px;stroke-linecap:butt;stroke-linejoin:miter;stroke-opacity:1"
         d="m 788.78908,122.36979 -0.30258,3.81774"
         id="path70169" />
      <path
         style="fill:#4d4d4d;fill-opacity:1;fill-rule:evenodd;stroke:none;stroke-width:7.1875;stroke-linejoin:round"
         d="m 2692.9688,652.68297 c 0,-0.24313 14.51,-4.63766 32.2446,-9.76563 l 32.2446,-9.32359 16.5835,-18.8792 16.5835,-18.87921 67.475,-39.58671 67.4751,-39.58671 17.6034,-17.65353 c 9.6819,-9.70943 17.1718,-18.08522 16.6441,-18.61284 -0.5276,-0.52763 -48.3051,13.94728 -106.1722,32.16646 -57.8671,18.21919 -108.1353,34.00741 -111.7072,35.08494 l -6.4944,1.95915 -9.6425,-13.22349 c -9.5884,-13.14925 -12.139,-19.31919 -3.9254,-9.49548 2.3655,2.82927 6.6798,7.79175 9.5873,11.02775 l 5.2862,5.88363 119.7014,-39.08675 c 65.8357,-21.49772 120.3198,-39.08676 121.0759,-39.08676 0.756,0 1.3723,2.63672 1.3696,5.85938 0,5.66379 5.7054,28.06914 7.7686,30.48236 0.5575,0.65202 5.191,-0.52658 10.2968,-2.61909 7.249,-2.97087 9.2561,-4.51464 9.1592,-7.04487 -0.1018,-2.6595 0.8156,-3.24028 5.1183,-3.24028 h 5.2422 l -16.6435,20.70313 c -9.1539,11.38671 -17.2702,22.10937 -18.0363,23.82812 -0.766,1.71875 -5.9363,19.57545 -11.4896,39.68155 -5.5532,20.1061 -10.3456,36.80536 -10.6497,37.10946 -0.5613,0.56131 -262.1883,42.74024 -265.1086,42.74024 -0.8745,0 -1.5899,-0.19892 -1.5899,-0.44203 z"
         id="path70325"
         transform="scale(0.26458334)" />
      <path
         style="fill:#fffca0;fill-opacity:1;fill-rule:evenodd;stroke:none;stroke-width:7.1875;stroke-linejoin:round"
         d="m 2985.9872,491.34583 c -1.3459,-4.62959 -2.8594,-9.49197 -3.3634,-10.80528 -0.6623,-1.72607 1.1132,-3.25777 6.4064,-5.5267 4.0274,-1.72637 7.5397,-3.13885 7.805,-3.13885 0.2652,0 0.9689,1.93359 1.5636,4.29688 l 1.0812,4.29687 3.6272,-4.2114 c 1.9949,-2.31627 4.6969,-5.73875 6.0044,-7.60551 1.7877,-2.55223 8.3162,-5.06145 26.3204,-10.11619 30.5159,-8.56744 36.2961,-9.67799 35.3622,-6.79407 -0.3856,1.19057 -11.9017,9.30807 -25.5914,18.03889 -21.4711,13.69359 -26.0979,16.02569 -33.6813,16.97683 -7.2655,0.91125 -8.669,1.56922 -8.0879,3.79144 0.5276,2.01747 -1.2572,3.50353 -7.1481,5.95168 l -7.8513,3.26284 z"
         id="path70401"
         transform="scale(0.26458334)" />
      <path
         id="path71592"
         style="fill:url(#linearGradient72146);fill-opacity:1;fill-rule:evenodd;stroke:none;stroke-width:1.79688;stroke-linejoin:round"
         transform="scale(0.26458334)"
         d="m 2448.0664,395.36201 c 0.2041,-0.18762 23.9258,-14.17865 52.7149,-31.09117 28.789,-16.91253 52.9603,-31.1474 53.7139,-31.63305 1.2299,-0.79259 2.128,-2.51383 8.7717,-16.81247 4.0708,-8.76122 7.4531,-15.77421 7.5163,-15.58443 0.063,0.18978 -2.2245,5.4427 -5.0835,11.67317 -7.9415,17.30625 -9.0849,20.0523 -8.5658,20.57142 0.3339,0.3339 2.4352,-0.6904 8.3747,-4.0824 7.8099,-4.4602 9.2961,-5.23667 9.2961,-4.85699 0,0.10569 -2.417,1.56265 -5.3711,3.23769 -26.2514,14.88508 -64.7432,38.02184 -92.4071,55.54423 -4.901,3.10434 -8.9826,5.57267 -9.0701,5.48519 -0.088,-0.0875 2.2526,-1.85882 5.2001,-3.93628 6.6964,-4.71974 6.9254,-4.90177 6.5892,-5.23797 -0.4784,-0.47844 -7.9704,3.50866 -23.7344,12.6311 -6.9061,3.99645 -9.0323,5.09158 -7.9449,4.09196 z m -135.7189,53.64573 c 0.6035,-5.89957 1.5878,-11.18562 2.1873,-11.74679 0.5996,-0.56117 14.8011,-5.39857 31.559,-10.7498 25.0184,-7.98907 34.6222,-10.26304 53.6883,-12.7122 l 23.2196,-2.9827 28.0908,-16.46748 c 15.45,-9.05712 28.3906,-16.16775 28.7569,-15.80141 0.3664,0.36633 -9.0066,6.92051 -20.8288,14.56482 -23.5914,15.25428 -44.3482,30.24294 -49.4742,35.72575 -2.4755,2.64774 -14.3863,6.71666 -47.8276,16.33863 -24.4922,7.04705 -45.8671,13.20542 -47.4998,13.68525 -2.7841,0.81822 -2.9004,0.20593 -1.8715,-9.85407 z m 244.6838,-117.08693 c 0,-0.59186 7.7629,-17.7365 17.2509,-38.09918 l 17.2509,-37.0231 23.1676,-17.07114 23.1676,-17.07114 36.4418,-64.45221 c 20.043,-35.44872 36.8834,-65.166626 37.423,-66.039793 0.8878,-1.436485 23.5826,-6.588171 24.589,-5.581686 0.233,0.232911 -14.2108,30.593209 -32.0972,67.467329 -17.8863,36.87412 -39.865,82.78125 -48.8415,102.01583 -11.7275,25.1293 -17.1846,35.2097 -19.3898,35.81659 -7.2177,1.98644 -50.2457,24.34964 -77.7905,40.43047 -0.6445,0.37628 -1.1718,0.19989 -1.1718,-0.39197 z" />
      <path
         style="fill:#4d4d4d;fill-opacity:1;fill-rule:evenodd;stroke:none;stroke-width:1.27058;stroke-linejoin:round"
         d="m 2891.8432,-14.01784 c 0.014,-0.873525 0.2312,-4.509186 0.4833,-8.079247 l 0.4584,-6.491019 1.2541,0.01373 c 2.2286,0.0244 4.6187,1.132309 6.4919,3.009248 1.8234,1.827009 2.34,3.001429 2.3297,5.295474 -0.019,4.214525 -4.4806,7.80627 -9.7304,7.833288 l -1.3121,0.0068 z"
         id="path72686"
         transform="scale(0.26458334)" />
      <path
         id="path72994"
         style="fill:url(#linearGradient73502);fill-opacity:1;fill-rule:evenodd;stroke:none;stroke-width:5.08233;stroke-linejoin:round"
         transform="scale(0.26458334)"
         d="m 2467.4008,537.22302 -6.2783,-6.34454 20.1339,-31.72857 c 20.7472,-32.69515 21.2565,-33.28109 26.5594,-30.55667 2.8767,1.47795 8.49,6.57487 8.49,7.70903 0,0.7447 -40.2874,64.63682 -41.8984,66.44705 -0.4005,0.45004 -3.5535,-2.03679 -7.0066,-5.5263 z m -23.1822,35.36775 -5.1604,-5.24806 9.517,-15.28407 9.5171,-15.28407 6.1396,6.13966 6.1397,6.13965 -2.8829,3.06772 c -1.5856,1.68724 -6.2031,8.16385 -10.2611,14.39247 -4.058,6.22861 -7.484,11.32475 -7.6134,11.32475 -0.1293,0 -2.5574,-2.36162 -5.3956,-5.24805 z m -67.0554,106.87075 c -3.1921,-3.67002 -5.5659,-7.27905 -5.275,-8.02006 0.52,-1.3247 61.3118,-97.00522 62.2384,-97.95732 0.5373,-0.55206 12.5734,11.08295 12.5734,12.15438 0,0.53023 -62.3114,98.89733 -63.4786,100.20968 -0.14,0.15734 -2.8662,-2.71666 -6.0582,-6.38668 z" />
      <path
         style="fill:#ff0000;fill-rule:nonzero;stroke:none;stroke-width:0.264583px;stroke-linecap:butt;stroke-linejoin:miter;stroke-opacity:1"
         d="m 833.7139,54.080319 c -3.84473,2.335522 -14.71983,9.059079 -23.06836,14.013133 -4.23215,2.511376 -8.81149,5.170439 -13.50716,7.879871 -2.01989,3.400787 -4.11881,6.88871 -6.08338,10.236487 -2.00515,3.416926 -4.07831,6.958532 -6.08866,10.400526 l 0.008,-0.01804 c -0.0706,0.154629 -0.13085,0.307711 -0.18085,0.456889 -0.11868,0.354096 -0.16408,0.679405 -0.19038,0.880048 0.004,-0.150862 0.0481,-0.580393 0.0986,-0.902398 0.0249,-0.158612 0.0544,-0.322187 0.0904,-0.494081 a 0.00630924,0.036865 33.715807 0 1 0.008,-0.01804 c 1.96565,-3.46772 3.98586,-7.039795 5.93245,-10.49042 1.92289,-3.408628 3.90034,-7.006915 5.84082,-10.488733 a 0.31852065,0.37360164 85.195471 0 1 0.1278,-0.128942 c 4.6803,-2.79756 9.25994,-5.518066 13.53818,-8.004715 8.39303,-4.878291 19.56209,-11.101314 23.47451,-13.321577 z"
         id="path76732"
         sodipodi:nodetypes="cccc"
         inkscape:path-effect="#path-effect77466"
         inkscape:original-d="m 833.7139,54.080319 -36.83307,21.63213 -11.99759,20.850072 c -0.14469,0.442915 -0.2437,0.901785 -0.2801,1.366708" />
      <path
         style="fill:#f7e8dd;fill-opacity:1;fill-rule:evenodd;stroke:none;stroke-width:0.158823;stroke-linejoin:round"
         d="m 2473.5389,-22.865106 c 0.012,-0.365661 0.033,-1.15727 0.045,-1.75913 0.013,-0.60186 0.033,-1.110097 0.045,-1.129416 0.012,-0.01932 1.0932,-0.144524 2.4028,-0.278234 15.3271,-1.564865 35.3158,-3.59004 35.3267,-3.579149 0.01,0.0076 -0.029,0.807898 -0.082,1.778421 l -0.096,1.764586 -0.1048,0.017 c -0.058,0.0094 -8.4871,0.871642 -18.732,1.916201 -10.245,1.044559 -18.6723,1.907154 -18.7275,1.916878 l -0.1002,0.01768 z"
         id="path79767"
         transform="scale(0.26458334)" />
      <path
         style="fill:#fff3ec;fill-opacity:1;fill-rule:evenodd;stroke:none;stroke-width:0.635291;stroke-linejoin:round"
         d="m 2782.3231,8.2706154 c -17.9512,-3.1682047 -32.655,-5.7813813 -32.6752,-5.8070594 -0.02,-0.025678 0.5093,-1.2896483 1.1766,-2.80882298 0.752,-1.71188302 1.282,-2.75167242 1.3941,-2.73461732 0.099,0.015135 5.7741,1.2382625 12.6104,2.71806066 11.3831,2.46403094 14.1329,3.00094204 32.6622,6.37752714 11.128,2.0278417 20.278,3.7275467 20.3335,3.7771225 0.055,0.049576 -0.566,1.023443 -1.3811,2.164149 l -1.4819,2.074012 z"
         id="path79806"
         transform="scale(0.26458334)" />
    </g>
  </g>
</svg>
