<?xml version="1.0" encoding="UTF-8" standalone="no"?>
<!-- Created with Inkscape (http://www.inkscape.org/) -->

<svg
   width="1920"
   height="1080"
   viewBox="0 0 507.99999 285.75001"
   version="1.1"
   id="svg5"
   inkscape:version="1.1.2 (b8e25be833, 2022-02-05)"
   sodipodi:docname="stapler.svg"
   inkscape:export-filename="C:\Users\eric\Desktop\myprogrammingwork\mypicturework\stapler.png"
   inkscape:export-xdpi="96"
   inkscape:export-ydpi="96"
   xmlns:inkscape="http://www.inkscape.org/namespaces/inkscape"
   xmlns:sodipodi="http://sodipodi.sourceforge.net/DTD/sodipodi-0.dtd"
   xmlns:xlink="http://www.w3.org/1999/xlink"
   xmlns="http://www.w3.org/2000/svg"
   xmlns:svg="http://www.w3.org/2000/svg">
  <sodipodi:namedview
     id="namedview7"
     pagecolor="#ffffff"
     bordercolor="#666666"
     borderopacity="1.0"
     inkscape:pageshadow="2"
     inkscape:pageopacity="0.0"
     inkscape:pagecheckerboard="0"
     inkscape:document-units="px"
     showgrid="false"
     units="px"
     inkscape:zoom="0.72337264"
     inkscape:cx="698.11874"
     inkscape:cy="427.85693"
     inkscape:window-width="1920"
     inkscape:window-height="1001"
     inkscape:window-x="-9"
     inkscape:window-y="-9"
     inkscape:window-maximized="1"
     inkscape:current-layer="layer1" />
  <defs
     id="defs2">
    <linearGradient
       inkscape:collect="always"
       id="linearGradient59974">
      <stop
         style="stop-color:#999999;stop-opacity:1"
         offset="0"
         id="stop59970" />
      <stop
         style="stop-color:#666666;stop-opacity:1"
         offset="1"
         id="stop59972" />
    </linearGradient>
    <linearGradient
       inkscape:collect="always"
       id="linearGradient50417">
      <stop
         style="stop-color:#e6e6e6;stop-opacity:1"
         offset="0"
         id="stop50413" />
      <stop
         style="stop-color:#808080;stop-opacity:1"
         offset="1"
         id="stop50415" />
    </linearGradient>
    <linearGradient
       inkscape:collect="always"
       id="linearGradient23009">
      <stop
         style="stop-color:#b3b3b3;stop-opacity:1"
         offset="0"
         id="stop23005" />
      <stop
         style="stop-color:#4d4d4d;stop-opacity:1"
         offset="1"
         id="stop23007" />
    </linearGradient>
    <linearGradient
       inkscape:collect="always"
       id="linearGradient18753">
      <stop
         style="stop-color:#b3b3b3;stop-opacity:1"
         offset="0"
         id="stop18749" />
      <stop
         style="stop-color:#4d4d4d;stop-opacity:1"
         offset="1"
         id="stop18751" />
    </linearGradient>
    <inkscape:path-effect
       effect="knot"
       id="path-effect1000"
       is_visible="true"
       lpeversion="1"
       switcher_size="25"
       interruption_width="5"
       prop_to_stroke_width="true"
       add_stroke_width="inkscape_1.0_and_up"
       both="false"
       inverse_width="false"
       add_other_stroke_width="inkscape_1.0_and_up"
       crossing_points_vector="" />
    <inkscape:path-effect
       effect="gears"
       id="path-effect846"
       is_visible="true"
       lpeversion="1"
       teeth="5"
       phi="5"
       min_radius="5" />
    <linearGradient
       inkscape:collect="always"
       xlink:href="#linearGradient18753"
       id="linearGradient19357"
       gradientUnits="userSpaceOnUse"
       gradientTransform="matrix(0.75668848,0,0,0.757117,121.0585,77.038316)"
       x1="43.318197"
       y1="71.382954"
       x2="46.427753"
       y2="71.382954" />
    <linearGradient
       inkscape:collect="always"
       xlink:href="#linearGradient18753"
       id="linearGradient19361"
       gradientUnits="userSpaceOnUse"
       gradientTransform="matrix(0.75407615,0,0,0.75242355,136.34714,79.726712)"
       x1="43.318197"
       y1="71.382954"
       x2="46.427753"
       y2="71.382954" />
    <linearGradient
       inkscape:collect="always"
       xlink:href="#linearGradient18753"
       id="linearGradient19365"
       gradientUnits="userSpaceOnUse"
       gradientTransform="matrix(0.75407625,0,0,0.75356838,121.28649,79.955875)"
       x1="43.318197"
       y1="71.382954"
       x2="46.427753"
       y2="71.382954" />
    <linearGradient
       inkscape:collect="always"
       xlink:href="#linearGradient18753"
       id="linearGradient19369"
       gradientUnits="userSpaceOnUse"
       gradientTransform="matrix(0.75407505,0,0,0.7412112,127.71375,80.721345)"
       x1="43.318197"
       y1="71.382954"
       x2="46.427753"
       y2="71.382954" />
    <linearGradient
       inkscape:collect="always"
       xlink:href="#linearGradient18753"
       id="linearGradient19373"
       gradientUnits="userSpaceOnUse"
       gradientTransform="matrix(0.75407573,0,0,0.74821114,123.42184,80.304481)"
       x1="43.318197"
       y1="71.382954"
       x2="46.427753"
       y2="71.382954" />
    <linearGradient
       inkscape:collect="always"
       xlink:href="#linearGradient18753"
       id="linearGradient19377"
       gradientUnits="userSpaceOnUse"
       gradientTransform="matrix(0.75407477,0,0,0.73802902,129.86,80.930044)"
       x1="43.318197"
       y1="71.382954"
       x2="46.427753"
       y2="71.382954" />
    <linearGradient
       inkscape:collect="always"
       xlink:href="#linearGradient18753"
       id="linearGradient19381"
       gradientUnits="userSpaceOnUse"
       gradientTransform="matrix(0.75407406,0,0,0.73053176,131.99776,81.419374)"
       x1="43.318197"
       y1="71.382954"
       x2="46.427753"
       y2="71.382954" />
    <linearGradient
       inkscape:collect="always"
       xlink:href="#linearGradient18753"
       id="linearGradient19385"
       gradientUnits="userSpaceOnUse"
       gradientTransform="matrix(0.75407375,0,0,0.72722077,134.14356,81.635987)"
       x1="43.318197"
       y1="71.382954"
       x2="46.427753"
       y2="71.382954" />
    <linearGradient
       inkscape:collect="always"
       xlink:href="#linearGradient18753"
       id="linearGradient19389"
       gradientUnits="userSpaceOnUse"
       gradientTransform="matrix(0.75407843,0,0,0.77572567,125.62719,78.203315)"
       x1="43.318197"
       y1="71.382954"
       x2="46.427753"
       y2="71.382954" />
    <linearGradient
       inkscape:collect="always"
       xlink:href="#linearGradient18753"
       id="linearGradient19393"
       gradientUnits="userSpaceOnUse"
       gradientTransform="matrix(0.75407314,0,0,0.72074771,138.43574,82.020135)"
       x1="43.318197"
       y1="71.382954"
       x2="46.427753"
       y2="71.382954" />
    <linearGradient
       inkscape:collect="always"
       xlink:href="#linearGradient18753"
       id="linearGradient19397"
       gradientUnits="userSpaceOnUse"
       gradientTransform="matrix(0.75407237,0,0,0.71236805,140.57029,82.627788)"
       x1="43.318197"
       y1="71.382954"
       x2="46.427753"
       y2="71.382954" />
    <linearGradient
       inkscape:collect="always"
       xlink:href="#linearGradient18753"
       id="linearGradient19401"
       gradientUnits="userSpaceOnUse"
       gradientTransform="matrix(0.75407142,0,0,0.70197441,142.70116,83.276278)"
       x1="43.318197"
       y1="71.382954"
       x2="46.427753"
       y2="71.382954" />
    <linearGradient
       inkscape:collect="always"
       xlink:href="#linearGradient18753"
       id="linearGradient19405"
       gradientUnits="userSpaceOnUse"
       gradientTransform="matrix(0.75407073,0,0,0.69425238,144.83693,83.777691)"
       x1="43.318197"
       y1="71.382954"
       x2="46.427753"
       y2="71.382954" />
    <linearGradient
       inkscape:collect="always"
       xlink:href="#linearGradient18753"
       id="linearGradient19409"
       gradientUnits="userSpaceOnUse"
       gradientTransform="matrix(0.75407073,0,0,0.69425238,146.98928,83.777691)"
       x1="43.318197"
       y1="71.382954"
       x2="46.427753"
       y2="71.382954" />
    <linearGradient
       inkscape:collect="always"
       xlink:href="#linearGradient18753"
       id="linearGradient19413"
       gradientUnits="userSpaceOnUse"
       gradientTransform="matrix(0.75407333,0,0,0.72274553,151.35501,81.792374)"
       x1="43.318197"
       y1="71.382954"
       x2="46.427753"
       y2="71.382954" />
    <linearGradient
       inkscape:collect="always"
       xlink:href="#linearGradient18753"
       id="linearGradient19417"
       gradientUnits="userSpaceOnUse"
       gradientTransform="matrix(0.75407333,0,0,0.72274553,153.38779,81.792374)"
       x1="43.318197"
       y1="71.382954"
       x2="46.427753"
       y2="71.382954" />
    <linearGradient
       inkscape:collect="always"
       xlink:href="#linearGradient18753"
       id="linearGradient19421"
       gradientUnits="userSpaceOnUse"
       gradientTransform="matrix(0.75407333,0,0,0.72274553,149.20266,81.792374)"
       x1="43.318197"
       y1="71.382954"
       x2="46.427753"
       y2="71.382954" />
    <linearGradient
       inkscape:collect="always"
       xlink:href="#linearGradient18753"
       id="linearGradient19505"
       gradientUnits="userSpaceOnUse"
       gradientTransform="matrix(0.75654893,0,0,0.75587621,118.91128,77.185887)"
       x1="43.318197"
       y1="71.382954"
       x2="46.427753"
       y2="71.382954" />
    <linearGradient
       inkscape:collect="always"
       xlink:href="#linearGradient23009"
       id="linearGradient23011"
       x1="563.29236"
       y1="499.99832"
       x2="571.11249"
       y2="499.87613"
       gradientUnits="userSpaceOnUse"
       gradientTransform="matrix(0.31748224,0,0,0.29381273,-30.167204,-14.605289)" />
    <linearGradient
       inkscape:collect="always"
       xlink:href="#linearGradient50417"
       id="linearGradient50419"
       x1="365.92295"
       y1="501.01214"
       x2="966.99156"
       y2="501.01214"
       gradientUnits="userSpaceOnUse" />
    <linearGradient
       inkscape:collect="always"
       xlink:href="#linearGradient59974"
       id="linearGradient59840"
       x1="559.63354"
       y1="646.05206"
       x2="1119.9865"
       y2="565.49182"
       gradientUnits="userSpaceOnUse" />
  </defs>
  <g
     inkscape:label="圖層 1"
     inkscape:groupmode="layer"
     id="layer1">
    <g
       id="g64012">
      <rect
         style="fill:#ffffff;fill-opacity:1;fill-rule:evenodd;stroke:none;stroke-width:1.21708;stroke-linecap:butt;stroke-linejoin:round;stroke-miterlimit:4;stroke-dasharray:none;stroke-opacity:1"
         id="rect63867"
         width="228.23645"
         height="116.31281"
         x="89.977837"
         y="71.323891" />
      <circle
         style="fill:#bab7b7;fill-opacity:1;fill-rule:evenodd;stroke-width:0.615513"
         id="path16419"
         cx="109.20299"
         cy="134.80775"
         r="2.6458333" />
      <circle
         style="fill:#4d4d4d;fill-opacity:0.75100404;fill-rule:evenodd;stroke-width:1.21708334;stroke-miterlimit:4;stroke-dasharray:none;stroke:none;stroke-opacity:1"
         id="circle16862"
         cx="274.08209"
         cy="143.47198"
         r="3.4217348" />
      <g
         id="g31827">
        <ellipse
           style="fill:#ffaaaa;fill-opacity:0.623529;fill-rule:evenodd;stroke-width:1.25378"
           id="ellipse3031"
           cx="144.37115"
           cy="163.38634"
           rx="3.6743405"
           ry="3.0336251" />
        <ellipse
           style="fill:#ff006c;fill-opacity:1;fill-rule:evenodd;stroke-width:1.1984"
           id="path2949"
           cx="144.35643"
           cy="163.17273"
           rx="3.6301532"
           ry="2.8053243" />
      </g>
      <rect
         style="fill:url(#linearGradient19357);fill-opacity:1;fill-rule:evenodd;stroke:#000000;stroke-width:0.100133;stroke-linecap:butt;stroke-linejoin:round;stroke-miterlimit:4;stroke-dasharray:none;stroke-opacity:1"
         id="use19167"
         width="2.1527579"
         height="6.2661152"
         x="153.93698"
         y="127.95049"
         ry="0"
         transform="matrix(0.99997382,0.00723551,-0.00505943,0.9999872,0,0)" />
      <rect
         style="fill:url(#linearGradient19361);fill-opacity:1;fill-rule:evenodd;stroke:#000000;stroke-width:0.0996493;stroke-linecap:butt;stroke-linejoin:round;stroke-miterlimit:4;stroke-dasharray:none;stroke-opacity:1"
         id="use19165"
         width="2.1453261"
         height="6.2272716"
         x="169.11212"
         y="130.32326"
         ry="0"
         transform="matrix(0.99995179,-0.00981955,0.01071564,0.99994259,0,0)" />
      <rect
         style="fill:url(#linearGradient19365);fill-opacity:1;fill-rule:evenodd;stroke:#000000;stroke-width:0.099725;stroke-linecap:butt;stroke-linejoin:round;stroke-miterlimit:4;stroke-dasharray:none;stroke-opacity:1"
         id="use19169"
         width="2.1453264"
         height="6.2367458"
         x="154.05147"
         y="130.62939"
         ry="0"
         transform="matrix(0.99995164,-0.0098345,0.01069936,0.99994276,0,0)" />
      <rect
         style="fill:url(#linearGradient19369);fill-opacity:1;fill-rule:evenodd;stroke:#000000;stroke-width:0.0989041;stroke-linecap:butt;stroke-linejoin:round;stroke-miterlimit:4;stroke-dasharray:none;stroke-opacity:1"
         id="use19171"
         width="2.145323"
         height="6.1344743"
         x="160.47867"
         y="130.56392"
         ry="0"
         transform="matrix(0.99995321,-0.00967323,0.01087774,0.99994084,0,0)" />
      <rect
         style="fill:url(#linearGradient19373);fill-opacity:1;fill-rule:evenodd;stroke:#000000;stroke-width:0.0993699;stroke-linecap:butt;stroke-linejoin:round;stroke-miterlimit:4;stroke-dasharray:none;stroke-opacity:1"
         id="use19173"
         width="2.1453249"
         height="6.1924076"
         x="156.1868"
         y="130.61777"
         ry="0"
         transform="matrix(0.99995233,-0.00976458,0.01077597,0.99994194,0,0)" />
      <rect
         style="fill:url(#linearGradient19377);fill-opacity:1;fill-rule:evenodd;stroke:#000000;stroke-width:0.0986914;stroke-linecap:butt;stroke-linejoin:round;stroke-miterlimit:4;stroke-dasharray:none;stroke-opacity:1"
         id="use19175"
         width="2.1453221"
         height="6.1081381"
         x="162.62491"
         y="130.55864"
         ry="0"
         transform="matrix(0.99995361,-0.00963169,0.01092464,0.99994032,0,0)" />
      <rect
         style="fill:url(#linearGradient19381);fill-opacity:1;fill-rule:evenodd;stroke:#000000;stroke-width:0.0981888;stroke-linecap:butt;stroke-linejoin:round;stroke-miterlimit:4;stroke-dasharray:none;stroke-opacity:1"
         id="use19177"
         width="2.1453202"
         height="6.0460882"
         x="164.76262"
         y="130.54382"
         ry="0"
         transform="matrix(0.99995455,-0.00953385,0.01103675,0.99993909,0,0)" />
      <rect
         style="fill:url(#linearGradient19385);fill-opacity:1;fill-rule:evenodd;stroke:#000000;stroke-width:0.097966;stroke-linecap:butt;stroke-linejoin:round;stroke-miterlimit:4;stroke-dasharray:none;stroke-opacity:1"
         id="use19179"
         width="2.145319"
         height="6.0186858"
         x="166.90842"
         y="130.5378"
         ry="0"
         transform="matrix(0.99995496,-0.00949064,0.01108701,0.99993854,0,0)" />
      <rect
         style="fill:url(#linearGradient19389);fill-opacity:1;fill-rule:evenodd;stroke:#000000;stroke-width:0.101181;stroke-linecap:butt;stroke-linejoin:round;stroke-miterlimit:4;stroke-dasharray:none;stroke-opacity:1"
         id="use19181"
         width="2.1453326"
         height="6.4201255"
         x="158.39226"
         y="130.36681"
         ry="0"
         transform="matrix(0.99994875,-0.01012366,0.01039375,0.99994598,0,0)" />
      <rect
         style="fill:url(#linearGradient19393);fill-opacity:1;fill-rule:evenodd;stroke:#000000;stroke-width:0.097529;stroke-linecap:butt;stroke-linejoin:round;stroke-miterlimit:4;stroke-dasharray:none;stroke-opacity:1"
         id="use19183"
         width="2.1453176"
         height="5.9651127"
         x="171.20058"
         y="130.48663"
         ry="0"
         transform="matrix(0.99995576,-0.00940616,0.01118658,0.99993743,0,0)" />
      <rect
         style="fill:url(#linearGradient19397);fill-opacity:1;fill-rule:evenodd;stroke:#000000;stroke-width:0.0969604;stroke-linecap:butt;stroke-linejoin:round;stroke-miterlimit:4;stroke-dasharray:none;stroke-opacity:1"
         id="use19185"
         width="2.1453152"
         height="5.8957605"
         x="173.3351"
         y="130.53082"
         ry="0"
         transform="matrix(0.99995678,-0.00929678,0.01131816,0.99993595,0,0)" />
      <rect
         style="fill:url(#linearGradient19401);fill-opacity:1;fill-rule:evenodd;stroke:#000000;stroke-width:0.0962503;stroke-linecap:butt;stroke-linejoin:round;stroke-miterlimit:4;stroke-dasharray:none;stroke-opacity:1"
         id="use19187"
         width="2.1453125"
         height="5.8097401"
         x="175.46593"
         y="130.48039"
         ry="0"
         transform="matrix(0.99995804,-0.00916115,0.01148575,0.99993404,0,0)" />
      <rect
         style="fill:url(#linearGradient19405);fill-opacity:1;fill-rule:evenodd;stroke:#000000;stroke-width:0.0957194;stroke-linecap:butt;stroke-linejoin:round;stroke-miterlimit:4;stroke-dasharray:none;stroke-opacity:1"
         id="use19189"
         width="2.1453106"
         height="5.7458301"
         x="177.60167"
         y="130.46254"
         ry="0"
         transform="matrix(0.99995895,-0.00906037,0.0116135,0.99993256,0,0)" />
      <rect
         style="fill:url(#linearGradient19409);fill-opacity:1;fill-rule:evenodd;stroke:#000000;stroke-width:0.0957194;stroke-linecap:butt;stroke-linejoin:round;stroke-miterlimit:4;stroke-dasharray:none;stroke-opacity:1"
         id="use19191"
         width="2.1453106"
         height="5.7458301"
         x="179.75401"
         y="130.46254"
         ry="0"
         transform="matrix(0.99995895,-0.00906037,0.0116135,0.99993256,0,0)" />
      <rect
         style="fill:url(#linearGradient19413);fill-opacity:1;fill-rule:evenodd;stroke:#000000;stroke-width:0.0976641;stroke-linecap:butt;stroke-linejoin:round;stroke-miterlimit:4;stroke-dasharray:none;stroke-opacity:1"
         id="use19193"
         width="2.145318"
         height="5.9816475"
         x="184.11986"
         y="130.39323"
         ry="0"
         transform="matrix(0.99995552,-0.00943223,0.01115565,0.99993777,0,0)" />
      <rect
         style="fill:url(#linearGradient19417);fill-opacity:1;fill-rule:evenodd;stroke:#000000;stroke-width:0.0976641;stroke-linecap:butt;stroke-linejoin:round;stroke-miterlimit:4;stroke-dasharray:none;stroke-opacity:1"
         id="use19195"
         width="2.145318"
         height="5.9816475"
         x="186.15262"
         y="130.39323"
         ry="0"
         transform="matrix(0.99995552,-0.00943223,0.01115565,0.99993777,0,0)" />
      <rect
         style="fill:url(#linearGradient19421);fill-opacity:1;fill-rule:evenodd;stroke:#000000;stroke-width:0.0976641;stroke-linecap:butt;stroke-linejoin:round;stroke-miterlimit:4;stroke-dasharray:none;stroke-opacity:1"
         id="use19197"
         width="2.145318"
         height="5.9816475"
         x="181.9675"
         y="130.39323"
         ry="0"
         transform="matrix(0.99995552,-0.00943223,0.01115565,0.99993777,0,0)" />
      <rect
         style="fill:url(#linearGradient19505);fill-opacity:1;fill-rule:evenodd;stroke:#000000;stroke-width:0.100041;stroke-linecap:butt;stroke-linejoin:round;stroke-miterlimit:4;stroke-dasharray:none;stroke-opacity:1"
         id="rect19503"
         width="2.1523609"
         height="6.255846"
         x="151.78371"
         y="128.0146"
         ry="0"
         transform="matrix(0.9999739,0.00722498,-0.00506679,0.99998716,0,0)" />
      <path
         style="fill:url(#linearGradient23011);fill-opacity:1;fill-rule:evenodd;stroke:#000000;stroke-width:0.0186594;stroke-linecap:butt;stroke-linejoin:round;stroke-miterlimit:4;stroke-dasharray:none;stroke-opacity:1"
         d="m 150.17147,135.44333 c -0.91436,-0.26435 -1.52275,-1.44828 -1.52275,-2.96323 0,-0.97165 0.2674,-1.92217 0.7167,-2.54762 0.37642,-0.52399 0.83693,-0.79281 1.40545,-0.82043 l 0.3218,-0.0156 -6e-5,1.93416 c -3e-5,1.0638 -0.0118,2.50365 -0.0257,3.19968 l -0.0256,1.2655 -0.35256,-0.002 c -0.1939,-10e-4 -0.42667,-0.0238 -0.51728,-0.0501 z"
         id="path22826" />
      <path
         style="fill:#ff006c;fill-opacity:1;fill-rule:evenodd;stroke:none;stroke-width:0.130022;stroke-linecap:butt;stroke-linejoin:round;stroke-miterlimit:4;stroke-dasharray:none;stroke-opacity:1"
         d="m 290.53349,134.69586 c -10.80574,-0.99317 -53.10416,-4.83222 -93.99649,-8.53122 -82.6704,-7.47812 -75.4845,-6.66699 -86.57603,-9.77253 -9.03587,-2.52997 -15.359283,-5.1318 -17.168142,-7.064 l -0.887358,-0.94787 1.101175,-13.09715 c 0.605647,-7.203436 1.127022,-13.205997 1.158613,-13.339023 0.03158,-0.133026 0.367977,0.301417 0.747528,0.965433 1.786585,3.125586 6.930974,6.201943 14.876494,8.896172 6.90083,2.33999 17.76687,4.650066 24.72545,5.256535 1.83627,0.160038 36.27595,1.23235 76.53265,2.382915 40.2567,1.150558 76.8922,2.209968 81.41225,2.354238 4.52006,0.14427 8.40997,0.26323 8.6443,0.26434 0.27137,0.001 1.67779,1.98535 3.87441,5.46568 7.80257,12.36238 10.3524,17.62119 10.65456,21.97421 0.1268,1.82673 0.0727,2.17127 -0.54348,3.46255 -0.86034,1.80294 -3.15794,3.64447 -4.44694,3.56425 -0.25422,-0.0158 -9.30325,-0.84136 -20.10899,-1.83453 z"
         id="path23583" />
      <path
         style="fill:#ff006c;fill-opacity:1;fill-rule:evenodd;stroke:none;stroke-width:0.131776;stroke-linecap:butt;stroke-linejoin:round;stroke-miterlimit:4;stroke-dasharray:none;stroke-opacity:1"
         d="m 292.49482,102.61441 c -1.35428,-0.0447 -29.17213,-0.86289 -61.81743,-1.81816 -32.64531,-0.955266 -65.53685,-1.91896 -73.09231,-2.141544 -16.55648,-0.487749 -23.42615,-0.834413 -27.21521,-1.37336 -7.33803,-1.043742 -15.36252,-2.947416 -21.51272,-5.103528 -4.12389,-1.445738 -9.608278,-4.199819 -11.553492,-5.801789 -1.674914,-1.379366 -3.091157,-3.438318 -3.091157,-4.493964 0,-2.113499 5.114578,-4.187002 11.922859,-4.833651 3.61441,-0.343294 14.17202,-0.215856 36.54615,0.441144 32.8504,0.964632 120.24146,3.600148 123.89405,3.73637 2.20961,0.0824 7.2833,0.269467 11.27485,0.415689 3.9916,0.146226 7.62443,0.328549 8.07305,0.405165 0.68675,0.117292 1.22355,0.699206 3.39764,3.683138 1.42009,1.949111 4.81437,6.58881 7.54281,10.310444 l 4.96081,6.766606 -3.43379,-0.0556 c -1.88859,-0.0306 -4.54183,-0.0922 -5.89611,-0.13694 z"
         id="path28660" />
      <path
         style="fill:#ff006c;fill-opacity:1;fill-rule:evenodd;stroke:none;stroke-width:0.244378;stroke-linecap:butt;stroke-linejoin:round;stroke-miterlimit:4;stroke-dasharray:none;stroke-opacity:1"
         d="m 397.60376,683.02995 c -11.18612,-2.28564 -20.37323,-9.05526 -27.76143,-20.45631 -2.54341,-3.92483 -7.24396,-13.63562 -9.13933,-18.88076 -4.29833,-11.89496 -6.10889,-17.81953 -6.09626,-19.94834 l 0.0136,-2.2901 1.47913,3.64221 c 3.70206,9.11596 16.81864,35.32289 20.35678,40.67283 2.11076,3.19164 7.11301,5.90905 13.81617,7.50547 2.68224,0.6388 6.35374,0.92801 13.68519,1.07799 9.84276,0.20136 10.56582,0.14383 40.98542,-3.2613 17.03124,-1.90645 35.06637,-4.02014 40.07807,-4.69709 24.8782,-3.36041 46.0549,-7.7995 66.22216,-13.88156 l 8.02527,-2.42027 73.737,-8.1053 c 40.55535,-4.45791 78.57569,-8.64028 84.48965,-9.29416 5.91396,-0.65387 30.87722,-3.40107 55.47391,-6.10489 24.5967,-2.70381 52.52915,-5.77798 62.07213,-6.83148 168.63498,-18.61652 285.09018,-31.31156 285.30048,-31.10125 0.7194,0.71943 -2.6078,5.83509 -5.6803,8.73355 -3.1411,2.96316 -10.57,8.21845 -14.9583,10.58174 -1.7495,0.94216 -15.47,2.51724 -130.4981,14.98077 -70.69869,7.66036 -148.77761,16.12732 -173.50871,18.81548 -24.7311,2.68816 -50.02427,5.43519 -56.20705,6.10451 -13.16292,1.42496 -87.86046,9.5378 -116.8129,12.68695 -11.02147,1.1988 -50.50081,5.4877 -87.73187,9.53088 -37.23106,4.04319 -80.79485,8.77554 -96.80843,10.51634 -29.83353,3.24313 -35.009,3.55265 -40.53227,2.42409 z"
         id="path28699"
         transform="scale(0.26458334)" />
      <path
         style="fill:none;stroke:#000000;stroke-width:0.264583px;stroke-linecap:butt;stroke-linejoin:miter;stroke-opacity:1"
         d="m 97.384521,123.19372 0.901887,0.32627"
         id="path32034" />
      <path
         style="fill:#e0dfdf;fill-opacity:1;fill-rule:evenodd;stroke:#000000;stroke-width:0.244378;stroke-linecap:butt;stroke-linejoin:round;stroke-miterlimit:4;stroke-dasharray:none;stroke-opacity:1"
         d="m 382.69668,468.43303 c -5.64515,-1.18734 -11.16145,-2.46272 -12.25845,-2.83416 -1.09701,-0.37145 -5.05594,-2.9399 -8.79763,-5.70768 -3.74169,-2.76777 -6.84693,-5.05539 -6.90054,-5.0836 -0.0536,-0.0282 0.65779,-6.97222 1.58088,-15.43112 0.9231,-8.45891 1.68177,-15.5295 1.68594,-15.71243 0.004,-0.18292 2.4819,0.83696 5.50609,2.26641 6.02361,2.84719 16.56169,6.83021 26.63725,10.06793 4.80043,1.54259 6.47603,2.28665 6.47603,2.87575 0,0.43709 -0.54985,7.26857 -1.22189,15.18106 -0.67205,7.91249 -1.2219,14.8884 -1.2219,15.50204 0,0.61363 -0.27492,1.09745 -0.61094,1.07515 -0.33602,-0.0223 -5.2297,-1.012 -10.87484,-2.19935 z"
         id="path32153"
         transform="scale(0.26458334)" />
      <path
         style="fill:#dadada;fill-opacity:1;fill-rule:evenodd;stroke:#000000;stroke-width:0.244378;stroke-linecap:butt;stroke-linejoin:round;stroke-miterlimit:4;stroke-dasharray:none;stroke-opacity:1"
         d="m 353.16666,540.28406 c -3.87596,-0.92171 -7.1255,-1.75413 -7.22119,-1.84982 -0.0957,-0.0957 0.15439,-2.23968 0.55573,-4.76442 4.44168,-27.94145 7.0623,-61.90617 5.68458,-73.67537 -0.32563,-2.78178 -0.52203,-5.12496 -0.43643,-5.20709 0.27823,-0.26692 15.27834,11.01602 15.73856,11.8384 1.26182,2.25474 -0.72313,27.60197 -4.61304,58.90728 -1.06033,8.53336 -1.92788,15.73641 -1.92788,16.00679 0,0.62825 0.44279,0.69971 -7.78033,-1.25577 z"
         id="path32192"
         transform="scale(0.26458334)" />
      <path
         style="fill:url(#linearGradient50419);fill-opacity:1;fill-rule:evenodd;stroke:#000000;stroke-width:0.244378;stroke-linecap:butt;stroke-linejoin:round;stroke-miterlimit:4;stroke-dasharray:none;stroke-opacity:1"
         d="m 375.65352,544.42459 c -5.21782,-0.7752 -9.53941,-1.46584 -9.60354,-1.53474 -0.0641,-0.0689 0.51898,-5.39882 1.2958,-11.84426 2.96382,-24.59154 5.32804,-50.64273 5.33019,-58.73302 l 10e-4,-4.46982 6.47603,1.3606 c 3.56181,0.74834 8.79914,1.84498 11.63849,2.43699 l 5.16247,1.07637 0.55194,3.2222 c 0.64803,3.78319 1.67172,5.37477 4.30613,6.69498 1.7037,0.85379 3.37557,1.00258 14.63117,1.30212 6.98922,0.18601 13.17505,0.35707 13.74629,0.38015 0.75588,0.0305 1.12093,0.45358 1.34103,1.55405 0.42146,2.10732 3.12082,4.64008 5.67962,5.3291 4.21448,1.13484 8.21241,-0.3438 10.57261,-3.9103 1.12675,-1.70263 1.37964,-2.75754 1.7265,-7.20191 0.72196,-9.25039 2.86361,-14.7887 7.33671,-18.97277 3.12862,-2.92645 6.67433,-4.50742 11.18941,-4.98914 5.09974,-0.5441 63.51799,4.22407 205.00522,16.73277 62.6342,5.5374 120.6336,10.65677 128.88756,11.37638 8.25396,0.7196 14.96166,1.35391 14.906,1.40957 -0.0557,0.0557 -55.73512,0.57623 -123.73212,1.15683 -99.78483,0.85203 -123.87135,1.17997 -124.87746,1.70025 -1.76387,0.91214 -2.75674,2.13168 -4.00307,4.91699 -1.30213,2.90998 -1.5682,10.04389 -0.48854,13.09831 0.93379,2.64172 3.26097,5.1264 5.11755,5.4639 0.85312,0.15508 29.70352,-0.60965 64.11201,-1.69941 62.29254,-1.97287 120.33066,-3.80235 194.28088,-6.12412 64.6949,-2.03118 116.90025,-3.67844 129.03183,-4.07141 6.31718,-0.20463 11.53114,-0.35416 11.58662,-0.3323 0.0555,0.0219 -0.20347,3.11021 -0.57547,6.86298 -0.37194,3.75277 -0.94496,10.70339 -1.27335,15.44581 l -0.59707,8.62257 -8.11385,0.31017 c -4.46265,0.17059 -20.76044,0.63513 -36.21738,1.03231 -15.45694,0.39717 -44.4891,1.16255 -64.51592,1.70083 -20.02681,0.53827 -65.33458,1.74631 -100.68392,2.68454 -220.2343,5.84533 -306.84775,8.15293 -330.15531,8.79617 -14.51608,0.4006 -27.21765,0.72945 -28.22571,0.73076 l -1.83284,0.002 v -3.36776 -3.36775 l -3.82115,-1.03106 c -2.10163,-0.56708 -4.11161,-1.03105 -4.46661,-1.03105 -0.50553,0 -0.59108,0.95355 -0.39464,4.39881 0.17655,3.09639 0.0881,4.3829 -0.29878,4.34509 -0.30227,-0.0296 -4.8187,-0.68798 -10.03652,-1.46318 z M 418.504,517.97296 c 2.79499,-1.84965 4.72257,-5.86861 4.40414,-9.18256 -0.53467,-5.56435 -4.70688,-9.28082 -10.41893,-9.28082 -2.62876,0 -3.36493,0.21705 -5.3876,1.58846 -4.30673,2.92005 -5.69193,7.93559 -3.50872,12.70434 1.91527,4.18351 4.72268,5.80532 9.70511,5.60652 2.54587,-0.10158 3.64972,-0.40605 5.206,-1.43594 z"
         id="path32231"
         transform="scale(0.26458334)" />
      <path
         style="fill:#cccccc;fill-opacity:1;fill-rule:evenodd;stroke:#000000;stroke-width:0.244378;stroke-linecap:butt;stroke-linejoin:round;stroke-miterlimit:4;stroke-dasharray:none;stroke-opacity:1"
         d="m 436.40885,489.71671 c -1.91057,-0.58188 -4.03882,-2.67965 -4.39845,-4.33544 -0.15141,-0.69714 -0.34716,-1.509 -0.43498,-1.80413 -0.0964,-0.32387 -2.44806,-0.6734 -5.9321,-0.8817 -3.17483,-0.18981 -5.85837,-0.43107 -5.96344,-0.53613 -0.43101,-0.43101 0.94179,-18.76746 1.58316,-21.14618 1.97029,-7.30746 5.85172,-10.22234 14.46376,-10.86201 4.29687,-0.31916 5.27544,-0.20362 13.11976,1.54901 4.6621,1.04164 10.27059,2.1952 12.4633,2.56348 2.1927,0.36828 3.41145,0.69198 2.70832,0.71934 -0.70312,0.0274 -2.83536,0.82866 -4.7383,1.78067 -7.59513,3.79968 -11.29182,10.72794 -12.24576,22.95069 -0.36643,4.69515 -0.53318,5.31827 -1.86701,6.97692 -2.31165,2.87461 -5.56432,3.99823 -8.75826,3.02548 z"
         id="path32270"
         transform="scale(0.26458334)" />
      <path
         style="fill:#cccccc;fill-opacity:1;fill-rule:evenodd;stroke:#000000;stroke-width:0.244378;stroke-linecap:butt;stroke-linejoin:round;stroke-miterlimit:4;stroke-dasharray:none;stroke-opacity:1"
         d="m 395.89311,672.68884 c -6.90674,-0.86191 -14.44747,-3.69228 -16.92751,-6.35363 -1.5493,-1.66257 -5.83508,-9.51059 -12.80115,-23.4412 -5.74031,-11.47932 -8.83043,-18.46797 -10.82083,-24.47253 -1.5917,-4.80174 -1.32603,-6.23765 1.70094,-9.19341 2.05183,-2.00356 2.40748,-1.70258 1.40072,1.1854 -0.51937,1.48987 0.095,2.94397 12.29822,29.10598 l 12.84489,27.53778 2.73106,0.53283 c 13.22855,2.58091 30.15769,3.69483 38.73104,2.54845 11.11656,-1.48645 21.15357,-5.97435 26.74805,-11.96 l 1.16465,-1.24609 -10.89228,-26.19312 c -6.19451,-14.89617 -10.70198,-26.36033 -10.45103,-26.58082 0.24268,-0.21323 8.24914,-1.07784 17.79212,-1.92136 86.24262,-7.62305 81.6224,-7.17029 81.6224,-7.99864 0,-1.35319 5.45221,-11.55688 6.93373,-12.97633 l 1.64961,-1.58049 26.13345,-1.95781 c 14.3734,-1.07679 38.01024,-2.84253 52.52633,-3.92385 33.09525,-2.46531 67.60621,-5.04236 88.22062,-6.58773 8.73653,-0.65493 54.59415,-4.05245 101.90582,-7.55003 47.31167,-3.49758 87.18676,-6.57663 88.61129,-6.84232 7.03453,-1.31204 15.92438,-10.31027 17.03254,-17.24013 0.16335,-1.02147 0.32385,-1.86565 0.3567,-1.87595 0.6129,-0.19222 49.42613,-1.36411 49.59949,-1.19078 0.33954,0.33953 -0.79824,13.55281 -1.6824,19.53789 -3.39407,22.97614 -11.1525,33.7014 -26.65758,36.85146 -1.44487,0.29354 -82.57544,8.00865 -180.29017,17.14469 -175.95606,16.45138 -177.68799,16.62349 -180.24942,17.91255 -9.21899,4.63952 -15.62567,12.77223 -16.87095,21.41618 l -0.52086,3.61544 -8.33934,2.45879 c -20.46733,6.03464 -39.9747,10.09382 -64.79076,13.48196 -7.3251,1.0001 -45.86747,5.42259 -66.22657,7.59908 -4.16464,0.44522 -19.32676,0.5516 -22.48282,0.15774 z m 155.3348,-44.43679 c 1.25601,-0.42796 3.36907,-1.754 4.69571,-2.94676 8.13066,-7.31016 2.62842,-18.6318 -9.31915,-19.17547 -5.24633,-0.23873 -8.69477,0.8846 -11.71665,3.81671 -2.38136,2.31062 -3.36631,4.61551 -3.3512,7.84223 0.0184,3.93788 3.64224,8.55302 8.04699,10.24834 3.07226,1.18247 8.5102,1.28285 11.6443,0.21495 z"
         id="path32309"
         transform="scale(0.26458334)" />
      <path
         style="fill:#cccccc;fill-opacity:1;fill-rule:evenodd;stroke:#000000;stroke-width:0.244378;stroke-linecap:butt;stroke-linejoin:round;stroke-miterlimit:4;stroke-dasharray:none;stroke-opacity:1"
         d="m 399.37433,648.45826 c -4.7525,-13.77226 -15.94452,-46.95334 -15.94452,-47.27083 0,-0.32245 16.10119,-2.67283 16.33633,-2.3847 0.34716,0.42539 21.70972,53.92769 21.583,54.0544 -0.21465,0.21465 -17.50959,3.5355 -18.43501,3.53975 -0.5953,0.003 -1.49808,-2.0219 -3.5398,-7.93862 z"
         id="path32348"
         transform="scale(0.26458334)" />
      <path
         style="fill:#cccccc;fill-opacity:1;fill-rule:evenodd;stroke:#000000;stroke-width:0.244378;stroke-linecap:butt;stroke-linejoin:round;stroke-miterlimit:4;stroke-dasharray:none;stroke-opacity:1"
         d="m 400.78068,668.34047 c -7.19117,-0.88672 -16.08446,-2.52981 -16.25951,-3.00405 -0.0777,-0.21044 -5.71591,-12.32912 -12.5294,-26.93041 l -12.38818,-26.54778 0.92517,-2.97256 c 2.02096,-6.49337 5.92247,-11.17237 11.78247,-14.13049 9.49495,-4.79304 23.46922,-4.7564 38.24459,0.10026 4.06162,1.33505 16.09711,6.98728 17.87568,8.39496 0.42306,0.33483 5.68097,12.43488 11.68424,26.88899 l 10.91504,26.2802 -1.17596,1.26529 c -4.89554,5.26743 -14.34317,9.45415 -24.63629,10.91757 -4.74984,0.67531 -17.98743,0.5334 -24.43785,-0.26198 z m 12.34111,-12.22339 c 5.71235,-1.0521 10.38609,-2.071 10.38609,-2.26421 0,-0.38549 -21.85683,-54.8927 -22.51356,-56.145 -0.36642,-0.69871 -1.32708,-0.6426 -9.75912,0.57 -5.14398,0.73975 -9.47133,1.46363 -9.61633,1.60863 -0.19686,0.19687 17.21882,52.49635 19.20359,57.66858 0.18949,0.49379 0.68283,0.79063 1.12533,0.67709 0.43335,-0.11119 5.46166,-1.06299 11.174,-2.11509 z"
         id="path32387"
         transform="scale(0.26458334)" />
      <path
         style="fill:url(#linearGradient59840);fill-opacity:1;fill-rule:evenodd;stroke:#000000;stroke-width:0.244378;stroke-linecap:butt;stroke-linejoin:round;stroke-miterlimit:4;stroke-dasharray:none;stroke-opacity:1"
         d="m 559.63355,646.05207 c 0.45762,-3.37214 1.83065,-7.02158 3.70818,-9.85612 2.20638,-3.33103 7.75777,-8.24732 11.58179,-10.25679 l 3.34955,-1.76013 177.62633,-16.63525 c 97.69448,-9.14939 179.27589,-16.98528 181.29201,-17.41311 9.87964,-2.09648 17.4705,-8.52312 21.55655,-18.25041 4.1469,-9.87218 5.36825,-17.41322 7.52569,-46.46656 1.1266,-15.17146 2.10597,-25.9748 2.37952,-26.24836 0.18046,-0.18046 158.16383,13.85368 158.34933,14.06665 0.099,0.11394 -0.6401,3.50627 -1.6428,7.53852 -2.0763,8.34956 -4.0143,18.54179 -5.2382,27.5488 -0.9728,7.15854 -1.1721,32.36909 -0.2875,36.35617 0.4105,1.85035 0.3851,2.32159 -0.1253,2.32159 -0.5149,0 -133.73897,14.63096 -336.23134,36.92565 -93.9521,10.34425 -114.1251,12.56123 -170.82055,18.77288 -27.01604,2.95992 -50.07778,5.51181 -51.24832,5.67086 l -2.12826,0.28919 z m 481.93465,-91.98436 c 4.311,-2.00743 7.5485,-7.06495 7.5485,-11.7919 0,-2.69962 -1.3915,-6.33499 -3.2609,-8.51891 -6.308,-7.36956 -18.7871,-5.25648 -22.1576,3.75194 -3.2969,8.8119 2.8437,17.70948 12.2221,17.70948 2.3107,0 3.8507,-0.31374 5.6479,-1.15061 z"
         id="path32426"
         transform="scale(0.26458334)" />
      <path
         style="fill:#cccccc;fill-opacity:1;fill-rule:evenodd;stroke:none;stroke-width:0.488757;stroke-linecap:butt;stroke-linejoin:round;stroke-miterlimit:4;stroke-dasharray:none;stroke-opacity:1"
         d="m 1120.7196,571.91857 v -5.62859 l 3.7005,-1.10868 c 7.9449,-2.38036 10.6044,-8.76377 5.3675,-12.88315 -1.4642,-1.15175 -3.9187,-2.34538 -5.4543,-2.65251 -2.2652,-0.45304 -2.6877,-0.94747 -2.2387,-2.62004 0.3043,-1.13389 0.5594,-3.33197 0.5667,-4.88462 l 0.013,-2.82299 7.5757,0.6605 c 12.3922,1.08044 40.6154,5.33959 44.6588,6.73943 l 3.7562,1.30045 -3.6608,3.01754 c -4.1665,3.43436 -24.0162,13.4576 -42.0696,21.24328 l -12.2154,5.26797 z"
         id="path32465"
         transform="scale(0.26458334)" />
      <path
         style="fill:none;stroke:#f8f0f0;stroke-width:0.13229167;stroke-linecap:butt;stroke-linejoin:miter;stroke-opacity:1;stroke-miterlimit:4;stroke-dasharray:none"
         d="m 272.76177,140.37354 c 1.04606,1.43353 -0.38323,3.15472 -2.10144,2.52168"
         id="path32779"
         sodipodi:nodetypes="cc" />
      <path
         style="fill:#333333;fill-opacity:1;fill-rule:evenodd;stroke:#f8f0f0;stroke-width:0.0610946;stroke-linecap:butt;stroke-linejoin:round;stroke-miterlimit:4;stroke-dasharray:none;stroke-opacity:1"
         d="m 1024.728,540.20503 c -0.3426,-0.0536 -0.8194,-0.16226 -1.0596,-0.24153 l -0.4367,-0.14413 0.2432,-0.87748 c 0.9656,-3.48474 3.3492,-6.46262 6.4066,-8.00414 l 0.7428,-0.37447 0.4383,0.81596 c 0.6681,1.24372 0.8617,2.05919 0.8037,3.38556 -0.044,1.00173 -0.1003,1.23206 -0.5003,2.04146 -1.1794,2.38643 -3.9711,3.81581 -6.638,3.39877 z"
         id="path33315"
         transform="scale(0.26458334)" />
      <path
         style="fill:#4d4d4d;fill-opacity:0.623529;fill-rule:evenodd;stroke:none;stroke-width:2.24828;stroke-linecap:butt;stroke-linejoin:round;stroke-miterlimit:4;stroke-dasharray:none;stroke-opacity:1"
         d="m 1120.7196,571.8948 v -5.30294 l 3.4226,-1.10051 c 8.4951,-2.73153 11.1187,-9.23009 5.4648,-13.53595 -1.1603,-0.88367 -3.2898,-1.94972 -4.732,-2.369 l -2.6224,-0.76234 0.2781,-4.49601 c 0.1529,-2.47281 0.3392,-4.56896 0.4138,-4.65811 0.2874,-0.34309 16.6431,1.48057 28.0781,3.13071 13.5481,1.95508 22.9048,3.68894 25.3973,4.7063 l 1.6927,0.69088 -2.5793,2.03881 c -3.4851,2.75481 -10.4568,6.61245 -22.7757,12.6025 -8.4839,4.12525 -26.5094,12.24619 -30.9383,13.93841 -1.0986,0.4198 -1.0997,0.41526 -1.0997,-4.88275 z"
         id="path49517"
         transform="scale(0.26458334)" />
    </g>
  </g>
</svg>
