<svg id="erFsvh9GBlp1" xmlns="http://www.w3.org/2000/svg" xmlns:xlink="http://www.w3.org/1999/xlink" viewBox="0 0 508 285.75001" shape-rendering="geometricPrecision" text-rendering="geometricPrecision">
<style><![CDATA[
#erFsvh9GBlp2_tr {animation: erFsvh9GBlp2_tr__tr 3000ms linear infinite normal forwards}@keyframes erFsvh9GBlp2_tr__tr { 0% {transform: translate(292.07917px,119.821606px) rotate(360deg)} 16.666667% {transform: translate(292.07917px,119.821606px) rotate(360deg)} 33.333333% {transform: translate(292.07917px,119.821606px) rotate(389.602126deg)} 56.666667% {transform: translate(292.07917px,119.821606px) rotate(346.115334deg)} 100% {transform: translate(292.07917px,119.821606px) rotate(0deg)}} #erFsvh9GBlp2_ts {animation: erFsvh9GBlp2_ts__ts 3000ms linear infinite normal forwards}@keyframes erFsvh9GBlp2_ts__ts { 0% {transform: scale(1,1)} 16.666667% {transform: scale(1.381142,1.381142)} 100% {transform: scale(1.381142,1.381142)}} #erFsvh9GBlp2 {animation: erFsvh9GBlp2_c_o 3000ms linear infinite normal forwards}@keyframes erFsvh9GBlp2_c_o { 0% {opacity: 1} 50% {opacity: 0.5} 100% {opacity: 1}}
]]></style>
<defs><linearGradient id="erFsvh9GBlp9-fill" x1="28.80092" y1="-1.09702" x2="-28.43467" y2="-0.73126" spreadMethod="pad" gradientUnits="userSpaceOnUse" gradientTransform="translate(0 0)"><stop id="erFsvh9GBlp9-fill-0" offset="0%" stop-color="#ccc"/><stop id="erFsvh9GBlp9-fill-1" offset="100%" stop-color="#fff"/></linearGradient><linearGradient id="erFsvh9GBlp25-fill" x1="189.465987" y1="133.81265" x2="152.399576" y2="134.185144" spreadMethod="pad" gradientUnits="userSpaceOnUse" gradientTransform="translate(0 0)"><stop id="erFsvh9GBlp25-fill-0" offset="0%" stop-color="#000"/><stop id="erFsvh9GBlp25-fill-1" offset="100%" stop-color="rgba(0,0,0,0)"/></linearGradient><linearGradient id="erFsvh9GBlp57-stroke" x1="285.473982" y1="148.4613" x2="299.652937" y2="148.82705" spreadMethod="pad" gradientUnits="userSpaceOnUse" gradientTransform="translate(0 0)"><stop id="erFsvh9GBlp57-stroke-0" offset="0%" stop-color="#b70404"/><stop id="erFsvh9GBlp57-stroke-1" offset="100%" stop-color="#500"/></linearGradient><linearGradient id="erFsvh9GBlp59-fill" x1="144.899609" y1="156.863596" x2="327.678918" y2="156.087696" spreadMethod="pad" gradientUnits="userSpaceOnUse" gradientTransform="translate(0 0)"><stop id="erFsvh9GBlp59-fill-0" offset="0%" stop-color="#08fdfd"/><stop id="erFsvh9GBlp59-fill-1" offset="100%" stop-color="rgba(12,162,252,0)"/></linearGradient><linearGradient id="erFsvh9GBlp61-fill" x1="217.516496" y1="107.936312" x2="222.14619" y2="107.844864" spreadMethod="pad" gradientUnits="userSpaceOnUse" gradientTransform="translate(0 0)"><stop id="erFsvh9GBlp61-fill-0" offset="0%" stop-color="#08fdfd"/><stop id="erFsvh9GBlp61-fill-1" offset="100%" stop-color="#00cfff"/></linearGradient><linearGradient id="erFsvh9GBlp69-fill" x1="202.028604" y1="126.108041" x2="232.979464" y2="126.046124" spreadMethod="pad" gradientUnits="userSpaceOnUse" gradientTransform="translate(0 0)"><stop id="erFsvh9GBlp69-fill-0" offset="0%" stop-color="#8ddbe9"/><stop id="erFsvh9GBlp69-fill-1" offset="100%" stop-color="rgba(9,211,246,0.572549)"/></linearGradient><linearGradient id="erFsvh9GBlp70-stroke" x1="211.690708" y1="124.939867" x2="224.152144" y2="116.270288" spreadMethod="pad" gradientUnits="userSpaceOnUse" gradientTransform="translate(0 0)"><stop id="erFsvh9GBlp70-stroke-0" offset="0%" stop-color="#f00"/><stop id="erFsvh9GBlp70-stroke-1" offset="100%" stop-color="rgba(255,0,0,0)"/></linearGradient><linearGradient id="erFsvh9GBlp71-stroke" x1="215.313854" y1="124.403241" x2="226.912299" y2="116.334008" spreadMethod="pad" gradientUnits="userSpaceOnUse" gradientTransform="translate(0 0)"><stop id="erFsvh9GBlp71-stroke-0" offset="0%" stop-color="#f00"/><stop id="erFsvh9GBlp71-stroke-1" offset="100%" stop-color="rgba(255,0,0,0)"/></linearGradient><linearGradient id="erFsvh9GBlp72-stroke" x1="218.975805" y1="123.818863" x2="229.636226" y2="116.402254" spreadMethod="pad" gradientUnits="userSpaceOnUse" gradientTransform="translate(0 0)"><stop id="erFsvh9GBlp72-stroke-0" offset="0%" stop-color="#f00"/><stop id="erFsvh9GBlp72-stroke-1" offset="100%" stop-color="rgba(255,0,0,0)"/></linearGradient><linearGradient id="erFsvh9GBlp73-stroke" x1="222.695761" y1="123.164893" x2="232.305586" y2="116.479193" spreadMethod="pad" gradientUnits="userSpaceOnUse" gradientTransform="translate(0 0)"><stop id="erFsvh9GBlp73-stroke-0" offset="0%" stop-color="#f00"/><stop id="erFsvh9GBlp73-stroke-1" offset="100%" stop-color="rgba(255,0,0,0)"/></linearGradient><linearGradient id="erFsvh9GBlp74-stroke" x1="226.313951" y1="122.63331" x2="235.070081" y2="116.541535" spreadMethod="pad" gradientUnits="userSpaceOnUse" gradientTransform="translate(0 0)"><stop id="erFsvh9GBlp74-stroke-0" offset="0%" stop-color="#f00"/><stop id="erFsvh9GBlp74-stroke-1" offset="100%" stop-color="rgba(255,0,0,0)"/></linearGradient></defs><g id="erFsvh9GBlp2_tr" transform="translate(292.07917,119.821606) rotate(360)"><g id="erFsvh9GBlp2_ts" transform="scale(1,1)"><g id="erFsvh9GBlp2" transform="translate(-275.3346,-128.520551)"><path d="" transform="matrix(.264583 0 0 0.264583 0 0)" fill="#08fdfd" fill-rule="evenodd" stroke="#b70404" stroke-width="2.09677" stroke-linecap="square" stroke-linejoin="round"/><path d="" transform="matrix(.264583 0 0 0.264583 0 0)" fill="#08fdfd" fill-rule="evenodd" stroke="#b70404" stroke-width="2.09677" stroke-linecap="square" stroke-linejoin="round"/><g><rect width="160.554" height="126.196" rx="0.951572" ry="0.951572" transform="translate(151.125 88.1167)" fill="#fff" fill-opacity="0.623529" fill-rule="evenodd" stroke-width="0.536165"/><g transform="translate(7.40833 1.5875)"><g transform="translate(36.6408 10.477)"><ellipse rx="28.8713" ry="28.8712" transform="translate(146.671 135.698)" fill="url(#erFsvh9GBlp9-fill)" fill-rule="evenodd" stroke="#000" stroke-width="0.237251" stroke-linecap="square"/><g transform="matrix(1.498 0 0 0.999515 53.5082 5.54565)"><ellipse rx="2.92611" ry="11.5216" transform="translate(53.4015 121.982)" fill="#fff" fill-rule="evenodd" stroke="#000" stroke-width="0.05" stroke-linecap="square"/><ellipse rx="2.56034" ry="7.31527" transform="translate(53.4015 122.897)" fill="#08fdfd" fill-rule="evenodd" stroke="#000" stroke-width="0.05" stroke-linecap="square"/><ellipse rx="1.46305" ry="4.0234" transform="translate(54.4988 121.799)" fill-rule="evenodd" stroke="#000" stroke-width="0.05" stroke-linecap="square"/></g><g transform="matrix(1.49809 0 0 0.999515 77.6439 5.54565)"><ellipse rx="2.92611" ry="11.5216" transform="translate(53.4015 121.982)" fill="#fff" fill-rule="evenodd" stroke="#000" stroke-width="0.05" stroke-linecap="square"/><ellipse rx="2.56034" ry="7.31527" transform="translate(53.4015 122.897)" fill="#08fdfd" fill-rule="evenodd" stroke="#000" stroke-width="0.05" stroke-linecap="square"/><ellipse rx="1.46305" ry="4.0234" transform="translate(54.4988 121.799)" fill-rule="evenodd" stroke="#000" stroke-width="0.05" stroke-linecap="square"/></g><path d="M130.57236,116.82147c.13264-.0362.26718-.066.39792-.10858.17535-.0571.34505-.13039.51955-.18999.6689-.22843,1.34842-.41451,1.98847-.71684.17729.0179.34187-.18092.51168-.17047.0196.001-.0289.0324-.0485.0333-1.02046.051-1.21271.14053-.90471.004c1.09304.0755,2.186.0619,3.28085.0236-.18769.007-.37593.004-.56306.0203-.10783.009.21695-.0105.32465,0c.15884.0155.3143.0562.47242.0779.41172.0565.54175.0576.94815.0835.2399.0827,1.40912-3.30997,1.16922-3.39265v0c-.34194-.0453-.53898-.0752-.89049-.10424-.1666-.0138-.33457-.0111-.50054-.0311-1.52169-.18341,1.24307-.0656-1.97593-.10931-.4767.0222-.94791.0443-1.4191.12598-.12135.021-.24045.0537-.36163.0758-.049.009-.19776.0108-.14836.0169.30121.0368.60478.0505.90717.0757-.84358-.18431-1.71936-.0234-2.54993.15354-1.16424.20458-2.25551.68878-3.23202,1.3517-.19667.14667,1.87756,2.92797,2.07422,2.7813Z" fill-rule="evenodd" stroke="#000" stroke-width="0.023688" stroke-linecap="square"/><path d="M153.98123,116.45571c.13264-.0362.26718-.066.39792-.10858.17535-.0571.34505-.13039.51955-.18999.6689-.22843,1.34842-.41451,1.98847-.71684.17729.0179.34187-.18092.51167-.17047.0196.001-.0289.0324-.0485.0333-1.02046.051-1.21271.14053-.90471.004c1.09305.0755,2.18601.0619,3.28085.0236-.18768.007-.37593.004-.56306.0203-.10782.009.21695-.0105.32466,0c.15884.0155.3143.0562.47242.0779.41171.0565.54175.0576.94815.0835.2399.0827,1.40912-3.30997,1.16922-3.39265v0c-.34194-.0453-.53899-.0752-.89049-.10424-.1666-.0138-.33457-.0111-.50054-.0311-1.5217-.18341,1.24307-.0656-1.97594-.10931-.47669.0222-.9479.0443-1.41909.12598-.12135.021-.24046.0537-.36163.0758-.049.009-.19776.0108-.14836.0169.30121.0368.60478.0505.90717.0757-.84359-.18431-1.71937-.0234-2.54993.15354-1.16425.20458-2.25552.68878-3.23203,1.3517-.19666.14667,1.87756,2.92797,2.07423,2.7813Z" fill-rule="evenodd" stroke="#000" stroke-width="0.023688" stroke-linecap="square"/><g transform="translate(115.581 2.37746)"><path d="M23.043103,148.13425h16.459359c.607899,0,1.09729.48939,1.09729,1.09729-.01208,10.79788-18.906993,13.1037-18.65394,0c0-.6079.489392-1.09729,1.097291-1.09729Z" fill="#f55" fill-rule="evenodd" stroke="#000" stroke-width="0.05" stroke-linecap="square"/><path d="M28.803879,152.75201c1.558444-.0857,1.631337-.0761,3.886237-.0457.607844.008,2.331743.48939,2.331743,1.09729c1.154586,5.84698-9.28125,5.96589-8.412562,0c0-.6079,1.5876-1.01819,2.194582-1.05157Z" fill="#ff8080" fill-rule="evenodd" stroke="#000" stroke-width="0.05" stroke-linecap="square"/></g><path d="M146.67118,131.492c-.2697.7767-.40947,1.62602-.73152,2.37747-.0688.16061-.51205,1.28747-.73153,1.46305-.77537.6203-1.78535.94064-2.37746,1.82882-.66191.99286,4.9378,5.37683,4.9378,6.0351" fill="none" stroke="#000" stroke-width="0.264583"/><path d="M146.76262,106.80295l24.68905.00001c26.0658,16.22822,18.30092,43.38593,6.09563,52.15007-6.75918,4.8535-11.79149,3.56145-27.99573,5.45769" fill="none" stroke="#000" stroke-width="0.264583"/><path d="M156.9555,162.75507c3.36856-1.59257,6.28823-2.89504,9.38716-5.84804c3.57293-3.40467,6.04598-7.2269,7.71229-11.91979c1.21037-3.40884,1.25648-3.75055,1.25648-9.31234s-.0461-5.9035-1.25648-9.31233c-3.25453-9.16587-10.62015-16.29517-19.53707-18.47218l-4.03833-.98593l11.28254-.2563l9.36228-.0277l3.31912,2.42823c7.79688,5.7041,12.66432,13.12632,14.04139,21.41135c1.81562,10.92335-3.58759,23.7899-12.244,29.15639-4.00121,2.48053-7.5898,3.26736-18.87339,4.13813l-4.13796.16068Z" fill="url(#erFsvh9GBlp25-fill)" fill-rule="evenodd" stroke="#000" stroke-width="0.071297" stroke-linecap="square"/><path d="M152.28189,79.337429c-.18288-2.743227,14.13743-2.807886,14.04599-.000001M152.14475,100.3568l.13714-21.019372c1.05157,1.600216,12.7201,1.783097,14.04599,0l-.15601,21.117492m5.2493,6.44037c-5.5101-4.30067-5.2492-6.44037-5.2492-6.44037m-13.98277-.0456c-3.46055,6.22952-5.79387,6.40708-5.79387,6.40708" fill="none" stroke="#000" stroke-width="0.211667"/><path d="M147.33914,106.42909c1.12713-.78904,2.50717-2.41552,3.92012-4.62016l.76311-1.19069.067-10.385674c.0367-5.712122.10637-10.42432.15457-10.471546s.37646.01025.72939.127738c1.35891.452327,3.22348.637897,6.40851.637808c3.29729-.000093,5.16272-.210174,6.3413-.714143l.58759-.25126-.0964,10.725321-.0963,10.725316.47662.92842c.5766,1.12317,1.82489,2.58515,3.28265,3.84453l1.0807.93367-12.01002-.004-12.01001-.004Z" fill-opacity="0.84739" fill-rule="evenodd" stroke-width="0.13249" stroke-linecap="square" stroke-linejoin="round"/><path d="M156.65767,80.503651c-2.3698-.260742-4.25581-.843487-4.25581-1.314976c0-.577229,1.28278-1.302734,2.99237-1.692397c1.7045-.388507,6.2866-.387011,7.97929.0025c1.39898.322008,2.31541.742929,2.73318,1.255369.36964.453387.22836.709632-.58213,1.055803-1.50203.641538-6.08311.999884-8.8669.693597Z" fill-opacity="0.89759" fill-rule="evenodd" stroke-width="0.142765" stroke-linecap="square" stroke-linejoin="round"/></g><g transform="matrix(1.00733 0 0 1.15625 47.4003-17.281)"><rect width="104.608" height="11.7044" rx="0" ry="0" transform="translate(96.4698 177.651)" fill="#f00" fill-rule="evenodd" stroke-width="0.05" stroke-linecap="square"/><circle r="4.19764" transform="translate(114.893 183.503)" fill-opacity="0.84739" fill-rule="evenodd" stroke-width="0.399566" stroke-linecap="square" stroke-linejoin="round"/><circle r="4.19764" transform="translate(182.655 183.503)" fill-opacity="0.84739" fill-rule="evenodd" stroke-width="0.399566" stroke-linecap="square" stroke-linejoin="round"/><g transform="translate(91.7452 30.3918)"><rect width="14.7421" height="10.8626" rx="1.487145" ry="1.487145" transform="translate(49.6577 147.68)" fill="#373737" fill-opacity="0.84739" fill-rule="evenodd" stroke-width="0.264583" stroke-linecap="square" stroke-linejoin="round"/><circle r="0.961267" transform="translate(51.7182 149.352)" fill="#666" fill-opacity="0.84739" fill-rule="evenodd" stroke-width="0.314933" stroke-linecap="square" stroke-linejoin="round"/><circle r="0.961267" transform="translate(51.7182 149.32)" fill="#8a8a8a" fill-opacity="0.84739" fill-rule="evenodd" stroke-width="0.314933" stroke-linecap="square" stroke-linejoin="round"/><circle r="0.961267" transform="translate(62.4597 149.32)" fill="#8a8a8a" fill-opacity="0.84739" fill-rule="evenodd" stroke-width="0.314933" stroke-linecap="square" stroke-linejoin="round"/><circle r="0.961267" transform="translate(62.4597 156.562)" fill="#8a8a8a" fill-opacity="0.84739" fill-rule="evenodd" stroke-width="0.314933" stroke-linecap="square" stroke-linejoin="round"/><circle r="0.961267" transform="translate(51.7182 156.562)" fill="#8a8a8a" fill-opacity="0.84739" fill-rule="evenodd" stroke-width="0.314933" stroke-linecap="square" stroke-linejoin="round"/><path d="M58.105635,149.43923c-5.090649-.78989-3.212292,7.26645.05628,7.39855.390523-.0707.683003.0923.937519-.24124-.03997-.40274-.123715-.69481-.360679-.95049-2.521048-.36749-3.245022-4.56394-1.217751-4.92663.439697-.0679.427517-.60104.549045-.93105.02396-.11466.03943-.2335.03559-.34909Z" fill="#999" fill-opacity="0.84739" fill-rule="evenodd" stroke-width="0.264583" stroke-linecap="square" stroke-linejoin="round"/></g></g><path d="M223.07803,133.97785h26.88092v54.35121" fill="none" stroke-width="0.29131"/><path d="M179.63606,89.849219c9.14409-4.572044,66.3847-4.132713,75.89455,1.170858" fill="none" stroke-width="0.264583"/><path d="M255.53061,91.020077l34.84888,4.045899-.10135,12.290564m0,0l9.83782.87062-.21726,69.13361m0,0l-.0192,6.48814m-49.92702,17.81213l11.15612-11.19789l38.7709-6.61424" fill="none" stroke-width="0.247178"/><path d="M254.81188,196.98788c-.00002,6.84901,3.07767,12.37841,6.64864,12.37851c3.57096-.0001,6.46577-5.55236,6.46575-12.40137-.00008-2.55427-.29709-5.20621-1.0634-7.29522l-5.75427.79335Z" fill="#1a1a1a" fill-opacity="0.84739" fill-rule="evenodd" stroke="#000080" stroke-width="0.785194" stroke-linecap="square" stroke-linejoin="round"/><path d="M274.75165,188.37022c-.17278,1.14693-.12257,2.93814-.0817,3.99568.24627,6.36713,2.68988,10.50023,5.41292,10.50755c2.23705.006,5.17595-3.78749,5.26543-10.13172-.00002-2.64778-.22755-4.0882-1.04207-6.0447Z" fill="#1a1a1a" fill-opacity="0.89759" fill-rule="evenodd" stroke="#000080" stroke-width="0.866014" stroke-linecap="square" stroke-linejoin="round"/><path d="M297.49488,184.13129l-8.57602,1.56665c-.23506,1.10229-.35635,2.28034-.35724,3.46982-.00003,5.11816,2.18153,9.26728,4.87269,9.26734c2.69135.00056,4.87324-4.14881,4.87321-9.26734-.29237-4.63361-.81264-5.03647-.81264-5.03647Z" fill="#1a1a1a" fill-opacity="0.945783" fill-rule="evenodd" stroke="#000080" stroke-width="0.810869" stroke-linecap="square" stroke-linejoin="round"/><path d="M250.01594,194.92593v-6.35707l5.18281-4.45573l5.18282-4.45573l1.574-.0851c2.19209-.11854,41.59107-3.0694,41.59107-3.0694l.0388,3.64886.097,7.576-2.8338.0766-.14049-4.18081c0,0-2.85359.31172-2.97444.23667-.24753-.15374-8.98719,1.37066-9.2286,1.60969-.0992.0983-5.7734,1.11732-13.80056,2.47856l-13.63204,2.31169-5.5283,5.51142-5.5283,5.51141Z" fill="#f00" fill-opacity="0.84739" fill-rule="evenodd" stroke-width="0.387951" stroke-linecap="square" stroke-linejoin="round"/><path d="M189.83969,201.97326l-8.42715.0543c-.23364.84847-.45118,2.90697-.45207,3.82256-.00003,3.93968,2.16834,7.13345,4.84321,7.1335c2.67507.00044,4.84376-3.19353,4.84373-7.1335-.2906-3.5667-.80772-3.8768-.80772-3.8768Z" fill-opacity="0.84739" fill-rule="evenodd" stroke="#000" stroke-width="0.709262" stroke-linecap="square" stroke-linejoin="round"/><g transform="matrix(1.13952 0 0 1.01956 10.4517 8.59441)"><g transform="matrix(1.17181 0 0 1.16366-48.7166-14.1934)"><path d="M231.39396,86.783097l18.36682,1.828818-.0666,16.489815-18.2352-1.15923Z" fill-opacity="0.84739" fill-rule="evenodd" stroke-width="0.815181" stroke-linecap="square" stroke-linejoin="round" stroke-dasharray="3.26073,1.63036,0.815181,1.63036"/><path d="M231.39396,86.783097l18.36682,1.828819-.0666,16.489814-2.37021-.16617M231.39396,86.783097l.065,17.237983l13.39309.85017" fill="none" stroke="#ff0" stroke-width="0.264583"/></g></g><path d="M258.63752,96.481757l3.62987.410005-.11068,20.336758-3.70035-.35726Z" fill-opacity="0.84739" fill-rule="evenodd" stroke="#ff0" stroke-width="0.401206" stroke-linecap="square" stroke-linejoin="round"/><path d="M291.11679,111.79413l7.32536.73138" fill="none" stroke="#000" stroke-width="0.548671"/><path d="M291.11679,114.71966l7.32536.73138" fill="none" stroke="#000" stroke-width="0.548671"/><path d="M291.11679,117.64519l7.32536.73138" fill="none" stroke="#000" stroke-width="0.548671"/><path d="M285.4863,120.5718l14.38709.82297-.11597,53.76724-14.50311,1.00585Z" fill="none" fill-opacity="0.84739" fill-rule="evenodd" stroke="url(#erFsvh9GBlp57-stroke)" stroke-width="0.639233" stroke-linecap="square"/><path d="M259.55306,119.0476c-.0326,10.46551,0,0-.0971,10.78901l.0646-.3235-.0646.3235-7.43572,7.62951-.0457,46.87803l7.57859-6.53166l21.98936-1.11414v-56.4441Z" fill="none" fill-opacity="0.84739" fill-rule="evenodd" stroke="#b70404" stroke-width="0.547404" stroke-linecap="square"/><path d="M144.89956,156.86375l-.0384-22.76321l5.82974.0335l6.31725-.0335-1.48896,3.77892c-1.03756,4.1774-1.24359,5.9479-1.06606,10.06142.40101,9.29178,6.38201,19.3708,15.77558,24.08821c5.71119,2.86813,10.20171,3.46902,18.43209,2.64969c2.33953-.2329,6.92848-.62557,10.11874-.91212c8.0453-.72264,10.26241-1.10429,13.85247-3.23291c1.99505-1.18292,5.42285-4.50821,6.97383-6.76532c3.55006-5.16629,5.72392-12.06141,5.72392-18.15525c0-3.29972-.79164-8.69397-1.93208-11.67552-.11528-.3014,12.78186-.12895,12.78186-.12895l13.77941.16914.38657,22.8381.0877,22.49531-53.45834.0537h-52.07536Z" fill="url(#erFsvh9GBlp59-fill)" fill-rule="evenodd" stroke-width="0.553874" stroke-linecap="square" stroke-linejoin="round"/><path d="M237.58059,127.14917l18.4825-.0402-6.10413,6.86888-26.54738-.15627Z" fill="#09daf7" fill-opacity="0.654902" fill-rule="evenodd" stroke-width="0.55477" stroke-linecap="square" stroke-linejoin="round"/><path d="M212.06415,108.97607c.0877-6.425.18127-8.33547.48272-8.81523c1.27256-2.025268,7.39476-1.708339,9.45226.22458.5781.5431.25406.30012.25224,6.70406-.001,3.56698-.10497,7.28293-.11014,8.24736l-.01,1.81044-5.22766-.008-4.95126.008Z" fill="url(#erFsvh9GBlp61-fill)" fill-rule="evenodd" stroke-width="0.55477" stroke-linecap="square" stroke-linejoin="round"/><path d="M250.34585,160.6786l-.3869-26.70075l3.00336-3.49475l3.10078-3.37413-.41815-35.957448c0,0,22.41951,2.475806,33.58122,4.056285l.99703.155718-.0919,6.115235-.0919,6.11523l10.05506,1.12147-.009,12.38008-14.89846-.85572c-.13535,19.92321.0728,34.79333-.24534,56.25481l15.09453-1.15603-.0333,1.48203-4.66118.29038c-6.09383.37963-27.72427,2.17316-31.41149,2.36336l-3.54837.18304-10.01451,8.61902c0,0-.025-12.91028-.0213-27.59746Zm9.2932,17.39236l22.17752-1.11091c-.31526-17.78272-.001-56.94885-.001-56.94885l-22.48877-1.25373-.1426,10.96417-7.16403,7.74448-.16929,47.14819Zm28.978-69.03863v-9.812244l-1.09919-.147643c-1.74143-.23391-21.84074-1.953122-22.83394-1.953122h-.89572v10.193969v10.19398l1.87509.15307c4.75368.38808,15.70142.91585,16.37936.78963.41533-.0773,1.45345-.0344,2.30694.0955s2.16283.25026,2.90964.2676l1.35782.0315Zm9.82809,9.29497c0-.14225-.26187-.26432-.58193-.27128s-1.89898-.15792-3.50872-.33548-2.98413-.23006-3.05421-.11667-.0332.2172.0818.23069s1.37309.17286,2.79558.35416c3.34365.42616,4.26746.45616,4.26746.13858Zm-36.12133-11.17058c.1218-7.200783.0899-10.186447-.11016-10.310092-.26902-.166261-3.64319-.55694-3.74258-.433332-.0262.03269-.0919,4.656654-.14564,10.275474l-.0978,10.21605l1.16386.15513c.64011.0853,1.52318.17261,1.96239.19397l.79853.0388Zm36.12133,8.32561c0-.14225-.0291-.25979-.0647-.26122-.0356-.001-1.57655-.1713-3.4244-.37752-2.14572-.23945-3.44943-.28525-3.60795-.12673s-.0193.25706.38545.27273c.34851.0135,1.79751.17286,3.21999.35416c3.41985.43587,3.49156.43871,3.49156.13858Zm-.14225-3.06312c-.13513-.11998-1.59712-.35276-3.24885-.51727-3.59663-.35823-3.85065-.36324-3.85065-.0759c0,.12276,1.07656.3377,2.39236.47766c3.18502.33878,5.009.38355,4.70714.11554Z" fill="#09d2f4" fill-opacity="0.560784" fill-rule="evenodd" stroke-width="0.554771" stroke-linecap="square" stroke-linejoin="round"/><path d="M252.2943,137.58006l7.41561-7.63024.11693-10.62061l21.45938,1.17114-.006,55.94626-21.83354,1.10056-7.18594,6.20318Z" fill="#09d3f6" fill-opacity="0.572549" fill-rule="evenodd" stroke-width="0.55477" stroke-linecap="square" stroke-linejoin="round"/><path d="M285.69508,148.58419c.0617-14.92348.10575-27.67842.10575-27.67842l13.75196.79377-.0265,26.52163c-.0145,14.50902-.0474,26.68641-.0474,26.68641l-13.89659.93006Z" fill="#09d9f6" fill-opacity="0.635294" fill-rule="evenodd" stroke-width="0.55477" stroke-linecap="square" stroke-linejoin="round"/><ellipse rx="1.16385" ry="1.03454" transform="translate(215.036 102.292)" fill="#f2f6f7" fill-rule="evenodd" stroke-width="0.567531" stroke-linecap="square" stroke-linejoin="round"/><path d="M144.68743,183.77732v-4.49913h52.83981h52.83982v4.49913v4.49911h-52.83982-52.83981Z" fill="#fdfa77" fill-opacity="0.623529" fill-rule="evenodd" stroke-width="0.327911"/><path d="M190.97977,88.166456c.003-.0024.10274-.03889.22248-.08139.63708-.22616.83506-.306604.84993-.345346.009-.02358-.0114-.042-.0627-.05642-.0465-.0131-.0978-.0079.89135-.0915c1.3092-.110723,4.04836-.303649,4.06566-.286353.003.0032-.007.0058-.0236.0058-.0387,0-.17776.04322-.18695.0581-.004.0064-.00053.01971.008.02952.0398.04794.15846.06871.94141.164746.2066.02536.5005.06399.65311.08589s.28477.03982.2937.03983.0133.003.01.0066c-.004.0036-.16303-.004-.35424-.01697-2.0118-.136374-4.54642-.06997-5.889.154287-.22883.03822-.52412.104846-.78925.178071-.39709.10967-.64835.171633-.62924.155176ZM179.51762,104.42578l.1191-14.569313l3.55276-.997707c0,0,10.08448-1.650534,8.73775-1.047522-.51734.231644-2.95064.907836-3.04501,1.687921-.14187,1.172882-.0797,3.83085-.15075,10.737831l-.0456,10.91744-1.0249,1.4514c-.67168.95118-1.41472,2.20545-2.24451,3.05158-.63603.64856-1.82743,1.6041-2.36944,1.60519-.40422.0008-1.28104.0307-1.77739.0798l-1.90213.18794Zm50.93204,13.57714c-1.72845-.86674-1.8801-.89504-4.79643-.895l-3.52171.0394-.0273-2.57289.14821-5.43225c0,0-.0461-5.10537-.003-6.30878.0498-1.3845.0698-2.04888.0698-2.04888-.16851-.31486-.9101-.834869-1.6474-1.178152-1.74454-.812263-5.11751-1.125372-6.7554-.381481-1.18178.536739-1.46586.974273-1.57811,1.916333l-.386,16.0061c0,0-3.85986.13261-3.95979.0823l-2.07814-1.77205c-1.32393-1.05527-2.97128-2.3973-3.04075-4.14877-.44433-11.20194.58258-19.399016.0279-22.191854-1.49008-1.407556-3.3707-1.346085-5.63559-1.609897-4.52758-.527371,21.32117-.870563,30.90048-.394294c12.8628.639516,22.70015,2.131928,26.32444,3.646249l1.22569.271415-.006,5.910034c.0314.756459.10274,5.027987.13152,9.752247.0168,2.76519.2022,6.23526.19813,8.69679l.0229,11.71948-18.4825.0402c.74071-2.30788-5.56778-8.28972-7.13093-9.14625Z" fill="#08d1f3" fill-opacity="0.501961" fill-rule="evenodd" stroke-width="0.009166"/><ellipse rx="7.137" ry="7.13239" transform="translate(241.745 104.369)" fill-opacity="0.84739" fill-rule="evenodd" stroke="#f6ee22" stroke-width="0.815181" stroke-linecap="square" stroke-linejoin="round" stroke-dasharray="3.26073,1.63036,0.815181,1.63036"/><path d="M223.27998,133.85166c-.21537-.52801-.84791-1.84427-1.1853-2.46652-2.82758-5.21483-7.05067-9.6773-12.72158-13.44269l-1.07368-.71292.71991-.032c1.12547-.0501,17.75526-.12371,18.5739-.0823c1.09537.0555,1.6121.2004,2.68872.75393.71256.36634,1.6871,1.14813,2.9675,2.38054c2.13128,2.05141,3.80071,4.21561,4.29908,5.5732.17796.48478.25046,1.21575.13046,1.31527-.0373.0308-3.25903,1.55774-7.15962,3.39308-5.32128,2.50384-7.09512,3.35846-7.1046,3.42296-.021.14284-.0409.1277-.13479-.10258Z" fill="url(#erFsvh9GBlp69-fill)" fill-rule="evenodd" stroke-width="0.113916"/><path d="M211.85096,117.73283c2.6616-1.73391,13.11408,11.32629,12.30754,14.89612" fill="none" stroke="url(#erFsvh9GBlp70-stroke)" stroke-width="0.787315"/><path d="M215.46305,117.69467c2.47729-1.61384,12.20591,10.54191,11.45522,13.86451" fill="none" stroke="url(#erFsvh9GBlp71-stroke)" stroke-width="0.732791"/><path d="M219.11287,117.65319c2.27693-1.48332,11.21875,9.68933,10.52877,12.74322" fill="none" stroke="url(#erFsvh9GBlp72-stroke)" stroke-width="0.673527"/><path d="M222.81933,117.60674c2.05253-1.33713,10.11312,8.73445,9.49115,11.48738" fill="none" stroke="url(#erFsvh9GBlp73-stroke)" stroke-width="0.60715"/><path d="M226.42675,117.56899c1.8702-1.21835,9.21472,7.95852,8.64801,10.46689" fill="none" stroke="url(#erFsvh9GBlp74-stroke)" stroke-width="0.553214"/><path d="M269.89555,140.33056l-4.605,9.95454l6.90685-.003-10.5969,12.47411c-.00009-.001,3.61939-9.38476,3.61939-9.38476l-3.86168-2.87307c-.32365-.2408,8.68735-10.5423,8.53734-10.16782Z" fill="#fdfa77" fill-opacity="0.623529" fill-rule="evenodd" stroke="#b70404" stroke-width="0.376615" stroke-linecap="square" stroke-linejoin="round"/></g></g></g></g></g></svg>
